<?xml version="1.0" encoding="UTF-8" standalone="no"?>
<!DOCTYPE svg PUBLIC "-//W3C//DTD SVG 1.1//EN"
 "http://www.w3.org/Graphics/SVG/1.1/DTD/svg11.dtd">
<!-- Generated by graphviz version 2.43.0 (0)
 -->
<!-- Title: %3 Pages: 1 -->
<svg width="677pt" height="620pt"
 viewBox="0.00 0.00 677.23 620.00" xmlns="http://www.w3.org/2000/svg" xmlns:xlink="http://www.w3.org/1999/xlink">
<g id="graph0" class="graph" transform="scale(1 1) rotate(0) translate(4 616)">
<title>%3</title>
<polygon fill="white" stroke="transparent" points="-4,4 -4,-616 673.23,-616 673.23,4 -4,4"/>
<!-- inputnode (utility) -->
<g id="node1" class="node">
<title>inputnode (utility)</title>
<ellipse fill="none" stroke="black" cx="94.89" cy="-594" rx="94.78" ry="18"/>
<text text-anchor="middle" x="94.89" y="-590.3" font-family="Times,serif" font-size="14.00">inputnode (utility)</text>
</g>
<!-- get_surfaces (io) -->
<g id="node2" class="node">
<title>get_surfaces (io)</title>
<ellipse fill="none" stroke="black" cx="329.89" cy="-522" rx="87.18" ry="18"/>
<text text-anchor="middle" x="329.89" y="-518.3" font-family="Times,serif" font-size="14.00">get_surfaces (io)</text>
</g>
<!-- inputnode (utility)&#45;&gt;get_surfaces (io) -->
<g id="edge1" class="edge">
<title>inputnode (utility)&#45;&gt;get_surfaces (io)</title>
<path fill="none" stroke="black" d="M143.58,-578.5C181.14,-567.31 233.17,-551.81 272.7,-540.04"/>
<polygon fill="black" stroke="black" points="273.88,-543.34 282.47,-537.13 271.88,-536.63 273.88,-543.34"/>
</g>
<!-- save_midthickness (io) -->
<g id="node3" class="node">
<title>save_midthickness (io)</title>
<ellipse fill="none" stroke="black" cx="251.89" cy="-378" rx="115.88" ry="18"/>
<text text-anchor="middle" x="251.89" y="-374.3" font-family="Times,serif" font-size="14.00">save_midthickness (io)</text>
</g>
<!-- inputnode (utility)&#45;&gt;save_midthickness (io) -->
<g id="edge2" class="edge">
<title>inputnode (utility)&#45;&gt;save_midthickness (io)</title>
<path fill="none" stroke="black" d="M91.64,-575.84C86.62,-543.89 80.73,-474.66 113.89,-432 127.35,-414.69 147.19,-403.03 167.65,-395.18"/>
<polygon fill="black" stroke="black" points="168.83,-398.48 177.08,-391.84 166.48,-391.88 168.83,-398.48"/>
</g>
<!-- fix_surfs (surf) -->
<g id="node4" class="node">
<title>fix_surfs (surf)</title>
<ellipse fill="none" stroke="black" cx="263.89" cy="-162" rx="77.99" ry="18"/>
<text text-anchor="middle" x="263.89" y="-158.3" font-family="Times,serif" font-size="14.00">fix_surfs (surf)</text>
</g>
<!-- inputnode (utility)&#45;&gt;fix_surfs (surf) -->
<g id="edge3" class="edge">
<title>inputnode (utility)&#45;&gt;fix_surfs (surf)</title>
<path fill="none" stroke="black" d="M87.2,-575.91C76.1,-549.62 56.89,-497.45 56.89,-451 56.89,-451 56.89,-451 56.89,-305 56.89,-234.61 139.28,-196.52 200.11,-177.99"/>
<polygon fill="black" stroke="black" points="201.43,-181.25 210.05,-175.07 199.46,-174.53 201.43,-181.25"/>
</g>
<!-- midthickness (freesurfer) -->
<g id="node5" class="node">
<title>midthickness (freesurfer)</title>
<ellipse fill="none" stroke="black" cx="251.89" cy="-450" rx="128.88" ry="18"/>
<text text-anchor="middle" x="251.89" y="-446.3" font-family="Times,serif" font-size="14.00">midthickness (freesurfer)</text>
</g>
<!-- get_surfaces (io)&#45;&gt;midthickness (freesurfer) -->
<g id="edge4" class="edge">
<title>get_surfaces (io)&#45;&gt;midthickness (freesurfer)</title>
<path fill="none" stroke="black" d="M311.01,-504.05C301.21,-495.26 289.09,-484.38 278.37,-474.76"/>
<polygon fill="black" stroke="black" points="280.65,-472.11 270.87,-468.03 275.97,-477.32 280.65,-472.11"/>
</g>
<!-- surface_list (utility) -->
<g id="node6" class="node">
<title>surface_list (utility)</title>
<ellipse fill="none" stroke="black" cx="263.89" cy="-306" rx="101.28" ry="18"/>
<text text-anchor="middle" x="263.89" y="-302.3" font-family="Times,serif" font-size="14.00">surface_list (utility)</text>
</g>
<!-- get_surfaces (io)&#45;&gt;surface_list (utility) -->
<g id="edge5" class="edge">
<title>get_surfaces (io)&#45;&gt;surface_list (utility)</title>
<path fill="none" stroke="black" d="M357.21,-504.66C369.65,-495.59 383.09,-483.08 389.89,-468 400.82,-443.77 378.92,-362.64 376.89,-360 364.8,-344.27 346.91,-333.02 328.91,-325.05"/>
<polygon fill="black" stroke="black" points="330.1,-321.75 319.52,-321.17 327.43,-328.22 330.1,-321.75"/>
</g>
<!-- surfmorph_list (utility) -->
<g id="node7" class="node">
<title>surfmorph_list (utility)</title>
<ellipse fill="none" stroke="black" cx="552.89" cy="-450" rx="116.18" ry="18"/>
<text text-anchor="middle" x="552.89" y="-446.3" font-family="Times,serif" font-size="14.00">surfmorph_list (utility)</text>
</g>
<!-- get_surfaces (io)&#45;&gt;surfmorph_list (utility) -->
<g id="edge6" class="edge">
<title>get_surfaces (io)&#45;&gt;surfmorph_list (utility)</title>
<path fill="none" stroke="black" d="M375.56,-506.67C409.83,-495.91 457.03,-481.09 494.12,-469.45"/>
<polygon fill="black" stroke="black" points="495.31,-472.74 503.81,-466.41 493.22,-466.06 495.31,-472.74"/>
</g>
<!-- save_midthickness (io)&#45;&gt;surface_list (utility) -->
<g id="edge7" class="edge">
<title>save_midthickness (io)&#45;&gt;surface_list (utility)</title>
<path fill="none" stroke="black" d="M254.86,-359.7C256.18,-351.98 257.77,-342.71 259.24,-334.11"/>
<polygon fill="black" stroke="black" points="262.72,-334.55 260.96,-324.1 255.82,-333.37 262.72,-334.55"/>
</g>
<!-- outputnode (utility) -->
<g id="node9" class="node">
<title>outputnode (utility)</title>
<ellipse fill="none" stroke="black" cx="390.89" cy="-18" rx="101.28" ry="18"/>
<text text-anchor="middle" x="390.89" y="-14.3" font-family="Times,serif" font-size="14.00">outputnode (utility)</text>
</g>
<!-- fix_surfs (surf)&#45;&gt;outputnode (utility) -->
<g id="edge8" class="edge">
<title>fix_surfs (surf)&#45;&gt;outputnode (utility)</title>
<path fill="none" stroke="black" d="M263.3,-143.75C263.52,-124.34 266.66,-92.8 282.89,-72 294.76,-56.78 312.13,-45.65 329.48,-37.63"/>
<polygon fill="black" stroke="black" points="331.29,-40.66 339.09,-33.49 328.52,-34.23 331.29,-40.66"/>
</g>
<!-- agg_surfaces (surf) -->
<g id="node10" class="node">
<title>agg_surfaces (surf)</title>
<ellipse fill="none" stroke="black" cx="390.89" cy="-90" rx="99.38" ry="18"/>
<text text-anchor="middle" x="390.89" y="-86.3" font-family="Times,serif" font-size="14.00">agg_surfaces (surf)</text>
</g>
<!-- fix_surfs (surf)&#45;&gt;agg_surfaces (surf) -->
<g id="edge9" class="edge">
<title>fix_surfs (surf)&#45;&gt;agg_surfaces (surf)</title>
<path fill="none" stroke="black" d="M292.71,-145.12C310.4,-135.37 333.27,-122.76 352.49,-112.17"/>
<polygon fill="black" stroke="black" points="354.24,-115.2 361.31,-107.31 350.86,-109.07 354.24,-115.2"/>
</g>
<!-- midthickness (freesurfer)&#45;&gt;save_midthickness (io) -->
<g id="edge10" class="edge">
<title>midthickness (freesurfer)&#45;&gt;save_midthickness (io)</title>
<path fill="none" stroke="black" d="M251.89,-431.7C251.89,-423.98 251.89,-414.71 251.89,-406.11"/>
<polygon fill="black" stroke="black" points="255.39,-406.1 251.89,-396.1 248.39,-406.1 255.39,-406.1"/>
</g>
<!-- fs2gii (freesurfer) -->
<g id="node8" class="node">
<title>fs2gii (freesurfer)</title>
<ellipse fill="none" stroke="black" cx="263.89" cy="-234" rx="92.88" ry="18"/>
<text text-anchor="middle" x="263.89" y="-230.3" font-family="Times,serif" font-size="14.00">fs2gii (freesurfer)</text>
</g>
<!-- surface_list (utility)&#45;&gt;fs2gii (freesurfer) -->
<g id="edge11" class="edge">
<title>surface_list (utility)&#45;&gt;fs2gii (freesurfer)</title>
<path fill="none" stroke="black" d="M263.89,-287.7C263.89,-279.98 263.89,-270.71 263.89,-262.11"/>
<polygon fill="black" stroke="black" points="267.39,-262.1 263.89,-252.1 260.39,-262.1 267.39,-262.1"/>
</g>
<!-- morphs2gii (freesurfer) -->
<g id="node11" class="node">
<title>morphs2gii (freesurfer)</title>
<ellipse fill="none" stroke="black" cx="517.89" cy="-162" rx="120.48" ry="18"/>
<text text-anchor="middle" x="517.89" y="-158.3" font-family="Times,serif" font-size="14.00">morphs2gii (freesurfer)</text>
</g>
<!-- surfmorph_list (utility)&#45;&gt;morphs2gii (freesurfer) -->
<g id="edge12" class="edge">
<title>surfmorph_list (utility)&#45;&gt;morphs2gii (freesurfer)</title>
<path fill="none" stroke="black" d="M550.81,-431.97C544.96,-384.19 528.37,-248.62 521.23,-190.27"/>
<polygon fill="black" stroke="black" points="524.7,-189.81 520.01,-180.31 517.75,-190.66 524.7,-189.81"/>
</g>
<!-- fs2gii (freesurfer)&#45;&gt;fix_surfs (surf) -->
<g id="edge13" class="edge">
<title>fs2gii (freesurfer)&#45;&gt;fix_surfs (surf)</title>
<path fill="none" stroke="black" d="M263.89,-215.7C263.89,-207.98 263.89,-198.71 263.89,-190.11"/>
<polygon fill="black" stroke="black" points="267.39,-190.1 263.89,-180.1 260.39,-190.1 267.39,-190.1"/>
</g>
<!-- agg_surfaces (surf)&#45;&gt;outputnode (utility) -->
<g id="edge14" class="edge">
<title>agg_surfaces (surf)&#45;&gt;outputnode (utility)</title>
<path fill="none" stroke="black" d="M390.89,-71.7C390.89,-63.98 390.89,-54.71 390.89,-46.11"/>
<polygon fill="black" stroke="black" points="394.39,-46.1 390.89,-36.1 387.39,-46.1 394.39,-46.1"/>
</g>
<!-- morphs2gii (freesurfer)&#45;&gt;outputnode (utility) -->
<g id="edge15" class="edge">
<title>morphs2gii (freesurfer)&#45;&gt;outputnode (utility)</title>
<path fill="none" stroke="black" d="M518.48,-143.75C518.26,-124.34 515.12,-92.8 498.89,-72 487.02,-56.78 469.65,-45.65 452.3,-37.63"/>
<polygon fill="black" stroke="black" points="453.27,-34.23 442.7,-33.49 450.49,-40.66 453.27,-34.23"/>
</g>
<!-- morphs2gii (freesurfer)&#45;&gt;agg_surfaces (surf) -->
<g id="edge16" class="edge">
<title>morphs2gii (freesurfer)&#45;&gt;agg_surfaces (surf)</title>
<path fill="none" stroke="black" d="M487.79,-144.41C470.27,-134.75 448,-122.48 429.23,-112.13"/>
<polygon fill="black" stroke="black" points="430.78,-108.99 420.33,-107.23 427.4,-115.12 430.78,-108.99"/>
</g>
</g>
</svg>
