<?xml version="1.0" encoding="UTF-8" standalone="no"?>
<!DOCTYPE svg PUBLIC "-//W3C//DTD SVG 1.1//EN"
 "http://www.w3.org/Graphics/SVG/1.1/DTD/svg11.dtd">
<!-- Generated by graphviz version 2.43.0 (0)
 -->
<!-- Title: %3 Pages: 1 -->
<svg width="677pt" height="548pt"
 viewBox="0.00 0.00 677.23 548.00" xmlns="http://www.w3.org/2000/svg" xmlns:xlink="http://www.w3.org/1999/xlink">
<g id="graph0" class="graph" transform="scale(1 1) rotate(0) translate(4 544)">
<title>%3</title>
<polygon fill="white" stroke="transparent" points="-4,4 -4,-544 673.23,-544 673.23,4 -4,4"/>
<!-- inputnode (utility) -->
<g id="node1" class="node">
<title>inputnode (utility)</title>
<ellipse fill="none" stroke="black" cx="94.89" cy="-522" rx="94.78" ry="18"/>
<text text-anchor="middle" x="94.89" y="-518.3" font-family="Times,serif" font-size="14.00">inputnode (utility)</text>
</g>
<!-- get_surfaces (io) -->
<g id="node2" class="node">
<title>get_surfaces (io)</title>
<ellipse fill="none" stroke="black" cx="329.89" cy="-450" rx="87.18" ry="18"/>
<text text-anchor="middle" x="329.89" y="-446.3" font-family="Times,serif" font-size="14.00">get_surfaces (io)</text>
</g>
<!-- inputnode (utility)&#45;&gt;get_surfaces (io) -->
<g id="edge1" class="edge">
<title>inputnode (utility)&#45;&gt;get_surfaces (io)</title>
<path fill="none" stroke="black" d="M143.58,-506.5C181.14,-495.31 233.17,-479.81 272.7,-468.04"/>
<polygon fill="black" stroke="black" points="273.88,-471.34 282.47,-465.13 271.88,-464.63 273.88,-471.34"/>
</g>
<!-- save_midthickness (io) -->
<g id="node3" class="node">
<title>save_midthickness (io)</title>
<ellipse fill="none" stroke="black" cx="251.89" cy="-306" rx="115.88" ry="18"/>
<text text-anchor="middle" x="251.89" y="-302.3" font-family="Times,serif" font-size="14.00">save_midthickness (io)</text>
</g>
<!-- inputnode (utility)&#45;&gt;save_midthickness (io) -->
<g id="edge2" class="edge">
<title>inputnode (utility)&#45;&gt;save_midthickness (io)</title>
<path fill="none" stroke="black" d="M91.64,-503.84C86.62,-471.89 80.73,-402.66 113.89,-360 127.35,-342.69 147.19,-331.03 167.65,-323.18"/>
<polygon fill="black" stroke="black" points="168.83,-326.48 177.08,-319.84 166.48,-319.88 168.83,-326.48"/>
</g>
<!-- fix_surfs (surf) -->
<g id="node4" class="node">
<title>fix_surfs (surf)</title>
<ellipse fill="none" stroke="black" cx="266.89" cy="-90" rx="77.99" ry="18"/>
<text text-anchor="middle" x="266.89" y="-86.3" font-family="Times,serif" font-size="14.00">fix_surfs (surf)</text>
</g>
<!-- inputnode (utility)&#45;&gt;fix_surfs (surf) -->
<g id="edge3" class="edge">
<title>inputnode (utility)&#45;&gt;fix_surfs (surf)</title>
<path fill="none" stroke="black" d="M87.2,-503.91C76.1,-477.62 56.89,-425.45 56.89,-379 56.89,-379 56.89,-379 56.89,-233 56.89,-161.88 140.58,-123.96 202.29,-105.67"/>
<polygon fill="black" stroke="black" points="203.34,-109.01 211.99,-102.9 201.41,-102.28 203.34,-109.01"/>
</g>
<!-- midthickness (freesurfer) -->
<g id="node5" class="node">
<title>midthickness (freesurfer)</title>
<ellipse fill="none" stroke="black" cx="251.89" cy="-378" rx="128.88" ry="18"/>
<text text-anchor="middle" x="251.89" y="-374.3" font-family="Times,serif" font-size="14.00">midthickness (freesurfer)</text>
</g>
<!-- get_surfaces (io)&#45;&gt;midthickness (freesurfer) -->
<g id="edge4" class="edge">
<title>get_surfaces (io)&#45;&gt;midthickness (freesurfer)</title>
<path fill="none" stroke="black" d="M311.01,-432.05C301.21,-423.26 289.09,-412.38 278.37,-402.76"/>
<polygon fill="black" stroke="black" points="280.65,-400.11 270.87,-396.03 275.97,-405.32 280.65,-400.11"/>
</g>
<!-- surface_list (utility) -->
<g id="node6" class="node">
<title>surface_list (utility)</title>
<ellipse fill="none" stroke="black" cx="266.89" cy="-234" rx="101.28" ry="18"/>
<text text-anchor="middle" x="266.89" y="-230.3" font-family="Times,serif" font-size="14.00">surface_list (utility)</text>
</g>
<!-- get_surfaces (io)&#45;&gt;surface_list (utility) -->
<g id="edge5" class="edge">
<title>get_surfaces (io)&#45;&gt;surface_list (utility)</title>
<path fill="none" stroke="black" d="M357.21,-432.66C369.65,-423.59 383.09,-411.08 389.89,-396 400.82,-371.78 378.92,-290.66 376.89,-288 365.2,-272.62 347.89,-261.48 330.45,-253.5"/>
<polygon fill="black" stroke="black" points="331.35,-250.08 320.78,-249.39 328.61,-256.52 331.35,-250.08"/>
</g>
<!-- surfmorph_list (utility) -->
<g id="node7" class="node">
<title>surfmorph_list (utility)</title>
<ellipse fill="none" stroke="black" cx="552.89" cy="-378" rx="116.18" ry="18"/>
<text text-anchor="middle" x="552.89" y="-374.3" font-family="Times,serif" font-size="14.00">surfmorph_list (utility)</text>
</g>
<!-- get_surfaces (io)&#45;&gt;surfmorph_list (utility) -->
<g id="edge6" class="edge">
<title>get_surfaces (io)&#45;&gt;surfmorph_list (utility)</title>
<path fill="none" stroke="black" d="M375.56,-434.67C409.83,-423.91 457.03,-409.09 494.12,-397.45"/>
<polygon fill="black" stroke="black" points="495.31,-400.74 503.81,-394.41 493.22,-394.06 495.31,-400.74"/>
</g>
<!-- save_midthickness (io)&#45;&gt;surface_list (utility) -->
<g id="edge7" class="edge">
<title>save_midthickness (io)&#45;&gt;surface_list (utility)</title>
<path fill="none" stroke="black" d="M255.6,-287.7C257.25,-279.98 259.24,-270.71 261.08,-262.11"/>
<polygon fill="black" stroke="black" points="264.55,-262.62 263.23,-252.1 257.71,-261.15 264.55,-262.62"/>
</g>
<!-- outputnode (utility) -->
<g id="node9" class="node">
<title>outputnode (utility)</title>
<ellipse fill="none" stroke="black" cx="326.89" cy="-18" rx="101.28" ry="18"/>
<text text-anchor="middle" x="326.89" y="-14.3" font-family="Times,serif" font-size="14.00">outputnode (utility)</text>
</g>
<!-- fix_surfs (surf)&#45;&gt;outputnode (utility) -->
<g id="edge8" class="edge">
<title>fix_surfs (surf)&#45;&gt;outputnode (utility)</title>
<path fill="none" stroke="black" d="M281.42,-72.05C288.6,-63.67 297.43,-53.38 305.38,-44.1"/>
<polygon fill="black" stroke="black" points="308.23,-46.15 312.08,-36.28 302.92,-41.59 308.23,-46.15"/>
</g>
<!-- midthickness (freesurfer)&#45;&gt;save_midthickness (io) -->
<g id="edge9" class="edge">
<title>midthickness (freesurfer)&#45;&gt;save_midthickness (io)</title>
<path fill="none" stroke="black" d="M251.89,-359.7C251.89,-351.98 251.89,-342.71 251.89,-334.11"/>
<polygon fill="black" stroke="black" points="255.39,-334.1 251.89,-324.1 248.39,-334.1 255.39,-334.1"/>
</g>
<!-- fs2gii (freesurfer) -->
<g id="node8" class="node">
<title>fs2gii (freesurfer)</title>
<ellipse fill="none" stroke="black" cx="266.89" cy="-162" rx="92.88" ry="18"/>
<text text-anchor="middle" x="266.89" y="-158.3" font-family="Times,serif" font-size="14.00">fs2gii (freesurfer)</text>
</g>
<!-- surface_list (utility)&#45;&gt;fs2gii (freesurfer) -->
<g id="edge10" class="edge">
<title>surface_list (utility)&#45;&gt;fs2gii (freesurfer)</title>
<path fill="none" stroke="black" d="M266.89,-215.7C266.89,-207.98 266.89,-198.71 266.89,-190.11"/>
<polygon fill="black" stroke="black" points="270.39,-190.1 266.89,-180.1 263.39,-190.1 270.39,-190.1"/>
</g>
<!-- morphs2gii (freesurfer) -->
<g id="node10" class="node">
<title>morphs2gii (freesurfer)</title>
<ellipse fill="none" stroke="black" cx="536.89" cy="-234" rx="120.48" ry="18"/>
<text text-anchor="middle" x="536.89" y="-230.3" font-family="Times,serif" font-size="14.00">morphs2gii (freesurfer)</text>
</g>
<!-- surfmorph_list (utility)&#45;&gt;morphs2gii (freesurfer) -->
<g id="edge11" class="edge">
<title>surfmorph_list (utility)&#45;&gt;morphs2gii (freesurfer)</title>
<path fill="none" stroke="black" d="M550.96,-359.87C548.23,-335.67 543.23,-291.21 539.98,-262.39"/>
<polygon fill="black" stroke="black" points="543.43,-261.73 538.83,-252.19 536.47,-262.52 543.43,-261.73"/>
</g>
<!-- fs2gii (freesurfer)&#45;&gt;fix_surfs (surf) -->
<g id="edge12" class="edge">
<title>fs2gii (freesurfer)&#45;&gt;fix_surfs (surf)</title>
<path fill="none" stroke="black" d="M266.89,-143.7C266.89,-135.98 266.89,-126.71 266.89,-118.11"/>
<polygon fill="black" stroke="black" points="270.39,-118.1 266.89,-108.1 263.39,-118.1 270.39,-118.1"/>
</g>
<!-- morphs2gii (freesurfer)&#45;&gt;outputnode (utility) -->
<g id="edge13" class="edge">
<title>morphs2gii (freesurfer)&#45;&gt;outputnode (utility)</title>
<path fill="none" stroke="black" d="M520.06,-215.85C482.88,-177.96 393.62,-87 350.72,-43.28"/>
<polygon fill="black" stroke="black" points="353.01,-40.62 343.51,-35.94 348.02,-45.52 353.01,-40.62"/>
</g>
</g>
</svg>
