<?xml version="1.0" encoding="UTF-8" standalone="no"?>
<!DOCTYPE svg PUBLIC "-//W3C//DTD SVG 1.1//EN"
 "http://www.w3.org/Graphics/SVG/1.1/DTD/svg11.dtd">
<!-- Generated by graphviz version 2.43.0 (0)
 -->
<!-- Title: %3 Pages: 1 -->
<svg width="1062pt" height="836pt"
 viewBox="0.00 0.00 1062.00 836.00" xmlns="http://www.w3.org/2000/svg" xmlns:xlink="http://www.w3.org/1999/xlink">
<g id="graph0" class="graph" transform="scale(1 1) rotate(0) translate(4 832)">
<title>%3</title>
<polygon fill="white" stroke="transparent" points="-4,4 -4,-832 1058,-832 1058,4 -4,4"/>
<!-- outputnode (utility) -->
<g id="node1" class="node">
<title>outputnode (utility)</title>
<ellipse fill="none" stroke="black" cx="621" cy="-90" rx="101.28" ry="18"/>
<text text-anchor="middle" x="621" y="-86.3" font-family="Times,serif" font-size="14.00">outputnode (utility)</text>
</g>
<!-- anat_reports_wf -->
<g id="node2" class="node">
<title>anat_reports_wf</title>
<ellipse fill="none" stroke="black" cx="152" cy="-18" rx="85.29" ry="18"/>
<text text-anchor="middle" x="152" y="-14.3" font-family="Times,serif" font-size="14.00">anat_reports_wf</text>
</g>
<!-- outputnode (utility)&#45;&gt;anat_reports_wf -->
<g id="edge1" class="edge">
<title>outputnode (utility)&#45;&gt;anat_reports_wf</title>
<path fill="none" stroke="black" d="M546.17,-77.83C459.38,-64.88 317.04,-43.63 229.24,-30.53"/>
<polygon fill="black" stroke="black" points="229.75,-27.07 219.34,-29.05 228.72,-33.99 229.75,-27.07"/>
</g>
<!-- anat_derivatives_wf -->
<g id="node3" class="node">
<title>anat_derivatives_wf</title>
<ellipse fill="none" stroke="black" cx="907" cy="-18" rx="102.88" ry="18"/>
<text text-anchor="middle" x="907" y="-14.3" font-family="Times,serif" font-size="14.00">anat_derivatives_wf</text>
</g>
<!-- outputnode (utility)&#45;&gt;anat_derivatives_wf -->
<g id="edge2" class="edge">
<title>outputnode (utility)&#45;&gt;anat_derivatives_wf</title>
<path fill="none" stroke="black" d="M677.85,-75.09C724.48,-63.67 790.61,-47.49 839.85,-35.44"/>
<polygon fill="black" stroke="black" points="840.89,-38.78 849.77,-33.01 839.23,-31.98 840.89,-38.78"/>
</g>
<!-- inputnode (utility) -->
<g id="node4" class="node">
<title>inputnode (utility)</title>
<ellipse fill="none" stroke="black" cx="360" cy="-810" rx="94.78" ry="18"/>
<text text-anchor="middle" x="360" y="-806.3" font-family="Times,serif" font-size="14.00">inputnode (utility)</text>
</g>
<!-- inputnode (utility)&#45;&gt;anat_reports_wf -->
<g id="edge5" class="edge">
<title>inputnode (utility)&#45;&gt;anat_reports_wf</title>
<path fill="none" stroke="black" d="M279.14,-800.52C230.2,-793.21 167.52,-779.89 116,-756 57.05,-728.67 0,-731.98 0,-667 0,-667 0,-667 0,-161 0,-115.41 18.17,-103.63 51,-72 65.44,-58.09 84.25,-46.89 101.73,-38.44"/>
<polygon fill="black" stroke="black" points="103.66,-41.4 111.26,-34.02 100.71,-35.05 103.66,-41.4"/>
</g>
<!-- anat_template_wf -->
<g id="node5" class="node">
<title>anat_template_wf</title>
<ellipse fill="none" stroke="black" cx="218" cy="-738" rx="92.88" ry="18"/>
<text text-anchor="middle" x="218" y="-734.3" font-family="Times,serif" font-size="14.00">anat_template_wf</text>
</g>
<!-- inputnode (utility)&#45;&gt;anat_template_wf -->
<g id="edge3" class="edge">
<title>inputnode (utility)&#45;&gt;anat_template_wf</title>
<path fill="none" stroke="black" d="M327.42,-792.94C307.22,-782.98 281.07,-770.09 259.41,-759.41"/>
<polygon fill="black" stroke="black" points="260.94,-756.27 250.43,-754.98 257.85,-762.55 260.94,-756.27"/>
</g>
<!-- anat_norm_wf -->
<g id="node6" class="node">
<title>anat_norm_wf</title>
<ellipse fill="none" stroke="black" cx="346" cy="-162" rx="75.29" ry="18"/>
<text text-anchor="middle" x="346" y="-158.3" font-family="Times,serif" font-size="14.00">anat_norm_wf</text>
</g>
<!-- inputnode (utility)&#45;&gt;anat_norm_wf -->
<g id="edge4" class="edge">
<title>inputnode (utility)&#45;&gt;anat_norm_wf</title>
<path fill="none" stroke="black" d="M358.14,-791.58C354.94,-762.02 348.06,-700.16 341,-648 336.66,-615.92 340.02,-606.78 330,-576 299.48,-482.25 228,-477.6 228,-379 228,-379 228,-379 228,-305 228,-252.7 275.94,-209.38 310.71,-184.84"/>
<polygon fill="black" stroke="black" points="312.95,-187.55 319.22,-179.01 308.99,-181.77 312.95,-187.55"/>
</g>
<!-- fs_isrunning (utility) -->
<g id="node7" class="node">
<title>fs_isrunning (utility)</title>
<ellipse fill="none" stroke="black" cx="673" cy="-666" rx="105.08" ry="18"/>
<text text-anchor="middle" x="673" y="-662.3" font-family="Times,serif" font-size="14.00">fs_isrunning (utility)</text>
</g>
<!-- inputnode (utility)&#45;&gt;fs_isrunning (utility) -->
<g id="edge6" class="edge">
<title>inputnode (utility)&#45;&gt;fs_isrunning (utility)</title>
<path fill="none" stroke="black" d="M394.99,-793.12C452.2,-767.17 565.64,-715.71 628.49,-687.19"/>
<polygon fill="black" stroke="black" points="630.09,-690.31 637.75,-682.99 627.2,-683.94 630.09,-690.31"/>
</g>
<!-- surface_recon_wf -->
<g id="node8" class="node">
<title>surface_recon_wf</title>
<ellipse fill="none" stroke="black" cx="673" cy="-522" rx="90.98" ry="18"/>
<text text-anchor="middle" x="673" y="-518.3" font-family="Times,serif" font-size="14.00">surface_recon_wf</text>
</g>
<!-- inputnode (utility)&#45;&gt;surface_recon_wf -->
<g id="edge7" class="edge">
<title>inputnode (utility)&#45;&gt;surface_recon_wf</title>
<path fill="none" stroke="black" d="M432.67,-798.32C542.99,-780.46 744.45,-740.79 787,-684 823.56,-635.2 754.14,-576.42 708.46,-545.13"/>
<polygon fill="black" stroke="black" points="710.21,-542.09 699.96,-539.43 706.32,-547.91 710.21,-542.09"/>
</g>
<!-- anat_template_wf&#45;&gt;outputnode (utility) -->
<g id="edge9" class="edge">
<title>anat_template_wf&#45;&gt;outputnode (utility)</title>
<path fill="none" stroke="black" d="M158.81,-724.02C135.76,-716.11 111.08,-703.59 95,-684 69.34,-652.73 76,-635.45 76,-595 76,-595 76,-595 76,-233 76,-169.42 129.36,-168.56 188,-144 245.41,-119.96 407.6,-104.94 516.35,-97.27"/>
<polygon fill="black" stroke="black" points="516.64,-100.76 526.38,-96.57 516.16,-93.77 516.64,-100.76"/>
</g>
<!-- anat_template_wf&#45;&gt;anat_reports_wf -->
<g id="edge10" class="edge">
<title>anat_template_wf&#45;&gt;anat_reports_wf</title>
<path fill="none" stroke="black" d="M151.63,-725.25C124.38,-717.5 94.29,-704.78 73,-684 42.58,-654.31 38,-637.5 38,-595 38,-595 38,-595 38,-161 38,-109.41 84.31,-65.9 117.9,-41.12"/>
<polygon fill="black" stroke="black" points="120.04,-43.9 126.13,-35.24 115.96,-38.21 120.04,-43.9"/>
</g>
<!-- anat_template_wf&#45;&gt;anat_derivatives_wf -->
<g id="edge11" class="edge">
<title>anat_template_wf&#45;&gt;anat_derivatives_wf</title>
<path fill="none" stroke="black" d="M274.86,-723.6C401.54,-692.16 713.91,-605.73 944,-468 997.96,-435.7 1054,-441.89 1054,-379 1054,-379 1054,-379 1054,-161 1054,-103.86 995.83,-62.41 952.67,-39.53"/>
<polygon fill="black" stroke="black" points="954.21,-36.39 943.72,-34.93 951.01,-42.61 954.21,-36.39"/>
</g>
<!-- anat_validate (header) -->
<g id="node9" class="node">
<title>anat_validate (header)</title>
<ellipse fill="none" stroke="black" cx="218" cy="-666" rx="114.28" ry="18"/>
<text text-anchor="middle" x="218" y="-662.3" font-family="Times,serif" font-size="14.00">anat_validate (header)</text>
</g>
<!-- anat_template_wf&#45;&gt;anat_validate (header) -->
<g id="edge8" class="edge">
<title>anat_template_wf&#45;&gt;anat_validate (header)</title>
<path fill="none" stroke="black" d="M218,-719.7C218,-711.98 218,-702.71 218,-694.11"/>
<polygon fill="black" stroke="black" points="221.5,-694.1 218,-684.1 214.5,-694.1 221.5,-694.1"/>
</g>
<!-- anat_norm_wf&#45;&gt;outputnode (utility) -->
<g id="edge12" class="edge">
<title>anat_norm_wf&#45;&gt;outputnode (utility)</title>
<path fill="none" stroke="black" d="M395.48,-148.4C440.19,-137.03 506.3,-120.2 555.4,-107.7"/>
<polygon fill="black" stroke="black" points="556.46,-111.04 565.29,-105.18 554.74,-104.26 556.46,-111.04"/>
</g>
<!-- anat_norm_wf&#45;&gt;anat_reports_wf -->
<g id="edge13" class="edge">
<title>anat_norm_wf&#45;&gt;anat_reports_wf</title>
<path fill="none" stroke="black" d="M323.75,-144.71C289.14,-119.38 222.33,-70.48 183.01,-41.7"/>
<polygon fill="black" stroke="black" points="184.73,-38.62 174.59,-35.54 180.59,-44.27 184.73,-38.62"/>
</g>
<!-- anat_norm_wf&#45;&gt;anat_derivatives_wf -->
<g id="edge14" class="edge">
<title>anat_norm_wf&#45;&gt;anat_derivatives_wf</title>
<path fill="none" stroke="black" d="M369.36,-144.84C400.27,-124.32 457.13,-89.48 511,-72 604.64,-41.61 716.17,-28.62 796.97,-23.09"/>
<polygon fill="black" stroke="black" points="797.41,-26.57 807.16,-22.42 796.96,-19.58 797.41,-26.57"/>
</g>
<!-- fs_isrunning (utility)&#45;&gt;surface_recon_wf -->
<g id="edge15" class="edge">
<title>fs_isrunning (utility)&#45;&gt;surface_recon_wf</title>
<path fill="none" stroke="black" d="M673,-647.87C673,-623.67 673,-579.21 673,-550.39"/>
<polygon fill="black" stroke="black" points="676.5,-550.19 673,-540.19 669.5,-550.19 676.5,-550.19"/>
</g>
<!-- surface_recon_wf&#45;&gt;outputnode (utility) -->
<g id="edge17" class="edge">
<title>surface_recon_wf&#45;&gt;outputnode (utility)</title>
<path fill="none" stroke="black" d="M707.98,-505.18C750.32,-483.35 816,-439.7 816,-379 816,-379 816,-379 816,-305 816,-229.53 814.69,-198.04 762,-144 744.83,-126.39 721.24,-114.56 698.27,-106.65"/>
<polygon fill="black" stroke="black" points="699.07,-103.23 688.48,-103.49 696.92,-109.89 699.07,-103.23"/>
</g>
<!-- surface_recon_wf&#45;&gt;anat_reports_wf -->
<g id="edge21" class="edge">
<title>surface_recon_wf&#45;&gt;anat_reports_wf</title>
<path fill="none" stroke="black" d="M586.55,-516.35C534.38,-510.44 468.15,-497.25 416,-468 301.36,-403.71 277.71,-366.97 214,-252 176.23,-183.84 160.61,-91.61 154.89,-46.35"/>
<polygon fill="black" stroke="black" points="158.34,-45.67 153.68,-36.15 151.39,-46.5 158.34,-45.67"/>
</g>
<!-- surface_recon_wf&#45;&gt;anat_derivatives_wf -->
<g id="edge22" class="edge">
<title>surface_recon_wf&#45;&gt;anat_derivatives_wf</title>
<path fill="none" stroke="black" d="M734.72,-508.66C833.47,-487.12 1016,-439.18 1016,-379 1016,-379 1016,-379 1016,-161 1016,-110.5 972.09,-66.9 940.01,-41.79"/>
<polygon fill="black" stroke="black" points="941.82,-38.76 931.73,-35.51 937.58,-44.34 941.82,-38.76"/>
</g>
<!-- applyrefined (fsl) -->
<g id="node11" class="node">
<title>applyrefined (fsl)</title>
<ellipse fill="none" stroke="black" cx="515" cy="-450" rx="89.88" ry="18"/>
<text text-anchor="middle" x="515" y="-446.3" font-family="Times,serif" font-size="14.00">applyrefined (fsl)</text>
</g>
<!-- surface_recon_wf&#45;&gt;applyrefined (fsl) -->
<g id="edge16" class="edge">
<title>surface_recon_wf&#45;&gt;applyrefined (fsl)</title>
<path fill="none" stroke="black" d="M637.54,-505.29C614.47,-495.07 584.19,-481.65 559.5,-470.72"/>
<polygon fill="black" stroke="black" points="560.9,-467.51 550.34,-466.66 558.07,-473.91 560.9,-467.51"/>
</g>
<!-- buffernode (utility) -->
<g id="node12" class="node">
<title>buffernode (utility)</title>
<ellipse fill="none" stroke="black" cx="515" cy="-378" rx="98.58" ry="18"/>
<text text-anchor="middle" x="515" y="-374.3" font-family="Times,serif" font-size="14.00">buffernode (utility)</text>
</g>
<!-- surface_recon_wf&#45;&gt;buffernode (utility) -->
<g id="edge20" class="edge">
<title>surface_recon_wf&#45;&gt;buffernode (utility)</title>
<path fill="none" stroke="black" d="M664.87,-503.76C655.03,-484.36 636.89,-452.84 614,-432 599.4,-418.71 580.87,-407.65 563.79,-399.12"/>
<polygon fill="black" stroke="black" points="565.02,-395.83 554.49,-394.65 561.98,-402.14 565.02,-395.83"/>
</g>
<!-- anat_ribbon_wf -->
<g id="node16" class="node">
<title>anat_ribbon_wf</title>
<ellipse fill="none" stroke="black" cx="907" cy="-162" rx="81.49" ry="18"/>
<text text-anchor="middle" x="907" y="-158.3" font-family="Times,serif" font-size="14.00">anat_ribbon_wf</text>
</g>
<!-- surface_recon_wf&#45;&gt;anat_ribbon_wf -->
<g id="edge18" class="edge">
<title>surface_recon_wf&#45;&gt;anat_ribbon_wf</title>
<path fill="none" stroke="black" d="M733.46,-508.54C797.36,-491.43 889,-453.83 889,-379 889,-379 889,-379 889,-305 889,-264.9 896.15,-218.92 901.44,-190.42"/>
<polygon fill="black" stroke="black" points="904.92,-190.88 903.36,-180.4 898.04,-189.56 904.92,-190.88"/>
</g>
<!-- sphere_reg_wf -->
<g id="node17" class="node">
<title>sphere_reg_wf</title>
<ellipse fill="none" stroke="black" cx="710" cy="-378" rx="77.99" ry="18"/>
<text text-anchor="middle" x="710" y="-374.3" font-family="Times,serif" font-size="14.00">sphere_reg_wf</text>
</g>
<!-- surface_recon_wf&#45;&gt;sphere_reg_wf -->
<g id="edge19" class="edge">
<title>surface_recon_wf&#45;&gt;sphere_reg_wf</title>
<path fill="none" stroke="black" d="M677.46,-503.87C683.8,-479.56 695.46,-434.82 702.96,-406.01"/>
<polygon fill="black" stroke="black" points="706.39,-406.75 705.52,-396.19 699.61,-404.98 706.39,-406.75"/>
</g>
<!-- anat_validate (header)&#45;&gt;surface_recon_wf -->
<g id="edge24" class="edge">
<title>anat_validate (header)&#45;&gt;surface_recon_wf</title>
<path fill="none" stroke="black" d="M267.13,-649.67C352.29,-623.09 526.82,-568.62 616.72,-540.56"/>
<polygon fill="black" stroke="black" points="617.96,-543.84 626.46,-537.52 615.88,-537.16 617.96,-543.84"/>
</g>
<!-- brain_extraction_wf -->
<g id="node10" class="node">
<title>brain_extraction_wf</title>
<ellipse fill="none" stroke="black" cx="218" cy="-594" rx="102.88" ry="18"/>
<text text-anchor="middle" x="218" y="-590.3" font-family="Times,serif" font-size="14.00">brain_extraction_wf</text>
</g>
<!-- anat_validate (header)&#45;&gt;brain_extraction_wf -->
<g id="edge23" class="edge">
<title>anat_validate (header)&#45;&gt;brain_extraction_wf</title>
<path fill="none" stroke="black" d="M218,-647.7C218,-639.98 218,-630.71 218,-622.11"/>
<polygon fill="black" stroke="black" points="221.5,-622.1 218,-612.1 214.5,-622.1 221.5,-622.1"/>
</g>
<!-- brain_extraction_wf&#45;&gt;outputnode (utility) -->
<g id="edge25" class="edge">
<title>brain_extraction_wf&#45;&gt;outputnode (utility)</title>
<path fill="none" stroke="black" d="M194.66,-576.43C164,-552.53 114,-505.24 114,-451 114,-451 114,-451 114,-305 114,-207.8 173.8,-184.83 262,-144 306.8,-123.26 431.28,-108.05 521.1,-99.37"/>
<polygon fill="black" stroke="black" points="521.7,-102.83 531.32,-98.4 521.03,-95.86 521.7,-102.83"/>
</g>
<!-- brain_extraction_wf&#45;&gt;anat_norm_wf -->
<g id="edge26" class="edge">
<title>brain_extraction_wf&#45;&gt;anat_norm_wf</title>
<path fill="none" stroke="black" d="M204,-575.82C184.63,-550.26 152,-499.93 152,-451 152,-451 152,-451 152,-377 152,-300.32 160.17,-270.6 214,-216 232.13,-197.61 257.48,-185.4 281.12,-177.39"/>
<polygon fill="black" stroke="black" points="282.31,-180.68 290.78,-174.31 280.19,-174.01 282.31,-180.68"/>
</g>
<!-- brain_extraction_wf&#45;&gt;surface_recon_wf -->
<g id="edge27" class="edge">
<title>brain_extraction_wf&#45;&gt;surface_recon_wf</title>
<path fill="none" stroke="black" d="M292.37,-581.56C375.18,-568.82 508.5,-548.31 593.37,-535.25"/>
<polygon fill="black" stroke="black" points="594.13,-538.68 603.48,-533.7 593.06,-531.76 594.13,-538.68"/>
</g>
<!-- brain_extraction_wf&#45;&gt;applyrefined (fsl) -->
<g id="edge28" class="edge">
<title>brain_extraction_wf&#45;&gt;applyrefined (fsl)</title>
<path fill="none" stroke="black" d="M251.78,-576.85C306.19,-550.84 413.13,-499.71 472.59,-471.28"/>
<polygon fill="black" stroke="black" points="474.19,-474.39 481.71,-466.92 471.17,-468.07 474.19,-474.39"/>
</g>
<!-- applyrefined (fsl)&#45;&gt;buffernode (utility) -->
<g id="edge29" class="edge">
<title>applyrefined (fsl)&#45;&gt;buffernode (utility)</title>
<path fill="none" stroke="black" d="M515,-431.7C515,-423.98 515,-414.71 515,-406.11"/>
<polygon fill="black" stroke="black" points="518.5,-406.1 515,-396.1 511.5,-406.1 518.5,-406.1"/>
</g>
<!-- buffernode (utility)&#45;&gt;outputnode (utility) -->
<g id="edge30" class="edge">
<title>buffernode (utility)&#45;&gt;outputnode (utility)</title>
<path fill="none" stroke="black" d="M565.4,-362.38C615,-345 687.96,-310.69 721,-252 749.33,-201.67 691.81,-144.68 652.84,-113.81"/>
<polygon fill="black" stroke="black" points="654.89,-110.98 644.84,-107.63 650.62,-116.52 654.89,-110.98"/>
</g>
<!-- buffernode (utility)&#45;&gt;anat_norm_wf -->
<g id="edge31" class="edge">
<title>buffernode (utility)&#45;&gt;anat_norm_wf</title>
<path fill="none" stroke="black" d="M456.61,-363.44C401.46,-347.18 321.88,-314.01 285,-252 276.82,-238.25 278.36,-230.56 285,-216 290.51,-203.91 300.29,-193.52 310.43,-185.21"/>
<polygon fill="black" stroke="black" points="312.73,-187.86 318.56,-179.01 308.48,-182.29 312.73,-187.86"/>
</g>
<!-- t1w_dseg (fsl) -->
<g id="node13" class="node">
<title>t1w_dseg (fsl)</title>
<ellipse fill="none" stroke="black" cx="515" cy="-306" rx="75.29" ry="18"/>
<text text-anchor="middle" x="515" y="-302.3" font-family="Times,serif" font-size="14.00">t1w_dseg (fsl)</text>
</g>
<!-- buffernode (utility)&#45;&gt;t1w_dseg (fsl) -->
<g id="edge32" class="edge">
<title>buffernode (utility)&#45;&gt;t1w_dseg (fsl)</title>
<path fill="none" stroke="black" d="M515,-359.7C515,-351.98 515,-342.71 515,-334.11"/>
<polygon fill="black" stroke="black" points="518.5,-334.1 515,-324.1 511.5,-334.1 518.5,-334.1"/>
</g>
<!-- lut_t1w_dseg (utility) -->
<g id="node14" class="node">
<title>lut_t1w_dseg (utility)</title>
<ellipse fill="none" stroke="black" cx="403" cy="-234" rx="109.38" ry="18"/>
<text text-anchor="middle" x="403" y="-230.3" font-family="Times,serif" font-size="14.00">lut_t1w_dseg (utility)</text>
</g>
<!-- t1w_dseg (fsl)&#45;&gt;lut_t1w_dseg (utility) -->
<g id="edge33" class="edge">
<title>t1w_dseg (fsl)&#45;&gt;lut_t1w_dseg (utility)</title>
<path fill="none" stroke="black" d="M489.3,-288.94C474.16,-279.47 454.77,-267.36 438.22,-257.01"/>
<polygon fill="black" stroke="black" points="439.69,-253.8 429.35,-251.47 435.98,-259.74 439.69,-253.8"/>
</g>
<!-- fast2bids (utility) -->
<g id="node15" class="node">
<title>fast2bids (utility)</title>
<ellipse fill="none" stroke="black" cx="621" cy="-234" rx="90.98" ry="18"/>
<text text-anchor="middle" x="621" y="-230.3" font-family="Times,serif" font-size="14.00">fast2bids (utility)</text>
</g>
<!-- t1w_dseg (fsl)&#45;&gt;fast2bids (utility) -->
<g id="edge34" class="edge">
<title>t1w_dseg (fsl)&#45;&gt;fast2bids (utility)</title>
<path fill="none" stroke="black" d="M539.32,-288.94C553.66,-279.47 572,-267.36 587.67,-257.01"/>
<polygon fill="black" stroke="black" points="589.64,-259.9 596.06,-251.47 585.79,-254.06 589.64,-259.9"/>
</g>
<!-- lut_t1w_dseg (utility)&#45;&gt;outputnode (utility) -->
<g id="edge36" class="edge">
<title>lut_t1w_dseg (utility)&#45;&gt;outputnode (utility)</title>
<path fill="none" stroke="black" d="M428.43,-216.43C467.73,-190.83 543.25,-141.64 587.13,-113.06"/>
<polygon fill="black" stroke="black" points="589.26,-115.85 595.73,-107.46 585.44,-109.99 589.26,-115.85"/>
</g>
<!-- lut_t1w_dseg (utility)&#45;&gt;anat_norm_wf -->
<g id="edge35" class="edge">
<title>lut_t1w_dseg (utility)&#45;&gt;anat_norm_wf</title>
<path fill="none" stroke="black" d="M389.2,-216.05C382.27,-207.54 373.74,-197.07 366.1,-187.68"/>
<polygon fill="black" stroke="black" points="368.7,-185.33 359.67,-179.79 363.27,-189.75 368.7,-185.33"/>
</g>
<!-- fast2bids (utility)&#45;&gt;outputnode (utility) -->
<g id="edge38" class="edge">
<title>fast2bids (utility)&#45;&gt;outputnode (utility)</title>
<path fill="none" stroke="black" d="M621,-215.87C621,-191.67 621,-147.21 621,-118.39"/>
<polygon fill="black" stroke="black" points="624.5,-118.19 621,-108.19 617.5,-118.19 624.5,-118.19"/>
</g>
<!-- fast2bids (utility)&#45;&gt;anat_norm_wf -->
<g id="edge37" class="edge">
<title>fast2bids (utility)&#45;&gt;anat_norm_wf</title>
<path fill="none" stroke="black" d="M567.32,-219.34C520.92,-207.52 453.92,-190.47 405.8,-178.22"/>
<polygon fill="black" stroke="black" points="406.39,-174.76 395.84,-175.69 404.67,-181.54 406.39,-174.76"/>
</g>
<!-- anat_ribbon_wf&#45;&gt;outputnode (utility) -->
<g id="edge39" class="edge">
<title>anat_ribbon_wf&#45;&gt;outputnode (utility)</title>
<path fill="none" stroke="black" d="M854.54,-148.16C807.68,-136.69 738.77,-119.82 687.94,-107.38"/>
<polygon fill="black" stroke="black" points="688.57,-103.94 678.03,-104.96 686.91,-110.74 688.57,-103.94"/>
</g>
<!-- anat_ribbon_wf&#45;&gt;anat_derivatives_wf -->
<g id="edge40" class="edge">
<title>anat_ribbon_wf&#45;&gt;anat_derivatives_wf</title>
<path fill="none" stroke="black" d="M907,-143.87C907,-119.67 907,-75.21 907,-46.39"/>
<polygon fill="black" stroke="black" points="910.5,-46.19 907,-36.19 903.5,-46.19 910.5,-46.19"/>
</g>
<!-- sphere_reg_wf&#45;&gt;outputnode (utility) -->
<g id="edge41" class="edge">
<title>sphere_reg_wf&#45;&gt;outputnode (utility)</title>
<path fill="none" stroke="black" d="M729.01,-360.38C738.48,-350.82 748.96,-337.95 754,-324 781.3,-248.38 787.3,-205.91 736,-144 722.98,-128.29 704.28,-117 685.74,-109"/>
<polygon fill="black" stroke="black" points="686.96,-105.72 676.38,-105.22 684.34,-112.21 686.96,-105.72"/>
</g>
</g>
</svg>
