<?xml version="1.0" encoding="UTF-8" standalone="no"?>
<!DOCTYPE svg PUBLIC "-//W3C//DTD SVG 1.1//EN"
 "http://www.w3.org/Graphics/SVG/1.1/DTD/svg11.dtd">
<!-- Generated by graphviz version 2.43.0 (0)
 -->
<!-- Title: %3 Pages: 1 -->
<svg width="823pt" height="404pt"
 viewBox="0.00 0.00 823.05 404.00" xmlns="http://www.w3.org/2000/svg" xmlns:xlink="http://www.w3.org/1999/xlink">
<g id="graph0" class="graph" transform="scale(1 1) rotate(0) translate(4 400)">
<title>%3</title>
<polygon fill="white" stroke="transparent" points="-4,4 -4,-400 819.05,-400 819.05,4 -4,4"/>
<!-- inputnode (utility) -->
<g id="node1" class="node">
<title>inputnode (utility)</title>
<ellipse fill="none" stroke="black" cx="525.95" cy="-378" rx="94.78" ry="18"/>
<text text-anchor="middle" x="525.95" y="-374.3" font-family="Times,serif" font-size="14.00">inputnode (utility)</text>
</g>
<!-- split_desc (templateflow) -->
<g id="node2" class="node">
<title>split_desc (templateflow)</title>
<ellipse fill="none" stroke="black" cx="233.95" cy="-306" rx="126.98" ry="18"/>
<text text-anchor="middle" x="233.95" y="-302.3" font-family="Times,serif" font-size="14.00">split_desc (templateflow)</text>
</g>
<!-- inputnode (utility)&#45;&gt;split_desc (templateflow) -->
<g id="edge1" class="edge">
<title>inputnode (utility)&#45;&gt;split_desc (templateflow)</title>
<path fill="none" stroke="black" d="M469.65,-363.5C422.88,-352.29 356.07,-336.28 305.51,-324.16"/>
<polygon fill="black" stroke="black" points="306.17,-320.71 295.63,-321.79 304.54,-327.52 306.17,-320.71"/>
</g>
<!-- poutputnode (utility) -->
<g id="node3" class="node">
<title>poutputnode (utility)</title>
<ellipse fill="none" stroke="black" cx="479.95" cy="-90" rx="107.48" ry="18"/>
<text text-anchor="middle" x="479.95" y="-86.3" font-family="Times,serif" font-size="14.00">poutputnode (utility)</text>
</g>
<!-- inputnode (utility)&#45;&gt;poutputnode (utility) -->
<g id="edge2" class="edge">
<title>inputnode (utility)&#45;&gt;poutputnode (utility)</title>
<path fill="none" stroke="black" d="M570.69,-362.03C666.63,-327.65 877.14,-238.71 796.95,-144 771.02,-113.37 674.14,-100.43 594.23,-94.97"/>
<polygon fill="black" stroke="black" points="594.29,-91.46 584.08,-94.31 593.83,-98.45 594.29,-91.46"/>
</g>
<!-- trunc_mov (ants) -->
<g id="node4" class="node">
<title>trunc_mov (ants)</title>
<ellipse fill="none" stroke="black" cx="467.95" cy="-306" rx="89.08" ry="18"/>
<text text-anchor="middle" x="467.95" y="-302.3" font-family="Times,serif" font-size="14.00">trunc_mov (ants)</text>
</g>
<!-- inputnode (utility)&#45;&gt;trunc_mov (ants) -->
<g id="edge3" class="edge">
<title>inputnode (utility)&#45;&gt;trunc_mov (ants)</title>
<path fill="none" stroke="black" d="M511.91,-360.05C504.86,-351.54 496.18,-341.07 488.4,-331.68"/>
<polygon fill="black" stroke="black" points="490.93,-329.26 481.86,-323.79 485.54,-333.72 490.93,-329.26"/>
</g>
<!-- registration (norm) -->
<g id="node5" class="node">
<title>registration (norm)</title>
<ellipse fill="none" stroke="black" cx="483.95" cy="-234" rx="100.18" ry="18"/>
<text text-anchor="middle" x="483.95" y="-230.3" font-family="Times,serif" font-size="14.00">registration (norm)</text>
</g>
<!-- inputnode (utility)&#45;&gt;registration (norm) -->
<g id="edge4" class="edge">
<title>inputnode (utility)&#45;&gt;registration (norm)</title>
<path fill="none" stroke="black" d="M542.88,-360.23C559.08,-342.06 579.23,-312.4 565.95,-288 558.57,-274.45 546.08,-263.84 533.04,-255.79"/>
<polygon fill="black" stroke="black" points="534.4,-252.53 523.98,-250.62 530.93,-258.61 534.4,-252.53"/>
</g>
<!-- tpl_moving (fixes) -->
<g id="node6" class="node">
<title>tpl_moving (fixes)</title>
<ellipse fill="none" stroke="black" cx="674.95" cy="-162" rx="92.88" ry="18"/>
<text text-anchor="middle" x="674.95" y="-158.3" font-family="Times,serif" font-size="14.00">tpl_moving (fixes)</text>
</g>
<!-- inputnode (utility)&#45;&gt;tpl_moving (fixes) -->
<g id="edge5" class="edge">
<title>inputnode (utility)&#45;&gt;tpl_moving (fixes)</title>
<path fill="none" stroke="black" d="M557.57,-361.03C573.15,-351.89 591.27,-339.22 603.95,-324 637.8,-283.38 658.33,-224.08 668.08,-189.94"/>
<polygon fill="black" stroke="black" points="671.48,-190.77 670.77,-180.2 664.74,-188.91 671.48,-190.77"/>
</g>
<!-- std_mask (fixes) -->
<g id="node7" class="node">
<title>std_mask (fixes)</title>
<ellipse fill="none" stroke="black" cx="107.95" cy="-162" rx="85.29" ry="18"/>
<text text-anchor="middle" x="107.95" y="-158.3" font-family="Times,serif" font-size="14.00">std_mask (fixes)</text>
</g>
<!-- inputnode (utility)&#45;&gt;std_mask (fixes) -->
<g id="edge6" class="edge">
<title>inputnode (utility)&#45;&gt;std_mask (fixes)</title>
<path fill="none" stroke="black" d="M435.55,-372.37C314.05,-365.21 110.59,-349.54 87.95,-324 54.99,-286.81 76.95,-224.42 93.8,-189.22"/>
<polygon fill="black" stroke="black" points="97.03,-190.57 98.36,-180.06 90.77,-187.45 97.03,-190.57"/>
</g>
<!-- std_dseg (fixes) -->
<g id="node8" class="node">
<title>std_dseg (fixes)</title>
<ellipse fill="none" stroke="black" cx="293.95" cy="-162" rx="83.39" ry="18"/>
<text text-anchor="middle" x="293.95" y="-158.3" font-family="Times,serif" font-size="14.00">std_dseg (fixes)</text>
</g>
<!-- inputnode (utility)&#45;&gt;std_dseg (fixes) -->
<g id="edge7" class="edge">
<title>inputnode (utility)&#45;&gt;std_dseg (fixes)</title>
<path fill="none" stroke="black" d="M436.1,-372.13C317.2,-364.75 119.95,-348.9 97.95,-324 78.59,-302.1 106.33,-226.97 116.95,-216 132.11,-200.33 181.06,-186.36 223.65,-176.7"/>
<polygon fill="black" stroke="black" points="224.46,-180.11 233.47,-174.53 222.95,-173.28 224.46,-180.11"/>
</g>
<!-- std_tpms (fixes) -->
<g id="node9" class="node">
<title>std_tpms (fixes)</title>
<ellipse fill="none" stroke="black" cx="479.95" cy="-162" rx="84.49" ry="18"/>
<text text-anchor="middle" x="479.95" y="-158.3" font-family="Times,serif" font-size="14.00">std_tpms (fixes)</text>
</g>
<!-- inputnode (utility)&#45;&gt;std_tpms (fixes) -->
<g id="edge8" class="edge">
<title>inputnode (utility)&#45;&gt;std_tpms (fixes)</title>
<path fill="none" stroke="black" d="M549.69,-360.53C561.3,-351.18 574.37,-338.47 581.95,-324 604.33,-281.25 618.83,-256.72 592.95,-216 582.06,-198.87 564.01,-187.18 545.5,-179.24"/>
<polygon fill="black" stroke="black" points="546.7,-175.95 536.11,-175.53 544.12,-182.46 546.7,-175.95"/>
</g>
<!-- split_desc (templateflow)&#45;&gt;poutputnode (utility) -->
<g id="edge11" class="edge">
<title>split_desc (templateflow)&#45;&gt;poutputnode (utility)</title>
<path fill="none" stroke="black" d="M178.78,-289.69C96.12,-264.16 -44.28,-209.23 13.95,-144 37.14,-118.03 237.37,-103.1 367.71,-96.06"/>
<polygon fill="black" stroke="black" points="367.95,-99.55 377.75,-95.52 367.58,-92.56 367.95,-99.55"/>
</g>
<!-- split_desc (templateflow)&#45;&gt;registration (norm) -->
<g id="edge10" class="edge">
<title>split_desc (templateflow)&#45;&gt;registration (norm)</title>
<path fill="none" stroke="black" d="M288.5,-289.72C327.92,-278.69 381.22,-263.76 422.2,-252.29"/>
<polygon fill="black" stroke="black" points="423.39,-255.59 432.07,-249.52 421.5,-248.85 423.39,-255.59"/>
</g>
<!-- tf_select (templateflow) -->
<g id="node10" class="node">
<title>tf_select (templateflow)</title>
<ellipse fill="none" stroke="black" cx="245.95" cy="-234" rx="120.48" ry="18"/>
<text text-anchor="middle" x="245.95" y="-230.3" font-family="Times,serif" font-size="14.00">tf_select (templateflow)</text>
</g>
<!-- split_desc (templateflow)&#45;&gt;tf_select (templateflow) -->
<g id="edge9" class="edge">
<title>split_desc (templateflow)&#45;&gt;tf_select (templateflow)</title>
<path fill="none" stroke="black" d="M236.92,-287.7C238.24,-279.98 239.83,-270.71 241.3,-262.11"/>
<polygon fill="black" stroke="black" points="244.78,-262.55 243.02,-252.1 237.88,-261.37 244.78,-262.55"/>
</g>
<!-- outputnode (utility) -->
<g id="node11" class="node">
<title>outputnode (utility)</title>
<ellipse fill="none" stroke="black" cx="479.95" cy="-18" rx="101.28" ry="18"/>
<text text-anchor="middle" x="479.95" y="-14.3" font-family="Times,serif" font-size="14.00">outputnode (utility)</text>
</g>
<!-- poutputnode (utility)&#45;&gt;outputnode (utility) -->
<g id="edge12" class="edge">
<title>poutputnode (utility)&#45;&gt;outputnode (utility)</title>
<path fill="none" stroke="black" d="M479.95,-71.7C479.95,-63.98 479.95,-54.71 479.95,-46.11"/>
<polygon fill="black" stroke="black" points="483.45,-46.1 479.95,-36.1 476.45,-46.1 483.45,-46.1"/>
</g>
<!-- trunc_mov (ants)&#45;&gt;registration (norm) -->
<g id="edge13" class="edge">
<title>trunc_mov (ants)&#45;&gt;registration (norm)</title>
<path fill="none" stroke="black" d="M471.9,-287.7C473.67,-279.98 475.79,-270.71 477.75,-262.11"/>
<polygon fill="black" stroke="black" points="481.22,-262.63 480.04,-252.1 474.4,-261.07 481.22,-262.63"/>
</g>
<!-- registration (norm)&#45;&gt;poutputnode (utility) -->
<g id="edge18" class="edge">
<title>registration (norm)&#45;&gt;poutputnode (utility)</title>
<path fill="none" stroke="black" d="M584.34,-232.96C690.19,-229.41 834.29,-212.48 776.95,-144 753.34,-115.81 666.3,-102.6 592.5,-96.42"/>
<polygon fill="black" stroke="black" points="592.43,-92.9 582.19,-95.59 591.87,-99.88 592.43,-92.9"/>
</g>
<!-- registration (norm)&#45;&gt;tpl_moving (fixes) -->
<g id="edge14" class="edge">
<title>registration (norm)&#45;&gt;tpl_moving (fixes)</title>
<path fill="none" stroke="black" d="M525.86,-217.64C554.7,-207.07 593.17,-192.97 623.81,-181.74"/>
<polygon fill="black" stroke="black" points="625.27,-184.93 633.46,-178.21 622.87,-178.36 625.27,-184.93"/>
</g>
<!-- registration (norm)&#45;&gt;std_mask (fixes) -->
<g id="edge15" class="edge">
<title>registration (norm)&#45;&gt;std_mask (fixes)</title>
<path fill="none" stroke="black" d="M417.16,-220.57C350.38,-208.13 248.04,-189.08 179.59,-176.34"/>
<polygon fill="black" stroke="black" points="180.22,-172.9 169.75,-174.51 178.94,-179.78 180.22,-172.9"/>
</g>
<!-- registration (norm)&#45;&gt;std_dseg (fixes) -->
<g id="edge16" class="edge">
<title>registration (norm)&#45;&gt;std_dseg (fixes)</title>
<path fill="none" stroke="black" d="M441.78,-217.46C412.78,-206.78 374.14,-192.54 343.64,-181.31"/>
<polygon fill="black" stroke="black" points="344.64,-177.95 334.05,-177.77 342.22,-184.51 344.64,-177.95"/>
</g>
<!-- registration (norm)&#45;&gt;std_tpms (fixes) -->
<g id="edge17" class="edge">
<title>registration (norm)&#45;&gt;std_tpms (fixes)</title>
<path fill="none" stroke="black" d="M482.96,-215.7C482.52,-207.98 481.99,-198.71 481.5,-190.11"/>
<polygon fill="black" stroke="black" points="484.99,-189.89 480.93,-180.1 478,-190.29 484.99,-189.89"/>
</g>
<!-- tpl_moving (fixes)&#45;&gt;poutputnode (utility) -->
<g id="edge19" class="edge">
<title>tpl_moving (fixes)&#45;&gt;poutputnode (utility)</title>
<path fill="none" stroke="black" d="M632.64,-145.81C603.3,-135.28 564.02,-121.18 532.65,-109.92"/>
<polygon fill="black" stroke="black" points="533.78,-106.61 523.19,-106.52 531.42,-113.2 533.78,-106.61"/>
</g>
<!-- std_mask (fixes)&#45;&gt;poutputnode (utility) -->
<g id="edge20" class="edge">
<title>std_mask (fixes)&#45;&gt;poutputnode (utility)</title>
<path fill="none" stroke="black" d="M169.38,-149.44C232.91,-137.49 332.32,-118.78 401.5,-105.76"/>
<polygon fill="black" stroke="black" points="402.3,-109.17 411.48,-103.88 401.01,-102.29 402.3,-109.17"/>
</g>
<!-- std_dseg (fixes)&#45;&gt;poutputnode (utility) -->
<g id="edge21" class="edge">
<title>std_dseg (fixes)&#45;&gt;poutputnode (utility)</title>
<path fill="none" stroke="black" d="M333.85,-145.98C361.59,-135.54 398.81,-121.54 428.74,-110.27"/>
<polygon fill="black" stroke="black" points="430.05,-113.52 438.18,-106.72 427.59,-106.97 430.05,-113.52"/>
</g>
<!-- std_tpms (fixes)&#45;&gt;poutputnode (utility) -->
<g id="edge22" class="edge">
<title>std_tpms (fixes)&#45;&gt;poutputnode (utility)</title>
<path fill="none" stroke="black" d="M479.95,-143.7C479.95,-135.98 479.95,-126.71 479.95,-118.11"/>
<polygon fill="black" stroke="black" points="483.45,-118.1 479.95,-108.1 476.45,-118.1 483.45,-118.1"/>
</g>
<!-- tf_select (templateflow)&#45;&gt;tpl_moving (fixes) -->
<g id="edge23" class="edge">
<title>tf_select (templateflow)&#45;&gt;tpl_moving (fixes)</title>
<path fill="none" stroke="black" d="M324.59,-220.35C390.84,-209.68 488.11,-193.95 572.95,-180 580.82,-178.71 589.03,-177.35 597.23,-175.99"/>
<polygon fill="black" stroke="black" points="597.9,-179.43 607.2,-174.34 596.76,-172.52 597.9,-179.43"/>
</g>
<!-- tf_select (templateflow)&#45;&gt;std_mask (fixes) -->
<g id="edge24" class="edge">
<title>tf_select (templateflow)&#45;&gt;std_mask (fixes)</title>
<path fill="none" stroke="black" d="M213.59,-216.59C194.02,-206.66 168.91,-193.92 148.09,-183.36"/>
<polygon fill="black" stroke="black" points="149.65,-180.23 139.15,-178.83 146.49,-186.47 149.65,-180.23"/>
</g>
<!-- tf_select (templateflow)&#45;&gt;std_dseg (fixes) -->
<g id="edge25" class="edge">
<title>tf_select (templateflow)&#45;&gt;std_dseg (fixes)</title>
<path fill="none" stroke="black" d="M257.57,-216.05C263.2,-207.84 270.09,-197.79 276.35,-188.66"/>
<polygon fill="black" stroke="black" points="279.33,-190.5 282.1,-180.28 273.56,-186.54 279.33,-190.5"/>
</g>
<!-- tf_select (templateflow)&#45;&gt;std_tpms (fixes) -->
<g id="edge26" class="edge">
<title>tf_select (templateflow)&#45;&gt;std_tpms (fixes)</title>
<path fill="none" stroke="black" d="M297.3,-217.64C334.47,-206.52 384.72,-191.49 423.1,-180.01"/>
<polygon fill="black" stroke="black" points="424.51,-183.24 433.09,-177.02 422.51,-176.53 424.51,-183.24"/>
</g>
</g>
</svg>
