<?xml version="1.0" encoding="UTF-8" standalone="no"?>
<!DOCTYPE svg PUBLIC "-//W3C//DTD SVG 1.1//EN"
 "http://www.w3.org/Graphics/SVG/1.1/DTD/svg11.dtd">
<!-- Generated by graphviz version 2.43.0 (0)
 -->
<!-- Title: structs Pages: 1 -->
<svg width="1274pt" height="1432pt"
 viewBox="0.00 0.00 1274.43 1432.00" xmlns="http://www.w3.org/2000/svg" xmlns:xlink="http://www.w3.org/1999/xlink">
<g id="graph0" class="graph" transform="scale(1 1) rotate(0) translate(4 1428)">
<title>structs</title>
<polygon fill="white" stroke="transparent" points="-4,4 -4,-1428 1270.43,-1428 1270.43,4 -4,4"/>
<!-- gifti_surface_wfinputnode -->
<g id="node1" class="node">
<title>gifti_surface_wfinputnode</title>
<polygon fill="none" stroke="black" points="403.43,-1331.5 403.43,-1423.5 669.43,-1423.5 669.43,-1331.5 403.43,-1331.5"/>
<text text-anchor="middle" x="420.43" y="-1373.8" font-family="Times,serif" font-size="14.00">IN</text>
<polyline fill="none" stroke="black" points="437.43,-1331.5 437.43,-1423.5 "/>
<text text-anchor="middle" x="481.93" y="-1404.8" font-family="Times,serif" font-size="14.00">inputnode</text>
<polyline fill="none" stroke="black" points="437.43,-1393.5 526.43,-1393.5 "/>
<text text-anchor="middle" x="481.93" y="-1374.3" font-family="Times,serif" font-size="14.00">utility</text>
<polyline fill="none" stroke="black" points="437.43,-1362.5 526.43,-1362.5 "/>
<text text-anchor="middle" x="481.93" y="-1343.3" font-family="Times,serif" font-size="14.00"> </text>
<polyline fill="none" stroke="black" points="526.43,-1331.5 526.43,-1423.5 "/>
<text text-anchor="middle" x="597.93" y="-1408.3" font-family="Times,serif" font-size="14.00">OUT</text>
<polyline fill="none" stroke="black" points="526.43,-1400.5 669.43,-1400.5 "/>
<text text-anchor="middle" x="597.93" y="-1385.3" font-family="Times,serif" font-size="14.00">fsnative2t1w_xfm</text>
<polyline fill="none" stroke="black" points="526.43,-1377.5 669.43,-1377.5 "/>
<text text-anchor="middle" x="597.93" y="-1362.3" font-family="Times,serif" font-size="14.00">subject_id</text>
<polyline fill="none" stroke="black" points="526.43,-1354.5 669.43,-1354.5 "/>
<text text-anchor="middle" x="597.93" y="-1339.3" font-family="Times,serif" font-size="14.00">subjects_dir</text>
</g>
<!-- gifti_surface_wfget_surfaces -->
<g id="node2" class="node">
<title>gifti_surface_wfget_surfaces</title>
<polygon fill="none" stroke="black" points="44.43,-1110.5 44.43,-1294.5 338.43,-1294.5 338.43,-1110.5 44.43,-1110.5"/>
<text text-anchor="middle" x="95.93" y="-1260.3" font-family="Times,serif" font-size="14.00">IN</text>
<polyline fill="none" stroke="black" points="44.43,-1233.5 147.43,-1233.5 "/>
<text text-anchor="middle" x="95.93" y="-1199.3" font-family="Times,serif" font-size="14.00">subject_id</text>
<polyline fill="none" stroke="black" points="44.43,-1172.5 147.43,-1172.5 "/>
<text text-anchor="middle" x="95.93" y="-1137.8" font-family="Times,serif" font-size="14.00">subjects_dir</text>
<polyline fill="none" stroke="black" points="147.43,-1110.5 147.43,-1294.5 "/>
<text text-anchor="middle" x="200.93" y="-1260.3" font-family="Times,serif" font-size="14.00">get_surfaces</text>
<polyline fill="none" stroke="black" points="147.43,-1233.5 254.43,-1233.5 "/>
<text text-anchor="middle" x="200.93" y="-1199.3" font-family="Times,serif" font-size="14.00">io</text>
<polyline fill="none" stroke="black" points="147.43,-1172.5 254.43,-1172.5 "/>
<text text-anchor="middle" x="200.93" y="-1137.8" font-family="Times,serif" font-size="14.00"> </text>
<polyline fill="none" stroke="black" points="254.43,-1110.5 254.43,-1294.5 "/>
<text text-anchor="middle" x="296.43" y="-1279.3" font-family="Times,serif" font-size="14.00">OUT</text>
<polyline fill="none" stroke="black" points="254.43,-1271.5 338.43,-1271.5 "/>
<text text-anchor="middle" x="296.43" y="-1256.3" font-family="Times,serif" font-size="14.00">curv</text>
<polyline fill="none" stroke="black" points="254.43,-1248.5 338.43,-1248.5 "/>
<text text-anchor="middle" x="296.43" y="-1233.3" font-family="Times,serif" font-size="14.00">graymid</text>
<polyline fill="none" stroke="black" points="254.43,-1225.5 338.43,-1225.5 "/>
<text text-anchor="middle" x="296.43" y="-1210.3" font-family="Times,serif" font-size="14.00">inflated</text>
<polyline fill="none" stroke="black" points="254.43,-1202.5 338.43,-1202.5 "/>
<text text-anchor="middle" x="296.43" y="-1187.3" font-family="Times,serif" font-size="14.00">pial</text>
<polyline fill="none" stroke="black" points="254.43,-1179.5 338.43,-1179.5 "/>
<text text-anchor="middle" x="296.43" y="-1164.3" font-family="Times,serif" font-size="14.00">sulc</text>
<polyline fill="none" stroke="black" points="254.43,-1156.5 338.43,-1156.5 "/>
<text text-anchor="middle" x="296.43" y="-1141.3" font-family="Times,serif" font-size="14.00">thickness</text>
<polyline fill="none" stroke="black" points="254.43,-1133.5 338.43,-1133.5 "/>
<text text-anchor="middle" x="296.43" y="-1118.3" font-family="Times,serif" font-size="14.00">white</text>
</g>
<!-- gifti_surface_wfinputnode&#45;&gt;gifti_surface_wfget_surfaces -->
<g id="edge20" class="edge">
<title>gifti_surface_wfinputnode:e&#45;&gt;gifti_surface_wfget_surfaces:w</title>
<path fill="none" stroke="black" d="M670.43,-1365.5C685.77,-1365.5 680.12,-1342 669.43,-1331 572.47,-1231.23 140.48,-1395.64 44.43,-1295 18.98,-1268.34 5.44,-1214.85 33.39,-1205.06"/>
<polygon fill="black" stroke="black" points="34.08,-1208.49 43.43,-1203.5 33.01,-1201.58 34.08,-1208.49"/>
</g>
<!-- gifti_surface_wfinputnode&#45;&gt;gifti_surface_wfget_surfaces -->
<g id="edge22" class="edge">
<title>gifti_surface_wfinputnode:e&#45;&gt;gifti_surface_wfget_surfaces:w</title>
<path fill="none" stroke="black" d="M670.43,-1342.5C675.56,-1342.5 673.11,-1334.57 669.43,-1331 569.63,-1234.07 140.26,-1395.85 44.43,-1295 -0.09,-1248.15 -22.38,-1152.32 33.38,-1142.34"/>
<polygon fill="black" stroke="black" points="33.76,-1145.83 43.43,-1141.5 33.17,-1138.85 33.76,-1145.83"/>
</g>
<!-- gifti_surface_wfsave_midthickness -->
<g id="node5" class="node">
<title>gifti_surface_wfsave_midthickness</title>
<polygon fill="none" stroke="black" points="540.43,-852.5 540.43,-944.5 880.43,-944.5 880.43,-852.5 540.43,-852.5"/>
<text text-anchor="middle" x="601.43" y="-929.3" font-family="Times,serif" font-size="14.00">IN</text>
<polyline fill="none" stroke="black" points="540.43,-921.5 662.43,-921.5 "/>
<text text-anchor="middle" x="601.43" y="-906.3" font-family="Times,serif" font-size="14.00">base_directory</text>
<polyline fill="none" stroke="black" points="540.43,-898.5 662.43,-898.5 "/>
<text text-anchor="middle" x="601.43" y="-883.3" font-family="Times,serif" font-size="14.00">container</text>
<polyline fill="none" stroke="black" points="540.43,-875.5 662.43,-875.5 "/>
<text text-anchor="middle" x="601.43" y="-860.3" font-family="Times,serif" font-size="14.00">surf.@graymid</text>
<polyline fill="none" stroke="black" points="662.43,-852.5 662.43,-944.5 "/>
<text text-anchor="middle" x="737.43" y="-925.8" font-family="Times,serif" font-size="14.00">save_midthickness</text>
<polyline fill="none" stroke="black" points="662.43,-914.5 812.43,-914.5 "/>
<text text-anchor="middle" x="737.43" y="-895.3" font-family="Times,serif" font-size="14.00">io</text>
<polyline fill="none" stroke="black" points="662.43,-883.5 812.43,-883.5 "/>
<text text-anchor="middle" x="737.43" y="-864.3" font-family="Times,serif" font-size="14.00"> </text>
<polyline fill="none" stroke="black" points="812.43,-852.5 812.43,-944.5 "/>
<text text-anchor="middle" x="846.43" y="-917.8" font-family="Times,serif" font-size="14.00">OUT</text>
<polyline fill="none" stroke="black" points="812.43,-898.5 880.43,-898.5 "/>
<text text-anchor="middle" x="846.43" y="-871.8" font-family="Times,serif" font-size="14.00">out_file</text>
</g>
<!-- gifti_surface_wfinputnode&#45;&gt;gifti_surface_wfsave_midthickness -->
<g id="edge21" class="edge">
<title>gifti_surface_wfinputnode:e&#45;&gt;gifti_surface_wfsave_midthickness:w</title>
<path fill="none" stroke="black" d="M670.43,-1365.5C741.78,-1365.5 902.58,-1262.16 683.43,-981 643.14,-929.31 581.16,-996.34 540.43,-945 526.92,-927.97 517.13,-898.53 529.47,-889.33"/>
<polygon fill="black" stroke="black" points="530.77,-892.6 539.43,-886.5 528.85,-885.87 530.77,-892.6"/>
</g>
<!-- gifti_surface_wfinputnode&#45;&gt;gifti_surface_wfsave_midthickness -->
<g id="edge23" class="edge">
<title>gifti_surface_wfinputnode:e&#45;&gt;gifti_surface_wfsave_midthickness:w</title>
<path fill="none" stroke="black" d="M670.43,-1342.5C710.66,-1342.5 673.94,-1012.91 649.43,-981 618.35,-940.54 570.91,-985.91 540.43,-945 534.13,-936.54 528.77,-923.41 531.02,-916.02"/>
<polygon fill="black" stroke="black" points="532.99,-918.92 539.43,-910.5 529.15,-913.06 532.99,-918.92"/>
</g>
<!-- gifti_surface_wffix_surfs -->
<g id="node9" class="node">
<title>gifti_surface_wffix_surfs</title>
<polygon fill="none" stroke="black" points="760.93,-488.5 760.93,-557.5 1021.93,-557.5 1021.93,-488.5 760.93,-488.5"/>
<text text-anchor="middle" x="818.93" y="-542.3" font-family="Times,serif" font-size="14.00">IN</text>
<polyline fill="none" stroke="black" points="760.93,-534.5 876.93,-534.5 "/>
<text text-anchor="middle" x="818.93" y="-519.3" font-family="Times,serif" font-size="14.00">in_file</text>
<polyline fill="none" stroke="black" points="760.93,-511.5 876.93,-511.5 "/>
<text text-anchor="middle" x="818.93" y="-496.3" font-family="Times,serif" font-size="14.00">transform_file</text>
<polyline fill="none" stroke="black" points="876.93,-488.5 876.93,-557.5 "/>
<text text-anchor="middle" x="915.43" y="-542.3" font-family="Times,serif" font-size="14.00">fix_surfs</text>
<polyline fill="none" stroke="black" points="876.93,-534.5 953.93,-534.5 "/>
<text text-anchor="middle" x="915.43" y="-519.3" font-family="Times,serif" font-size="14.00">surf</text>
<polyline fill="none" stroke="black" points="876.93,-511.5 953.93,-511.5 "/>
<text text-anchor="middle" x="915.43" y="-496.3" font-family="Times,serif" font-size="14.00"> </text>
<polyline fill="none" stroke="black" points="953.93,-488.5 953.93,-557.5 "/>
<text text-anchor="middle" x="987.93" y="-536.8" font-family="Times,serif" font-size="14.00">OUT</text>
<polyline fill="none" stroke="black" points="953.93,-523.5 1021.93,-523.5 "/>
<text text-anchor="middle" x="987.93" y="-502.3" font-family="Times,serif" font-size="14.00">out_file</text>
</g>
<!-- gifti_surface_wfinputnode&#45;&gt;gifti_surface_wffix_surfs -->
<g id="edge19" class="edge">
<title>gifti_surface_wfinputnode:e&#45;&gt;gifti_surface_wffix_surfs:w</title>
<path fill="none" stroke="black" d="M670.43,-1389.5C862.6,-1389.5 908.43,-1220.68 908.43,-1028.5 908.43,-1028.5 908.43,-1028.5 908.43,-757 908.43,-646.78 795.97,-662.33 760.43,-558 753.54,-537.79 739.7,-511.28 749.78,-502.76"/>
<polygon fill="black" stroke="black" points="750.78,-506.12 759.43,-500 748.85,-499.39 750.78,-506.12"/>
</g>
<!-- gifti_surface_wfmidthickness -->
<g id="node3" class="node">
<title>gifti_surface_wfmidthickness</title>
<polygon fill="none" stroke="black" points="385.93,-993 385.93,-1062 640.93,-1062 640.93,-993 385.93,-993"/>
<text text-anchor="middle" x="423.93" y="-1046.8" font-family="Times,serif" font-size="14.00">IN</text>
<polyline fill="none" stroke="black" points="385.93,-1039 461.93,-1039 "/>
<text text-anchor="middle" x="423.93" y="-1023.8" font-family="Times,serif" font-size="14.00">graymid</text>
<polyline fill="none" stroke="black" points="385.93,-1016 461.93,-1016 "/>
<text text-anchor="middle" x="423.93" y="-1000.8" font-family="Times,serif" font-size="14.00">in_file</text>
<polyline fill="none" stroke="black" points="461.93,-993 461.93,-1062 "/>
<text text-anchor="middle" x="517.43" y="-1046.8" font-family="Times,serif" font-size="14.00">midthickness</text>
<polyline fill="none" stroke="black" points="461.93,-1039 572.93,-1039 "/>
<text text-anchor="middle" x="517.43" y="-1023.8" font-family="Times,serif" font-size="14.00">freesurfer</text>
<polyline fill="none" stroke="black" points="461.93,-1016 572.93,-1016 "/>
<text text-anchor="middle" x="517.43" y="-1000.8" font-family="Times,serif" font-size="14.00"> </text>
<polyline fill="none" stroke="black" points="572.93,-993 572.93,-1062 "/>
<text text-anchor="middle" x="606.93" y="-1041.3" font-family="Times,serif" font-size="14.00">OUT</text>
<polyline fill="none" stroke="black" points="572.93,-1028 640.93,-1028 "/>
<text text-anchor="middle" x="606.93" y="-1006.8" font-family="Times,serif" font-size="14.00">out_file</text>
</g>
<!-- gifti_surface_wfget_surfaces&#45;&gt;gifti_surface_wfmidthickness -->
<g id="edge12" class="edge">
<title>gifti_surface_wfget_surfaces:e&#45;&gt;gifti_surface_wfmidthickness:w</title>
<path fill="none" stroke="black" d="M339.43,-1237.5C349.87,-1237.5 367.36,-1076.72 379.56,-1036.52"/>
<polygon fill="black" stroke="black" points="382.76,-1037.96 384.43,-1027.5 376.6,-1034.64 382.76,-1037.96"/>
</g>
<!-- gifti_surface_wfget_surfaces&#45;&gt;gifti_surface_wfmidthickness -->
<g id="edge17" class="edge">
<title>gifti_surface_wfget_surfaces:e&#45;&gt;gifti_surface_wfmidthickness:w</title>
<path fill="none" stroke="black" d="M339.43,-1121.5C364.88,-1121.5 361.78,-1097.55 371.43,-1074 376.04,-1062.75 371.89,-1027.33 377.05,-1011.85"/>
<polygon fill="black" stroke="black" points="379.82,-1014.04 384.43,-1004.5 374.88,-1009.08 379.82,-1014.04"/>
</g>
<!-- gifti_surface_wfsurfmorph_list -->
<g id="node4" class="node">
<title>gifti_surface_wfsurfmorph_list</title>
<polygon fill="none" stroke="black" points="43.93,-981.5 43.93,-1073.5 252.93,-1073.5 252.93,-981.5 43.93,-981.5"/>
<text text-anchor="middle" x="63.43" y="-1058.3" font-family="Times,serif" font-size="14.00">IN</text>
<polyline fill="none" stroke="black" points="43.93,-1050.5 82.93,-1050.5 "/>
<text text-anchor="middle" x="63.43" y="-1035.3" font-family="Times,serif" font-size="14.00">in1</text>
<polyline fill="none" stroke="black" points="43.93,-1027.5 82.93,-1027.5 "/>
<text text-anchor="middle" x="63.43" y="-1012.3" font-family="Times,serif" font-size="14.00">in2</text>
<polyline fill="none" stroke="black" points="43.93,-1004.5 82.93,-1004.5 "/>
<text text-anchor="middle" x="63.43" y="-989.3" font-family="Times,serif" font-size="14.00">in3</text>
<polyline fill="none" stroke="black" points="82.93,-981.5 82.93,-1073.5 "/>
<text text-anchor="middle" x="143.43" y="-1054.8" font-family="Times,serif" font-size="14.00">surfmorph_list</text>
<polyline fill="none" stroke="black" points="82.93,-1043.5 203.93,-1043.5 "/>
<text text-anchor="middle" x="143.43" y="-1024.3" font-family="Times,serif" font-size="14.00">utility</text>
<polyline fill="none" stroke="black" points="82.93,-1012.5 203.93,-1012.5 "/>
<text text-anchor="middle" x="143.43" y="-993.3" font-family="Times,serif" font-size="14.00"> </text>
<polyline fill="none" stroke="black" points="203.93,-981.5 203.93,-1073.5 "/>
<text text-anchor="middle" x="228.43" y="-1046.8" font-family="Times,serif" font-size="14.00">OUT</text>
<polyline fill="none" stroke="black" points="203.93,-1027.5 252.93,-1027.5 "/>
<text text-anchor="middle" x="228.43" y="-1000.8" font-family="Times,serif" font-size="14.00">out</text>
</g>
<!-- gifti_surface_wfget_surfaces&#45;&gt;gifti_surface_wfsurfmorph_list -->
<g id="edge11" class="edge">
<title>gifti_surface_wfget_surfaces:e&#45;&gt;gifti_surface_wfsurfmorph_list:w</title>
<path fill="none" stroke="black" d="M339.43,-1260.5C406.32,-1260.5 382.94,-1159.93 338.43,-1110 250.54,-1011.4 131.59,-1172.35 43.43,-1074 21.8,-1049.87 9.08,-1003.7 32.57,-994.22"/>
<polygon fill="black" stroke="black" points="33.18,-997.67 42.43,-992.5 31.98,-990.77 33.18,-997.67"/>
</g>
<!-- gifti_surface_wfget_surfaces&#45;&gt;gifti_surface_wfsurfmorph_list -->
<g id="edge15" class="edge">
<title>gifti_surface_wfget_surfaces:e&#45;&gt;gifti_surface_wfsurfmorph_list:w</title>
<path fill="none" stroke="black" d="M339.43,-1167.5C364.99,-1167.5 355.54,-1128.99 338.43,-1110 250.01,-1011.87 131.83,-1172.14 43.43,-1074 28.74,-1057.7 19.62,-1027.26 32.74,-1018.14"/>
<polygon fill="black" stroke="black" points="33.7,-1021.51 42.43,-1015.5 31.86,-1014.76 33.7,-1021.51"/>
</g>
<!-- gifti_surface_wfget_surfaces&#45;&gt;gifti_surface_wfsurfmorph_list -->
<g id="edge16" class="edge">
<title>gifti_surface_wfget_surfaces:e&#45;&gt;gifti_surface_wfsurfmorph_list:w</title>
<path fill="none" stroke="black" d="M339.43,-1144.5C354.77,-1144.5 348.76,-1121.34 338.43,-1110 249.45,-1012.39 132.41,-1171.61 43.43,-1074 36.32,-1066.21 31.27,-1052.82 33.78,-1045.22"/>
<polygon fill="black" stroke="black" points="36.02,-1047.94 42.43,-1039.5 32.16,-1042.1 36.02,-1047.94"/>
</g>
<!-- gifti_surface_wfsurface_list -->
<g id="node7" class="node">
<title>gifti_surface_wfsurface_list</title>
<polygon fill="none" stroke="black" points="338.43,-700.5 338.43,-815.5 524.43,-815.5 524.43,-700.5 338.43,-700.5"/>
<text text-anchor="middle" x="357.93" y="-800.3" font-family="Times,serif" font-size="14.00">IN</text>
<polyline fill="none" stroke="black" points="338.43,-792.5 377.43,-792.5 "/>
<text text-anchor="middle" x="357.93" y="-777.3" font-family="Times,serif" font-size="14.00">in1</text>
<polyline fill="none" stroke="black" points="338.43,-769.5 377.43,-769.5 "/>
<text text-anchor="middle" x="357.93" y="-754.3" font-family="Times,serif" font-size="14.00">in2</text>
<polyline fill="none" stroke="black" points="338.43,-746.5 377.43,-746.5 "/>
<text text-anchor="middle" x="357.93" y="-731.3" font-family="Times,serif" font-size="14.00">in3</text>
<polyline fill="none" stroke="black" points="338.43,-723.5 377.43,-723.5 "/>
<text text-anchor="middle" x="357.93" y="-708.3" font-family="Times,serif" font-size="14.00">in4</text>
<polyline fill="none" stroke="black" points="377.43,-700.5 377.43,-815.5 "/>
<text text-anchor="middle" x="426.43" y="-792.8" font-family="Times,serif" font-size="14.00">surface_list</text>
<polyline fill="none" stroke="black" points="377.43,-777.5 475.43,-777.5 "/>
<text text-anchor="middle" x="426.43" y="-754.8" font-family="Times,serif" font-size="14.00">utility</text>
<polyline fill="none" stroke="black" points="377.43,-739.5 475.43,-739.5 "/>
<text text-anchor="middle" x="426.43" y="-716.3" font-family="Times,serif" font-size="14.00"> </text>
<polyline fill="none" stroke="black" points="475.43,-700.5 475.43,-815.5 "/>
<text text-anchor="middle" x="499.93" y="-783.3" font-family="Times,serif" font-size="14.00">OUT</text>
<polyline fill="none" stroke="black" points="475.43,-758.5 524.43,-758.5 "/>
<text text-anchor="middle" x="499.93" y="-725.8" font-family="Times,serif" font-size="14.00">out</text>
</g>
<!-- gifti_surface_wfget_surfaces&#45;&gt;gifti_surface_wfsurface_list -->
<g id="edge13" class="edge">
<title>gifti_surface_wfget_surfaces:e&#45;&gt;gifti_surface_wfsurface_list:w</title>
<path fill="none" stroke="black" d="M339.43,-1214.5C351.6,-1214.5 328.72,-813.87 334.87,-745.02"/>
<polygon fill="black" stroke="black" points="338.35,-745.56 337.43,-735 331.56,-743.82 338.35,-745.56"/>
</g>
<!-- gifti_surface_wfget_surfaces&#45;&gt;gifti_surface_wfsurface_list -->
<g id="edge14" class="edge">
<title>gifti_surface_wfget_surfaces:e&#45;&gt;gifti_surface_wfsurface_list:w</title>
<path fill="none" stroke="black" d="M339.43,-1190.5C375.21,-1190.5 340.14,-1145.74 338.43,-1110 334.87,-1035.53 266.13,-783.24 327.42,-759.76"/>
<polygon fill="black" stroke="black" points="328.18,-763.18 337.43,-758 326.97,-756.28 328.18,-763.18"/>
</g>
<!-- gifti_surface_wfget_surfaces&#45;&gt;gifti_surface_wfsurface_list -->
<g id="edge18" class="edge">
<title>gifti_surface_wfget_surfaces:e&#45;&gt;gifti_surface_wfsurface_list:w</title>
<path fill="none" stroke="black" d="M339.43,-1121.5C344.56,-1121.5 340.03,-1114.87 338.43,-1110 332.57,-1092.19 322.68,-1091.68 316.43,-1074 274.11,-954.27 210.47,-790.26 327.16,-781.38"/>
<polygon fill="black" stroke="black" points="327.56,-784.86 337.43,-781 327.31,-777.87 327.56,-784.86"/>
</g>
<!-- gifti_surface_wfmidthickness&#45;&gt;gifti_surface_wfsave_midthickness -->
<g id="edge24" class="edge">
<title>gifti_surface_wfmidthickness:e&#45;&gt;gifti_surface_wfsave_midthickness:w</title>
<path fill="none" stroke="black" d="M642.43,-1010.5C650.44,-1010.5 645.91,-999.14 641.43,-992.5 613.69,-951.37 567.27,-986.72 540.43,-945 522.97,-917.87 507.08,-874.42 529.41,-865.24"/>
<polygon fill="black" stroke="black" points="530.17,-868.66 539.43,-863.5 528.98,-861.76 530.17,-868.66"/>
</g>
<!-- gifti_surface_wfmorphs2gii -->
<g id="node6" class="node">
<title>gifti_surface_wfmorphs2gii</title>
<polygon fill="none" stroke="black" points="314.93,-488.5 314.93,-557.5 619.93,-557.5 619.93,-488.5 314.93,-488.5"/>
<text text-anchor="middle" x="374.43" y="-536.8" font-family="Times,serif" font-size="14.00">IN</text>
<polyline fill="none" stroke="black" points="314.93,-523.5 433.93,-523.5 "/>
<text text-anchor="middle" x="374.43" y="-502.3" font-family="Times,serif" font-size="14.00">scalarcurv_file</text>
<polyline fill="none" stroke="black" points="433.93,-488.5 433.93,-557.5 "/>
<text text-anchor="middle" x="482.93" y="-542.3" font-family="Times,serif" font-size="14.00">morphs2gii</text>
<polyline fill="none" stroke="black" points="433.93,-534.5 531.93,-534.5 "/>
<text text-anchor="middle" x="482.93" y="-519.3" font-family="Times,serif" font-size="14.00">freesurfer</text>
<polyline fill="none" stroke="black" points="433.93,-511.5 531.93,-511.5 "/>
<text text-anchor="middle" x="482.93" y="-496.3" font-family="Times,serif" font-size="14.00"> </text>
<polyline fill="none" stroke="black" points="531.93,-488.5 531.93,-557.5 "/>
<text text-anchor="middle" x="575.93" y="-536.8" font-family="Times,serif" font-size="14.00">OUT</text>
<polyline fill="none" stroke="black" points="531.93,-523.5 619.93,-523.5 "/>
<text text-anchor="middle" x="575.93" y="-502.3" font-family="Times,serif" font-size="14.00">converted</text>
</g>
<!-- gifti_surface_wfsurfmorph_list&#45;&gt;gifti_surface_wfmorphs2gii -->
<g id="edge29" class="edge">
<title>gifti_surface_wfsurfmorph_list:e&#45;&gt;gifti_surface_wfmorphs2gii:w</title>
<path fill="none" stroke="black" d="M254.43,-1004.5C256.55,-1004.5 257.24,-854.11 257.43,-852 271.13,-700.34 162.7,-514.56 303.34,-506.29"/>
<polygon fill="black" stroke="black" points="303.53,-509.78 313.43,-506 303.33,-502.79 303.53,-509.78"/>
</g>
<!-- gifti_surface_wfsave_midthickness&#45;&gt;gifti_surface_wfsurface_list -->
<g id="edge27" class="edge">
<title>gifti_surface_wfsave_midthickness:e&#45;&gt;gifti_surface_wfsurface_list:w</title>
<path fill="none" stroke="black" d="M881.43,-875.5C891.88,-875.5 887.73,-859.48 880.43,-852 796.1,-765.64 421.33,-903.74 338.43,-816 309.29,-785.16 293.85,-723.3 327.27,-713.36"/>
<polygon fill="black" stroke="black" points="327.98,-716.8 337.43,-712 327.05,-709.86 327.98,-716.8"/>
</g>
<!-- gifti_surface_wfagg_surfaces -->
<g id="node10" class="node">
<title>gifti_surface_wfagg_surfaces</title>
<polygon fill="none" stroke="black" points="648.43,-267.5 648.43,-451.5 994.43,-451.5 994.43,-267.5 648.43,-267.5"/>
<text text-anchor="middle" x="710.93" y="-417.3" font-family="Times,serif" font-size="14.00">IN</text>
<polyline fill="none" stroke="black" points="648.43,-390.5 773.43,-390.5 "/>
<text text-anchor="middle" x="710.93" y="-356.3" font-family="Times,serif" font-size="14.00">morphometrics</text>
<polyline fill="none" stroke="black" points="648.43,-329.5 773.43,-329.5 "/>
<text text-anchor="middle" x="710.93" y="-294.8" font-family="Times,serif" font-size="14.00">surfaces</text>
<polyline fill="none" stroke="black" points="773.43,-267.5 773.43,-451.5 "/>
<text text-anchor="middle" x="828.43" y="-417.3" font-family="Times,serif" font-size="14.00">agg_surfaces</text>
<polyline fill="none" stroke="black" points="773.43,-390.5 883.43,-390.5 "/>
<text text-anchor="middle" x="828.43" y="-356.3" font-family="Times,serif" font-size="14.00">surf</text>
<polyline fill="none" stroke="black" points="773.43,-329.5 883.43,-329.5 "/>
<text text-anchor="middle" x="828.43" y="-294.8" font-family="Times,serif" font-size="14.00"> </text>
<polyline fill="none" stroke="black" points="883.43,-267.5 883.43,-451.5 "/>
<text text-anchor="middle" x="938.93" y="-436.3" font-family="Times,serif" font-size="14.00">OUT</text>
<polyline fill="none" stroke="black" points="883.43,-428.5 994.43,-428.5 "/>
<text text-anchor="middle" x="938.93" y="-413.3" font-family="Times,serif" font-size="14.00">curv</text>
<polyline fill="none" stroke="black" points="883.43,-405.5 994.43,-405.5 "/>
<text text-anchor="middle" x="938.93" y="-390.3" font-family="Times,serif" font-size="14.00">inflated</text>
<polyline fill="none" stroke="black" points="883.43,-382.5 994.43,-382.5 "/>
<text text-anchor="middle" x="938.93" y="-367.3" font-family="Times,serif" font-size="14.00">midthickness</text>
<polyline fill="none" stroke="black" points="883.43,-359.5 994.43,-359.5 "/>
<text text-anchor="middle" x="938.93" y="-344.3" font-family="Times,serif" font-size="14.00">pial</text>
<polyline fill="none" stroke="black" points="883.43,-336.5 994.43,-336.5 "/>
<text text-anchor="middle" x="938.93" y="-321.3" font-family="Times,serif" font-size="14.00">sulc</text>
<polyline fill="none" stroke="black" points="883.43,-313.5 994.43,-313.5 "/>
<text text-anchor="middle" x="938.93" y="-298.3" font-family="Times,serif" font-size="14.00">thickness</text>
<polyline fill="none" stroke="black" points="883.43,-290.5 994.43,-290.5 "/>
<text text-anchor="middle" x="938.93" y="-275.3" font-family="Times,serif" font-size="14.00">white</text>
</g>
<!-- gifti_surface_wfmorphs2gii&#45;&gt;gifti_surface_wfagg_surfaces -->
<g id="edge25" class="edge">
<title>gifti_surface_wfmorphs2gii:e&#45;&gt;gifti_surface_wfagg_surfaces:w</title>
<path fill="none" stroke="black" d="M621.43,-506C646.11,-506 629.8,-476.25 634.43,-452 637.59,-435.45 630.49,-384.48 639.18,-366.7"/>
<polygon fill="black" stroke="black" points="641.54,-369.3 647.43,-360.5 637.33,-363.71 641.54,-369.3"/>
</g>
<!-- gifti_surface_wfoutputnode -->
<g id="node11" class="node">
<title>gifti_surface_wfoutputnode</title>
<polygon fill="none" stroke="black" points="994.43,-0.5 994.43,-230.5 1266.43,-230.5 1266.43,-0.5 994.43,-0.5"/>
<text text-anchor="middle" x="1056.93" y="-215.3" font-family="Times,serif" font-size="14.00">IN</text>
<polyline fill="none" stroke="black" points="994.43,-207.5 1119.43,-207.5 "/>
<text text-anchor="middle" x="1056.93" y="-192.3" font-family="Times,serif" font-size="14.00">curv</text>
<polyline fill="none" stroke="black" points="994.43,-184.5 1119.43,-184.5 "/>
<text text-anchor="middle" x="1056.93" y="-169.3" font-family="Times,serif" font-size="14.00">inflated</text>
<polyline fill="none" stroke="black" points="994.43,-161.5 1119.43,-161.5 "/>
<text text-anchor="middle" x="1056.93" y="-146.3" font-family="Times,serif" font-size="14.00">midthickness</text>
<polyline fill="none" stroke="black" points="994.43,-138.5 1119.43,-138.5 "/>
<text text-anchor="middle" x="1056.93" y="-123.3" font-family="Times,serif" font-size="14.00">morphometrics</text>
<polyline fill="none" stroke="black" points="994.43,-115.5 1119.43,-115.5 "/>
<text text-anchor="middle" x="1056.93" y="-100.3" font-family="Times,serif" font-size="14.00">pial</text>
<polyline fill="none" stroke="black" points="994.43,-92.5 1119.43,-92.5 "/>
<text text-anchor="middle" x="1056.93" y="-77.3" font-family="Times,serif" font-size="14.00">sulc</text>
<polyline fill="none" stroke="black" points="994.43,-69.5 1119.43,-69.5 "/>
<text text-anchor="middle" x="1056.93" y="-54.3" font-family="Times,serif" font-size="14.00">surfaces</text>
<polyline fill="none" stroke="black" points="994.43,-46.5 1119.43,-46.5 "/>
<text text-anchor="middle" x="1056.93" y="-31.3" font-family="Times,serif" font-size="14.00">thickness</text>
<polyline fill="none" stroke="black" points="994.43,-23.5 1119.43,-23.5 "/>
<text text-anchor="middle" x="1056.93" y="-8.3" font-family="Times,serif" font-size="14.00">white</text>
<polyline fill="none" stroke="black" points="1119.43,-0.5 1119.43,-230.5 "/>
<text text-anchor="middle" x="1168.43" y="-188.8" font-family="Times,serif" font-size="14.00">outputnode</text>
<polyline fill="none" stroke="black" points="1119.43,-154.5 1217.43,-154.5 "/>
<text text-anchor="middle" x="1168.43" y="-112.3" font-family="Times,serif" font-size="14.00">utility</text>
<polyline fill="none" stroke="black" points="1119.43,-77.5 1217.43,-77.5 "/>
<text text-anchor="middle" x="1168.43" y="-35.3" font-family="Times,serif" font-size="14.00"> </text>
<polyline fill="none" stroke="black" points="1217.43,-0.5 1217.43,-230.5 "/>
<text text-anchor="middle" x="1241.93" y="-111.8" font-family="Times,serif" font-size="14.00">OUT</text>
</g>
<!-- gifti_surface_wfmorphs2gii&#45;&gt;gifti_surface_wfoutputnode -->
<g id="edge26" class="edge">
<title>gifti_surface_wfmorphs2gii:e&#45;&gt;gifti_surface_wfoutputnode:w</title>
<path fill="none" stroke="black" d="M621.43,-506C648.06,-506 623.63,-288.44 639.43,-267 737.72,-133.68 820.85,-127.69 983.13,-127.51"/>
<polygon fill="black" stroke="black" points="983.43,-131.01 993.43,-127.5 983.43,-124.01 983.43,-131.01"/>
</g>
<!-- gifti_surface_wffs2gii -->
<g id="node8" class="node">
<title>gifti_surface_wffs2gii</title>
<polygon fill="none" stroke="black" points="524.43,-594.5 524.43,-663.5 760.43,-663.5 760.43,-594.5 524.43,-594.5"/>
<text text-anchor="middle" x="553.93" y="-642.8" font-family="Times,serif" font-size="14.00">IN</text>
<polyline fill="none" stroke="black" points="524.43,-629.5 583.43,-629.5 "/>
<text text-anchor="middle" x="553.93" y="-608.3" font-family="Times,serif" font-size="14.00">in_file</text>
<polyline fill="none" stroke="black" points="583.43,-594.5 583.43,-663.5 "/>
<text text-anchor="middle" x="627.93" y="-648.3" font-family="Times,serif" font-size="14.00">fs2gii</text>
<polyline fill="none" stroke="black" points="583.43,-640.5 672.43,-640.5 "/>
<text text-anchor="middle" x="627.93" y="-625.3" font-family="Times,serif" font-size="14.00">freesurfer</text>
<polyline fill="none" stroke="black" points="583.43,-617.5 672.43,-617.5 "/>
<text text-anchor="middle" x="627.93" y="-602.3" font-family="Times,serif" font-size="14.00"> </text>
<polyline fill="none" stroke="black" points="672.43,-594.5 672.43,-663.5 "/>
<text text-anchor="middle" x="716.43" y="-642.8" font-family="Times,serif" font-size="14.00">OUT</text>
<polyline fill="none" stroke="black" points="672.43,-629.5 760.43,-629.5 "/>
<text text-anchor="middle" x="716.43" y="-608.3" font-family="Times,serif" font-size="14.00">converted</text>
</g>
<!-- gifti_surface_wfsurface_list&#45;&gt;gifti_surface_wffs2gii -->
<g id="edge28" class="edge">
<title>gifti_surface_wfsurface_list:e&#45;&gt;gifti_surface_wffs2gii:w</title>
<path fill="none" stroke="black" d="M525.43,-729C573.17,-729 487.75,-630.41 513.65,-614.23"/>
<polygon fill="black" stroke="black" points="514.46,-617.64 523.43,-612 512.9,-610.81 514.46,-617.64"/>
</g>
<!-- gifti_surface_wffs2gii&#45;&gt;gifti_surface_wffix_surfs -->
<g id="edge10" class="edge">
<title>gifti_surface_wffs2gii:e&#45;&gt;gifti_surface_wffix_surfs:w</title>
<path fill="none" stroke="black" d="M761.43,-612C796.05,-612 738.26,-543.86 749.78,-526.82"/>
<polygon fill="black" stroke="black" points="751.42,-529.94 759.43,-523 748.84,-523.43 751.42,-529.94"/>
</g>
<!-- gifti_surface_wffix_surfs&#45;&gt;gifti_surface_wfagg_surfaces -->
<g id="edge8" class="edge">
<title>gifti_surface_wffix_surfs:e&#45;&gt;gifti_surface_wfagg_surfaces:w</title>
<path fill="none" stroke="black" d="M1023.43,-506C1031.44,-506 1027.98,-493.78 1022.43,-488 964.6,-427.78 704.77,-513.62 648.43,-452 638.63,-441.28 632.43,-337.51 641.33,-306.93"/>
<polygon fill="black" stroke="black" points="644.41,-308.65 647.43,-298.5 638.73,-304.55 644.41,-308.65"/>
</g>
<!-- gifti_surface_wffix_surfs&#45;&gt;gifti_surface_wfoutputnode -->
<g id="edge9" class="edge">
<title>gifti_surface_wffix_surfs:e&#45;&gt;gifti_surface_wfoutputnode:w</title>
<path fill="none" stroke="black" d="M1023.43,-506C1119.42,-506 910.99,-91.85 983.19,-59.5"/>
<polygon fill="black" stroke="black" points="984.29,-62.85 993.43,-57.5 982.94,-55.98 984.29,-62.85"/>
</g>
<!-- gifti_surface_wfagg_surfaces&#45;&gt;gifti_surface_wfoutputnode -->
<g id="edge1" class="edge">
<title>gifti_surface_wfagg_surfaces:e&#45;&gt;gifti_surface_wfoutputnode:w</title>
<path fill="none" stroke="black" d="M995.43,-417.5C1012.15,-417.5 994.6,-283.72 994.43,-267 994.15,-240.32 970.9,-207.95 983.35,-198.94"/>
<polygon fill="black" stroke="black" points="984.53,-202.25 993.43,-196.5 982.89,-195.45 984.53,-202.25"/>
</g>
<!-- gifti_surface_wfagg_surfaces&#45;&gt;gifti_surface_wfoutputnode -->
<g id="edge2" class="edge">
<title>gifti_surface_wfagg_surfaces:e&#45;&gt;gifti_surface_wfoutputnode:w</title>
<path fill="none" stroke="black" d="M995.43,-394.5C1023.76,-394.5 994.69,-295.33 994.43,-267 994.08,-229.66 960.01,-183.94 983.23,-175.04"/>
<polygon fill="black" stroke="black" points="984.06,-178.46 993.43,-173.5 983.02,-171.53 984.06,-178.46"/>
</g>
<!-- gifti_surface_wfagg_surfaces&#45;&gt;gifti_surface_wfoutputnode -->
<g id="edge3" class="edge">
<title>gifti_surface_wfagg_surfaces:e&#45;&gt;gifti_surface_wfoutputnode:w</title>
<path fill="none" stroke="black" d="M995.43,-371.5C1017.11,-371.5 979.81,-199.26 987.67,-158.89"/>
<polygon fill="black" stroke="black" points="990.66,-160.73 993.43,-150.5 984.89,-156.77 990.66,-160.73"/>
</g>
<!-- gifti_surface_wfagg_surfaces&#45;&gt;gifti_surface_wfoutputnode -->
<g id="edge4" class="edge">
<title>gifti_surface_wfagg_surfaces:e&#45;&gt;gifti_surface_wfoutputnode:w</title>
<path fill="none" stroke="black" d="M995.43,-347.5C1021.32,-347.5 994.64,-256.89 994.43,-231 994,-178.32 944.52,-113.39 983.11,-104.52"/>
<polygon fill="black" stroke="black" points="983.82,-107.97 993.43,-103.5 983.13,-101 983.82,-107.97"/>
</g>
<!-- gifti_surface_wfagg_surfaces&#45;&gt;gifti_surface_wfoutputnode -->
<g id="edge5" class="edge">
<title>gifti_surface_wfagg_surfaces:e&#45;&gt;gifti_surface_wfoutputnode:w</title>
<path fill="none" stroke="black" d="M995.43,-324.5C1016.21,-324.5 994.61,-251.78 994.43,-231 993.88,-167.9 933.95,-89.92 983.32,-81.29"/>
<polygon fill="black" stroke="black" points="983.73,-84.77 993.43,-80.5 983.19,-77.79 983.73,-84.77"/>
</g>
<!-- gifti_surface_wfagg_surfaces&#45;&gt;gifti_surface_wfoutputnode -->
<g id="edge6" class="edge">
<title>gifti_surface_wfagg_surfaces:e&#45;&gt;gifti_surface_wfoutputnode:w</title>
<path fill="none" stroke="black" d="M995.43,-301.5C1011.1,-301.5 994.58,-246.67 994.43,-231 993.62,-147.42 913.45,-43.84 983.12,-35.09"/>
<polygon fill="black" stroke="black" points="983.65,-38.57 993.43,-34.5 983.24,-31.58 983.65,-38.57"/>
</g>
<!-- gifti_surface_wfagg_surfaces&#45;&gt;gifti_surface_wfoutputnode -->
<g id="edge7" class="edge">
<title>gifti_surface_wfagg_surfaces:e&#45;&gt;gifti_surface_wfoutputnode:w</title>
<path fill="none" stroke="black" d="M995.43,-278.5C1016.54,-278.5 994.7,-252.11 994.43,-231 993.23,-137.07 902.96,-20.52 983.36,-12"/>
<polygon fill="black" stroke="black" points="983.61,-15.49 993.43,-11.5 983.27,-8.5 983.61,-15.49"/>
</g>
</g>
</svg>
