<?xml version="1.0" encoding="UTF-8" standalone="no"?>
<!DOCTYPE svg PUBLIC "-//W3C//DTD SVG 1.1//EN"
 "http://www.w3.org/Graphics/SVG/1.1/DTD/svg11.dtd">
<!-- Generated by graphviz version 2.43.0 (0)
 -->
<!-- Title: structs Pages: 1 -->
<svg width="1534pt" height="944pt"
 viewBox="0.00 0.00 1534.00 944.00" xmlns="http://www.w3.org/2000/svg" xmlns:xlink="http://www.w3.org/1999/xlink">
<g id="graph0" class="graph" transform="scale(1 1) rotate(0) translate(4 940)">
<title>structs</title>
<polygon fill="white" stroke="transparent" points="-4,4 -4,-940 1530,-940 1530,4 -4,4"/>
<!-- gifti_surface_wfinputnode -->
<g id="node1" class="node">
<title>gifti_surface_wfinputnode</title>
<polygon fill="none" stroke="black" points="0,-843.5 0,-935.5 266,-935.5 266,-843.5 0,-843.5"/>
<text text-anchor="middle" x="17" y="-885.8" font-family="Times,serif" font-size="14.00">IN</text>
<polyline fill="none" stroke="black" points="34,-843.5 34,-935.5 "/>
<text text-anchor="middle" x="78.5" y="-916.8" font-family="Times,serif" font-size="14.00">inputnode</text>
<polyline fill="none" stroke="black" points="34,-905.5 123,-905.5 "/>
<text text-anchor="middle" x="78.5" y="-886.3" font-family="Times,serif" font-size="14.00">utility</text>
<polyline fill="none" stroke="black" points="34,-874.5 123,-874.5 "/>
<text text-anchor="middle" x="78.5" y="-855.3" font-family="Times,serif" font-size="14.00"> </text>
<polyline fill="none" stroke="black" points="123,-843.5 123,-935.5 "/>
<text text-anchor="middle" x="194.5" y="-920.3" font-family="Times,serif" font-size="14.00">OUT</text>
<polyline fill="none" stroke="black" points="123,-912.5 266,-912.5 "/>
<text text-anchor="middle" x="194.5" y="-897.3" font-family="Times,serif" font-size="14.00">fsnative2t1w_xfm</text>
<polyline fill="none" stroke="black" points="123,-889.5 266,-889.5 "/>
<text text-anchor="middle" x="194.5" y="-874.3" font-family="Times,serif" font-size="14.00">subject_id</text>
<polyline fill="none" stroke="black" points="123,-866.5 266,-866.5 "/>
<text text-anchor="middle" x="194.5" y="-851.3" font-family="Times,serif" font-size="14.00">subjects_dir</text>
</g>
<!-- gifti_surface_wfget_surfaces -->
<g id="node2" class="node">
<title>gifti_surface_wfget_surfaces</title>
<polygon fill="none" stroke="black" points="266.5,-691.5 266.5,-806.5 587.5,-806.5 587.5,-691.5 266.5,-691.5"/>
<text text-anchor="middle" x="318" y="-783.8" font-family="Times,serif" font-size="14.00">IN</text>
<polyline fill="none" stroke="black" points="266.5,-768.5 369.5,-768.5 "/>
<text text-anchor="middle" x="318" y="-745.8" font-family="Times,serif" font-size="14.00">subject_id</text>
<polyline fill="none" stroke="black" points="266.5,-730.5 369.5,-730.5 "/>
<text text-anchor="middle" x="318" y="-707.3" font-family="Times,serif" font-size="14.00">subjects_dir</text>
<polyline fill="none" stroke="black" points="369.5,-691.5 369.5,-806.5 "/>
<text text-anchor="middle" x="423" y="-783.8" font-family="Times,serif" font-size="14.00">get_surfaces</text>
<polyline fill="none" stroke="black" points="369.5,-768.5 476.5,-768.5 "/>
<text text-anchor="middle" x="423" y="-745.8" font-family="Times,serif" font-size="14.00">utility</text>
<polyline fill="none" stroke="black" points="369.5,-730.5 476.5,-730.5 "/>
<text text-anchor="middle" x="423" y="-707.3" font-family="Times,serif" font-size="14.00"> </text>
<polyline fill="none" stroke="black" points="476.5,-691.5 476.5,-806.5 "/>
<text text-anchor="middle" x="532" y="-791.3" font-family="Times,serif" font-size="14.00">OUT</text>
<polyline fill="none" stroke="black" points="476.5,-783.5 587.5,-783.5 "/>
<text text-anchor="middle" x="532" y="-768.3" font-family="Times,serif" font-size="14.00">inflated</text>
<polyline fill="none" stroke="black" points="476.5,-760.5 587.5,-760.5 "/>
<text text-anchor="middle" x="532" y="-745.3" font-family="Times,serif" font-size="14.00">midthickness</text>
<polyline fill="none" stroke="black" points="476.5,-737.5 587.5,-737.5 "/>
<text text-anchor="middle" x="532" y="-722.3" font-family="Times,serif" font-size="14.00">pial</text>
<polyline fill="none" stroke="black" points="476.5,-714.5 587.5,-714.5 "/>
<text text-anchor="middle" x="532" y="-699.3" font-family="Times,serif" font-size="14.00">white</text>
</g>
<!-- gifti_surface_wfinputnode&#45;&gt;gifti_surface_wfget_surfaces -->
<g id="edge9" class="edge">
<title>gifti_surface_wfinputnode:e&#45;&gt;gifti_surface_wfget_surfaces:w</title>
<path fill="none" stroke="black" d="M267,-877.5C319.47,-877.5 224.5,-768.22 255.08,-752"/>
<polygon fill="black" stroke="black" points="255.89,-755.41 265,-750 254.51,-748.55 255.89,-755.41"/>
</g>
<!-- gifti_surface_wfinputnode&#45;&gt;gifti_surface_wfget_surfaces -->
<g id="edge10" class="edge">
<title>gifti_surface_wfinputnode:e&#45;&gt;gifti_surface_wfget_surfaces:w</title>
<path fill="none" stroke="black" d="M267,-854.5C288.12,-854.5 266.33,-828.11 266,-807 265.39,-768.5 230.33,-721.32 254.83,-712.47"/>
<polygon fill="black" stroke="black" points="255.6,-715.89 265,-711 254.6,-708.96 255.6,-715.89"/>
</g>
<!-- gifti_surface_wffix_surfs -->
<g id="node5" class="node">
<title>gifti_surface_wffix_surfs</title>
<polygon fill="none" stroke="black" points="906.5,-327.5 906.5,-396.5 1167.5,-396.5 1167.5,-327.5 906.5,-327.5"/>
<text text-anchor="middle" x="964.5" y="-381.3" font-family="Times,serif" font-size="14.00">IN</text>
<polyline fill="none" stroke="black" points="906.5,-373.5 1022.5,-373.5 "/>
<text text-anchor="middle" x="964.5" y="-358.3" font-family="Times,serif" font-size="14.00">in_file</text>
<polyline fill="none" stroke="black" points="906.5,-350.5 1022.5,-350.5 "/>
<text text-anchor="middle" x="964.5" y="-335.3" font-family="Times,serif" font-size="14.00">transform_file</text>
<polyline fill="none" stroke="black" points="1022.5,-327.5 1022.5,-396.5 "/>
<text text-anchor="middle" x="1061" y="-381.3" font-family="Times,serif" font-size="14.00">fix_surfs</text>
<polyline fill="none" stroke="black" points="1022.5,-373.5 1099.5,-373.5 "/>
<text text-anchor="middle" x="1061" y="-358.3" font-family="Times,serif" font-size="14.00">surf</text>
<polyline fill="none" stroke="black" points="1022.5,-350.5 1099.5,-350.5 "/>
<text text-anchor="middle" x="1061" y="-335.3" font-family="Times,serif" font-size="14.00"> </text>
<polyline fill="none" stroke="black" points="1099.5,-327.5 1099.5,-396.5 "/>
<text text-anchor="middle" x="1133.5" y="-375.8" font-family="Times,serif" font-size="14.00">OUT</text>
<polyline fill="none" stroke="black" points="1099.5,-362.5 1167.5,-362.5 "/>
<text text-anchor="middle" x="1133.5" y="-341.3" font-family="Times,serif" font-size="14.00">out_file</text>
</g>
<!-- gifti_surface_wfinputnode&#45;&gt;gifti_surface_wffix_surfs -->
<g id="edge8" class="edge">
<title>gifti_surface_wfinputnode:e&#45;&gt;gifti_surface_wffix_surfs:w</title>
<path fill="none" stroke="black" d="M267,-901.5C521.16,-901.5 605.31,-836.72 783,-655 842.79,-593.85 872.3,-583.56 901,-503 902.3,-499.36 900.99,-384.05 903.34,-349.01"/>
<polygon fill="black" stroke="black" points="906.82,-349.44 905,-339 899.91,-348.29 906.82,-349.44"/>
</g>
<!-- gifti_surface_wfsurface_list -->
<g id="node3" class="node">
<title>gifti_surface_wfsurface_list</title>
<polygon fill="none" stroke="black" points="588,-539.5 588,-654.5 774,-654.5 774,-539.5 588,-539.5"/>
<text text-anchor="middle" x="607.5" y="-639.3" font-family="Times,serif" font-size="14.00">IN</text>
<polyline fill="none" stroke="black" points="588,-631.5 627,-631.5 "/>
<text text-anchor="middle" x="607.5" y="-616.3" font-family="Times,serif" font-size="14.00">in1</text>
<polyline fill="none" stroke="black" points="588,-608.5 627,-608.5 "/>
<text text-anchor="middle" x="607.5" y="-593.3" font-family="Times,serif" font-size="14.00">in2</text>
<polyline fill="none" stroke="black" points="588,-585.5 627,-585.5 "/>
<text text-anchor="middle" x="607.5" y="-570.3" font-family="Times,serif" font-size="14.00">in3</text>
<polyline fill="none" stroke="black" points="588,-562.5 627,-562.5 "/>
<text text-anchor="middle" x="607.5" y="-547.3" font-family="Times,serif" font-size="14.00">in4</text>
<polyline fill="none" stroke="black" points="627,-539.5 627,-654.5 "/>
<text text-anchor="middle" x="676" y="-631.8" font-family="Times,serif" font-size="14.00">surface_list</text>
<polyline fill="none" stroke="black" points="627,-616.5 725,-616.5 "/>
<text text-anchor="middle" x="676" y="-593.8" font-family="Times,serif" font-size="14.00">utility</text>
<polyline fill="none" stroke="black" points="627,-578.5 725,-578.5 "/>
<text text-anchor="middle" x="676" y="-555.3" font-family="Times,serif" font-size="14.00"> </text>
<polyline fill="none" stroke="black" points="725,-539.5 725,-654.5 "/>
<text text-anchor="middle" x="749.5" y="-622.3" font-family="Times,serif" font-size="14.00">OUT</text>
<polyline fill="none" stroke="black" points="725,-597.5 774,-597.5 "/>
<text text-anchor="middle" x="749.5" y="-564.8" font-family="Times,serif" font-size="14.00">out</text>
</g>
<!-- gifti_surface_wfget_surfaces&#45;&gt;gifti_surface_wfsurface_list -->
<g id="edge4" class="edge">
<title>gifti_surface_wfget_surfaces:e&#45;&gt;gifti_surface_wfsurface_list:w</title>
<path fill="none" stroke="black" d="M589,-772C673.05,-772 514.45,-591.39 576.7,-575.16"/>
<polygon fill="black" stroke="black" points="577.46,-578.6 587,-574 576.67,-571.64 577.46,-578.6"/>
</g>
<!-- gifti_surface_wfget_surfaces&#45;&gt;gifti_surface_wfsurface_list -->
<g id="edge5" class="edge">
<title>gifti_surface_wfget_surfaces:e&#45;&gt;gifti_surface_wfsurface_list:w</title>
<path fill="none" stroke="black" d="M589,-749C652.47,-749 535.29,-614.85 576.89,-598.6"/>
<polygon fill="black" stroke="black" points="577.67,-602.02 587,-597 576.58,-595.11 577.67,-602.02"/>
</g>
<!-- gifti_surface_wfget_surfaces&#45;&gt;gifti_surface_wfsurface_list -->
<g id="edge6" class="edge">
<title>gifti_surface_wfget_surfaces:e&#45;&gt;gifti_surface_wfsurface_list:w</title>
<path fill="none" stroke="black" d="M589,-726C631.7,-726 556.67,-638.94 577.29,-622.62"/>
<polygon fill="black" stroke="black" points="578.26,-625.98 587,-620 576.43,-619.23 578.26,-625.98"/>
</g>
<!-- gifti_surface_wfget_surfaces&#45;&gt;gifti_surface_wfsurface_list -->
<g id="edge7" class="edge">
<title>gifti_surface_wfget_surfaces:e&#45;&gt;gifti_surface_wfsurface_list:w</title>
<path fill="none" stroke="black" d="M589,-703C610.34,-703 588.32,-676.34 588,-655 587.36,-612.75 548.43,-560.85 577.05,-552.24"/>
<polygon fill="black" stroke="black" points="577.51,-555.71 587,-551 576.64,-548.76 577.51,-555.71"/>
</g>
<!-- gifti_surface_wffs2gii -->
<g id="node4" class="node">
<title>gifti_surface_wffs2gii</title>
<polygon fill="none" stroke="black" points="656,-433.5 656,-502.5 892,-502.5 892,-433.5 656,-433.5"/>
<text text-anchor="middle" x="685.5" y="-481.8" font-family="Times,serif" font-size="14.00">IN</text>
<polyline fill="none" stroke="black" points="656,-468.5 715,-468.5 "/>
<text text-anchor="middle" x="685.5" y="-447.3" font-family="Times,serif" font-size="14.00">in_file</text>
<polyline fill="none" stroke="black" points="715,-433.5 715,-502.5 "/>
<text text-anchor="middle" x="759.5" y="-487.3" font-family="Times,serif" font-size="14.00">fs2gii</text>
<polyline fill="none" stroke="black" points="715,-479.5 804,-479.5 "/>
<text text-anchor="middle" x="759.5" y="-464.3" font-family="Times,serif" font-size="14.00">freesurfer</text>
<polyline fill="none" stroke="black" points="715,-456.5 804,-456.5 "/>
<text text-anchor="middle" x="759.5" y="-441.3" font-family="Times,serif" font-size="14.00"> </text>
<polyline fill="none" stroke="black" points="804,-433.5 804,-502.5 "/>
<text text-anchor="middle" x="848" y="-481.8" font-family="Times,serif" font-size="14.00">OUT</text>
<polyline fill="none" stroke="black" points="804,-468.5 892,-468.5 "/>
<text text-anchor="middle" x="848" y="-447.3" font-family="Times,serif" font-size="14.00">converted</text>
</g>
<!-- gifti_surface_wfsurface_list&#45;&gt;gifti_surface_wffs2gii -->
<g id="edge15" class="edge">
<title>gifti_surface_wfsurface_list:e&#45;&gt;gifti_surface_wffs2gii:w</title>
<path fill="none" stroke="black" d="M775,-568C787.9,-568 781.85,-549.23 774,-539 740.62,-495.5 689.05,-546.75 656,-503 644.68,-488.01 635.83,-463.05 645.31,-454.22"/>
<polygon fill="black" stroke="black" points="646.61,-457.47 655,-451 644.41,-450.83 646.61,-457.47"/>
</g>
<!-- gifti_surface_wffs2gii&#45;&gt;gifti_surface_wffix_surfs -->
<g id="edge3" class="edge">
<title>gifti_surface_wffs2gii:e&#45;&gt;gifti_surface_wffix_surfs:w</title>
<path fill="none" stroke="black" d="M893,-451C909.37,-451 893.53,-391.11 898.32,-369.59"/>
<polygon fill="black" stroke="black" points="901.02,-371.82 905,-362 895.77,-367.2 901.02,-371.82"/>
</g>
<!-- gifti_surface_wfsurface_groups -->
<g id="node6" class="node">
<title>gifti_surface_wfsurface_groups</title>
<polygon fill="none" stroke="black" points="1040.5,-175.5 1040.5,-290.5 1267.5,-290.5 1267.5,-175.5 1040.5,-175.5"/>
<text text-anchor="middle" x="1067" y="-258.3" font-family="Times,serif" font-size="14.00">IN</text>
<polyline fill="none" stroke="black" points="1040.5,-233.5 1093.5,-233.5 "/>
<text text-anchor="middle" x="1067" y="-200.8" font-family="Times,serif" font-size="14.00">inlist</text>
<polyline fill="none" stroke="black" points="1093.5,-175.5 1093.5,-290.5 "/>
<text text-anchor="middle" x="1156" y="-267.8" font-family="Times,serif" font-size="14.00">surface_groups</text>
<polyline fill="none" stroke="black" points="1093.5,-252.5 1218.5,-252.5 "/>
<text text-anchor="middle" x="1156" y="-229.8" font-family="Times,serif" font-size="14.00">utility</text>
<polyline fill="none" stroke="black" points="1093.5,-214.5 1218.5,-214.5 "/>
<text text-anchor="middle" x="1156" y="-191.3" font-family="Times,serif" font-size="14.00"> </text>
<polyline fill="none" stroke="black" points="1218.5,-175.5 1218.5,-290.5 "/>
<text text-anchor="middle" x="1243" y="-275.3" font-family="Times,serif" font-size="14.00">OUT</text>
<polyline fill="none" stroke="black" points="1218.5,-267.5 1267.5,-267.5 "/>
<text text-anchor="middle" x="1243" y="-252.3" font-family="Times,serif" font-size="14.00">out1</text>
<polyline fill="none" stroke="black" points="1218.5,-244.5 1267.5,-244.5 "/>
<text text-anchor="middle" x="1243" y="-229.3" font-family="Times,serif" font-size="14.00">out2</text>
<polyline fill="none" stroke="black" points="1218.5,-221.5 1267.5,-221.5 "/>
<text text-anchor="middle" x="1243" y="-206.3" font-family="Times,serif" font-size="14.00">out3</text>
<polyline fill="none" stroke="black" points="1218.5,-198.5 1267.5,-198.5 "/>
<text text-anchor="middle" x="1243" y="-183.3" font-family="Times,serif" font-size="14.00">out4</text>
</g>
<!-- gifti_surface_wffix_surfs&#45;&gt;gifti_surface_wfsurface_groups -->
<g id="edge2" class="edge">
<title>gifti_surface_wffix_surfs:e&#45;&gt;gifti_surface_wfsurface_groups:w</title>
<path fill="none" stroke="black" d="M1169,-345C1177.01,-345 1173.01,-333.25 1168,-327 1131.02,-280.9 1075.95,-337.9 1040,-291 1018.86,-263.43 1003.69,-215.17 1028.86,-205.66"/>
<polygon fill="black" stroke="black" points="1029.7,-209.07 1039,-204 1028.57,-202.16 1029.7,-209.07"/>
</g>
<!-- gifti_surface_wfoutputnode -->
<g id="node7" class="node">
<title>gifti_surface_wfoutputnode</title>
<polygon fill="none" stroke="black" points="1268,-0.5 1268,-138.5 1526,-138.5 1526,-0.5 1268,-0.5"/>
<text text-anchor="middle" x="1323.5" y="-123.3" font-family="Times,serif" font-size="14.00">IN</text>
<polyline fill="none" stroke="black" points="1268,-115.5 1379,-115.5 "/>
<text text-anchor="middle" x="1323.5" y="-100.3" font-family="Times,serif" font-size="14.00">inflated</text>
<polyline fill="none" stroke="black" points="1268,-92.5 1379,-92.5 "/>
<text text-anchor="middle" x="1323.5" y="-77.3" font-family="Times,serif" font-size="14.00">midthickness</text>
<polyline fill="none" stroke="black" points="1268,-69.5 1379,-69.5 "/>
<text text-anchor="middle" x="1323.5" y="-54.3" font-family="Times,serif" font-size="14.00">pial</text>
<polyline fill="none" stroke="black" points="1268,-46.5 1379,-46.5 "/>
<text text-anchor="middle" x="1323.5" y="-31.3" font-family="Times,serif" font-size="14.00">surfaces</text>
<polyline fill="none" stroke="black" points="1268,-23.5 1379,-23.5 "/>
<text text-anchor="middle" x="1323.5" y="-8.3" font-family="Times,serif" font-size="14.00">white</text>
<polyline fill="none" stroke="black" points="1379,-0.5 1379,-138.5 "/>
<text text-anchor="middle" x="1428" y="-111.8" font-family="Times,serif" font-size="14.00">outputnode</text>
<polyline fill="none" stroke="black" points="1379,-92.5 1477,-92.5 "/>
<text text-anchor="middle" x="1428" y="-65.8" font-family="Times,serif" font-size="14.00">utility</text>
<polyline fill="none" stroke="black" points="1379,-46.5 1477,-46.5 "/>
<text text-anchor="middle" x="1428" y="-19.8" font-family="Times,serif" font-size="14.00"> </text>
<polyline fill="none" stroke="black" points="1477,-0.5 1477,-138.5 "/>
<text text-anchor="middle" x="1501.5" y="-65.8" font-family="Times,serif" font-size="14.00">OUT</text>
</g>
<!-- gifti_surface_wffix_surfs&#45;&gt;gifti_surface_wfoutputnode -->
<g id="edge1" class="edge">
<title>gifti_surface_wffix_surfs:e&#45;&gt;gifti_surface_wfoutputnode:w</title>
<path fill="none" stroke="black" d="M1169,-345C1222.67,-345 1248.79,-336.65 1277,-291 1304.1,-247.14 1283.3,-226.17 1277,-175 1274.98,-158.63 1270.09,-155.36 1268,-139 1262.61,-96.89 1227.43,-44.45 1256.9,-35.75"/>
<polygon fill="black" stroke="black" points="1257.51,-39.2 1267,-34.5 1256.65,-32.25 1257.51,-39.2"/>
</g>
<!-- gifti_surface_wfsurface_groups&#45;&gt;gifti_surface_wfoutputnode -->
<g id="edge11" class="edge">
<title>gifti_surface_wfsurface_groups:e&#45;&gt;gifti_surface_wfoutputnode:w</title>
<path fill="none" stroke="black" d="M1269,-256C1308.98,-256 1238.62,-92.97 1257.91,-62.41"/>
<polygon fill="black" stroke="black" points="1259.86,-65.33 1267,-57.5 1256.54,-59.17 1259.86,-65.33"/>
</g>
<!-- gifti_surface_wfsurface_groups&#45;&gt;gifti_surface_wfoutputnode -->
<g id="edge12" class="edge">
<title>gifti_surface_wfsurface_groups:e&#45;&gt;gifti_surface_wfoutputnode:w</title>
<path fill="none" stroke="black" d="M1269,-233C1298.59,-233 1248.61,-115.97 1258.93,-87.63"/>
<polygon fill="black" stroke="black" points="1261.15,-90.34 1267,-81.5 1256.92,-84.76 1261.15,-90.34"/>
</g>
<!-- gifti_surface_wfsurface_groups&#45;&gt;gifti_surface_wfoutputnode -->
<g id="edge13" class="edge">
<title>gifti_surface_wfsurface_groups:e&#45;&gt;gifti_surface_wfoutputnode:w</title>
<path fill="none" stroke="black" d="M1269,-210C1288.51,-210 1257.94,-136.96 1260.62,-112.43"/>
<polygon fill="black" stroke="black" points="1263.46,-114.49 1267,-104.5 1258.01,-110.1 1263.46,-114.49"/>
</g>
<!-- gifti_surface_wfsurface_groups&#45;&gt;gifti_surface_wfoutputnode -->
<g id="edge14" class="edge">
<title>gifti_surface_wfsurface_groups:e&#45;&gt;gifti_surface_wfoutputnode:w</title>
<path fill="none" stroke="black" d="M1269,-187C1290.34,-187 1268.31,-160.34 1268,-139 1267.24,-86.32 1218.05,-21.39 1256.67,-12.52"/>
<polygon fill="black" stroke="black" points="1257.39,-15.97 1267,-11.5 1256.7,-9 1257.39,-15.97"/>
</g>
</g>
</svg>
