<?xml version="1.0" encoding="UTF-8" standalone="no"?>
<!DOCTYPE svg PUBLIC "-//W3C//DTD SVG 1.1//EN"
 "http://www.w3.org/Graphics/SVG/1.1/DTD/svg11.dtd">
<!-- Generated by graphviz version 2.43.0 (0)
 -->
<!-- Title: %3 Pages: 1 -->
<svg width="940pt" height="548pt"
 viewBox="0.00 0.00 939.78 548.00" xmlns="http://www.w3.org/2000/svg" xmlns:xlink="http://www.w3.org/1999/xlink">
<g id="graph0" class="graph" transform="scale(1 1) rotate(0) translate(4 544)">
<title>%3</title>
<polygon fill="white" stroke="transparent" points="-4,4 -4,-544 935.78,-544 935.78,4 -4,4"/>
<!-- inputnode (utility) -->
<g id="node1" class="node">
<title>inputnode (utility)</title>
<ellipse fill="none" stroke="black" cx="424.54" cy="-522" rx="94.78" ry="18"/>
<text text-anchor="middle" x="424.54" y="-518.3" font-family="Times,serif" font-size="14.00">inputnode (utility)</text>
</g>
<!-- recon_config (freesurfer) -->
<g id="node2" class="node">
<title>recon_config (freesurfer)</title>
<ellipse fill="none" stroke="black" cx="638.54" cy="-450" rx="125.38" ry="18"/>
<text text-anchor="middle" x="638.54" y="-446.3" font-family="Times,serif" font-size="14.00">recon_config (freesurfer)</text>
</g>
<!-- inputnode (utility)&#45;&gt;recon_config (freesurfer) -->
<g id="edge1" class="edge">
<title>inputnode (utility)&#45;&gt;recon_config (freesurfer)</title>
<path fill="none" stroke="black" d="M469.92,-506.15C502.33,-495.55 546.18,-481.21 581.04,-469.81"/>
<polygon fill="black" stroke="black" points="582.2,-473.11 590.62,-466.67 580.03,-466.46 582.2,-473.11"/>
</g>
<!-- autorecon1 (freesurfer) -->
<g id="node3" class="node">
<title>autorecon1 (freesurfer)</title>
<ellipse fill="none" stroke="black" cx="337.54" cy="-378" rx="119.68" ry="18"/>
<text text-anchor="middle" x="337.54" y="-374.3" font-family="Times,serif" font-size="14.00">autorecon1 (freesurfer)</text>
</g>
<!-- inputnode (utility)&#45;&gt;autorecon1 (freesurfer) -->
<g id="edge2" class="edge">
<title>inputnode (utility)&#45;&gt;autorecon1 (freesurfer)</title>
<path fill="none" stroke="black" d="M340.55,-513.59C311.02,-506.46 280.69,-493.04 262.54,-468 253.15,-455.05 255.18,-446.21 262.54,-432 269.2,-419.13 280.6,-408.71 292.52,-400.63"/>
<polygon fill="black" stroke="black" points="294.62,-403.44 301.23,-395.16 290.9,-397.51 294.62,-403.44"/>
</g>
<!-- fov_check (utility) -->
<g id="node4" class="node">
<title>fov_check (utility)</title>
<ellipse fill="none" stroke="black" cx="364.54" cy="-450" rx="92.88" ry="18"/>
<text text-anchor="middle" x="364.54" y="-446.3" font-family="Times,serif" font-size="14.00">fov_check (utility)</text>
</g>
<!-- inputnode (utility)&#45;&gt;fov_check (utility) -->
<g id="edge3" class="edge">
<title>inputnode (utility)&#45;&gt;fov_check (utility)</title>
<path fill="none" stroke="black" d="M410.01,-504.05C402.64,-495.46 393.56,-484.86 385.45,-475.4"/>
<polygon fill="black" stroke="black" points="388.09,-473.1 378.93,-467.79 382.78,-477.66 388.09,-473.1"/>
</g>
<!-- skull_strip_extern (freesurfer) -->
<g id="node5" class="node">
<title>skull_strip_extern (freesurfer)</title>
<ellipse fill="none" stroke="black" cx="482.54" cy="-306" rx="150.27" ry="18"/>
<text text-anchor="middle" x="482.54" y="-302.3" font-family="Times,serif" font-size="14.00">skull_strip_extern (freesurfer)</text>
</g>
<!-- inputnode (utility)&#45;&gt;skull_strip_extern (freesurfer) -->
<g id="edge4" class="edge">
<title>inputnode (utility)&#45;&gt;skull_strip_extern (freesurfer)</title>
<path fill="none" stroke="black" d="M442.17,-504.02C451.05,-494.35 461.08,-481.49 466.54,-468 484.43,-423.79 485.63,-367.39 484.4,-334.43"/>
<polygon fill="black" stroke="black" points="487.89,-334.02 483.92,-324.2 480.9,-334.35 487.89,-334.02"/>
</g>
<!-- fsnative2t1w_xfm (freesurfer) -->
<g id="node6" class="node">
<title>fsnative2t1w_xfm (freesurfer)</title>
<ellipse fill="none" stroke="black" cx="304.54" cy="-234" rx="149.47" ry="18"/>
<text text-anchor="middle" x="304.54" y="-230.3" font-family="Times,serif" font-size="14.00">fsnative2t1w_xfm (freesurfer)</text>
</g>
<!-- inputnode (utility)&#45;&gt;fsnative2t1w_xfm (freesurfer) -->
<g id="edge5" class="edge">
<title>inputnode (utility)&#45;&gt;fsnative2t1w_xfm (freesurfer)</title>
<path fill="none" stroke="black" d="M350.35,-510.66C317.44,-503.13 279.84,-490.19 251.54,-468 222.2,-445.01 218.45,-431.93 208.54,-396 193.72,-342.27 241.69,-288.37 275.08,-258.58"/>
<polygon fill="black" stroke="black" points="277.53,-261.09 282.79,-251.89 272.94,-255.8 277.53,-261.09"/>
</g>
<!-- refine (freesurfer) -->
<g id="node7" class="node">
<title>refine (freesurfer)</title>
<ellipse fill="none" stroke="black" cx="837.54" cy="-90" rx="94.48" ry="18"/>
<text text-anchor="middle" x="837.54" y="-86.3" font-family="Times,serif" font-size="14.00">refine (freesurfer)</text>
</g>
<!-- inputnode (utility)&#45;&gt;refine (freesurfer) -->
<g id="edge6" class="edge">
<title>inputnode (utility)&#45;&gt;refine (freesurfer)</title>
<path fill="none" stroke="black" d="M516.89,-517.84C612.21,-512.85 752.84,-500.13 795.54,-468 830.19,-441.92 835.54,-422.37 835.54,-379 835.54,-379 835.54,-379 835.54,-233 835.54,-192.99 836.34,-146.65 836.93,-118.08"/>
<polygon fill="black" stroke="black" points="840.43,-118.12 837.14,-108.05 833.43,-117.97 840.43,-118.12"/>
</g>
<!-- segs_to_native_aseg -->
<g id="node8" class="node">
<title>segs_to_native_aseg</title>
<ellipse fill="none" stroke="black" cx="583.54" cy="-162" rx="104.78" ry="18"/>
<text text-anchor="middle" x="583.54" y="-158.3" font-family="Times,serif" font-size="14.00">segs_to_native_aseg</text>
</g>
<!-- inputnode (utility)&#45;&gt;segs_to_native_aseg -->
<g id="edge7" class="edge">
<title>inputnode (utility)&#45;&gt;segs_to_native_aseg</title>
<path fill="none" stroke="black" d="M517.95,-518.46C608.32,-514.01 736.74,-501.74 772.54,-468 801.97,-440.26 791.54,-419.45 791.54,-379 791.54,-379 791.54,-379 791.54,-305 791.54,-236.76 714.24,-198.95 653.89,-179.83"/>
<polygon fill="black" stroke="black" points="654.57,-176.38 643.98,-176.81 652.52,-183.07 654.57,-176.38"/>
</g>
<!-- segs_to_native_aparc_aseg -->
<g id="node9" class="node">
<title>segs_to_native_aparc_aseg</title>
<ellipse fill="none" stroke="black" cx="134.54" cy="-162" rx="134.58" ry="18"/>
<text text-anchor="middle" x="134.54" y="-158.3" font-family="Times,serif" font-size="14.00">segs_to_native_aparc_aseg</text>
</g>
<!-- inputnode (utility)&#45;&gt;segs_to_native_aparc_aseg -->
<g id="edge8" class="edge">
<title>inputnode (utility)&#45;&gt;segs_to_native_aparc_aseg</title>
<path fill="none" stroke="black" d="M336.23,-515.38C248.68,-504.45 127.54,-472.44 127.54,-379 127.54,-379 127.54,-379 127.54,-305 127.54,-264.95 130.35,-218.62 132.41,-190.06"/>
<polygon fill="black" stroke="black" points="135.9,-190.27 133.16,-180.04 128.92,-189.75 135.9,-190.27"/>
</g>
<!-- recon_config (freesurfer)&#45;&gt;autorecon1 (freesurfer) -->
<g id="edge9" class="edge">
<title>recon_config (freesurfer)&#45;&gt;autorecon1 (freesurfer)</title>
<path fill="none" stroke="black" d="M575.8,-434.41C527.35,-423.14 460.23,-407.53 409.58,-395.75"/>
<polygon fill="black" stroke="black" points="410.21,-392.31 399.67,-393.45 408.62,-399.12 410.21,-392.31"/>
</g>
<!-- autorecon_resume_wf -->
<g id="node10" class="node">
<title>autorecon_resume_wf</title>
<ellipse fill="none" stroke="black" cx="583.54" cy="-234" rx="111.58" ry="18"/>
<text text-anchor="middle" x="583.54" y="-230.3" font-family="Times,serif" font-size="14.00">autorecon_resume_wf</text>
</g>
<!-- recon_config (freesurfer)&#45;&gt;autorecon_resume_wf -->
<g id="edge10" class="edge">
<title>recon_config (freesurfer)&#45;&gt;autorecon_resume_wf</title>
<path fill="none" stroke="black" d="M643.43,-431.62C651.06,-401.06 662.85,-336.35 641.54,-288 636.42,-276.4 627.37,-266.23 617.92,-257.99"/>
<polygon fill="black" stroke="black" points="619.94,-255.12 609.97,-251.53 615.52,-260.55 619.94,-255.12"/>
</g>
<!-- autorecon1 (freesurfer)&#45;&gt;skull_strip_extern (freesurfer) -->
<g id="edge11" class="edge">
<title>autorecon1 (freesurfer)&#45;&gt;skull_strip_extern (freesurfer)</title>
<path fill="none" stroke="black" d="M371.53,-360.59C391.66,-350.87 417.36,-338.47 438.96,-328.04"/>
<polygon fill="black" stroke="black" points="440.77,-331.05 448.25,-323.55 437.73,-324.75 440.77,-331.05"/>
</g>
<!-- autorecon1 (freesurfer)&#45;&gt;fsnative2t1w_xfm (freesurfer) -->
<g id="edge12" class="edge">
<title>autorecon1 (freesurfer)&#45;&gt;fsnative2t1w_xfm (freesurfer)</title>
<path fill="none" stroke="black" d="M332.79,-359.87C329.98,-349.51 326.41,-336.03 323.54,-324 318.62,-303.38 313.64,-279.93 310.01,-262.28"/>
<polygon fill="black" stroke="black" points="313.36,-261.22 307.94,-252.12 306.51,-262.61 313.36,-261.22"/>
</g>
<!-- fov_check (utility)&#45;&gt;autorecon1 (freesurfer) -->
<g id="edge13" class="edge">
<title>fov_check (utility)&#45;&gt;autorecon1 (freesurfer)</title>
<path fill="none" stroke="black" d="M357.86,-431.7C354.82,-423.81 351.16,-414.3 347.78,-405.55"/>
<polygon fill="black" stroke="black" points="351,-404.17 344.14,-396.1 344.47,-406.69 351,-404.17"/>
</g>
<!-- skull_strip_extern (freesurfer)&#45;&gt;autorecon_resume_wf -->
<g id="edge14" class="edge">
<title>skull_strip_extern (freesurfer)&#45;&gt;autorecon_resume_wf</title>
<path fill="none" stroke="black" d="M506.73,-288.23C519.97,-279.06 536.56,-267.56 550.93,-257.6"/>
<polygon fill="black" stroke="black" points="553.32,-260.2 559.54,-251.63 549.33,-254.45 553.32,-260.2"/>
</g>
<!-- fsnative2t1w_xfm (freesurfer)&#45;&gt;segs_to_native_aseg -->
<g id="edge16" class="edge">
<title>fsnative2t1w_xfm (freesurfer)&#45;&gt;segs_to_native_aseg</title>
<path fill="none" stroke="black" d="M366.11,-217.55C410.81,-206.34 471.23,-191.18 517.04,-179.69"/>
<polygon fill="black" stroke="black" points="518.02,-183.05 526.87,-177.22 516.32,-176.26 518.02,-183.05"/>
</g>
<!-- fsnative2t1w_xfm (freesurfer)&#45;&gt;segs_to_native_aparc_aseg -->
<g id="edge17" class="edge">
<title>fsnative2t1w_xfm (freesurfer)&#45;&gt;segs_to_native_aparc_aseg</title>
<path fill="none" stroke="black" d="M264.68,-216.59C240.49,-206.63 209.42,-193.84 183.71,-183.25"/>
<polygon fill="black" stroke="black" points="184.73,-179.88 174.15,-179.31 182.06,-186.35 184.73,-179.88"/>
</g>
<!-- outputnode (utility) -->
<g id="node12" class="node">
<title>outputnode (utility)</title>
<ellipse fill="none" stroke="black" cx="524.54" cy="-18" rx="101.28" ry="18"/>
<text text-anchor="middle" x="524.54" y="-14.3" font-family="Times,serif" font-size="14.00">outputnode (utility)</text>
</g>
<!-- fsnative2t1w_xfm (freesurfer)&#45;&gt;outputnode (utility) -->
<g id="edge18" class="edge">
<title>fsnative2t1w_xfm (freesurfer)&#45;&gt;outputnode (utility)</title>
<path fill="none" stroke="black" d="M314.97,-215.71C334.67,-184.14 379.99,-116.35 431.54,-72 446.02,-59.54 463.87,-48.54 480.05,-39.83"/>
<polygon fill="black" stroke="black" points="482.1,-42.71 489.35,-34.98 478.86,-36.51 482.1,-42.71"/>
</g>
<!-- t1w2fsnative_xfm (freesurfer) -->
<g id="node13" class="node">
<title>t1w2fsnative_xfm (freesurfer)</title>
<ellipse fill="none" stroke="black" cx="235.54" cy="-90" rx="149.47" ry="18"/>
<text text-anchor="middle" x="235.54" y="-86.3" font-family="Times,serif" font-size="14.00">t1w2fsnative_xfm (freesurfer)</text>
</g>
<!-- fsnative2t1w_xfm (freesurfer)&#45;&gt;t1w2fsnative_xfm (freesurfer) -->
<g id="edge15" class="edge">
<title>fsnative2t1w_xfm (freesurfer)&#45;&gt;t1w2fsnative_xfm (freesurfer)</title>
<path fill="none" stroke="black" d="M301.63,-215.84C298.02,-197.33 290.8,-167.38 278.54,-144 273.28,-133.98 265.97,-124.06 258.86,-115.56"/>
<polygon fill="black" stroke="black" points="261.39,-113.14 252.18,-107.89 256.11,-117.73 261.39,-113.14"/>
</g>
<!-- refine (freesurfer)&#45;&gt;outputnode (utility) -->
<g id="edge19" class="edge">
<title>refine (freesurfer)&#45;&gt;outputnode (utility)</title>
<path fill="none" stroke="black" d="M778.67,-75.83C726.57,-64.18 650.44,-47.16 595.1,-34.78"/>
<polygon fill="black" stroke="black" points="595.54,-31.29 585.01,-32.52 594.01,-38.12 595.54,-31.29"/>
</g>
<!-- segs_to_native_aseg&#45;&gt;refine (freesurfer) -->
<g id="edge20" class="edge">
<title>segs_to_native_aseg&#45;&gt;refine (freesurfer)</title>
<path fill="none" stroke="black" d="M636.48,-146.41C677.21,-135.18 733.57,-119.65 776.26,-107.89"/>
<polygon fill="black" stroke="black" points="777.26,-111.24 785.97,-105.21 775.4,-104.49 777.26,-111.24"/>
</g>
<!-- segs_to_native_aseg&#45;&gt;outputnode (utility) -->
<g id="edge21" class="edge">
<title>segs_to_native_aseg&#45;&gt;outputnode (utility)</title>
<path fill="none" stroke="black" d="M598.84,-143.87C613.38,-125.38 631.17,-95.45 617.54,-72 609.11,-57.5 595.06,-46.63 580.41,-38.64"/>
<polygon fill="black" stroke="black" points="581.75,-35.4 571.25,-34.03 578.61,-41.65 581.75,-35.4"/>
</g>
<!-- segs_to_native_aparc_aseg&#45;&gt;outputnode (utility) -->
<g id="edge22" class="edge">
<title>segs_to_native_aparc_aseg&#45;&gt;outputnode (utility)</title>
<path fill="none" stroke="black" d="M110.86,-144.18C87.28,-125.43 57.31,-94.77 77.54,-72 99.82,-46.92 293.35,-31.64 418.35,-24.3"/>
<polygon fill="black" stroke="black" points="418.57,-27.79 428.35,-23.72 418.16,-20.8 418.57,-27.79"/>
</g>
<!-- autorecon_resume_wf&#45;&gt;segs_to_native_aseg -->
<g id="edge24" class="edge">
<title>autorecon_resume_wf&#45;&gt;segs_to_native_aseg</title>
<path fill="none" stroke="black" d="M583.54,-215.7C583.54,-207.98 583.54,-198.71 583.54,-190.11"/>
<polygon fill="black" stroke="black" points="587.04,-190.1 583.54,-180.1 580.04,-190.1 587.04,-190.1"/>
</g>
<!-- autorecon_resume_wf&#45;&gt;segs_to_native_aparc_aseg -->
<g id="edge25" class="edge">
<title>autorecon_resume_wf&#45;&gt;segs_to_native_aparc_aseg</title>
<path fill="none" stroke="black" d="M506.35,-220.97C429.45,-208.98 311.26,-190.55 228.84,-177.7"/>
<polygon fill="black" stroke="black" points="229.14,-174.21 218.72,-176.12 228.06,-181.12 229.14,-174.21"/>
</g>
<!-- gifti_surface_wf -->
<g id="node11" class="node">
<title>gifti_surface_wf</title>
<ellipse fill="none" stroke="black" cx="524.54" cy="-90" rx="83.69" ry="18"/>
<text text-anchor="middle" x="524.54" y="-86.3" font-family="Times,serif" font-size="14.00">gifti_surface_wf</text>
</g>
<!-- autorecon_resume_wf&#45;&gt;gifti_surface_wf -->
<g id="edge23" class="edge">
<title>autorecon_resume_wf&#45;&gt;gifti_surface_wf</title>
<path fill="none" stroke="black" d="M522.41,-218.91C502.04,-211 481.51,-198.77 469.54,-180 460.93,-166.51 463.28,-158.72 469.54,-144 474.44,-132.46 483.22,-122.22 492.35,-113.89"/>
<polygon fill="black" stroke="black" points="494.68,-116.5 500.02,-107.35 490.14,-111.17 494.68,-116.5"/>
</g>
<!-- autorecon_resume_wf&#45;&gt;outputnode (utility) -->
<g id="edge26" class="edge">
<title>autorecon_resume_wf&#45;&gt;outputnode (utility)</title>
<path fill="none" stroke="black" d="M644.67,-218.91C665.04,-211 685.57,-198.77 697.54,-180 706.14,-166.51 703.22,-158.96 697.54,-144 677.6,-91.56 620.74,-57.43 577.6,-38.29"/>
<polygon fill="black" stroke="black" points="578.92,-35.05 568.35,-34.32 576.16,-41.48 578.92,-35.05"/>
</g>
<!-- gifti_surface_wf&#45;&gt;outputnode (utility) -->
<g id="edge27" class="edge">
<title>gifti_surface_wf&#45;&gt;outputnode (utility)</title>
<path fill="none" stroke="black" d="M524.54,-71.7C524.54,-63.98 524.54,-54.71 524.54,-46.11"/>
<polygon fill="black" stroke="black" points="528.04,-46.1 524.54,-36.1 521.04,-46.1 528.04,-46.1"/>
</g>
<!-- t1w2fsnative_xfm (freesurfer)&#45;&gt;outputnode (utility) -->
<g id="edge28" class="edge">
<title>t1w2fsnative_xfm (freesurfer)&#45;&gt;outputnode (utility)</title>
<path fill="none" stroke="black" d="M298.96,-73.64C345.81,-62.29 409.46,-46.87 457.21,-35.31"/>
<polygon fill="black" stroke="black" points="458.25,-38.66 467.15,-32.9 456.6,-31.85 458.25,-38.66"/>
</g>
</g>
</svg>
