<?xml version="1.0" encoding="UTF-8" standalone="no"?>
<!DOCTYPE svg PUBLIC "-//W3C//DTD SVG 1.1//EN"
 "http://www.w3.org/Graphics/SVG/1.1/DTD/svg11.dtd">
<!-- Generated by graphviz version 2.43.0 (0)
 -->
<!-- Title: structs Pages: 1 -->
<svg width="1625pt" height="1068pt"
 viewBox="0.00 0.00 1624.53 1068.00" xmlns="http://www.w3.org/2000/svg" xmlns:xlink="http://www.w3.org/1999/xlink">
<g id="graph0" class="graph" transform="scale(1 1) rotate(0) translate(4 1064)">
<title>structs</title>
<polygon fill="white" stroke="transparent" points="-4,4 -4,-1064 1620.53,-1064 1620.53,4 -4,4"/>
<!-- anat_norm_wfinputnode -->
<g id="node1" class="node">
<title>anat_norm_wfinputnode</title>
<polygon fill="none" stroke="black" points="218.53,-898.5 218.53,-1059.5 514.53,-1059.5 514.53,-898.5 218.53,-898.5"/>
<text text-anchor="middle" x="235.53" y="-975.3" font-family="Times,serif" font-size="14.00">IN</text>
<polyline fill="none" stroke="black" points="252.53,-898.5 252.53,-1059.5 "/>
<text text-anchor="middle" x="297.03" y="-1029.3" font-family="Times,serif" font-size="14.00">inputnode</text>
<polyline fill="none" stroke="black" points="252.53,-1006.5 341.53,-1006.5 "/>
<text text-anchor="middle" x="297.03" y="-975.8" font-family="Times,serif" font-size="14.00">utility</text>
<polyline fill="none" stroke="black" points="252.53,-952.5 341.53,-952.5 "/>
<text text-anchor="middle" x="297.03" y="-921.8" font-family="Times,serif" font-size="14.00"> </text>
<polyline fill="none" stroke="black" points="341.53,-898.5 341.53,-1059.5 "/>
<text text-anchor="middle" x="428.03" y="-1044.3" font-family="Times,serif" font-size="14.00">OUT</text>
<polyline fill="none" stroke="black" points="341.53,-1036.5 514.53,-1036.5 "/>
<text text-anchor="middle" x="428.03" y="-1021.3" font-family="Times,serif" font-size="14.00">lesion_mask</text>
<polyline fill="none" stroke="black" points="341.53,-1013.5 514.53,-1013.5 "/>
<text text-anchor="middle" x="428.03" y="-998.3" font-family="Times,serif" font-size="14.00">moving_image</text>
<polyline fill="none" stroke="black" points="341.53,-990.5 514.53,-990.5 "/>
<text text-anchor="middle" x="428.03" y="-975.3" font-family="Times,serif" font-size="14.00">moving_mask</text>
<polyline fill="none" stroke="black" points="341.53,-967.5 514.53,-967.5 "/>
<text text-anchor="middle" x="428.03" y="-952.3" font-family="Times,serif" font-size="14.00">moving_segmentation</text>
<polyline fill="none" stroke="black" points="341.53,-944.5 514.53,-944.5 "/>
<text text-anchor="middle" x="428.03" y="-929.3" font-family="Times,serif" font-size="14.00">moving_tpms</text>
<polyline fill="none" stroke="black" points="341.53,-921.5 514.53,-921.5 "/>
<text text-anchor="middle" x="428.03" y="-906.3" font-family="Times,serif" font-size="14.00">template</text>
</g>
<!-- anat_norm_wfsplit_desc -->
<g id="node2" class="node">
<title>anat_norm_wfsplit_desc</title>
<polygon fill="none" stroke="black" points="542.53,-792.5 542.53,-861.5 788.53,-861.5 788.53,-792.5 542.53,-792.5"/>
<text text-anchor="middle" x="582.53" y="-840.8" font-family="Times,serif" font-size="14.00">IN</text>
<polyline fill="none" stroke="black" points="542.53,-827.5 622.53,-827.5 "/>
<text text-anchor="middle" x="582.53" y="-806.3" font-family="Times,serif" font-size="14.00">template</text>
<polyline fill="none" stroke="black" points="622.53,-792.5 622.53,-861.5 "/>
<text text-anchor="middle" x="677.53" y="-846.3" font-family="Times,serif" font-size="14.00">split_desc</text>
<polyline fill="none" stroke="black" points="622.53,-838.5 732.53,-838.5 "/>
<text text-anchor="middle" x="677.53" y="-823.3" font-family="Times,serif" font-size="14.00">templateflow</text>
<polyline fill="none" stroke="black" points="622.53,-815.5 732.53,-815.5 "/>
<text text-anchor="middle" x="677.53" y="-800.3" font-family="Times,serif" font-size="14.00"> </text>
<polyline fill="none" stroke="black" points="732.53,-792.5 732.53,-861.5 "/>
<text text-anchor="middle" x="760.53" y="-846.3" font-family="Times,serif" font-size="14.00">OUT</text>
<polyline fill="none" stroke="black" points="732.53,-838.5 788.53,-838.5 "/>
<text text-anchor="middle" x="760.53" y="-823.3" font-family="Times,serif" font-size="14.00">name</text>
<polyline fill="none" stroke="black" points="732.53,-815.5 788.53,-815.5 "/>
<text text-anchor="middle" x="760.53" y="-800.3" font-family="Times,serif" font-size="14.00">spec</text>
</g>
<!-- anat_norm_wfinputnode&#45;&gt;anat_norm_wfsplit_desc -->
<g id="edge9" class="edge">
<title>anat_norm_wfinputnode:e&#45;&gt;anat_norm_wfsplit_desc:w</title>
<path fill="none" stroke="black" d="M515.53,-910C537.63,-910 522.96,-883.39 528.53,-862 530.73,-853.53 530.28,-829.46 534.61,-817.27"/>
<polygon fill="black" stroke="black" points="537.17,-819.66 541.53,-810 532.1,-814.83 537.17,-819.66"/>
</g>
<!-- anat_norm_wftrunc_mov -->
<g id="node3" class="node">
<title>anat_norm_wftrunc_mov</title>
<polygon fill="none" stroke="black" points="176.03,-792.5 176.03,-861.5 425.03,-861.5 425.03,-792.5 176.03,-792.5"/>
<text text-anchor="middle" x="197.53" y="-840.8" font-family="Times,serif" font-size="14.00">IN</text>
<polyline fill="none" stroke="black" points="176.03,-827.5 219.03,-827.5 "/>
<text text-anchor="middle" x="197.53" y="-806.3" font-family="Times,serif" font-size="14.00">op1</text>
<polyline fill="none" stroke="black" points="219.03,-792.5 219.03,-861.5 "/>
<text text-anchor="middle" x="265.03" y="-846.3" font-family="Times,serif" font-size="14.00">trunc_mov</text>
<polyline fill="none" stroke="black" points="219.03,-838.5 311.03,-838.5 "/>
<text text-anchor="middle" x="265.03" y="-823.3" font-family="Times,serif" font-size="14.00">ants</text>
<polyline fill="none" stroke="black" points="219.03,-815.5 311.03,-815.5 "/>
<text text-anchor="middle" x="265.03" y="-800.3" font-family="Times,serif" font-size="14.00"> </text>
<polyline fill="none" stroke="black" points="311.03,-792.5 311.03,-861.5 "/>
<text text-anchor="middle" x="368.03" y="-840.8" font-family="Times,serif" font-size="14.00">OUT</text>
<polyline fill="none" stroke="black" points="311.03,-827.5 425.03,-827.5 "/>
<text text-anchor="middle" x="368.03" y="-806.3" font-family="Times,serif" font-size="14.00">output_image</text>
</g>
<!-- anat_norm_wfinputnode&#45;&gt;anat_norm_wftrunc_mov -->
<g id="edge3" class="edge">
<title>anat_norm_wfinputnode:e&#45;&gt;anat_norm_wftrunc_mov:w</title>
<path fill="none" stroke="black" d="M515.53,-1002C561.75,-1002 545.6,-932.22 514.53,-898 463.59,-841.92 226.73,-917.84 175.53,-862 162.71,-848.02 154.69,-821.99 164.98,-813.08"/>
<polygon fill="black" stroke="black" points="166.08,-816.4 174.53,-810 163.93,-809.74 166.08,-816.4"/>
</g>
<!-- anat_norm_wfregistration -->
<g id="node5" class="node">
<title>anat_norm_wfregistration</title>
<polygon fill="none" stroke="black" points="47.03,-617.5 47.03,-755.5 494.03,-755.5 494.03,-617.5 47.03,-617.5"/>
<text text-anchor="middle" x="106.53" y="-740.3" font-family="Times,serif" font-size="14.00">IN</text>
<polyline fill="none" stroke="black" points="47.03,-732.5 166.03,-732.5 "/>
<text text-anchor="middle" x="106.53" y="-717.3" font-family="Times,serif" font-size="14.00">lesion_mask</text>
<polyline fill="none" stroke="black" points="47.03,-709.5 166.03,-709.5 "/>
<text text-anchor="middle" x="106.53" y="-694.3" font-family="Times,serif" font-size="14.00">moving_image</text>
<polyline fill="none" stroke="black" points="47.03,-686.5 166.03,-686.5 "/>
<text text-anchor="middle" x="106.53" y="-671.3" font-family="Times,serif" font-size="14.00">moving_mask</text>
<polyline fill="none" stroke="black" points="47.03,-663.5 166.03,-663.5 "/>
<text text-anchor="middle" x="106.53" y="-648.3" font-family="Times,serif" font-size="14.00">template</text>
<polyline fill="none" stroke="black" points="47.03,-640.5 166.03,-640.5 "/>
<text text-anchor="middle" x="106.53" y="-625.3" font-family="Times,serif" font-size="14.00">template_spec</text>
<polyline fill="none" stroke="black" points="166.03,-617.5 166.03,-755.5 "/>
<text text-anchor="middle" x="216.53" y="-728.8" font-family="Times,serif" font-size="14.00">registration</text>
<polyline fill="none" stroke="black" points="166.03,-709.5 267.03,-709.5 "/>
<text text-anchor="middle" x="216.53" y="-682.8" font-family="Times,serif" font-size="14.00">norm</text>
<polyline fill="none" stroke="black" points="166.03,-663.5 267.03,-663.5 "/>
<text text-anchor="middle" x="216.53" y="-636.8" font-family="Times,serif" font-size="14.00"> </text>
<polyline fill="none" stroke="black" points="267.03,-617.5 267.03,-755.5 "/>
<text text-anchor="middle" x="380.53" y="-728.8" font-family="Times,serif" font-size="14.00">OUT</text>
<polyline fill="none" stroke="black" points="267.03,-709.5 494.03,-709.5 "/>
<text text-anchor="middle" x="380.53" y="-682.8" font-family="Times,serif" font-size="14.00">composite_transform</text>
<polyline fill="none" stroke="black" points="267.03,-663.5 494.03,-663.5 "/>
<text text-anchor="middle" x="380.53" y="-636.8" font-family="Times,serif" font-size="14.00">inverse_composite_transform</text>
</g>
<!-- anat_norm_wfinputnode&#45;&gt;anat_norm_wfregistration -->
<g id="edge1" class="edge">
<title>anat_norm_wfinputnode:e&#45;&gt;anat_norm_wfregistration:w</title>
<path fill="none" stroke="black" d="M515.53,-1025C571.97,-1025 552.49,-939.77 514.53,-898 462.39,-840.63 238.58,-893 167.53,-862 102,-833.41 76.99,-820.68 46.53,-756 42.24,-746.89 36.54,-734.88 37.47,-727.7"/>
<polygon fill="black" stroke="black" points="39.73,-730.37 45.53,-721.5 35.47,-724.82 39.73,-730.37"/>
</g>
<!-- anat_norm_wfinputnode&#45;&gt;anat_norm_wfregistration -->
<g id="edge4" class="edge">
<title>anat_norm_wfinputnode:e&#45;&gt;anat_norm_wfregistration:w</title>
<path fill="none" stroke="black" d="M515.53,-979C551.53,-979 526.17,-932.07 514.53,-898 504.98,-870.08 460.3,-806.37 434.53,-792 358.89,-749.85 105.25,-819.64 46.53,-756 36.59,-745.24 30.23,-698.59 37.73,-681.13"/>
<polygon fill="black" stroke="black" points="40.18,-683.65 45.53,-674.5 35.64,-678.31 40.18,-683.65"/>
</g>
<!-- anat_norm_wftpl_moving -->
<g id="node6" class="node">
<title>anat_norm_wftpl_moving</title>
<polygon fill="none" stroke="black" points="137.53,-488.5 137.53,-580.5 481.53,-580.5 481.53,-488.5 137.53,-488.5"/>
<text text-anchor="middle" x="205.03" y="-565.3" font-family="Times,serif" font-size="14.00">IN</text>
<polyline fill="none" stroke="black" points="137.53,-557.5 272.53,-557.5 "/>
<text text-anchor="middle" x="205.03" y="-542.3" font-family="Times,serif" font-size="14.00">input_image</text>
<polyline fill="none" stroke="black" points="137.53,-534.5 272.53,-534.5 "/>
<text text-anchor="middle" x="205.03" y="-519.3" font-family="Times,serif" font-size="14.00">reference_image</text>
<polyline fill="none" stroke="black" points="137.53,-511.5 272.53,-511.5 "/>
<text text-anchor="middle" x="205.03" y="-496.3" font-family="Times,serif" font-size="14.00">transforms</text>
<polyline fill="none" stroke="black" points="272.53,-488.5 272.53,-580.5 "/>
<text text-anchor="middle" x="320.03" y="-561.8" font-family="Times,serif" font-size="14.00">tpl_moving</text>
<polyline fill="none" stroke="black" points="272.53,-550.5 367.53,-550.5 "/>
<text text-anchor="middle" x="320.03" y="-531.3" font-family="Times,serif" font-size="14.00">fixes</text>
<polyline fill="none" stroke="black" points="272.53,-519.5 367.53,-519.5 "/>
<text text-anchor="middle" x="320.03" y="-500.3" font-family="Times,serif" font-size="14.00"> </text>
<polyline fill="none" stroke="black" points="367.53,-488.5 367.53,-580.5 "/>
<text text-anchor="middle" x="424.53" y="-553.8" font-family="Times,serif" font-size="14.00">OUT</text>
<polyline fill="none" stroke="black" points="367.53,-534.5 481.53,-534.5 "/>
<text text-anchor="middle" x="424.53" y="-507.8" font-family="Times,serif" font-size="14.00">output_image</text>
</g>
<!-- anat_norm_wfinputnode&#45;&gt;anat_norm_wftpl_moving -->
<g id="edge2" class="edge">
<title>anat_norm_wfinputnode:e&#45;&gt;anat_norm_wftpl_moving:w</title>
<path fill="none" stroke="black" d="M515.53,-1002C561.75,-1002 546.05,-931.81 514.53,-898 445.97,-824.46 139.81,-927.49 63.53,-862 -43.01,-770.54 -9.18,-557.25 126.17,-546.89"/>
<polygon fill="black" stroke="black" points="126.67,-550.38 136.53,-546.5 126.4,-543.38 126.67,-550.38"/>
</g>
<!-- anat_norm_wfstd_mask -->
<g id="node7" class="node">
<title>anat_norm_wfstd_mask</title>
<polygon fill="none" stroke="black" points="847.53,-488.5 847.53,-580.5 1179.53,-580.5 1179.53,-488.5 847.53,-488.5"/>
<text text-anchor="middle" x="915.03" y="-565.3" font-family="Times,serif" font-size="14.00">IN</text>
<polyline fill="none" stroke="black" points="847.53,-557.5 982.53,-557.5 "/>
<text text-anchor="middle" x="915.03" y="-542.3" font-family="Times,serif" font-size="14.00">input_image</text>
<polyline fill="none" stroke="black" points="847.53,-534.5 982.53,-534.5 "/>
<text text-anchor="middle" x="915.03" y="-519.3" font-family="Times,serif" font-size="14.00">reference_image</text>
<polyline fill="none" stroke="black" points="847.53,-511.5 982.53,-511.5 "/>
<text text-anchor="middle" x="915.03" y="-496.3" font-family="Times,serif" font-size="14.00">transforms</text>
<polyline fill="none" stroke="black" points="982.53,-488.5 982.53,-580.5 "/>
<text text-anchor="middle" x="1024.03" y="-561.8" font-family="Times,serif" font-size="14.00">std_mask</text>
<polyline fill="none" stroke="black" points="982.53,-550.5 1065.53,-550.5 "/>
<text text-anchor="middle" x="1024.03" y="-531.3" font-family="Times,serif" font-size="14.00">fixes</text>
<polyline fill="none" stroke="black" points="982.53,-519.5 1065.53,-519.5 "/>
<text text-anchor="middle" x="1024.03" y="-500.3" font-family="Times,serif" font-size="14.00"> </text>
<polyline fill="none" stroke="black" points="1065.53,-488.5 1065.53,-580.5 "/>
<text text-anchor="middle" x="1122.53" y="-553.8" font-family="Times,serif" font-size="14.00">OUT</text>
<polyline fill="none" stroke="black" points="1065.53,-534.5 1179.53,-534.5 "/>
<text text-anchor="middle" x="1122.53" y="-507.8" font-family="Times,serif" font-size="14.00">output_image</text>
</g>
<!-- anat_norm_wfinputnode&#45;&gt;anat_norm_wfstd_mask -->
<g id="edge5" class="edge">
<title>anat_norm_wfinputnode:e&#45;&gt;anat_norm_wfstd_mask:w</title>
<path fill="none" stroke="black" d="M515.53,-979C698.48,-979 812.45,-932.24 861.53,-756 878.1,-696.49 872.92,-677.72 861.53,-617 858.36,-600.13 850.94,-597.83 847.53,-581 845.62,-571.6 839.72,-560.48 839.3,-553.45"/>
<polygon fill="black" stroke="black" points="841.74,-555.95 846.53,-546.5 836.89,-550.91 841.74,-555.95"/>
</g>
<!-- anat_norm_wfstd_dseg -->
<g id="node8" class="node">
<title>anat_norm_wfstd_dseg</title>
<polygon fill="none" stroke="black" points="500.03,-488.5 500.03,-580.5 829.03,-580.5 829.03,-488.5 500.03,-488.5"/>
<text text-anchor="middle" x="567.53" y="-565.3" font-family="Times,serif" font-size="14.00">IN</text>
<polyline fill="none" stroke="black" points="500.03,-557.5 635.03,-557.5 "/>
<text text-anchor="middle" x="567.53" y="-542.3" font-family="Times,serif" font-size="14.00">input_image</text>
<polyline fill="none" stroke="black" points="500.03,-534.5 635.03,-534.5 "/>
<text text-anchor="middle" x="567.53" y="-519.3" font-family="Times,serif" font-size="14.00">reference_image</text>
<polyline fill="none" stroke="black" points="500.03,-511.5 635.03,-511.5 "/>
<text text-anchor="middle" x="567.53" y="-496.3" font-family="Times,serif" font-size="14.00">transforms</text>
<polyline fill="none" stroke="black" points="635.03,-488.5 635.03,-580.5 "/>
<text text-anchor="middle" x="675.03" y="-561.8" font-family="Times,serif" font-size="14.00">std_dseg</text>
<polyline fill="none" stroke="black" points="635.03,-550.5 715.03,-550.5 "/>
<text text-anchor="middle" x="675.03" y="-531.3" font-family="Times,serif" font-size="14.00">fixes</text>
<polyline fill="none" stroke="black" points="635.03,-519.5 715.03,-519.5 "/>
<text text-anchor="middle" x="675.03" y="-500.3" font-family="Times,serif" font-size="14.00"> </text>
<polyline fill="none" stroke="black" points="715.03,-488.5 715.03,-580.5 "/>
<text text-anchor="middle" x="772.03" y="-553.8" font-family="Times,serif" font-size="14.00">OUT</text>
<polyline fill="none" stroke="black" points="715.03,-534.5 829.03,-534.5 "/>
<text text-anchor="middle" x="772.03" y="-507.8" font-family="Times,serif" font-size="14.00">output_image</text>
</g>
<!-- anat_norm_wfinputnode&#45;&gt;anat_norm_wfstd_dseg -->
<g id="edge6" class="edge">
<title>anat_norm_wfinputnode:e&#45;&gt;anat_norm_wfstd_dseg:w</title>
<path fill="none" stroke="black" d="M515.53,-956C519.89,-956 525.3,-907.14 503.53,-617 502.64,-605.13 491.2,-570.76 492.55,-554.81"/>
<polygon fill="black" stroke="black" points="495.53,-556.66 498.53,-546.5 489.85,-552.58 495.53,-556.66"/>
</g>
<!-- anat_norm_wfstd_tpms -->
<g id="node9" class="node">
<title>anat_norm_wfstd_tpms</title>
<polygon fill="none" stroke="black" points="1198.03,-488.5 1198.03,-580.5 1529.03,-580.5 1529.03,-488.5 1198.03,-488.5"/>
<text text-anchor="middle" x="1265.53" y="-565.3" font-family="Times,serif" font-size="14.00">IN</text>
<polyline fill="none" stroke="black" points="1198.03,-557.5 1333.03,-557.5 "/>
<text text-anchor="middle" x="1265.53" y="-542.3" font-family="Times,serif" font-size="14.00">input_image</text>
<polyline fill="none" stroke="black" points="1198.03,-534.5 1333.03,-534.5 "/>
<text text-anchor="middle" x="1265.53" y="-519.3" font-family="Times,serif" font-size="14.00">reference_image</text>
<polyline fill="none" stroke="black" points="1198.03,-511.5 1333.03,-511.5 "/>
<text text-anchor="middle" x="1265.53" y="-496.3" font-family="Times,serif" font-size="14.00">transforms</text>
<polyline fill="none" stroke="black" points="1333.03,-488.5 1333.03,-580.5 "/>
<text text-anchor="middle" x="1374.03" y="-561.8" font-family="Times,serif" font-size="14.00">std_tpms</text>
<polyline fill="none" stroke="black" points="1333.03,-550.5 1415.03,-550.5 "/>
<text text-anchor="middle" x="1374.03" y="-531.3" font-family="Times,serif" font-size="14.00">fixes</text>
<polyline fill="none" stroke="black" points="1333.03,-519.5 1415.03,-519.5 "/>
<text text-anchor="middle" x="1374.03" y="-500.3" font-family="Times,serif" font-size="14.00"> </text>
<polyline fill="none" stroke="black" points="1415.03,-488.5 1415.03,-580.5 "/>
<text text-anchor="middle" x="1472.03" y="-553.8" font-family="Times,serif" font-size="14.00">OUT</text>
<polyline fill="none" stroke="black" points="1415.03,-534.5 1529.03,-534.5 "/>
<text text-anchor="middle" x="1472.03" y="-507.8" font-family="Times,serif" font-size="14.00">output_image</text>
</g>
<!-- anat_norm_wfinputnode&#45;&gt;anat_norm_wfstd_tpms -->
<g id="edge7" class="edge">
<title>anat_norm_wfinputnode:e&#45;&gt;anat_norm_wfstd_tpms:w</title>
<path fill="none" stroke="black" d="M515.53,-933C665.98,-933 711.02,-927.38 846.53,-862 1023.71,-776.51 1084.79,-748.15 1188.53,-581 1193.78,-572.54 1189.28,-560.97 1189.26,-553.62"/>
<polygon fill="black" stroke="black" points="1191.83,-556 1196.53,-546.5 1186.93,-551 1191.83,-556"/>
</g>
<!-- anat_norm_wfpoutputnode -->
<g id="node10" class="node">
<title>anat_norm_wfpoutputnode</title>
<polygon fill="none" stroke="black" points="1005.03,-244.5 1005.03,-451.5 1350.03,-451.5 1350.03,-244.5 1005.03,-244.5"/>
<text text-anchor="middle" x="1064.53" y="-436.3" font-family="Times,serif" font-size="14.00">IN</text>
<polyline fill="none" stroke="black" points="1005.03,-428.5 1124.03,-428.5 "/>
<text text-anchor="middle" x="1064.53" y="-413.3" font-family="Times,serif" font-size="14.00">anat2std_xfm</text>
<polyline fill="none" stroke="black" points="1005.03,-405.5 1124.03,-405.5 "/>
<text text-anchor="middle" x="1064.53" y="-390.3" font-family="Times,serif" font-size="14.00">standardized</text>
<polyline fill="none" stroke="black" points="1005.03,-382.5 1124.03,-382.5 "/>
<text text-anchor="middle" x="1064.53" y="-367.3" font-family="Times,serif" font-size="14.00">std2anat_xfm</text>
<polyline fill="none" stroke="black" points="1005.03,-359.5 1124.03,-359.5 "/>
<text text-anchor="middle" x="1064.53" y="-344.3" font-family="Times,serif" font-size="14.00">std_dseg</text>
<polyline fill="none" stroke="black" points="1005.03,-336.5 1124.03,-336.5 "/>
<text text-anchor="middle" x="1064.53" y="-321.3" font-family="Times,serif" font-size="14.00">std_mask</text>
<polyline fill="none" stroke="black" points="1005.03,-313.5 1124.03,-313.5 "/>
<text text-anchor="middle" x="1064.53" y="-298.3" font-family="Times,serif" font-size="14.00">std_tpms</text>
<polyline fill="none" stroke="black" points="1005.03,-290.5 1124.03,-290.5 "/>
<text text-anchor="middle" x="1064.53" y="-275.3" font-family="Times,serif" font-size="14.00">template</text>
<polyline fill="none" stroke="black" points="1005.03,-267.5 1124.03,-267.5 "/>
<text text-anchor="middle" x="1064.53" y="-252.3" font-family="Times,serif" font-size="14.00">template_spec</text>
<polyline fill="none" stroke="black" points="1124.03,-244.5 1124.03,-451.5 "/>
<text text-anchor="middle" x="1177.53" y="-413.3" font-family="Times,serif" font-size="14.00">poutputnode</text>
<polyline fill="none" stroke="black" points="1124.03,-382.5 1231.03,-382.5 "/>
<text text-anchor="middle" x="1177.53" y="-344.3" font-family="Times,serif" font-size="14.00">utility</text>
<polyline fill="none" stroke="black" points="1124.03,-313.5 1231.03,-313.5 "/>
<text text-anchor="middle" x="1177.53" y="-275.3" font-family="Times,serif" font-size="14.00"> </text>
<polyline fill="none" stroke="black" points="1231.03,-244.5 1231.03,-451.5 "/>
<text text-anchor="middle" x="1290.53" y="-436.3" font-family="Times,serif" font-size="14.00">OUT</text>
<polyline fill="none" stroke="black" points="1231.03,-428.5 1350.03,-428.5 "/>
<text text-anchor="middle" x="1290.53" y="-413.3" font-family="Times,serif" font-size="14.00">anat2std_xfm</text>
<polyline fill="none" stroke="black" points="1231.03,-405.5 1350.03,-405.5 "/>
<text text-anchor="middle" x="1290.53" y="-390.3" font-family="Times,serif" font-size="14.00">standardized</text>
<polyline fill="none" stroke="black" points="1231.03,-382.5 1350.03,-382.5 "/>
<text text-anchor="middle" x="1290.53" y="-367.3" font-family="Times,serif" font-size="14.00">std2anat_xfm</text>
<polyline fill="none" stroke="black" points="1231.03,-359.5 1350.03,-359.5 "/>
<text text-anchor="middle" x="1290.53" y="-344.3" font-family="Times,serif" font-size="14.00">std_dseg</text>
<polyline fill="none" stroke="black" points="1231.03,-336.5 1350.03,-336.5 "/>
<text text-anchor="middle" x="1290.53" y="-321.3" font-family="Times,serif" font-size="14.00">std_mask</text>
<polyline fill="none" stroke="black" points="1231.03,-313.5 1350.03,-313.5 "/>
<text text-anchor="middle" x="1290.53" y="-298.3" font-family="Times,serif" font-size="14.00">std_tpms</text>
<polyline fill="none" stroke="black" points="1231.03,-290.5 1350.03,-290.5 "/>
<text text-anchor="middle" x="1290.53" y="-275.3" font-family="Times,serif" font-size="14.00">template</text>
<polyline fill="none" stroke="black" points="1231.03,-267.5 1350.03,-267.5 "/>
<text text-anchor="middle" x="1290.53" y="-252.3" font-family="Times,serif" font-size="14.00">template_spec</text>
</g>
<!-- anat_norm_wfinputnode&#45;&gt;anat_norm_wfpoutputnode -->
<g id="edge8" class="edge">
<title>anat_norm_wfinputnode:e&#45;&gt;anat_norm_wfpoutputnode:w</title>
<path fill="none" stroke="black" d="M515.53,-910C607.92,-910 839.4,-886.35 928.53,-862 1225.45,-780.86 1393.74,-839.06 1561.53,-581 1584.06,-546.35 1589.79,-518.15 1561.53,-488 1476.69,-397.51 1089.62,-542.25 1004.53,-452 954.25,-398.68 929.05,-289.84 993.38,-279.75"/>
<polygon fill="black" stroke="black" points="993.81,-283.23 1003.53,-279 993.29,-276.25 993.81,-283.23"/>
</g>
<!-- anat_norm_wftf_select -->
<g id="node4" class="node">
<title>anat_norm_wftf_select</title>
<polygon fill="none" stroke="black" points="551.03,-652 551.03,-721 852.03,-721 852.03,-652 551.03,-652"/>
<text text-anchor="middle" x="610.53" y="-705.8" font-family="Times,serif" font-size="14.00">IN</text>
<polyline fill="none" stroke="black" points="551.03,-698 670.03,-698 "/>
<text text-anchor="middle" x="610.53" y="-682.8" font-family="Times,serif" font-size="14.00">template</text>
<polyline fill="none" stroke="black" points="551.03,-675 670.03,-675 "/>
<text text-anchor="middle" x="610.53" y="-659.8" font-family="Times,serif" font-size="14.00">template_spec</text>
<polyline fill="none" stroke="black" points="670.03,-652 670.03,-721 "/>
<text text-anchor="middle" x="725.03" y="-705.8" font-family="Times,serif" font-size="14.00">tf_select</text>
<polyline fill="none" stroke="black" points="670.03,-698 780.03,-698 "/>
<text text-anchor="middle" x="725.03" y="-682.8" font-family="Times,serif" font-size="14.00">templateflow</text>
<polyline fill="none" stroke="black" points="670.03,-675 780.03,-675 "/>
<text text-anchor="middle" x="725.03" y="-659.8" font-family="Times,serif" font-size="14.00"> </text>
<polyline fill="none" stroke="black" points="780.03,-652 780.03,-721 "/>
<text text-anchor="middle" x="816.03" y="-700.3" font-family="Times,serif" font-size="14.00">OUT</text>
<polyline fill="none" stroke="black" points="780.03,-687 852.03,-687 "/>
<text text-anchor="middle" x="816.03" y="-665.8" font-family="Times,serif" font-size="14.00">t1w_file</text>
</g>
<!-- anat_norm_wfsplit_desc&#45;&gt;anat_norm_wftf_select -->
<g id="edge25" class="edge">
<title>anat_norm_wfsplit_desc:e&#45;&gt;anat_norm_wftf_select:w</title>
<path fill="none" stroke="black" d="M789.53,-827C805.09,-827 798.01,-804.33 788.53,-792 721.26,-704.56 617.79,-808.94 550.53,-721.5 544,-713.02 538.62,-699.66 540.95,-692.13"/>
<polygon fill="black" stroke="black" points="543.09,-694.92 549.53,-686.5 539.25,-689.07 543.09,-694.92"/>
</g>
<!-- anat_norm_wfsplit_desc&#45;&gt;anat_norm_wftf_select -->
<g id="edge28" class="edge">
<title>anat_norm_wfsplit_desc:e&#45;&gt;anat_norm_wftf_select:w</title>
<path fill="none" stroke="black" d="M789.53,-804C794.88,-804 791.9,-796.15 788.53,-792 718.9,-706.42 617.29,-809.32 550.53,-721.5 544.74,-713.88 539.89,-685.62 543.04,-671.56"/>
<polygon fill="black" stroke="black" points="545.99,-673.49 549.53,-663.5 540.53,-669.1 545.99,-673.49"/>
</g>
<!-- anat_norm_wfsplit_desc&#45;&gt;anat_norm_wfregistration -->
<g id="edge24" class="edge">
<title>anat_norm_wfsplit_desc:e&#45;&gt;anat_norm_wfregistration:w</title>
<path fill="none" stroke="black" d="M789.53,-827C805.09,-827 799.42,-803.11 788.53,-792 730.74,-733.06 103.75,-815.49 46.53,-756 39.99,-749.2 35.75,-684.46 40.62,-660.43"/>
<polygon fill="black" stroke="black" points="43.77,-661.95 45.53,-651.5 37.64,-658.58 43.77,-661.95"/>
</g>
<!-- anat_norm_wfsplit_desc&#45;&gt;anat_norm_wfregistration -->
<g id="edge27" class="edge">
<title>anat_norm_wfsplit_desc:e&#45;&gt;anat_norm_wfregistration:w</title>
<path fill="none" stroke="black" d="M789.53,-804C794.88,-804 792.38,-795.72 788.53,-792 729.16,-734.65 103.69,-815.54 46.53,-756 38.32,-747.46 33.24,-664.1 40.06,-636.98"/>
<polygon fill="black" stroke="black" points="43.05,-638.8 45.53,-628.5 37.17,-635.01 43.05,-638.8"/>
</g>
<!-- anat_norm_wfsplit_desc&#45;&gt;anat_norm_wfpoutputnode -->
<g id="edge26" class="edge">
<title>anat_norm_wfsplit_desc:e&#45;&gt;anat_norm_wfpoutputnode:w</title>
<path fill="none" stroke="black" d="M789.53,-804C963.19,-804 1434.71,-720.22 1538.53,-581 1563.23,-547.86 1566.75,-518.19 1538.53,-488 1457.3,-401.12 1085.97,-538.68 1004.53,-452 947.32,-391.12 918.8,-266.75 993.38,-256.65"/>
<polygon fill="black" stroke="black" points="993.77,-260.14 1003.53,-256 993.32,-253.15 993.77,-260.14"/>
</g>
<!-- anat_norm_wftrunc_mov&#45;&gt;anat_norm_wfregistration -->
<g id="edge37" class="edge">
<title>anat_norm_wftrunc_mov:e&#45;&gt;anat_norm_wfregistration:w</title>
<path fill="none" stroke="black" d="M426.53,-810C434.54,-810 431.08,-797.78 425.53,-792 366.89,-731.02 103.99,-818.09 46.53,-756 40.02,-748.97 35.52,-720.14 39.07,-706.17"/>
<polygon fill="black" stroke="black" points="41.76,-708.4 45.53,-698.5 36.41,-703.89 41.76,-708.4"/>
</g>
<!-- anat_norm_wftf_select&#45;&gt;anat_norm_wftpl_moving -->
<g id="edge35" class="edge">
<title>anat_norm_wftf_select:e&#45;&gt;anat_norm_wftpl_moving:w</title>
<path fill="none" stroke="black" d="M853.53,-669.5C861.54,-669.5 858.07,-657.29 852.53,-651.5 797.31,-593.85 191.64,-639.69 137.53,-581 130.92,-573.83 126.34,-544.51 129.96,-530.3"/>
<polygon fill="black" stroke="black" points="132.76,-532.4 136.53,-522.5 127.41,-527.89 132.76,-532.4"/>
</g>
<!-- anat_norm_wftf_select&#45;&gt;anat_norm_wfstd_mask -->
<g id="edge33" class="edge">
<title>anat_norm_wftf_select:e&#45;&gt;anat_norm_wfstd_mask:w</title>
<path fill="none" stroke="black" d="M853.53,-669.5C861.54,-669.5 853.03,-659.5 852.53,-651.5 851.78,-639.64 838.31,-558.96 841.86,-531.57"/>
<polygon fill="black" stroke="black" points="845.06,-532.99 846.53,-522.5 838.84,-529.79 845.06,-532.99"/>
</g>
<!-- anat_norm_wftf_select&#45;&gt;anat_norm_wfstd_dseg -->
<g id="edge32" class="edge">
<title>anat_norm_wftf_select:e&#45;&gt;anat_norm_wfstd_dseg:w</title>
<path fill="none" stroke="black" d="M853.53,-669.5C861.54,-669.5 857.78,-657.55 852.53,-651.5 747.69,-530.65 602.03,-703.84 499.53,-581 493.28,-573.51 488.53,-544.35 492.03,-530.24"/>
<polygon fill="black" stroke="black" points="494.77,-532.41 498.53,-522.5 489.41,-527.9 494.77,-532.41"/>
</g>
<!-- anat_norm_wftf_select&#45;&gt;anat_norm_wfstd_tpms -->
<g id="edge34" class="edge">
<title>anat_norm_wftf_select:e&#45;&gt;anat_norm_wfstd_tpms:w</title>
<path fill="none" stroke="black" d="M853.53,-669.5C930.52,-669.5 1137.51,-638.67 1188.53,-581 1194.91,-573.78 1189.16,-545.62 1190.84,-531.16"/>
<polygon fill="black" stroke="black" points="1193.97,-532.78 1196.53,-522.5 1188.11,-528.94 1193.97,-532.78"/>
</g>
<!-- anat_norm_wfregistration&#45;&gt;anat_norm_wftpl_moving -->
<g id="edge22" class="edge">
<title>anat_norm_wfregistration:e&#45;&gt;anat_norm_wftpl_moving:w</title>
<path fill="none" stroke="black" d="M495.53,-686.5C510.97,-686.5 504.97,-628.38 494.53,-617 440.62,-558.24 191.37,-639.81 137.53,-581 127.64,-570.2 121.24,-523.58 128.73,-506.13"/>
<polygon fill="black" stroke="black" points="131.18,-508.65 136.53,-499.5 126.64,-503.31 131.18,-508.65"/>
</g>
<!-- anat_norm_wfregistration&#45;&gt;anat_norm_wfstd_mask -->
<g id="edge20" class="edge">
<title>anat_norm_wfregistration:e&#45;&gt;anat_norm_wfstd_mask:w</title>
<path fill="none" stroke="black" d="M495.53,-686.5C532.81,-686.5 510.71,-636.45 542.53,-617 599.06,-582.44 792.22,-628.39 838.53,-581 848.61,-570.68 836.29,-525.48 839.83,-507.21"/>
<polygon fill="black" stroke="black" points="842.61,-509.34 846.53,-499.5 837.32,-504.75 842.61,-509.34"/>
</g>
<!-- anat_norm_wfregistration&#45;&gt;anat_norm_wfstd_dseg -->
<g id="edge19" class="edge">
<title>anat_norm_wfregistration:e&#45;&gt;anat_norm_wfstd_dseg:w</title>
<path fill="none" stroke="black" d="M495.53,-686.5C513.63,-686.5 486.7,-544.6 493.19,-508.02"/>
<polygon fill="black" stroke="black" points="496.19,-509.83 498.53,-499.5 490.25,-506.12 496.19,-509.83"/>
</g>
<!-- anat_norm_wfregistration&#45;&gt;anat_norm_wfstd_tpms -->
<g id="edge21" class="edge">
<title>anat_norm_wfregistration:e&#45;&gt;anat_norm_wfstd_tpms:w</title>
<path fill="none" stroke="black" d="M495.53,-686.5C532.81,-686.5 510.09,-635.4 542.53,-617 605.06,-581.53 1136.63,-630.75 1188.53,-581 1198.94,-571.01 1186.43,-525.62 1189.87,-507.25"/>
<polygon fill="black" stroke="black" points="1192.67,-509.37 1196.53,-499.5 1187.36,-504.81 1192.67,-509.37"/>
</g>
<!-- anat_norm_wfregistration&#45;&gt;anat_norm_wfpoutputnode -->
<g id="edge18" class="edge">
<title>anat_norm_wfregistration:e&#45;&gt;anat_norm_wfpoutputnode:w</title>
<path fill="none" stroke="black" d="M495.53,-686.5C510.97,-686.5 505.03,-628.33 494.53,-617 434,-551.71 155.58,-646.72 95.53,-581 67.64,-550.49 67.46,-518.34 95.53,-488 128.47,-452.38 886.74,-419.78 993.51,-417.17"/>
<polygon fill="black" stroke="black" points="993.59,-420.67 1003.53,-417 993.47,-413.67 993.59,-420.67"/>
</g>
<!-- anat_norm_wfregistration&#45;&gt;anat_norm_wfpoutputnode -->
<g id="edge23" class="edge">
<title>anat_norm_wfregistration:e&#45;&gt;anat_norm_wfpoutputnode:w</title>
<path fill="none" stroke="black" d="M495.53,-640.5C505.98,-640.5 501.71,-624.59 494.53,-617 438.36,-557.63 183.41,-641.55 128.53,-581 100.77,-550.38 101.3,-519.1 128.53,-488 191.23,-416.35 864.26,-373.56 993.36,-371.11"/>
<polygon fill="black" stroke="black" points="993.56,-374.61 1003.53,-371 993.49,-367.61 993.56,-374.61"/>
</g>
<!-- anat_norm_wftpl_moving&#45;&gt;anat_norm_wfpoutputnode -->
<g id="edge36" class="edge">
<title>anat_norm_wftpl_moving:e&#45;&gt;anat_norm_wfpoutputnode:w</title>
<path fill="none" stroke="black" d="M482.53,-511.5C493.71,-511.5 482.92,-495.15 491.53,-488 577.98,-416.16 870.61,-395.18 993.25,-394.05"/>
<polygon fill="black" stroke="black" points="993.54,-397.55 1003.53,-394 993.51,-390.55 993.54,-397.55"/>
</g>
<!-- anat_norm_wfstd_mask&#45;&gt;anat_norm_wfpoutputnode -->
<g id="edge30" class="edge">
<title>anat_norm_wfstd_mask:e&#45;&gt;anat_norm_wfpoutputnode:w</title>
<path fill="none" stroke="black" d="M1180.53,-511.5C1190.98,-511.5 1186.3,-495.96 1179.53,-488 1128.05,-427.53 1054.94,-513.35 1004.53,-452 971,-411.2 949.92,-335.58 993.57,-326.01"/>
<polygon fill="black" stroke="black" points="993.93,-329.49 1003.53,-325 993.22,-322.52 993.93,-329.49"/>
</g>
<!-- anat_norm_wfstd_dseg&#45;&gt;anat_norm_wfpoutputnode -->
<g id="edge29" class="edge">
<title>anat_norm_wfstd_dseg:e&#45;&gt;anat_norm_wfpoutputnode:w</title>
<path fill="none" stroke="black" d="M830.53,-511.5C841.56,-511.5 832.32,-497.12 838.53,-488 890.69,-411.37 906.24,-352.4 993.41,-348.23"/>
<polygon fill="black" stroke="black" points="993.61,-351.73 1003.53,-348 993.45,-344.73 993.61,-351.73"/>
</g>
<!-- anat_norm_wfstd_tpms&#45;&gt;anat_norm_wfpoutputnode -->
<g id="edge31" class="edge">
<title>anat_norm_wfstd_tpms:e&#45;&gt;anat_norm_wfpoutputnode:w</title>
<path fill="none" stroke="black" d="M1530.53,-511.5C1540.98,-511.5 1536.82,-495.49 1529.53,-488 1447.92,-404.25 1084.62,-537.2 1004.53,-452 961.36,-406.08 939.34,-312.94 993.37,-302.88"/>
<polygon fill="black" stroke="black" points="993.87,-306.36 1003.53,-302 993.26,-299.38 993.87,-306.36"/>
</g>
<!-- anat_norm_wfoutputnode -->
<g id="node11" class="node">
<title>anat_norm_wfoutputnode</title>
<polygon fill="none" stroke="black" points="1350.53,-0.5 1350.53,-207.5 1616.53,-207.5 1616.53,-0.5 1350.53,-0.5"/>
<text text-anchor="middle" x="1410.03" y="-192.3" font-family="Times,serif" font-size="14.00">IN</text>
<polyline fill="none" stroke="black" points="1350.53,-184.5 1469.53,-184.5 "/>
<text text-anchor="middle" x="1410.03" y="-169.3" font-family="Times,serif" font-size="14.00">anat2std_xfm</text>
<polyline fill="none" stroke="black" points="1350.53,-161.5 1469.53,-161.5 "/>
<text text-anchor="middle" x="1410.03" y="-146.3" font-family="Times,serif" font-size="14.00">standardized</text>
<polyline fill="none" stroke="black" points="1350.53,-138.5 1469.53,-138.5 "/>
<text text-anchor="middle" x="1410.03" y="-123.3" font-family="Times,serif" font-size="14.00">std2anat_xfm</text>
<polyline fill="none" stroke="black" points="1350.53,-115.5 1469.53,-115.5 "/>
<text text-anchor="middle" x="1410.03" y="-100.3" font-family="Times,serif" font-size="14.00">std_dseg</text>
<polyline fill="none" stroke="black" points="1350.53,-92.5 1469.53,-92.5 "/>
<text text-anchor="middle" x="1410.03" y="-77.3" font-family="Times,serif" font-size="14.00">std_mask</text>
<polyline fill="none" stroke="black" points="1350.53,-69.5 1469.53,-69.5 "/>
<text text-anchor="middle" x="1410.03" y="-54.3" font-family="Times,serif" font-size="14.00">std_tpms</text>
<polyline fill="none" stroke="black" points="1350.53,-46.5 1469.53,-46.5 "/>
<text text-anchor="middle" x="1410.03" y="-31.3" font-family="Times,serif" font-size="14.00">template</text>
<polyline fill="none" stroke="black" points="1350.53,-23.5 1469.53,-23.5 "/>
<text text-anchor="middle" x="1410.03" y="-8.3" font-family="Times,serif" font-size="14.00">template_spec</text>
<polyline fill="none" stroke="black" points="1469.53,-0.5 1469.53,-207.5 "/>
<text text-anchor="middle" x="1518.53" y="-169.3" font-family="Times,serif" font-size="14.00">outputnode</text>
<polyline fill="none" stroke="black" points="1469.53,-138.5 1567.53,-138.5 "/>
<text text-anchor="middle" x="1518.53" y="-100.3" font-family="Times,serif" font-size="14.00">utility</text>
<polyline fill="none" stroke="black" points="1469.53,-69.5 1567.53,-69.5 "/>
<text text-anchor="middle" x="1518.53" y="-31.3" font-family="Times,serif" font-size="14.00"> </text>
<polyline fill="none" stroke="black" points="1567.53,-0.5 1567.53,-207.5 "/>
<text text-anchor="middle" x="1592.03" y="-100.3" font-family="Times,serif" font-size="14.00">OUT</text>
</g>
<!-- anat_norm_wfpoutputnode&#45;&gt;anat_norm_wfoutputnode -->
<g id="edge10" class="edge">
<title>anat_norm_wfpoutputnode:e&#45;&gt;anat_norm_wfoutputnode:w</title>
<path fill="none" stroke="black" d="M1351.53,-417C1428.42,-417 1351.29,-320.89 1350.53,-244 1350.26,-216.88 1326.4,-183.94 1339.73,-175.21"/>
<polygon fill="black" stroke="black" points="1340.54,-178.61 1349.53,-173 1339,-171.79 1340.54,-178.61"/>
</g>
<!-- anat_norm_wfpoutputnode&#45;&gt;anat_norm_wfoutputnode -->
<g id="edge11" class="edge">
<title>anat_norm_wfpoutputnode:e&#45;&gt;anat_norm_wfoutputnode:w</title>
<path fill="none" stroke="black" d="M1351.53,-394C1418.19,-394 1351.1,-310.67 1350.53,-244 1350.2,-206.3 1315.63,-160.1 1339.58,-151.44"/>
<polygon fill="black" stroke="black" points="1340.13,-154.89 1349.53,-150 1339.13,-147.96 1340.13,-154.89"/>
</g>
<!-- anat_norm_wfpoutputnode&#45;&gt;anat_norm_wfoutputnode -->
<g id="edge12" class="edge">
<title>anat_norm_wfpoutputnode:e&#45;&gt;anat_norm_wfoutputnode:w</title>
<path fill="none" stroke="black" d="M1351.53,-371C1407.97,-371 1350.99,-300.44 1350.53,-244 1350.13,-196.06 1305.42,-137.08 1339.18,-128.15"/>
<polygon fill="black" stroke="black" points="1339.98,-131.59 1349.53,-127 1339.2,-124.63 1339.98,-131.59"/>
</g>
<!-- anat_norm_wfpoutputnode&#45;&gt;anat_norm_wfoutputnode -->
<g id="edge13" class="edge">
<title>anat_norm_wfpoutputnode:e&#45;&gt;anat_norm_wfoutputnode:w</title>
<path fill="none" stroke="black" d="M1351.53,-348C1456.27,-348 1255.66,-120.39 1339.53,-104.84"/>
<polygon fill="black" stroke="black" points="1339.85,-108.32 1349.53,-104 1339.27,-101.35 1339.85,-108.32"/>
</g>
<!-- anat_norm_wfpoutputnode&#45;&gt;anat_norm_wfoutputnode -->
<g id="edge14" class="edge">
<title>anat_norm_wfpoutputnode:e&#45;&gt;anat_norm_wfoutputnode:w</title>
<path fill="none" stroke="black" d="M1351.53,-325C1403.53,-325 1350.95,-260 1350.53,-208 1350.1,-155.52 1300.81,-90.85 1339.24,-82.02"/>
<polygon fill="black" stroke="black" points="1339.92,-85.47 1349.53,-81 1339.23,-78.5 1339.92,-85.47"/>
</g>
<!-- anat_norm_wfpoutputnode&#45;&gt;anat_norm_wfoutputnode -->
<g id="edge15" class="edge">
<title>anat_norm_wfpoutputnode:e&#45;&gt;anat_norm_wfoutputnode:w</title>
<path fill="none" stroke="black" d="M1351.53,-302C1393.31,-302 1350.89,-249.78 1350.53,-208 1349.98,-145.11 1290.24,-67.39 1339.45,-58.78"/>
<polygon fill="black" stroke="black" points="1339.83,-62.27 1349.53,-58 1339.28,-55.29 1339.83,-62.27"/>
</g>
<!-- anat_norm_wfpoutputnode&#45;&gt;anat_norm_wfoutputnode -->
<g id="edge16" class="edge">
<title>anat_norm_wfpoutputnode:e&#45;&gt;anat_norm_wfoutputnode:w</title>
<path fill="none" stroke="black" d="M1351.53,-279C1383.08,-279 1350.84,-239.56 1350.53,-208 1349.8,-134.87 1279.99,-44.34 1339.34,-35.67"/>
<polygon fill="black" stroke="black" points="1339.78,-39.15 1349.53,-35 1339.32,-32.17 1339.78,-39.15"/>
</g>
<!-- anat_norm_wfpoutputnode&#45;&gt;anat_norm_wfoutputnode -->
<g id="edge17" class="edge">
<title>anat_norm_wfpoutputnode:e&#45;&gt;anat_norm_wfoutputnode:w</title>
<path fill="none" stroke="black" d="M1351.53,-256C1372.86,-256 1350.8,-229.34 1350.53,-208 1349.44,-124.64 1269.73,-21.32 1339.24,-12.59"/>
<polygon fill="black" stroke="black" points="1339.74,-16.07 1349.53,-12 1339.34,-9.08 1339.74,-16.07"/>
</g>
</g>
</svg>
