<?xml version="1.0" encoding="UTF-8" standalone="no"?>
<!DOCTYPE svg PUBLIC "-//W3C//DTD SVG 1.1//EN"
 "http://www.w3.org/Graphics/SVG/1.1/DTD/svg11.dtd">
<!-- Generated by graphviz version 2.43.0 (0)
 -->
<!-- Title: %3 Pages: 1 -->
<svg width="332pt" height="332pt"
 viewBox="0.00 0.00 332.43 332.00" xmlns="http://www.w3.org/2000/svg" xmlns:xlink="http://www.w3.org/1999/xlink">
<g id="graph0" class="graph" transform="scale(1 1) rotate(0) translate(4 328)">
<title>%3</title>
<polygon fill="white" stroke="transparent" points="-4,4 -4,-328 328.43,-328 328.43,4 -4,4"/>
<!-- inputnode (utility) -->
<g id="node1" class="node">
<title>inputnode (utility)</title>
<ellipse fill="none" stroke="black" cx="171.94" cy="-306" rx="94.78" ry="18"/>
<text text-anchor="middle" x="171.94" y="-302.3" font-family="Times,serif" font-size="14.00">inputnode (utility)</text>
</g>
<!-- fs_datasource (io) -->
<g id="node2" class="node">
<title>fs_datasource (io)</title>
<ellipse fill="none" stroke="black" cx="171.94" cy="-234" rx="92.88" ry="18"/>
<text text-anchor="middle" x="171.94" y="-230.3" font-family="Times,serif" font-size="14.00">fs_datasource (io)</text>
</g>
<!-- inputnode (utility)&#45;&gt;fs_datasource (io) -->
<g id="edge1" class="edge">
<title>inputnode (utility)&#45;&gt;fs_datasource (io)</title>
<path fill="none" stroke="black" d="M171.94,-287.7C171.94,-279.98 171.94,-270.71 171.94,-262.11"/>
<polygon fill="black" stroke="black" points="175.44,-262.1 171.94,-252.1 168.44,-262.1 175.44,-262.1"/>
</g>
<!-- lta (nitransforms) -->
<g id="node3" class="node">
<title>lta (nitransforms)</title>
<ellipse fill="none" stroke="black" cx="92.94" cy="-162" rx="92.88" ry="18"/>
<text text-anchor="middle" x="92.94" y="-158.3" font-family="Times,serif" font-size="14.00">lta (nitransforms)</text>
</g>
<!-- inputnode (utility)&#45;&gt;lta (nitransforms) -->
<g id="edge2" class="edge">
<title>inputnode (utility)&#45;&gt;lta (nitransforms)</title>
<path fill="none" stroke="black" d="M120.3,-290.81C101.03,-282.73 81.13,-270.42 69.94,-252 58.18,-232.63 66.54,-207.36 76.32,-188.7"/>
<polygon fill="black" stroke="black" points="79.44,-190.3 81.31,-179.87 73.35,-186.86 79.44,-190.3"/>
</g>
<!-- resample (freesurfer) -->
<g id="node4" class="node">
<title>resample (freesurfer)</title>
<ellipse fill="none" stroke="black" cx="213.94" cy="-90" rx="110.48" ry="18"/>
<text text-anchor="middle" x="213.94" y="-86.3" font-family="Times,serif" font-size="14.00">resample (freesurfer)</text>
</g>
<!-- inputnode (utility)&#45;&gt;resample (freesurfer) -->
<g id="edge3" class="edge">
<title>inputnode (utility)&#45;&gt;resample (freesurfer)</title>
<path fill="none" stroke="black" d="M223.58,-290.81C242.85,-282.73 262.75,-270.42 273.94,-252 301.06,-207.34 262.98,-148.43 236.23,-115.67"/>
<polygon fill="black" stroke="black" points="238.83,-113.33 229.72,-107.93 233.48,-117.83 238.83,-113.33"/>
</g>
<!-- fs_datasource (io)&#45;&gt;lta (nitransforms) -->
<g id="edge4" class="edge">
<title>fs_datasource (io)&#45;&gt;lta (nitransforms)</title>
<path fill="none" stroke="black" d="M152.82,-216.05C142.82,-207.2 130.43,-196.22 119.52,-186.55"/>
<polygon fill="black" stroke="black" points="121.7,-183.8 111.89,-179.79 117.05,-189.04 121.7,-183.8"/>
</g>
<!-- fs_datasource (io)&#45;&gt;resample (freesurfer) -->
<g id="edge5" class="edge">
<title>fs_datasource (io)&#45;&gt;resample (freesurfer)</title>
<path fill="none" stroke="black" d="M180.51,-215.67C185.28,-205.48 191.03,-192.23 194.94,-180 201.44,-159.72 206.36,-136.12 209.56,-118.32"/>
<polygon fill="black" stroke="black" points="213.04,-118.78 211.29,-108.33 206.14,-117.58 213.04,-118.78"/>
</g>
<!-- lta (nitransforms)&#45;&gt;resample (freesurfer) -->
<g id="edge6" class="edge">
<title>lta (nitransforms)&#45;&gt;resample (freesurfer)</title>
<path fill="none" stroke="black" d="M121.01,-144.76C137.41,-135.27 158.34,-123.17 176.18,-112.84"/>
<polygon fill="black" stroke="black" points="178.29,-115.67 185.19,-107.63 174.78,-109.61 178.29,-115.67"/>
</g>
<!-- outputnode (utility) -->
<g id="node5" class="node">
<title>outputnode (utility)</title>
<ellipse fill="none" stroke="black" cx="213.94" cy="-18" rx="101.28" ry="18"/>
<text text-anchor="middle" x="213.94" y="-14.3" font-family="Times,serif" font-size="14.00">outputnode (utility)</text>
</g>
<!-- resample (freesurfer)&#45;&gt;outputnode (utility) -->
<g id="edge7" class="edge">
<title>resample (freesurfer)&#45;&gt;outputnode (utility)</title>
<path fill="none" stroke="black" d="M213.94,-71.7C213.94,-63.98 213.94,-54.71 213.94,-46.11"/>
<polygon fill="black" stroke="black" points="217.44,-46.1 213.94,-36.1 210.44,-46.1 217.44,-46.1"/>
</g>
</g>
</svg>
