<?xml version="1.0" encoding="UTF-8" standalone="no"?>
<!DOCTYPE svg PUBLIC "-//W3C//DTD SVG 1.1//EN"
 "http://www.w3.org/Graphics/SVG/1.1/DTD/svg11.dtd">
<!-- Generated by graphviz version 2.43.0 (0)
 -->
<!-- Title: %3 Pages: 1 -->
<svg width="280pt" height="260pt"
 viewBox="0.00 0.00 280.03 260.00" xmlns="http://www.w3.org/2000/svg" xmlns:xlink="http://www.w3.org/1999/xlink">
<g id="graph0" class="graph" transform="scale(1 1) rotate(0) translate(4 256)">
<title>%3</title>
<polygon fill="white" stroke="transparent" points="-4,4 -4,-256 276.03,-256 276.03,4 -4,4"/>
<!-- inputnode (utility) -->
<g id="node1" class="node">
<title>inputnode (utility)</title>
<ellipse fill="none" stroke="black" cx="170.64" cy="-234" rx="94.78" ry="18"/>
<text text-anchor="middle" x="170.64" y="-230.3" font-family="Times,serif" font-size="14.00">inputnode (utility)</text>
</g>
<!-- segs_to_native_aseg -->
<g id="node2" class="node">
<title>segs_to_native_aseg</title>
<ellipse fill="none" stroke="black" cx="104.64" cy="-162" rx="104.78" ry="18"/>
<text text-anchor="middle" x="104.64" y="-158.3" font-family="Times,serif" font-size="14.00">segs_to_native_aseg</text>
</g>
<!-- inputnode (utility)&#45;&gt;segs_to_native_aseg -->
<g id="edge1" class="edge">
<title>inputnode (utility)&#45;&gt;segs_to_native_aseg</title>
<path fill="none" stroke="black" d="M154.66,-216.05C146.68,-207.58 136.86,-197.17 128.04,-187.82"/>
<polygon fill="black" stroke="black" points="130.34,-185.15 120.93,-180.28 125.24,-189.95 130.34,-185.15"/>
</g>
<!-- refine (freesurfer) -->
<g id="node3" class="node">
<title>refine (freesurfer)</title>
<ellipse fill="none" stroke="black" cx="170.64" cy="-90" rx="94.48" ry="18"/>
<text text-anchor="middle" x="170.64" y="-86.3" font-family="Times,serif" font-size="14.00">refine (freesurfer)</text>
</g>
<!-- inputnode (utility)&#45;&gt;refine (freesurfer) -->
<g id="edge2" class="edge">
<title>inputnode (utility)&#45;&gt;refine (freesurfer)</title>
<path fill="none" stroke="black" d="M191.85,-216.25C202.04,-206.83 213.19,-194.13 218.64,-180 224.4,-165.07 224.4,-158.93 218.64,-144 214.47,-133.18 206.95,-123.2 199.09,-114.89"/>
<polygon fill="black" stroke="black" points="201.43,-112.28 191.85,-107.75 196.51,-117.26 201.43,-112.28"/>
</g>
<!-- segs_to_native_aseg&#45;&gt;refine (freesurfer) -->
<g id="edge3" class="edge">
<title>segs_to_native_aseg&#45;&gt;refine (freesurfer)</title>
<path fill="none" stroke="black" d="M120.62,-144.05C128.81,-135.37 138.92,-124.64 147.9,-115.11"/>
<polygon fill="black" stroke="black" points="150.5,-117.47 154.81,-107.79 145.4,-112.66 150.5,-117.47"/>
</g>
<!-- outputnode (utility) -->
<g id="node4" class="node">
<title>outputnode (utility)</title>
<ellipse fill="none" stroke="black" cx="170.64" cy="-18" rx="101.28" ry="18"/>
<text text-anchor="middle" x="170.64" y="-14.3" font-family="Times,serif" font-size="14.00">outputnode (utility)</text>
</g>
<!-- refine (freesurfer)&#45;&gt;outputnode (utility) -->
<g id="edge4" class="edge">
<title>refine (freesurfer)&#45;&gt;outputnode (utility)</title>
<path fill="none" stroke="black" d="M170.64,-71.7C170.64,-63.98 170.64,-54.71 170.64,-46.11"/>
<polygon fill="black" stroke="black" points="174.14,-46.1 170.64,-36.1 167.14,-46.1 174.14,-46.1"/>
</g>
</g>
</svg>
