<?xml version="1.0" encoding="UTF-8" standalone="no"?>
<!DOCTYPE svg PUBLIC "-//W3C//DTD SVG 1.1//EN"
 "http://www.w3.org/Graphics/SVG/1.1/DTD/svg11.dtd">
<!-- Generated by graphviz version 2.43.0 (0)
 -->
<!-- Title: structs Pages: 1 -->
<svg width="1360pt" height="709pt"
 viewBox="0.00 0.00 1359.58 709.00" xmlns="http://www.w3.org/2000/svg" xmlns:xlink="http://www.w3.org/1999/xlink">
<g id="graph0" class="graph" transform="scale(1 1) rotate(0) translate(4 705)">
<title>structs</title>
<polygon fill="white" stroke="transparent" points="-4,4 -4,-705 1355.58,-705 1355.58,4 -4,4"/>
<!-- register_template_wfinputnode -->
<g id="node1" class="node">
<title>register_template_wfinputnode</title>
<polygon fill="none" stroke="black" points="176.58,-585.5 176.58,-700.5 418.58,-700.5 418.58,-585.5 176.58,-585.5"/>
<text text-anchor="middle" x="193.58" y="-639.3" font-family="Times,serif" font-size="14.00">IN</text>
<polyline fill="none" stroke="black" points="210.58,-585.5 210.58,-700.5 "/>
<text text-anchor="middle" x="255.08" y="-677.8" font-family="Times,serif" font-size="14.00">inputnode</text>
<polyline fill="none" stroke="black" points="210.58,-662.5 299.58,-662.5 "/>
<text text-anchor="middle" x="255.08" y="-639.8" font-family="Times,serif" font-size="14.00">utility</text>
<polyline fill="none" stroke="black" points="210.58,-624.5 299.58,-624.5 "/>
<text text-anchor="middle" x="255.08" y="-601.3" font-family="Times,serif" font-size="14.00"> </text>
<polyline fill="none" stroke="black" points="299.58,-585.5 299.58,-700.5 "/>
<text text-anchor="middle" x="359.08" y="-685.3" font-family="Times,serif" font-size="14.00">OUT</text>
<polyline fill="none" stroke="black" points="299.58,-677.5 418.58,-677.5 "/>
<text text-anchor="middle" x="359.08" y="-662.3" font-family="Times,serif" font-size="14.00">lesion_mask</text>
<polyline fill="none" stroke="black" points="299.58,-654.5 418.58,-654.5 "/>
<text text-anchor="middle" x="359.08" y="-639.3" font-family="Times,serif" font-size="14.00">moving_image</text>
<polyline fill="none" stroke="black" points="299.58,-631.5 418.58,-631.5 "/>
<text text-anchor="middle" x="359.08" y="-616.3" font-family="Times,serif" font-size="14.00">moving_mask</text>
<polyline fill="none" stroke="black" points="299.58,-608.5 418.58,-608.5 "/>
<text text-anchor="middle" x="359.08" y="-593.3" font-family="Times,serif" font-size="14.00">template</text>
</g>
<!-- register_template_wfsplit_desc -->
<g id="node2" class="node">
<title>register_template_wfsplit_desc</title>
<polygon fill="none" stroke="black" points="15.58,-479.5 15.58,-548.5 261.58,-548.5 261.58,-479.5 15.58,-479.5"/>
<text text-anchor="middle" x="55.58" y="-527.8" font-family="Times,serif" font-size="14.00">IN</text>
<polyline fill="none" stroke="black" points="15.58,-514.5 95.58,-514.5 "/>
<text text-anchor="middle" x="55.58" y="-493.3" font-family="Times,serif" font-size="14.00">template</text>
<polyline fill="none" stroke="black" points="95.58,-479.5 95.58,-548.5 "/>
<text text-anchor="middle" x="150.58" y="-533.3" font-family="Times,serif" font-size="14.00">split_desc</text>
<polyline fill="none" stroke="black" points="95.58,-525.5 205.58,-525.5 "/>
<text text-anchor="middle" x="150.58" y="-510.3" font-family="Times,serif" font-size="14.00">templateflow</text>
<polyline fill="none" stroke="black" points="95.58,-502.5 205.58,-502.5 "/>
<text text-anchor="middle" x="150.58" y="-487.3" font-family="Times,serif" font-size="14.00"> </text>
<polyline fill="none" stroke="black" points="205.58,-479.5 205.58,-548.5 "/>
<text text-anchor="middle" x="233.58" y="-533.3" font-family="Times,serif" font-size="14.00">OUT</text>
<polyline fill="none" stroke="black" points="205.58,-525.5 261.58,-525.5 "/>
<text text-anchor="middle" x="233.58" y="-510.3" font-family="Times,serif" font-size="14.00">name</text>
<polyline fill="none" stroke="black" points="205.58,-502.5 261.58,-502.5 "/>
<text text-anchor="middle" x="233.58" y="-487.3" font-family="Times,serif" font-size="14.00">spec</text>
</g>
<!-- register_template_wfinputnode&#45;&gt;register_template_wfsplit_desc -->
<g id="edge4" class="edge">
<title>register_template_wfinputnode:e&#45;&gt;register_template_wfsplit_desc:w</title>
<path fill="none" stroke="black" d="M419.58,-597C424.93,-597 422.35,-588.8 418.58,-585 355.19,-521.23 76.9,-614.76 15.58,-549 2.65,-535.13 -5.29,-509.02 5.03,-500.09"/>
<polygon fill="black" stroke="black" points="6.14,-503.41 14.58,-497 3.99,-496.75 6.14,-503.41"/>
</g>
<!-- register_template_wftrunc_mov -->
<g id="node3" class="node">
<title>register_template_wftrunc_mov</title>
<polygon fill="none" stroke="black" points="280.08,-479.5 280.08,-548.5 529.08,-548.5 529.08,-479.5 280.08,-479.5"/>
<text text-anchor="middle" x="301.58" y="-527.8" font-family="Times,serif" font-size="14.00">IN</text>
<polyline fill="none" stroke="black" points="280.08,-514.5 323.08,-514.5 "/>
<text text-anchor="middle" x="301.58" y="-493.3" font-family="Times,serif" font-size="14.00">op1</text>
<polyline fill="none" stroke="black" points="323.08,-479.5 323.08,-548.5 "/>
<text text-anchor="middle" x="369.08" y="-533.3" font-family="Times,serif" font-size="14.00">trunc_mov</text>
<polyline fill="none" stroke="black" points="323.08,-525.5 415.08,-525.5 "/>
<text text-anchor="middle" x="369.08" y="-510.3" font-family="Times,serif" font-size="14.00">ants</text>
<polyline fill="none" stroke="black" points="323.08,-502.5 415.08,-502.5 "/>
<text text-anchor="middle" x="369.08" y="-487.3" font-family="Times,serif" font-size="14.00"> </text>
<polyline fill="none" stroke="black" points="415.08,-479.5 415.08,-548.5 "/>
<text text-anchor="middle" x="472.08" y="-527.8" font-family="Times,serif" font-size="14.00">OUT</text>
<polyline fill="none" stroke="black" points="415.08,-514.5 529.08,-514.5 "/>
<text text-anchor="middle" x="472.08" y="-493.3" font-family="Times,serif" font-size="14.00">output_image</text>
</g>
<!-- register_template_wfinputnode&#45;&gt;register_template_wftrunc_mov -->
<g id="edge2" class="edge">
<title>register_template_wfinputnode:e&#45;&gt;register_template_wftrunc_mov:w</title>
<path fill="none" stroke="black" d="M419.58,-643C445.36,-643 434.54,-605.25 418.58,-585 379.09,-534.87 319.13,-599.09 279.58,-549 274.38,-542.41 270.11,-517.95 272.59,-505.06"/>
<polygon fill="black" stroke="black" points="275.43,-507.11 278.58,-497 269.81,-502.94 275.43,-507.11"/>
</g>
<!-- register_template_wfregistration -->
<g id="node5" class="node">
<title>register_template_wfregistration</title>
<polygon fill="none" stroke="black" points="530.08,-304.5 530.08,-442.5 977.08,-442.5 977.08,-304.5 530.08,-304.5"/>
<text text-anchor="middle" x="589.58" y="-427.3" font-family="Times,serif" font-size="14.00">IN</text>
<polyline fill="none" stroke="black" points="530.08,-419.5 649.08,-419.5 "/>
<text text-anchor="middle" x="589.58" y="-404.3" font-family="Times,serif" font-size="14.00">lesion_mask</text>
<polyline fill="none" stroke="black" points="530.08,-396.5 649.08,-396.5 "/>
<text text-anchor="middle" x="589.58" y="-381.3" font-family="Times,serif" font-size="14.00">moving_image</text>
<polyline fill="none" stroke="black" points="530.08,-373.5 649.08,-373.5 "/>
<text text-anchor="middle" x="589.58" y="-358.3" font-family="Times,serif" font-size="14.00">moving_mask</text>
<polyline fill="none" stroke="black" points="530.08,-350.5 649.08,-350.5 "/>
<text text-anchor="middle" x="589.58" y="-335.3" font-family="Times,serif" font-size="14.00">template</text>
<polyline fill="none" stroke="black" points="530.08,-327.5 649.08,-327.5 "/>
<text text-anchor="middle" x="589.58" y="-312.3" font-family="Times,serif" font-size="14.00">template_spec</text>
<polyline fill="none" stroke="black" points="649.08,-304.5 649.08,-442.5 "/>
<text text-anchor="middle" x="699.58" y="-415.8" font-family="Times,serif" font-size="14.00">registration</text>
<polyline fill="none" stroke="black" points="649.08,-396.5 750.08,-396.5 "/>
<text text-anchor="middle" x="699.58" y="-369.8" font-family="Times,serif" font-size="14.00">norm</text>
<polyline fill="none" stroke="black" points="649.08,-350.5 750.08,-350.5 "/>
<text text-anchor="middle" x="699.58" y="-323.8" font-family="Times,serif" font-size="14.00"> </text>
<polyline fill="none" stroke="black" points="750.08,-304.5 750.08,-442.5 "/>
<text text-anchor="middle" x="863.58" y="-415.8" font-family="Times,serif" font-size="14.00">OUT</text>
<polyline fill="none" stroke="black" points="750.08,-396.5 977.08,-396.5 "/>
<text text-anchor="middle" x="863.58" y="-369.8" font-family="Times,serif" font-size="14.00">composite_transform</text>
<polyline fill="none" stroke="black" points="750.08,-350.5 977.08,-350.5 "/>
<text text-anchor="middle" x="863.58" y="-323.8" font-family="Times,serif" font-size="14.00">inverse_composite_transform</text>
</g>
<!-- register_template_wfinputnode&#45;&gt;register_template_wfregistration -->
<g id="edge1" class="edge">
<title>register_template_wfinputnode:e&#45;&gt;register_template_wfregistration:w</title>
<path fill="none" stroke="black" d="M419.58,-666C493.44,-666 509.17,-617.17 537.58,-549 549.55,-520.28 540.98,-509.93 537.58,-479 535.79,-462.71 531.61,-459.26 529.58,-443 528.43,-433.72 522.61,-422.94 521.72,-415.93"/>
<polygon fill="black" stroke="black" points="524.37,-418.22 528.58,-408.5 519.23,-413.47 524.37,-418.22"/>
</g>
<!-- register_template_wfinputnode&#45;&gt;register_template_wfregistration -->
<g id="edge3" class="edge">
<title>register_template_wfinputnode:e&#45;&gt;register_template_wfregistration:w</title>
<path fill="none" stroke="black" d="M419.58,-620C487.37,-620 519.54,-607.03 554.58,-549 570.67,-522.37 563.88,-508.69 554.58,-479 548.76,-460.41 535.52,-461.55 529.58,-443 525.18,-429.25 515.66,-385.66 521.14,-368.52"/>
<polygon fill="black" stroke="black" points="523.71,-370.91 528.58,-361.5 518.9,-365.81 523.71,-370.91"/>
</g>
<!-- register_template_wftf_select -->
<g id="node4" class="node">
<title>register_template_wftf_select</title>
<polygon fill="none" stroke="black" points="157.58,-339 157.58,-408 435.58,-408 435.58,-339 157.58,-339"/>
<text text-anchor="middle" x="217.08" y="-392.8" font-family="Times,serif" font-size="14.00">IN</text>
<polyline fill="none" stroke="black" points="157.58,-385 276.58,-385 "/>
<text text-anchor="middle" x="217.08" y="-369.8" font-family="Times,serif" font-size="14.00">template</text>
<polyline fill="none" stroke="black" points="157.58,-362 276.58,-362 "/>
<text text-anchor="middle" x="217.08" y="-346.8" font-family="Times,serif" font-size="14.00">template_spec</text>
<polyline fill="none" stroke="black" points="276.58,-339 276.58,-408 "/>
<text text-anchor="middle" x="331.58" y="-392.8" font-family="Times,serif" font-size="14.00">tf_select</text>
<polyline fill="none" stroke="black" points="276.58,-385 386.58,-385 "/>
<text text-anchor="middle" x="331.58" y="-369.8" font-family="Times,serif" font-size="14.00">templateflow</text>
<polyline fill="none" stroke="black" points="276.58,-362 386.58,-362 "/>
<text text-anchor="middle" x="331.58" y="-346.8" font-family="Times,serif" font-size="14.00"> </text>
<polyline fill="none" stroke="black" points="386.58,-339 386.58,-408 "/>
<text text-anchor="middle" x="411.08" y="-369.8" font-family="Times,serif" font-size="14.00">OUT</text>
</g>
<!-- register_template_wfsplit_desc&#45;&gt;register_template_wftf_select -->
<g id="edge13" class="edge">
<title>register_template_wfsplit_desc:e&#45;&gt;register_template_wftf_select:w</title>
<path fill="none" stroke="black" d="M262.58,-514C270.36,-514 265.32,-485.82 261.58,-479 234.72,-430.04 184.44,-457.46 157.58,-408.5 152.55,-399.33 146.8,-386.68 148.29,-379.37"/>
<polygon fill="black" stroke="black" points="150.45,-382.14 156.58,-373.5 146.4,-376.42 150.45,-382.14"/>
</g>
<!-- register_template_wfsplit_desc&#45;&gt;register_template_wftf_select -->
<g id="edge16" class="edge">
<title>register_template_wfsplit_desc:e&#45;&gt;register_template_wftf_select:w</title>
<path fill="none" stroke="black" d="M262.58,-491C267.93,-491 264.28,-483.62 261.58,-479 233.4,-430.79 184.16,-457.61 157.58,-408.5 147.42,-389.72 135.72,-362.27 146.64,-353.39"/>
<polygon fill="black" stroke="black" points="147.96,-356.65 156.58,-350.5 146,-349.93 147.96,-356.65"/>
</g>
<!-- register_template_wfsplit_desc&#45;&gt;register_template_wfregistration -->
<g id="edge12" class="edge">
<title>register_template_wfsplit_desc:e&#45;&gt;register_template_wfregistration:w</title>
<path fill="none" stroke="black" d="M262.58,-514C278.54,-514 258.86,-489.83 270.58,-479 351.41,-404.3 438.62,-521.68 515.58,-443 529.26,-429.02 512.8,-365.39 520.7,-344.89"/>
<polygon fill="black" stroke="black" points="523.02,-347.52 528.58,-338.5 518.61,-342.08 523.02,-347.52"/>
</g>
<!-- register_template_wfsplit_desc&#45;&gt;register_template_wfregistration -->
<g id="edge15" class="edge">
<title>register_template_wfsplit_desc:e&#45;&gt;register_template_wfregistration:w</title>
<path fill="none" stroke="black" d="M262.58,-491C268.99,-491 265.17,-482.43 270.58,-479 363.57,-420.13 439.5,-522.53 515.58,-443 532.58,-425.23 508.69,-343.12 520.17,-321"/>
<polygon fill="black" stroke="black" points="522.13,-323.9 528.58,-315.5 518.3,-318.04 522.13,-323.9"/>
</g>
<!-- register_template_wfpoutputnode -->
<g id="node6" class="node">
<title>register_template_wfpoutputnode</title>
<polygon fill="none" stroke="black" points="740.08,-152.5 740.08,-267.5 1085.08,-267.5 1085.08,-152.5 740.08,-152.5"/>
<text text-anchor="middle" x="799.58" y="-252.3" font-family="Times,serif" font-size="14.00">IN</text>
<polyline fill="none" stroke="black" points="740.08,-244.5 859.08,-244.5 "/>
<text text-anchor="middle" x="799.58" y="-229.3" font-family="Times,serif" font-size="14.00">anat2std_xfm</text>
<polyline fill="none" stroke="black" points="740.08,-221.5 859.08,-221.5 "/>
<text text-anchor="middle" x="799.58" y="-206.3" font-family="Times,serif" font-size="14.00">std2anat_xfm</text>
<polyline fill="none" stroke="black" points="740.08,-198.5 859.08,-198.5 "/>
<text text-anchor="middle" x="799.58" y="-183.3" font-family="Times,serif" font-size="14.00">template</text>
<polyline fill="none" stroke="black" points="740.08,-175.5 859.08,-175.5 "/>
<text text-anchor="middle" x="799.58" y="-160.3" font-family="Times,serif" font-size="14.00">template_spec</text>
<polyline fill="none" stroke="black" points="859.08,-152.5 859.08,-267.5 "/>
<text text-anchor="middle" x="912.58" y="-244.8" font-family="Times,serif" font-size="14.00">poutputnode</text>
<polyline fill="none" stroke="black" points="859.08,-229.5 966.08,-229.5 "/>
<text text-anchor="middle" x="912.58" y="-206.8" font-family="Times,serif" font-size="14.00">utility</text>
<polyline fill="none" stroke="black" points="859.08,-191.5 966.08,-191.5 "/>
<text text-anchor="middle" x="912.58" y="-168.3" font-family="Times,serif" font-size="14.00"> </text>
<polyline fill="none" stroke="black" points="966.08,-152.5 966.08,-267.5 "/>
<text text-anchor="middle" x="1025.58" y="-252.3" font-family="Times,serif" font-size="14.00">OUT</text>
<polyline fill="none" stroke="black" points="966.08,-244.5 1085.08,-244.5 "/>
<text text-anchor="middle" x="1025.58" y="-229.3" font-family="Times,serif" font-size="14.00">anat2std_xfm</text>
<polyline fill="none" stroke="black" points="966.08,-221.5 1085.08,-221.5 "/>
<text text-anchor="middle" x="1025.58" y="-206.3" font-family="Times,serif" font-size="14.00">std2anat_xfm</text>
<polyline fill="none" stroke="black" points="966.08,-198.5 1085.08,-198.5 "/>
<text text-anchor="middle" x="1025.58" y="-183.3" font-family="Times,serif" font-size="14.00">template</text>
<polyline fill="none" stroke="black" points="966.08,-175.5 1085.08,-175.5 "/>
<text text-anchor="middle" x="1025.58" y="-160.3" font-family="Times,serif" font-size="14.00">template_spec</text>
</g>
<!-- register_template_wfsplit_desc&#45;&gt;register_template_wfpoutputnode -->
<g id="edge11" class="edge">
<title>register_template_wfsplit_desc:e&#45;&gt;register_template_wfpoutputnode:w</title>
<path fill="none" stroke="black" d="M262.58,-514C278.54,-514 259.18,-490.17 270.58,-479 327,-423.74 386.13,-496.1 444.58,-443 492.45,-399.52 445.07,-352.73 487.58,-304 566.2,-213.88 612.81,-188.43 728.31,-187.06"/>
<polygon fill="black" stroke="black" points="728.6,-190.56 738.58,-187 728.56,-183.56 728.6,-190.56"/>
</g>
<!-- register_template_wfsplit_desc&#45;&gt;register_template_wfpoutputnode -->
<g id="edge14" class="edge">
<title>register_template_wfsplit_desc:e&#45;&gt;register_template_wfpoutputnode:w</title>
<path fill="none" stroke="black" d="M262.58,-491C268.99,-491 265.21,-482.49 270.58,-479 349.98,-427.4 410.03,-506.16 480.58,-443 528.48,-400.12 482.19,-355.56 520.58,-304 587.27,-214.44 621.34,-166.93 728.34,-164.13"/>
<polygon fill="black" stroke="black" points="728.63,-167.63 738.58,-164 728.54,-160.63 728.63,-167.63"/>
</g>
<!-- register_template_wftrunc_mov&#45;&gt;register_template_wfregistration -->
<g id="edge17" class="edge">
<title>register_template_wftrunc_mov:e&#45;&gt;register_template_wfregistration:w</title>
<path fill="none" stroke="black" d="M530.58,-497C554.59,-497 530.01,-467 529.58,-443 529.21,-422.44 512.24,-397.73 518.94,-388.87"/>
<polygon fill="black" stroke="black" points="520.3,-392.1 528.58,-385.5 517.99,-385.5 520.3,-392.1"/>
</g>
<!-- register_template_wfregistration&#45;&gt;register_template_wfpoutputnode -->
<g id="edge9" class="edge">
<title>register_template_wfregistration:e&#45;&gt;register_template_wfpoutputnode:w</title>
<path fill="none" stroke="black" d="M978.58,-373.5C1009.47,-373.5 997.89,-327.28 977.58,-304 907.24,-223.4 810.49,-348.1 739.58,-268 732.33,-259.81 727.09,-245.83 730.02,-238.26"/>
<polygon fill="black" stroke="black" points="731.89,-241.22 738.58,-233 728.23,-235.25 731.89,-241.22"/>
</g>
<!-- register_template_wfregistration&#45;&gt;register_template_wfpoutputnode -->
<g id="edge10" class="edge">
<title>register_template_wfregistration:e&#45;&gt;register_template_wfpoutputnode:w</title>
<path fill="none" stroke="black" d="M978.58,-327.5C989.04,-327.5 984.57,-311.78 977.58,-304 906.11,-224.39 810.04,-348.5 739.58,-268 725.39,-251.78 716.21,-222.15 728.64,-212.86"/>
<polygon fill="black" stroke="black" points="729.94,-216.13 738.58,-210 728,-209.4 729.94,-216.13"/>
</g>
<!-- register_template_wfoutputnode -->
<g id="node7" class="node">
<title>register_template_wfoutputnode</title>
<polygon fill="none" stroke="black" points="1085.58,-0.5 1085.58,-115.5 1351.58,-115.5 1351.58,-0.5 1085.58,-0.5"/>
<text text-anchor="middle" x="1145.08" y="-100.3" font-family="Times,serif" font-size="14.00">IN</text>
<polyline fill="none" stroke="black" points="1085.58,-92.5 1204.58,-92.5 "/>
<text text-anchor="middle" x="1145.08" y="-77.3" font-family="Times,serif" font-size="14.00">anat2std_xfm</text>
<polyline fill="none" stroke="black" points="1085.58,-69.5 1204.58,-69.5 "/>
<text text-anchor="middle" x="1145.08" y="-54.3" font-family="Times,serif" font-size="14.00">std2anat_xfm</text>
<polyline fill="none" stroke="black" points="1085.58,-46.5 1204.58,-46.5 "/>
<text text-anchor="middle" x="1145.08" y="-31.3" font-family="Times,serif" font-size="14.00">template</text>
<polyline fill="none" stroke="black" points="1085.58,-23.5 1204.58,-23.5 "/>
<text text-anchor="middle" x="1145.08" y="-8.3" font-family="Times,serif" font-size="14.00">template_spec</text>
<polyline fill="none" stroke="black" points="1204.58,-0.5 1204.58,-115.5 "/>
<text text-anchor="middle" x="1253.58" y="-92.8" font-family="Times,serif" font-size="14.00">outputnode</text>
<polyline fill="none" stroke="black" points="1204.58,-77.5 1302.58,-77.5 "/>
<text text-anchor="middle" x="1253.58" y="-54.8" font-family="Times,serif" font-size="14.00">utility</text>
<polyline fill="none" stroke="black" points="1204.58,-39.5 1302.58,-39.5 "/>
<text text-anchor="middle" x="1253.58" y="-16.3" font-family="Times,serif" font-size="14.00"> </text>
<polyline fill="none" stroke="black" points="1302.58,-0.5 1302.58,-115.5 "/>
<text text-anchor="middle" x="1327.08" y="-54.3" font-family="Times,serif" font-size="14.00">OUT</text>
</g>
<!-- register_template_wfpoutputnode&#45;&gt;register_template_wfoutputnode -->
<g id="edge5" class="edge">
<title>register_template_wfpoutputnode:e&#45;&gt;register_template_wfoutputnode:w</title>
<path fill="none" stroke="black" d="M1086.58,-233C1122.58,-233 1086.06,-188 1085.58,-152 1085.22,-124.88 1061.44,-91.94 1074.78,-83.21"/>
<polygon fill="black" stroke="black" points="1075.6,-86.61 1084.58,-81 1074.06,-79.78 1075.6,-86.61"/>
</g>
<!-- register_template_wfpoutputnode&#45;&gt;register_template_wfoutputnode -->
<g id="edge6" class="edge">
<title>register_template_wfpoutputnode:e&#45;&gt;register_template_wfoutputnode:w</title>
<path fill="none" stroke="black" d="M1086.58,-210C1150.05,-210 1032.87,-75.85 1074.47,-59.6"/>
<polygon fill="black" stroke="black" points="1075.25,-63.02 1084.58,-58 1074.16,-56.11 1075.25,-63.02"/>
</g>
<!-- register_template_wfpoutputnode&#45;&gt;register_template_wfoutputnode -->
<g id="edge7" class="edge">
<title>register_template_wfpoutputnode:e&#45;&gt;register_template_wfoutputnode:w</title>
<path fill="none" stroke="black" d="M1086.58,-187C1118.14,-187 1086,-147.56 1085.58,-116 1085.16,-84.22 1056.64,-45.42 1074.74,-36.77"/>
<polygon fill="black" stroke="black" points="1075.36,-40.21 1084.58,-35 1074.12,-33.32 1075.36,-40.21"/>
</g>
<!-- register_template_wfpoutputnode&#45;&gt;register_template_wfoutputnode -->
<g id="edge8" class="edge">
<title>register_template_wfpoutputnode:e&#45;&gt;register_template_wfoutputnode:w</title>
<path fill="none" stroke="black" d="M1086.58,-164C1107.92,-164 1085.91,-137.34 1085.58,-116 1084.94,-73.75 1046.01,-21.85 1074.63,-13.24"/>
<polygon fill="black" stroke="black" points="1075.09,-16.71 1084.58,-12 1074.23,-9.76 1075.09,-16.71"/>
</g>
</g>
</svg>
