<?xml version="1.0" encoding="UTF-8" standalone="no"?>
<!DOCTYPE svg PUBLIC "-//W3C//DTD SVG 1.1//EN"
 "http://www.w3.org/Graphics/SVG/1.1/DTD/svg11.dtd">
<!-- Generated by graphviz version 2.43.0 (0)
 -->
<!-- Title: structs Pages: 1 -->
<svg width="2357pt" height="1132pt"
 viewBox="0.00 0.00 2356.59 1132.00" xmlns="http://www.w3.org/2000/svg" xmlns:xlink="http://www.w3.org/1999/xlink">
<g id="graph0" class="graph" transform="scale(1 1) rotate(0) translate(4 1128)">
<title>structs</title>
<polygon fill="white" stroke="transparent" points="-4,4 -4,-1128 2352.59,-1128 2352.59,4 -4,4"/>
<!-- anat_preproc_wfinputnode -->
<g id="node1" class="node">
<title>anat_preproc_wfinputnode</title>
<polygon fill="none" stroke="black" points="401.09,-962.5 401.09,-1123.5 627.09,-1123.5 627.09,-962.5 401.09,-962.5"/>
<text text-anchor="middle" x="418.09" y="-1039.3" font-family="Times,serif" font-size="14.00">IN</text>
<polyline fill="none" stroke="black" points="435.09,-962.5 435.09,-1123.5 "/>
<text text-anchor="middle" x="479.59" y="-1093.3" font-family="Times,serif" font-size="14.00">inputnode</text>
<polyline fill="none" stroke="black" points="435.09,-1070.5 524.09,-1070.5 "/>
<text text-anchor="middle" x="479.59" y="-1039.8" font-family="Times,serif" font-size="14.00">utility</text>
<polyline fill="none" stroke="black" points="435.09,-1016.5 524.09,-1016.5 "/>
<text text-anchor="middle" x="479.59" y="-985.8" font-family="Times,serif" font-size="14.00"> </text>
<polyline fill="none" stroke="black" points="524.09,-962.5 524.09,-1123.5 "/>
<text text-anchor="middle" x="575.59" y="-1108.3" font-family="Times,serif" font-size="14.00">OUT</text>
<polyline fill="none" stroke="black" points="524.09,-1100.5 627.09,-1100.5 "/>
<text text-anchor="middle" x="575.59" y="-1085.3" font-family="Times,serif" font-size="14.00">flair</text>
<polyline fill="none" stroke="black" points="524.09,-1077.5 627.09,-1077.5 "/>
<text text-anchor="middle" x="575.59" y="-1062.3" font-family="Times,serif" font-size="14.00">roi</text>
<polyline fill="none" stroke="black" points="524.09,-1054.5 627.09,-1054.5 "/>
<text text-anchor="middle" x="575.59" y="-1039.3" font-family="Times,serif" font-size="14.00">subject_id</text>
<polyline fill="none" stroke="black" points="524.09,-1031.5 627.09,-1031.5 "/>
<text text-anchor="middle" x="575.59" y="-1016.3" font-family="Times,serif" font-size="14.00">subjects_dir</text>
<polyline fill="none" stroke="black" points="524.09,-1008.5 627.09,-1008.5 "/>
<text text-anchor="middle" x="575.59" y="-993.3" font-family="Times,serif" font-size="14.00">t1w</text>
<polyline fill="none" stroke="black" points="524.09,-985.5 627.09,-985.5 "/>
<text text-anchor="middle" x="575.59" y="-970.3" font-family="Times,serif" font-size="14.00">t2w</text>
</g>
<!-- anat_preproc_wfanat_fit_wf -->
<g id="node2" class="node">
<title>anat_preproc_wfanat_fit_wf</title>
<polygon fill="none" stroke="black" points="627.59,-580.5 627.59,-925.5 1130.59,-925.5 1130.59,-580.5 627.59,-580.5"/>
<text text-anchor="middle" x="717.09" y="-897.3" font-family="Times,serif" font-size="14.00">IN</text>
<polyline fill="none" stroke="black" points="627.59,-876.5 806.59,-876.5 "/>
<text text-anchor="middle" x="717.09" y="-848.3" font-family="Times,serif" font-size="14.00">inputnode.flair</text>
<polyline fill="none" stroke="black" points="627.59,-827.5 806.59,-827.5 "/>
<text text-anchor="middle" x="717.09" y="-799.3" font-family="Times,serif" font-size="14.00">inputnode.roi</text>
<polyline fill="none" stroke="black" points="627.59,-778.5 806.59,-778.5 "/>
<text text-anchor="middle" x="717.09" y="-749.8" font-family="Times,serif" font-size="14.00">inputnode.subject_id</text>
<polyline fill="none" stroke="black" points="627.59,-728.5 806.59,-728.5 "/>
<text text-anchor="middle" x="717.09" y="-700.3" font-family="Times,serif" font-size="14.00">inputnode.subjects_dir</text>
<polyline fill="none" stroke="black" points="627.59,-679.5 806.59,-679.5 "/>
<text text-anchor="middle" x="717.09" y="-651.3" font-family="Times,serif" font-size="14.00">inputnode.t1w</text>
<polyline fill="none" stroke="black" points="627.59,-630.5 806.59,-630.5 "/>
<text text-anchor="middle" x="717.09" y="-601.8" font-family="Times,serif" font-size="14.00">inputnode.t2w</text>
<polyline fill="none" stroke="black" points="806.59,-580.5 806.59,-925.5 "/>
<text text-anchor="middle" x="853.59" y="-864.3" font-family="Times,serif" font-size="14.00">anat_fit_wf</text>
<polyline fill="none" stroke="black" points="806.59,-810.5 900.59,-810.5 "/>
<text text-anchor="middle" x="853.59" y="-749.3" font-family="Times,serif" font-size="14.00"> </text>
<polyline fill="none" stroke="black" points="806.59,-695.5 900.59,-695.5 "/>
<text text-anchor="middle" x="853.59" y="-634.3" font-family="Times,serif" font-size="14.00"> </text>
<polyline fill="none" stroke="black" points="900.59,-580.5 900.59,-925.5 "/>
<text text-anchor="middle" x="1015.59" y="-910.3" font-family="Times,serif" font-size="14.00">OUT</text>
<polyline fill="none" stroke="black" points="900.59,-902.5 1130.59,-902.5 "/>
<text text-anchor="middle" x="1015.59" y="-887.3" font-family="Times,serif" font-size="14.00">outputnode.anat2std_xfm</text>
<polyline fill="none" stroke="black" points="900.59,-879.5 1130.59,-879.5 "/>
<text text-anchor="middle" x="1015.59" y="-864.3" font-family="Times,serif" font-size="14.00">outputnode.anat_ribbon</text>
<polyline fill="none" stroke="black" points="900.59,-856.5 1130.59,-856.5 "/>
<text text-anchor="middle" x="1015.59" y="-841.3" font-family="Times,serif" font-size="14.00">outputnode.fsnative2t1w_xfm</text>
<polyline fill="none" stroke="black" points="900.59,-833.5 1130.59,-833.5 "/>
<text text-anchor="middle" x="1015.59" y="-818.3" font-family="Times,serif" font-size="14.00">outputnode.sphere_reg</text>
<polyline fill="none" stroke="black" points="900.59,-810.5 1130.59,-810.5 "/>
<text text-anchor="middle" x="1015.59" y="-795.3" font-family="Times,serif" font-size="14.00">outputnode.sphere_reg_fsLR</text>
<polyline fill="none" stroke="black" points="900.59,-787.5 1130.59,-787.5 "/>
<text text-anchor="middle" x="1015.59" y="-772.3" font-family="Times,serif" font-size="14.00">outputnode.std2anat_xfm</text>
<polyline fill="none" stroke="black" points="900.59,-764.5 1130.59,-764.5 "/>
<text text-anchor="middle" x="1015.59" y="-749.3" font-family="Times,serif" font-size="14.00">outputnode.subject_id</text>
<polyline fill="none" stroke="black" points="900.59,-741.5 1130.59,-741.5 "/>
<text text-anchor="middle" x="1015.59" y="-726.3" font-family="Times,serif" font-size="14.00">outputnode.subjects_dir</text>
<polyline fill="none" stroke="black" points="900.59,-718.5 1130.59,-718.5 "/>
<text text-anchor="middle" x="1015.59" y="-703.3" font-family="Times,serif" font-size="14.00">outputnode.t1w_dseg</text>
<polyline fill="none" stroke="black" points="900.59,-695.5 1130.59,-695.5 "/>
<text text-anchor="middle" x="1015.59" y="-680.3" font-family="Times,serif" font-size="14.00">outputnode.t1w_mask</text>
<polyline fill="none" stroke="black" points="900.59,-672.5 1130.59,-672.5 "/>
<text text-anchor="middle" x="1015.59" y="-657.3" font-family="Times,serif" font-size="14.00">outputnode.t1w_preproc</text>
<polyline fill="none" stroke="black" points="900.59,-649.5 1130.59,-649.5 "/>
<text text-anchor="middle" x="1015.59" y="-634.3" font-family="Times,serif" font-size="14.00">outputnode.t1w_tpms</text>
<polyline fill="none" stroke="black" points="900.59,-626.5 1130.59,-626.5 "/>
<text text-anchor="middle" x="1015.59" y="-611.3" font-family="Times,serif" font-size="14.00">outputnode.t1w_valid_list</text>
<polyline fill="none" stroke="black" points="900.59,-603.5 1130.59,-603.5 "/>
<text text-anchor="middle" x="1015.59" y="-588.3" font-family="Times,serif" font-size="14.00">outputnode.template</text>
</g>
<!-- anat_preproc_wfinputnode&#45;&gt;anat_preproc_wfanat_fit_wf -->
<g id="edge28" class="edge">
<title>anat_preproc_wfinputnode:e&#45;&gt;anat_preproc_wfanat_fit_wf:w</title>
<path fill="none" stroke="black" d="M628.09,-1089C684.53,-1089 627.56,-1018.44 627.09,-962 626.7,-917.12 584.98,-861.94 615.96,-853.19"/>
<polygon fill="black" stroke="black" points="616.56,-856.65 626.09,-852 615.74,-849.69 616.56,-856.65"/>
</g>
<!-- anat_preproc_wfinputnode&#45;&gt;anat_preproc_wfanat_fit_wf -->
<g id="edge29" class="edge">
<title>anat_preproc_wfinputnode:e&#45;&gt;anat_preproc_wfanat_fit_wf:w</title>
<path fill="none" stroke="black" d="M628.09,-1066C741.21,-1066 524.02,-819.68 615.86,-803.8"/>
<polygon fill="black" stroke="black" points="616.39,-807.27 626.09,-803 615.84,-800.29 616.39,-807.27"/>
</g>
<!-- anat_preproc_wfinputnode&#45;&gt;anat_preproc_wfanat_fit_wf -->
<g id="edge30" class="edge">
<title>anat_preproc_wfinputnode:e&#45;&gt;anat_preproc_wfanat_fit_wf:w</title>
<path fill="none" stroke="black" d="M628.09,-1043C680.09,-1043 627.46,-978 627.09,-926 626.56,-853.29 556.97,-763.29 615.96,-754.67"/>
<polygon fill="black" stroke="black" points="616.34,-758.15 626.09,-754 615.88,-751.17 616.34,-758.15"/>
</g>
<!-- anat_preproc_wfinputnode&#45;&gt;anat_preproc_wfanat_fit_wf -->
<g id="edge31" class="edge">
<title>anat_preproc_wfinputnode:e&#45;&gt;anat_preproc_wfanat_fit_wf:w</title>
<path fill="none" stroke="black" d="M628.09,-1020C669.87,-1020 627.4,-967.78 627.09,-926 626.37,-831 534.62,-713.12 615.9,-704.5"/>
<polygon fill="black" stroke="black" points="616.27,-707.99 626.09,-704 615.93,-701 616.27,-707.99"/>
</g>
<!-- anat_preproc_wfinputnode&#45;&gt;anat_preproc_wfanat_fit_wf -->
<g id="edge32" class="edge">
<title>anat_preproc_wfinputnode:e&#45;&gt;anat_preproc_wfanat_fit_wf:w</title>
<path fill="none" stroke="black" d="M628.09,-997C659.64,-997 627.37,-957.56 627.09,-926 626.05,-809.21 512.82,-664.09 615.8,-655.41"/>
<polygon fill="black" stroke="black" points="616.23,-658.89 626.09,-655 615.95,-651.9 616.23,-658.89"/>
</g>
<!-- anat_preproc_wfinputnode&#45;&gt;anat_preproc_wfanat_fit_wf -->
<g id="edge33" class="edge">
<title>anat_preproc_wfinputnode:e&#45;&gt;anat_preproc_wfanat_fit_wf:w</title>
<path fill="none" stroke="black" d="M628.09,-974C649.42,-974 627.34,-947.34 627.09,-926 625.42,-786.97 490.54,-614.03 615.76,-605.34"/>
<polygon fill="black" stroke="black" points="616.21,-608.83 626.09,-605 615.98,-601.83 616.21,-608.83"/>
</g>
<!-- anat_preproc_wftemplate_iterator_wf -->
<g id="node3" class="node">
<title>anat_preproc_wftemplate_iterator_wf</title>
<polygon fill="none" stroke="black" points="1387.09,-405.5 1387.09,-543.5 1943.09,-543.5 1943.09,-405.5 1387.09,-405.5"/>
<text text-anchor="middle" x="1482.09" y="-516.8" font-family="Times,serif" font-size="14.00">IN</text>
<polyline fill="none" stroke="black" points="1387.09,-497.5 1577.09,-497.5 "/>
<text text-anchor="middle" x="1482.09" y="-470.8" font-family="Times,serif" font-size="14.00">inputnode.anat2std_xfm</text>
<polyline fill="none" stroke="black" points="1387.09,-451.5 1577.09,-451.5 "/>
<text text-anchor="middle" x="1482.09" y="-424.8" font-family="Times,serif" font-size="14.00">inputnode.template</text>
<polyline fill="none" stroke="black" points="1577.09,-405.5 1577.09,-543.5 "/>
<text text-anchor="middle" x="1660.09" y="-516.8" font-family="Times,serif" font-size="14.00">template_iterator_wf</text>
<polyline fill="none" stroke="black" points="1577.09,-497.5 1743.09,-497.5 "/>
<text text-anchor="middle" x="1660.09" y="-470.8" font-family="Times,serif" font-size="14.00"> </text>
<polyline fill="none" stroke="black" points="1577.09,-451.5 1743.09,-451.5 "/>
<text text-anchor="middle" x="1660.09" y="-424.8" font-family="Times,serif" font-size="14.00"> </text>
<polyline fill="none" stroke="black" points="1743.09,-405.5 1743.09,-543.5 "/>
<text text-anchor="middle" x="1843.09" y="-528.3" font-family="Times,serif" font-size="14.00">OUT</text>
<polyline fill="none" stroke="black" points="1743.09,-520.5 1943.09,-520.5 "/>
<text text-anchor="middle" x="1843.09" y="-505.3" font-family="Times,serif" font-size="14.00">outputnode.anat2std_xfm</text>
<polyline fill="none" stroke="black" points="1743.09,-497.5 1943.09,-497.5 "/>
<text text-anchor="middle" x="1843.09" y="-482.3" font-family="Times,serif" font-size="14.00">outputnode.cohort</text>
<polyline fill="none" stroke="black" points="1743.09,-474.5 1943.09,-474.5 "/>
<text text-anchor="middle" x="1843.09" y="-459.3" font-family="Times,serif" font-size="14.00">outputnode.resolution</text>
<polyline fill="none" stroke="black" points="1743.09,-451.5 1943.09,-451.5 "/>
<text text-anchor="middle" x="1843.09" y="-436.3" font-family="Times,serif" font-size="14.00">outputnode.space</text>
<polyline fill="none" stroke="black" points="1743.09,-428.5 1943.09,-428.5 "/>
<text text-anchor="middle" x="1843.09" y="-413.3" font-family="Times,serif" font-size="14.00">outputnode.std_t1w</text>
</g>
<!-- anat_preproc_wfanat_fit_wf&#45;&gt;anat_preproc_wftemplate_iterator_wf -->
<g id="edge2" class="edge">
<title>anat_preproc_wfanat_fit_wf:e&#45;&gt;anat_preproc_wftemplate_iterator_wf:w</title>
<path fill="none" stroke="black" d="M1132.09,-891C1319.85,-891 1300.66,-717.24 1373.09,-544 1377.77,-532.79 1373.59,-497.34 1378.72,-481.86"/>
<polygon fill="black" stroke="black" points="1381.48,-484.04 1386.09,-474.5 1376.54,-479.09 1381.48,-484.04"/>
</g>
<!-- anat_preproc_wfanat_fit_wf&#45;&gt;anat_preproc_wftemplate_iterator_wf -->
<g id="edge27" class="edge">
<title>anat_preproc_wfanat_fit_wf:e&#45;&gt;anat_preproc_wftemplate_iterator_wf:w</title>
<path fill="none" stroke="black" d="M1132.09,-592C1186.69,-592 1336.14,-584.21 1373.09,-544 1387.9,-527.88 1368.38,-456.1 1377.82,-434.6"/>
<polygon fill="black" stroke="black" points="1380.12,-437.26 1386.09,-428.5 1375.96,-431.63 1380.12,-437.26"/>
</g>
<!-- anat_preproc_wfsurface_derivatives_wf -->
<g id="node4" class="node">
<title>anat_preproc_wfsurface_derivatives_wf</title>
<polygon fill="none" stroke="black" points="265.09,-417 265.09,-532 837.09,-532 837.09,-417 265.09,-417"/>
<text text-anchor="middle" x="375.09" y="-516.8" font-family="Times,serif" font-size="14.00">IN</text>
<polyline fill="none" stroke="black" points="265.09,-509 485.09,-509 "/>
<text text-anchor="middle" x="375.09" y="-493.8" font-family="Times,serif" font-size="14.00">inputnode.fsnative2t1w_xfm</text>
<polyline fill="none" stroke="black" points="265.09,-486 485.09,-486 "/>
<text text-anchor="middle" x="375.09" y="-470.8" font-family="Times,serif" font-size="14.00">inputnode.reference</text>
<polyline fill="none" stroke="black" points="265.09,-463 485.09,-463 "/>
<text text-anchor="middle" x="375.09" y="-447.8" font-family="Times,serif" font-size="14.00">inputnode.subject_id</text>
<polyline fill="none" stroke="black" points="265.09,-440 485.09,-440 "/>
<text text-anchor="middle" x="375.09" y="-424.8" font-family="Times,serif" font-size="14.00">inputnode.subjects_dir</text>
<polyline fill="none" stroke="black" points="485.09,-417 485.09,-532 "/>
<text text-anchor="middle" x="574.59" y="-509.3" font-family="Times,serif" font-size="14.00">surface_derivatives_wf</text>
<polyline fill="none" stroke="black" points="485.09,-494 664.09,-494 "/>
<text text-anchor="middle" x="574.59" y="-471.3" font-family="Times,serif" font-size="14.00"> </text>
<polyline fill="none" stroke="black" points="485.09,-456 664.09,-456 "/>
<text text-anchor="middle" x="574.59" y="-432.8" font-family="Times,serif" font-size="14.00"> </text>
<polyline fill="none" stroke="black" points="664.09,-417 664.09,-532 "/>
<text text-anchor="middle" x="750.59" y="-516.8" font-family="Times,serif" font-size="14.00">OUT</text>
<polyline fill="none" stroke="black" points="664.09,-509 837.09,-509 "/>
<text text-anchor="middle" x="750.59" y="-493.8" font-family="Times,serif" font-size="14.00">outputnode.curv</text>
<polyline fill="none" stroke="black" points="664.09,-486 837.09,-486 "/>
<text text-anchor="middle" x="750.59" y="-470.8" font-family="Times,serif" font-size="14.00">outputnode.inflated</text>
<polyline fill="none" stroke="black" points="664.09,-463 837.09,-463 "/>
<text text-anchor="middle" x="750.59" y="-447.8" font-family="Times,serif" font-size="14.00">outputnode.out_aparc</text>
<polyline fill="none" stroke="black" points="664.09,-440 837.09,-440 "/>
<text text-anchor="middle" x="750.59" y="-424.8" font-family="Times,serif" font-size="14.00">outputnode.out_aseg</text>
</g>
<!-- anat_preproc_wfanat_fit_wf&#45;&gt;anat_preproc_wfsurface_derivatives_wf -->
<g id="edge5" class="edge">
<title>anat_preproc_wfanat_fit_wf:e&#45;&gt;anat_preproc_wfsurface_derivatives_wf:w</title>
<path fill="none" stroke="black" d="M1132.09,-845C1249.86,-845 1212.22,-665.38 1131.09,-580 1064.7,-510.14 332.33,-601.53 265.09,-532.5 257.45,-524.66 252.36,-510.54 255.43,-502.85"/>
<polygon fill="black" stroke="black" points="257.42,-505.73 264.09,-497.5 253.74,-499.78 257.42,-505.73"/>
</g>
<!-- anat_preproc_wfanat_fit_wf&#45;&gt;anat_preproc_wfsurface_derivatives_wf -->
<g id="edge10" class="edge">
<title>anat_preproc_wfanat_fit_wf:e&#45;&gt;anat_preproc_wfsurface_derivatives_wf:w</title>
<path fill="none" stroke="black" d="M1132.09,-753C1208.98,-753 1184.11,-635.69 1131.09,-580 1064.63,-510.21 331.77,-602.07 265.09,-532.5 255.01,-521.99 248.81,-475.52 256.32,-458.11"/>
<polygon fill="black" stroke="black" points="258.74,-460.65 264.09,-451.5 254.2,-455.32 258.74,-460.65"/>
</g>
<!-- anat_preproc_wfanat_fit_wf&#45;&gt;anat_preproc_wfsurface_derivatives_wf -->
<g id="edge12" class="edge">
<title>anat_preproc_wfanat_fit_wf:e&#45;&gt;anat_preproc_wfsurface_derivatives_wf:w</title>
<path fill="none" stroke="black" d="M1132.09,-730C1198.75,-730 1177.08,-628.26 1131.09,-580 1064.6,-510.24 331.67,-602.16 265.09,-532.5 258.6,-525.71 254.36,-461.3 259.2,-437.38"/>
<polygon fill="black" stroke="black" points="262.33,-438.95 264.09,-428.5 256.2,-435.58 262.33,-438.95"/>
</g>
<!-- anat_preproc_wfanat_fit_wf&#45;&gt;anat_preproc_wfsurface_derivatives_wf -->
<g id="edge19" class="edge">
<title>anat_preproc_wfanat_fit_wf:e&#45;&gt;anat_preproc_wfsurface_derivatives_wf:w</title>
<path fill="none" stroke="black" d="M1132.09,-661C1168.09,-661 1156,-605.99 1131.09,-580 1064.41,-510.43 331.94,-601.91 265.09,-532.5 258.38,-525.54 253.92,-496.39 257.55,-482.26"/>
<polygon fill="black" stroke="black" points="260.32,-484.4 264.09,-474.5 254.96,-479.89 260.32,-484.4"/>
</g>
<!-- anat_preproc_wfds_std_volumes_wf -->
<g id="node5" class="node">
<title>anat_preproc_wfds_std_volumes_wf</title>
<polygon fill="none" stroke="black" points="1957.59,-58 1957.59,-311 2348.59,-311 2348.59,-58 1957.59,-58"/>
<text text-anchor="middle" x="2052.59" y="-295.8" font-family="Times,serif" font-size="14.00">IN</text>
<polyline fill="none" stroke="black" points="1957.59,-288 2147.59,-288 "/>
<text text-anchor="middle" x="2052.59" y="-272.8" font-family="Times,serif" font-size="14.00">inputnode.anat2std_xfm</text>
<polyline fill="none" stroke="black" points="1957.59,-265 2147.59,-265 "/>
<text text-anchor="middle" x="2052.59" y="-249.8" font-family="Times,serif" font-size="14.00">inputnode.cohort</text>
<polyline fill="none" stroke="black" points="1957.59,-242 2147.59,-242 "/>
<text text-anchor="middle" x="2052.59" y="-226.8" font-family="Times,serif" font-size="14.00">inputnode.ref_file</text>
<polyline fill="none" stroke="black" points="1957.59,-219 2147.59,-219 "/>
<text text-anchor="middle" x="2052.59" y="-203.8" font-family="Times,serif" font-size="14.00">inputnode.resolution</text>
<polyline fill="none" stroke="black" points="1957.59,-196 2147.59,-196 "/>
<text text-anchor="middle" x="2052.59" y="-180.8" font-family="Times,serif" font-size="14.00">inputnode.source_files</text>
<polyline fill="none" stroke="black" points="1957.59,-173 2147.59,-173 "/>
<text text-anchor="middle" x="2052.59" y="-157.8" font-family="Times,serif" font-size="14.00">inputnode.space</text>
<polyline fill="none" stroke="black" points="1957.59,-150 2147.59,-150 "/>
<text text-anchor="middle" x="2052.59" y="-134.8" font-family="Times,serif" font-size="14.00">inputnode.t1w_dseg</text>
<polyline fill="none" stroke="black" points="1957.59,-127 2147.59,-127 "/>
<text text-anchor="middle" x="2052.59" y="-111.8" font-family="Times,serif" font-size="14.00">inputnode.t1w_mask</text>
<polyline fill="none" stroke="black" points="1957.59,-104 2147.59,-104 "/>
<text text-anchor="middle" x="2052.59" y="-88.8" font-family="Times,serif" font-size="14.00">inputnode.t1w_preproc</text>
<polyline fill="none" stroke="black" points="1957.59,-81 2147.59,-81 "/>
<text text-anchor="middle" x="2052.59" y="-65.8" font-family="Times,serif" font-size="14.00">inputnode.t1w_tpms</text>
<polyline fill="none" stroke="black" points="2147.59,-58 2147.59,-311 "/>
<text text-anchor="middle" x="2223.59" y="-265.3" font-family="Times,serif" font-size="14.00">ds_std_volumes_wf</text>
<polyline fill="none" stroke="black" points="2147.59,-227 2299.59,-227 "/>
<text text-anchor="middle" x="2223.59" y="-181.3" font-family="Times,serif" font-size="14.00"> </text>
<polyline fill="none" stroke="black" points="2147.59,-143 2299.59,-143 "/>
<text text-anchor="middle" x="2223.59" y="-96.8" font-family="Times,serif" font-size="14.00"> </text>
<polyline fill="none" stroke="black" points="2299.59,-58 2299.59,-311 "/>
<text text-anchor="middle" x="2324.09" y="-180.8" font-family="Times,serif" font-size="14.00">OUT</text>
</g>
<!-- anat_preproc_wfanat_fit_wf&#45;&gt;anat_preproc_wfds_std_volumes_wf -->
<g id="edge13" class="edge">
<title>anat_preproc_wfanat_fit_wf:e&#45;&gt;anat_preproc_wfds_std_volumes_wf:w</title>
<path fill="none" stroke="black" d="M1132.09,-707C1325.07,-707 1862.1,-692.72 1985.09,-544 2051.42,-463.79 1972.47,-414.44 1957.09,-311.5 1946.27,-239.17 1885.56,-147.92 1945.82,-139.18"/>
<polygon fill="black" stroke="black" points="1946.34,-142.65 1956.09,-138.5 1945.88,-135.67 1946.34,-142.65"/>
</g>
<!-- anat_preproc_wfanat_fit_wf&#45;&gt;anat_preproc_wfds_std_volumes_wf -->
<g id="edge15" class="edge">
<title>anat_preproc_wfanat_fit_wf:e&#45;&gt;anat_preproc_wfds_std_volumes_wf:w</title>
<path fill="none" stroke="black" d="M1132.09,-684C1231.09,-684 1947.81,-619.31 2012.09,-544 2052.19,-497.01 2028.32,-464.61 2012.09,-405 1999.42,-358.48 1969.87,-357.99 1957.09,-311.5 1934.98,-231.12 1874.48,-125.07 1945.68,-116.11"/>
<polygon fill="black" stroke="black" points="1946.31,-119.58 1956.09,-115.5 1945.9,-112.59 1946.31,-119.58"/>
</g>
<!-- anat_preproc_wfanat_fit_wf&#45;&gt;anat_preproc_wfds_std_volumes_wf -->
<g id="edge17" class="edge">
<title>anat_preproc_wfanat_fit_wf:e&#45;&gt;anat_preproc_wfds_std_volumes_wf:w</title>
<path fill="none" stroke="black" d="M1132.09,-661C1233.48,-661 1970.14,-620.15 2037.09,-544 2077.87,-497.6 2058.49,-462.95 2037.09,-405 2018.13,-353.7 1976.15,-362.76 1957.09,-311.5 1924.41,-223.66 1863.49,-101.93 1945.91,-93.02"/>
<polygon fill="black" stroke="black" points="1946.28,-96.51 1956.09,-92.5 1945.92,-89.51 1946.28,-96.51"/>
</g>
<!-- anat_preproc_wfanat_fit_wf&#45;&gt;anat_preproc_wfds_std_volumes_wf -->
<g id="edge20" class="edge">
<title>anat_preproc_wfanat_fit_wf:e&#45;&gt;anat_preproc_wfds_std_volumes_wf:w</title>
<path fill="none" stroke="black" d="M1132.09,-638C1235.95,-638 1992.44,-621.04 2062.09,-544 2103.51,-498.17 2087.37,-461.37 2062.09,-405 2036.51,-347.99 1982.78,-368.46 1957.09,-311.5 1914.33,-216.71 1852.78,-79.01 1945.93,-69.97"/>
<polygon fill="black" stroke="black" points="1946.26,-73.46 1956.09,-69.5 1945.93,-66.47 1946.26,-73.46"/>
</g>
<!-- anat_preproc_wfanat_fit_wf&#45;&gt;anat_preproc_wfds_std_volumes_wf -->
<g id="edge24" class="edge">
<title>anat_preproc_wfanat_fit_wf:e&#45;&gt;anat_preproc_wfds_std_volumes_wf:w</title>
<path fill="none" stroke="black" d="M1132.09,-615C1223.54,-615 1889.9,-611.05 1952.09,-544 2058.3,-429.47 1807.99,-195.32 1945.95,-184.86"/>
<polygon fill="black" stroke="black" points="1946.22,-188.36 1956.09,-184.5 1945.97,-181.36 1946.22,-188.36"/>
</g>
<!-- anat_preproc_wfds_surfaces_wf -->
<g id="node6" class="node">
<title>anat_preproc_wfds_surfaces_wf</title>
<polygon fill="none" stroke="black" points="352.59,-150 352.59,-219 701.59,-219 701.59,-150 352.59,-150"/>
<text text-anchor="middle" x="440.59" y="-203.8" font-family="Times,serif" font-size="14.00">IN</text>
<polyline fill="none" stroke="black" points="352.59,-196 528.59,-196 "/>
<text text-anchor="middle" x="440.59" y="-180.8" font-family="Times,serif" font-size="14.00">inputnode.inflated</text>
<polyline fill="none" stroke="black" points="352.59,-173 528.59,-173 "/>
<text text-anchor="middle" x="440.59" y="-157.8" font-family="Times,serif" font-size="14.00">inputnode.source_files</text>
<polyline fill="none" stroke="black" points="528.59,-150 528.59,-219 "/>
<text text-anchor="middle" x="590.59" y="-203.8" font-family="Times,serif" font-size="14.00">ds_surfaces_wf</text>
<polyline fill="none" stroke="black" points="528.59,-196 652.59,-196 "/>
<text text-anchor="middle" x="590.59" y="-180.8" font-family="Times,serif" font-size="14.00"> </text>
<polyline fill="none" stroke="black" points="528.59,-173 652.59,-173 "/>
<text text-anchor="middle" x="590.59" y="-157.8" font-family="Times,serif" font-size="14.00"> </text>
<polyline fill="none" stroke="black" points="652.59,-150 652.59,-219 "/>
<text text-anchor="middle" x="677.09" y="-180.8" font-family="Times,serif" font-size="14.00">OUT</text>
</g>
<!-- anat_preproc_wfanat_fit_wf&#45;&gt;anat_preproc_wfds_surfaces_wf -->
<g id="edge25" class="edge">
<title>anat_preproc_wfanat_fit_wf:e&#45;&gt;anat_preproc_wfds_surfaces_wf:w</title>
<path fill="none" stroke="black" d="M1132.09,-615C1147.65,-615 1142.02,-591.07 1131.09,-580 1062.71,-510.76 323.46,-614.2 256.09,-544 213.31,-499.43 221.75,-456.36 256.09,-405 279.34,-370.21 319.16,-403.34 343.09,-369 348.8,-360.79 341.94,-210.78 347.55,-171.07"/>
<polygon fill="black" stroke="black" points="350.9,-172.09 351.09,-161.5 344.33,-169.67 350.9,-172.09"/>
</g>
<!-- anat_preproc_wfds_curv_wf -->
<g id="node7" class="node">
<title>anat_preproc_wfds_curv_wf</title>
<polygon fill="none" stroke="black" points="14.09,-150 14.09,-219 334.09,-219 334.09,-150 14.09,-150"/>
<text text-anchor="middle" x="102.09" y="-203.8" font-family="Times,serif" font-size="14.00">IN</text>
<polyline fill="none" stroke="black" points="14.09,-196 190.09,-196 "/>
<text text-anchor="middle" x="102.09" y="-180.8" font-family="Times,serif" font-size="14.00">inputnode.curv</text>
<polyline fill="none" stroke="black" points="14.09,-173 190.09,-173 "/>
<text text-anchor="middle" x="102.09" y="-157.8" font-family="Times,serif" font-size="14.00">inputnode.source_files</text>
<polyline fill="none" stroke="black" points="190.09,-150 190.09,-219 "/>
<text text-anchor="middle" x="237.59" y="-203.8" font-family="Times,serif" font-size="14.00">ds_curv_wf</text>
<polyline fill="none" stroke="black" points="190.09,-196 285.09,-196 "/>
<text text-anchor="middle" x="237.59" y="-180.8" font-family="Times,serif" font-size="14.00"> </text>
<polyline fill="none" stroke="black" points="190.09,-173 285.09,-173 "/>
<text text-anchor="middle" x="237.59" y="-157.8" font-family="Times,serif" font-size="14.00"> </text>
<polyline fill="none" stroke="black" points="285.09,-150 285.09,-219 "/>
<text text-anchor="middle" x="309.59" y="-180.8" font-family="Times,serif" font-size="14.00">OUT</text>
</g>
<!-- anat_preproc_wfanat_fit_wf&#45;&gt;anat_preproc_wfds_curv_wf -->
<g id="edge23" class="edge">
<title>anat_preproc_wfanat_fit_wf:e&#45;&gt;anat_preproc_wfds_curv_wf:w</title>
<path fill="none" stroke="black" d="M1132.09,-615C1147.65,-615 1142.03,-591.06 1131.09,-580 1060.17,-508.29 311.71,-593.94 224.09,-544 74.84,-458.93 64.16,-383.83 14.09,-219.5 7.92,-199.27 -6.15,-173.2 3.22,-164.49"/>
<polygon fill="black" stroke="black" points="4.53,-167.75 13.09,-161.5 2.5,-161.05 4.53,-167.75"/>
</g>
<!-- anat_preproc_wfanat_second_derivatives_wf -->
<g id="node8" class="node">
<title>anat_preproc_wfanat_second_derivatives_wf</title>
<polygon fill="none" stroke="black" points="720.09,-138.5 720.09,-230.5 1170.09,-230.5 1170.09,-138.5 720.09,-138.5"/>
<text text-anchor="middle" x="813.09" y="-215.3" font-family="Times,serif" font-size="14.00">IN</text>
<polyline fill="none" stroke="black" points="720.09,-207.5 906.09,-207.5 "/>
<text text-anchor="middle" x="813.09" y="-192.3" font-family="Times,serif" font-size="14.00">inputnode.source_files</text>
<polyline fill="none" stroke="black" points="720.09,-184.5 906.09,-184.5 "/>
<text text-anchor="middle" x="813.09" y="-169.3" font-family="Times,serif" font-size="14.00">inputnode.t1w_fs_aparc</text>
<polyline fill="none" stroke="black" points="720.09,-161.5 906.09,-161.5 "/>
<text text-anchor="middle" x="813.09" y="-146.3" font-family="Times,serif" font-size="14.00">inputnode.t1w_fs_aseg</text>
<polyline fill="none" stroke="black" points="906.09,-138.5 906.09,-230.5 "/>
<text text-anchor="middle" x="1013.59" y="-211.8" font-family="Times,serif" font-size="14.00">anat_second_derivatives_wf</text>
<polyline fill="none" stroke="black" points="906.09,-200.5 1121.09,-200.5 "/>
<text text-anchor="middle" x="1013.59" y="-181.3" font-family="Times,serif" font-size="14.00"> </text>
<polyline fill="none" stroke="black" points="906.09,-169.5 1121.09,-169.5 "/>
<text text-anchor="middle" x="1013.59" y="-150.3" font-family="Times,serif" font-size="14.00"> </text>
<polyline fill="none" stroke="black" points="1121.09,-138.5 1121.09,-230.5 "/>
<text text-anchor="middle" x="1145.59" y="-180.8" font-family="Times,serif" font-size="14.00">OUT</text>
</g>
<!-- anat_preproc_wfanat_fit_wf&#45;&gt;anat_preproc_wfanat_second_derivatives_wf -->
<g id="edge22" class="edge">
<title>anat_preproc_wfanat_fit_wf:e&#45;&gt;anat_preproc_wfanat_second_derivatives_wf:w</title>
<path fill="none" stroke="black" d="M1132.09,-615C1147.65,-615 1141.41,-591.64 1131.09,-580 1058.91,-498.67 971.6,-614.82 889.09,-544 840.01,-501.89 874.99,-462.85 846.09,-405 803.41,-319.59 750.83,-321.39 720.09,-231 716.92,-221.7 711.1,-210.15 711.37,-203.06"/>
<polygon fill="black" stroke="black" points="713.73,-205.64 719.09,-196.5 709.2,-200.31 713.73,-205.64"/>
</g>
<!-- anat_preproc_wfoutputnode -->
<g id="node9" class="node">
<title>anat_preproc_wfoutputnode</title>
<polygon fill="none" stroke="black" points="1188.09,-0.5 1188.09,-368.5 1478.09,-368.5 1478.09,-0.5 1188.09,-0.5"/>
<text text-anchor="middle" x="1259.59" y="-353.3" font-family="Times,serif" font-size="14.00">IN</text>
<polyline fill="none" stroke="black" points="1188.09,-345.5 1331.09,-345.5 "/>
<text text-anchor="middle" x="1259.59" y="-330.3" font-family="Times,serif" font-size="14.00">anat2std_xfm</text>
<polyline fill="none" stroke="black" points="1188.09,-322.5 1331.09,-322.5 "/>
<text text-anchor="middle" x="1259.59" y="-307.3" font-family="Times,serif" font-size="14.00">anat_ribbon</text>
<polyline fill="none" stroke="black" points="1188.09,-299.5 1331.09,-299.5 "/>
<text text-anchor="middle" x="1259.59" y="-284.3" font-family="Times,serif" font-size="14.00">fsnative2t1w_xfm</text>
<polyline fill="none" stroke="black" points="1188.09,-276.5 1331.09,-276.5 "/>
<text text-anchor="middle" x="1259.59" y="-261.3" font-family="Times,serif" font-size="14.00">sphere_reg</text>
<polyline fill="none" stroke="black" points="1188.09,-253.5 1331.09,-253.5 "/>
<text text-anchor="middle" x="1259.59" y="-238.3" font-family="Times,serif" font-size="14.00">sphere_reg_fsLR</text>
<polyline fill="none" stroke="black" points="1188.09,-230.5 1331.09,-230.5 "/>
<text text-anchor="middle" x="1259.59" y="-215.3" font-family="Times,serif" font-size="14.00">std2anat_xfm</text>
<polyline fill="none" stroke="black" points="1188.09,-207.5 1331.09,-207.5 "/>
<text text-anchor="middle" x="1259.59" y="-192.3" font-family="Times,serif" font-size="14.00">subject_id</text>
<polyline fill="none" stroke="black" points="1188.09,-184.5 1331.09,-184.5 "/>
<text text-anchor="middle" x="1259.59" y="-169.3" font-family="Times,serif" font-size="14.00">subjects_dir</text>
<polyline fill="none" stroke="black" points="1188.09,-161.5 1331.09,-161.5 "/>
<text text-anchor="middle" x="1259.59" y="-146.3" font-family="Times,serif" font-size="14.00">t1w_aparc</text>
<polyline fill="none" stroke="black" points="1188.09,-138.5 1331.09,-138.5 "/>
<text text-anchor="middle" x="1259.59" y="-123.3" font-family="Times,serif" font-size="14.00">t1w_aseg</text>
<polyline fill="none" stroke="black" points="1188.09,-115.5 1331.09,-115.5 "/>
<text text-anchor="middle" x="1259.59" y="-100.3" font-family="Times,serif" font-size="14.00">t1w_dseg</text>
<polyline fill="none" stroke="black" points="1188.09,-92.5 1331.09,-92.5 "/>
<text text-anchor="middle" x="1259.59" y="-77.3" font-family="Times,serif" font-size="14.00">t1w_mask</text>
<polyline fill="none" stroke="black" points="1188.09,-69.5 1331.09,-69.5 "/>
<text text-anchor="middle" x="1259.59" y="-54.3" font-family="Times,serif" font-size="14.00">t1w_preproc</text>
<polyline fill="none" stroke="black" points="1188.09,-46.5 1331.09,-46.5 "/>
<text text-anchor="middle" x="1259.59" y="-31.3" font-family="Times,serif" font-size="14.00">t1w_tpms</text>
<polyline fill="none" stroke="black" points="1188.09,-23.5 1331.09,-23.5 "/>
<text text-anchor="middle" x="1259.59" y="-8.3" font-family="Times,serif" font-size="14.00">template</text>
<polyline fill="none" stroke="black" points="1331.09,-0.5 1331.09,-368.5 "/>
<text text-anchor="middle" x="1380.09" y="-303.8" font-family="Times,serif" font-size="14.00">outputnode</text>
<polyline fill="none" stroke="black" points="1331.09,-246.5 1429.09,-246.5 "/>
<text text-anchor="middle" x="1380.09" y="-181.3" font-family="Times,serif" font-size="14.00">utility</text>
<polyline fill="none" stroke="black" points="1331.09,-123.5 1429.09,-123.5 "/>
<text text-anchor="middle" x="1380.09" y="-58.3" font-family="Times,serif" font-size="14.00"> </text>
<polyline fill="none" stroke="black" points="1429.09,-0.5 1429.09,-368.5 "/>
<text text-anchor="middle" x="1453.59" y="-180.8" font-family="Times,serif" font-size="14.00">OUT</text>
</g>
<!-- anat_preproc_wfanat_fit_wf&#45;&gt;anat_preproc_wfoutputnode -->
<g id="edge1" class="edge">
<title>anat_preproc_wfanat_fit_wf:e&#45;&gt;anat_preproc_wfoutputnode:w</title>
<path fill="none" stroke="black" d="M1132.09,-891C1270.31,-891 1220.1,-685.75 1131.09,-580 1071.8,-509.56 986.26,-614.53 927.09,-544 887.38,-496.67 886.61,-451.67 927.09,-405 1001.21,-319.53 1095.72,-445.49 1179.09,-369 1186.42,-362.27 1181.38,-350.24 1180.67,-342.31"/>
<polygon fill="black" stroke="black" points="1183.44,-344.45 1187.09,-334.5 1178.03,-340.01 1183.44,-344.45"/>
</g>
<!-- anat_preproc_wfanat_fit_wf&#45;&gt;anat_preproc_wfoutputnode -->
<g id="edge3" class="edge">
<title>anat_preproc_wfanat_fit_wf:e&#45;&gt;anat_preproc_wfoutputnode:w</title>
<path fill="none" stroke="black" d="M1132.09,-868C1260.09,-868 1211.61,-679.5 1131.09,-580 1083.6,-521.32 1012.47,-602.77 965.09,-544 926.31,-495.91 925.19,-452.17 965.09,-405 1027.37,-331.36 1111.86,-438.16 1179.09,-369 1185.69,-362.21 1179.95,-334.38 1181.55,-320.08"/>
<polygon fill="black" stroke="black" points="1184.6,-321.8 1187.09,-311.5 1178.72,-318 1184.6,-321.8"/>
</g>
<!-- anat_preproc_wfanat_fit_wf&#45;&gt;anat_preproc_wfoutputnode -->
<g id="edge4" class="edge">
<title>anat_preproc_wfanat_fit_wf:e&#45;&gt;anat_preproc_wfoutputnode:w</title>
<path fill="none" stroke="black" d="M1132.09,-845C1249.86,-845 1202.38,-673.75 1131.09,-580 1095.31,-532.96 1038.77,-591.11 1003.09,-544 965.78,-494.76 964.02,-452.86 1003.09,-405 1053.57,-343.14 1125.6,-428.28 1179.09,-369 1188.63,-358.42 1176.77,-314 1180.41,-296.06"/>
<polygon fill="black" stroke="black" points="1183.09,-298.31 1187.09,-288.5 1177.84,-293.68 1183.09,-298.31"/>
</g>
<!-- anat_preproc_wfanat_fit_wf&#45;&gt;anat_preproc_wfoutputnode -->
<g id="edge6" class="edge">
<title>anat_preproc_wfanat_fit_wf:e&#45;&gt;anat_preproc_wfoutputnode:w</title>
<path fill="none" stroke="black" d="M1132.09,-822C1239.64,-822 1191.57,-668.94 1131.09,-580 1106.86,-544.38 1065.24,-579.67 1041.09,-544 1006.45,-492.84 1003.32,-453.89 1041.09,-405 1079.84,-354.84 1138.43,-417.63 1179.09,-369 1185.07,-361.84 1179.06,-298.59 1182.65,-274.64"/>
<polygon fill="black" stroke="black" points="1185.86,-276.02 1187.09,-265.5 1179.57,-272.96 1185.86,-276.02"/>
</g>
<!-- anat_preproc_wfanat_fit_wf&#45;&gt;anat_preproc_wfoutputnode -->
<g id="edge7" class="edge">
<title>anat_preproc_wfanat_fit_wf:e&#45;&gt;anat_preproc_wfoutputnode:w</title>
<path fill="none" stroke="black" d="M1132.09,-799C1229.42,-799 1176.46,-666.11 1131.09,-580 1117.98,-555.13 1092.13,-568.9 1079.09,-544 1050.41,-489.28 1043.56,-455.54 1079.09,-405 1106.25,-366.35 1150.72,-406.77 1179.09,-369 1186.12,-359.63 1177.24,-278.28 1182.17,-251.22"/>
<polygon fill="black" stroke="black" points="1185.22,-252.93 1187.09,-242.5 1179.12,-249.49 1185.22,-252.93"/>
</g>
<!-- anat_preproc_wfanat_fit_wf&#45;&gt;anat_preproc_wfoutputnode -->
<g id="edge8" class="edge">
<title>anat_preproc_wfanat_fit_wf:e&#45;&gt;anat_preproc_wfoutputnode:w</title>
<path fill="none" stroke="black" d="M1132.09,-776C1219.2,-776 1147.37,-665.58 1131.09,-580 1127.88,-563.14 1120.25,-560.87 1117.09,-544 1105.69,-483.28 1086.26,-458.54 1117.09,-405 1132.98,-377.39 1162.46,-396.18 1179.09,-369 1186.44,-356.97 1175.12,-257.92 1181.63,-228.01"/>
<polygon fill="black" stroke="black" points="1184.64,-229.81 1187.09,-219.5 1178.75,-226.04 1184.64,-229.81"/>
</g>
<!-- anat_preproc_wfanat_fit_wf&#45;&gt;anat_preproc_wfoutputnode -->
<g id="edge9" class="edge">
<title>anat_preproc_wfanat_fit_wf:e&#45;&gt;anat_preproc_wfoutputnode:w</title>
<path fill="none" stroke="black" d="M1132.09,-753C1170.84,-753 1142.64,-441.7 1155.09,-405 1161.26,-386.79 1173.09,-387.27 1179.09,-369 1181.63,-361.24 1178.69,-241.61 1183.68,-206.26"/>
<polygon fill="black" stroke="black" points="1187.1,-207.09 1187.09,-196.5 1180.49,-204.79 1187.1,-207.09"/>
</g>
<!-- anat_preproc_wfanat_fit_wf&#45;&gt;anat_preproc_wfoutputnode -->
<g id="edge11" class="edge">
<title>anat_preproc_wfanat_fit_wf:e&#45;&gt;anat_preproc_wfoutputnode:w</title>
<path fill="none" stroke="black" d="M1132.09,-730C1212.98,-730 1172.21,-449.61 1179.09,-369 1179.89,-359.6 1177.12,-219.99 1183.38,-181.99"/>
<polygon fill="black" stroke="black" points="1186.71,-183.09 1187.09,-172.5 1180.19,-180.54 1186.71,-183.09"/>
</g>
<!-- anat_preproc_wfanat_fit_wf&#45;&gt;anat_preproc_wfoutputnode -->
<g id="edge14" class="edge">
<title>anat_preproc_wfanat_fit_wf:e&#45;&gt;anat_preproc_wfoutputnode:w</title>
<path fill="none" stroke="black" d="M1132.09,-707C1209.44,-707 1179.31,-620.11 1193.09,-544 1204.09,-483.21 1197.34,-466.63 1193.09,-405 1191.97,-388.88 1189.23,-385.11 1188.09,-369 1187.16,-355.98 1175.54,-158.16 1183.09,-112.75"/>
<polygon fill="black" stroke="black" points="1186.33,-114.07 1187.09,-103.5 1179.91,-111.29 1186.33,-114.07"/>
</g>
<!-- anat_preproc_wfanat_fit_wf&#45;&gt;anat_preproc_wfoutputnode -->
<g id="edge16" class="edge">
<title>anat_preproc_wfanat_fit_wf:e&#45;&gt;anat_preproc_wfoutputnode:w</title>
<path fill="none" stroke="black" d="M1132.09,-684C1203.1,-684 1191.42,-612.78 1209.09,-544 1224.45,-484.16 1225.21,-464.64 1209.09,-405 1204.25,-387.12 1192.95,-386.87 1188.09,-369 1184.34,-355.23 1173.76,-137.15 1182.81,-89.6"/>
<polygon fill="black" stroke="black" points="1186.01,-91.04 1187.09,-80.5 1179.67,-88.07 1186.01,-91.04"/>
</g>
<!-- anat_preproc_wfanat_fit_wf&#45;&gt;anat_preproc_wfoutputnode -->
<g id="edge18" class="edge">
<title>anat_preproc_wfanat_fit_wf:e&#45;&gt;anat_preproc_wfoutputnode:w</title>
<path fill="none" stroke="black" d="M1132.09,-661C1199.35,-661 1205.43,-607.33 1228.09,-544 1248.89,-485.83 1253.22,-461.43 1228.09,-405 1218.35,-383.15 1197.85,-390.83 1188.09,-369 1184.93,-361.95 1179.72,-119.31 1184.79,-67.27"/>
<polygon fill="black" stroke="black" points="1188.2,-68.04 1187.09,-57.5 1181.39,-66.43 1188.2,-68.04"/>
</g>
<!-- anat_preproc_wfanat_fit_wf&#45;&gt;anat_preproc_wfoutputnode -->
<g id="edge21" class="edge">
<title>anat_preproc_wfanat_fit_wf:e&#45;&gt;anat_preproc_wfoutputnode:w</title>
<path fill="none" stroke="black" d="M1132.09,-638C1199.14,-638 1220.98,-604.4 1250.09,-544 1276.9,-488.35 1280.91,-458.54 1250.09,-405 1234.19,-377.39 1204.02,-396.59 1188.09,-369 1183.92,-361.79 1178.95,-98.67 1184.66,-44.28"/>
<polygon fill="black" stroke="black" points="1188.08,-45.05 1187.09,-34.5 1181.28,-43.36 1188.08,-45.05"/>
</g>
<!-- anat_preproc_wfanat_fit_wf&#45;&gt;anat_preproc_wfoutputnode -->
<g id="edge26" class="edge">
<title>anat_preproc_wfanat_fit_wf:e&#45;&gt;anat_preproc_wfoutputnode:w</title>
<path fill="none" stroke="black" d="M1132.09,-592C1165.39,-592 1254.67,-571.06 1274.09,-544 1310.1,-493.81 1308.31,-456.43 1274.09,-405 1251.13,-370.5 1211.09,-403.46 1188.09,-369 1183.12,-361.56 1178.23,-77.69 1184.56,-21.21"/>
<polygon fill="black" stroke="black" points="1187.96,-22.06 1187.09,-11.5 1181.18,-20.3 1187.96,-22.06"/>
</g>
<!-- anat_preproc_wftemplate_iterator_wf&#45;&gt;anat_preproc_wfds_std_volumes_wf -->
<g id="edge40" class="edge">
<title>anat_preproc_wftemplate_iterator_wf:e&#45;&gt;anat_preproc_wfds_std_volumes_wf:w</title>
<path fill="none" stroke="black" d="M1944.09,-509.5C1967.17,-509.5 1938.09,-324.68 1949.77,-284.25"/>
<polygon fill="black" stroke="black" points="1952.48,-286.46 1956.09,-276.5 1947.05,-282.04 1952.48,-286.46"/>
</g>
<!-- anat_preproc_wftemplate_iterator_wf&#45;&gt;anat_preproc_wfds_std_volumes_wf -->
<g id="edge41" class="edge">
<title>anat_preproc_wftemplate_iterator_wf:e&#45;&gt;anat_preproc_wfds_std_volumes_wf:w</title>
<path fill="none" stroke="black" d="M1944.09,-486.5C1967.17,-486.5 1938.09,-301.68 1949.77,-261.25"/>
<polygon fill="black" stroke="black" points="1952.48,-263.46 1956.09,-253.5 1947.05,-259.04 1952.48,-263.46"/>
</g>
<!-- anat_preproc_wftemplate_iterator_wf&#45;&gt;anat_preproc_wfds_std_volumes_wf -->
<g id="edge42" class="edge">
<title>anat_preproc_wftemplate_iterator_wf:e&#45;&gt;anat_preproc_wfds_std_volumes_wf:w</title>
<path fill="none" stroke="black" d="M1944.09,-462.5C1969.51,-462.5 1936.2,-257.56 1949.46,-215.13"/>
<polygon fill="black" stroke="black" points="1952.18,-217.35 1956.09,-207.5 1946.89,-212.76 1952.18,-217.35"/>
</g>
<!-- anat_preproc_wftemplate_iterator_wf&#45;&gt;anat_preproc_wfds_std_volumes_wf -->
<g id="edge43" class="edge">
<title>anat_preproc_wftemplate_iterator_wf:e&#45;&gt;anat_preproc_wfds_std_volumes_wf:w</title>
<path fill="none" stroke="black" d="M1944.09,-439.5C1971.98,-439.5 1934.13,-213.15 1949.19,-168.94"/>
<polygon fill="black" stroke="black" points="1951.85,-171.21 1956.09,-161.5 1946.72,-166.45 1951.85,-171.21"/>
</g>
<!-- anat_preproc_wftemplate_iterator_wf&#45;&gt;anat_preproc_wfds_std_volumes_wf -->
<g id="edge44" class="edge">
<title>anat_preproc_wftemplate_iterator_wf:e&#45;&gt;anat_preproc_wfds_std_volumes_wf:w</title>
<path fill="none" stroke="black" d="M1944.09,-416.5C1981.46,-416.5 1927.43,-265.05 1946.95,-235.48"/>
<polygon fill="black" stroke="black" points="1948.98,-238.36 1956.09,-230.5 1945.63,-232.21 1948.98,-238.36"/>
</g>
<!-- anat_preproc_wfsurface_derivatives_wf&#45;&gt;anat_preproc_wfds_surfaces_wf -->
<g id="edge35" class="edge">
<title>anat_preproc_wfsurface_derivatives_wf:e&#45;&gt;anat_preproc_wfds_surfaces_wf:w</title>
<path fill="none" stroke="black" d="M838.09,-474.5C850.98,-474.5 844.51,-427.04 837.09,-416.5 802.62,-367.58 766.72,-391.06 711.09,-369 550.42,-305.28 450.02,-361.92 352.09,-219.5 349.3,-215.44 346.52,-202.5 346.83,-193.55"/>
<polygon fill="black" stroke="black" points="350,-195.04 351.09,-184.5 343.66,-192.06 350,-195.04"/>
</g>
<!-- anat_preproc_wfsurface_derivatives_wf&#45;&gt;anat_preproc_wfds_curv_wf -->
<g id="edge34" class="edge">
<title>anat_preproc_wfsurface_derivatives_wf:e&#45;&gt;anat_preproc_wfds_curv_wf:w</title>
<path fill="none" stroke="black" d="M838.09,-497.5C856.09,-497.5 849.27,-429.75 837.09,-416.5 762.43,-335.33 449.63,-397.48 343.09,-369 187.92,-327.53 102.96,-353.28 14.09,-219.5 8.16,-210.59 2.56,-197.39 4.69,-190.01"/>
<polygon fill="black" stroke="black" points="6.64,-192.91 13.09,-184.5 2.8,-187.06 6.64,-192.91"/>
</g>
<!-- anat_preproc_wfsurface_derivatives_wf&#45;&gt;anat_preproc_wfanat_second_derivatives_wf -->
<g id="edge36" class="edge">
<title>anat_preproc_wfsurface_derivatives_wf:e&#45;&gt;anat_preproc_wfanat_second_derivatives_wf:w</title>
<path fill="none" stroke="black" d="M838.09,-451.5C853.65,-451.5 841.62,-431.39 837.09,-416.5 808.69,-323.26 747.95,-324.41 720.09,-231 717.36,-221.85 711.08,-194.59 713.09,-180.75"/>
<polygon fill="black" stroke="black" points="716.04,-182.65 719.09,-172.5 710.38,-178.54 716.04,-182.65"/>
</g>
<!-- anat_preproc_wfsurface_derivatives_wf&#45;&gt;anat_preproc_wfanat_second_derivatives_wf -->
<g id="edge38" class="edge">
<title>anat_preproc_wfsurface_derivatives_wf:e&#45;&gt;anat_preproc_wfanat_second_derivatives_wf:w</title>
<path fill="none" stroke="black" d="M838.09,-428.5C843.44,-428.5 838.78,-421.58 837.09,-416.5 806.15,-324.06 747.72,-324.47 720.09,-231 715.99,-217.16 706.29,-173.62 711.68,-156.51"/>
<polygon fill="black" stroke="black" points="714.23,-158.91 719.09,-149.5 709.42,-153.83 714.23,-158.91"/>
</g>
<!-- anat_preproc_wfsurface_derivatives_wf&#45;&gt;anat_preproc_wfoutputnode -->
<g id="edge37" class="edge">
<title>anat_preproc_wfsurface_derivatives_wf:e&#45;&gt;anat_preproc_wfoutputnode:w</title>
<path fill="none" stroke="black" d="M838.09,-451.5C868.76,-451.5 861.22,-417.83 889.09,-405 948.07,-377.85 1135.21,-416.87 1179.09,-369 1186.27,-361.16 1177.75,-200.42 1183.5,-159.11"/>
<polygon fill="black" stroke="black" points="1186.87,-160.09 1187.09,-149.5 1180.31,-157.64 1186.87,-160.09"/>
</g>
<!-- anat_preproc_wfsurface_derivatives_wf&#45;&gt;anat_preproc_wfoutputnode -->
<g id="edge39" class="edge">
<title>anat_preproc_wfsurface_derivatives_wf:e&#45;&gt;anat_preproc_wfoutputnode:w</title>
<path fill="none" stroke="black" d="M838.09,-428.5C863.04,-428.5 865.08,-411.84 889.09,-405 951.54,-387.2 1135.29,-416.95 1179.09,-369 1187.07,-360.25 1176.79,-179.56 1183.33,-135.92"/>
<polygon fill="black" stroke="black" points="1186.63,-137.09 1187.09,-126.5 1180.13,-134.49 1186.63,-137.09"/>
</g>
</g>
</svg>
