<?xml version="1.0" encoding="UTF-8" standalone="no"?>
<!DOCTYPE svg PUBLIC "-//W3C//DTD SVG 1.1//EN"
 "http://www.w3.org/Graphics/SVG/1.1/DTD/svg11.dtd">
<!-- Generated by graphviz version 2.43.0 (0)
 -->
<!-- Title: structs Pages: 1 -->
<svg width="954pt" height="465pt"
 viewBox="0.00 0.00 953.50 465.00" xmlns="http://www.w3.org/2000/svg" xmlns:xlink="http://www.w3.org/1999/xlink">
<g id="graph0" class="graph" transform="scale(1 1) rotate(0) translate(4 461)">
<title>structs</title>
<polygon fill="white" stroke="transparent" points="-4,4 -4,-461 949.5,-461 949.5,4 -4,4"/>
<!-- segs_to_native_aseginputnode -->
<g id="node1" class="node">
<title>segs_to_native_aseginputnode</title>
<polygon fill="none" stroke="black" points="0,-341.5 0,-456.5 266,-456.5 266,-341.5 0,-341.5"/>
<text text-anchor="middle" x="17" y="-395.3" font-family="Times,serif" font-size="14.00">IN</text>
<polyline fill="none" stroke="black" points="34,-341.5 34,-456.5 "/>
<text text-anchor="middle" x="78.5" y="-433.8" font-family="Times,serif" font-size="14.00">inputnode</text>
<polyline fill="none" stroke="black" points="34,-418.5 123,-418.5 "/>
<text text-anchor="middle" x="78.5" y="-395.8" font-family="Times,serif" font-size="14.00">utility</text>
<polyline fill="none" stroke="black" points="34,-380.5 123,-380.5 "/>
<text text-anchor="middle" x="78.5" y="-357.3" font-family="Times,serif" font-size="14.00"> </text>
<polyline fill="none" stroke="black" points="123,-341.5 123,-456.5 "/>
<text text-anchor="middle" x="194.5" y="-441.3" font-family="Times,serif" font-size="14.00">OUT</text>
<polyline fill="none" stroke="black" points="123,-433.5 266,-433.5 "/>
<text text-anchor="middle" x="194.5" y="-418.3" font-family="Times,serif" font-size="14.00">fsnative2t1w_xfm</text>
<polyline fill="none" stroke="black" points="123,-410.5 266,-410.5 "/>
<text text-anchor="middle" x="194.5" y="-395.3" font-family="Times,serif" font-size="14.00">in_file</text>
<polyline fill="none" stroke="black" points="123,-387.5 266,-387.5 "/>
<text text-anchor="middle" x="194.5" y="-372.3" font-family="Times,serif" font-size="14.00">subject_id</text>
<polyline fill="none" stroke="black" points="123,-364.5 266,-364.5 "/>
<text text-anchor="middle" x="194.5" y="-349.3" font-family="Times,serif" font-size="14.00">subjects_dir</text>
</g>
<!-- segs_to_native_asegfs_datasource -->
<g id="node2" class="node">
<title>segs_to_native_asegfs_datasource</title>
<polygon fill="none" stroke="black" points="118,-235.5 118,-304.5 386,-304.5 386,-235.5 118,-235.5"/>
<text text-anchor="middle" x="169.5" y="-289.3" font-family="Times,serif" font-size="14.00">IN</text>
<polyline fill="none" stroke="black" points="118,-281.5 221,-281.5 "/>
<text text-anchor="middle" x="169.5" y="-266.3" font-family="Times,serif" font-size="14.00">subject_id</text>
<polyline fill="none" stroke="black" points="118,-258.5 221,-258.5 "/>
<text text-anchor="middle" x="169.5" y="-243.3" font-family="Times,serif" font-size="14.00">subjects_dir</text>
<polyline fill="none" stroke="black" points="221,-235.5 221,-304.5 "/>
<text text-anchor="middle" x="278.5" y="-289.3" font-family="Times,serif" font-size="14.00">fs_datasource</text>
<polyline fill="none" stroke="black" points="221,-281.5 336,-281.5 "/>
<text text-anchor="middle" x="278.5" y="-266.3" font-family="Times,serif" font-size="14.00">io</text>
<polyline fill="none" stroke="black" points="221,-258.5 336,-258.5 "/>
<text text-anchor="middle" x="278.5" y="-243.3" font-family="Times,serif" font-size="14.00"> </text>
<polyline fill="none" stroke="black" points="336,-235.5 336,-304.5 "/>
<text text-anchor="middle" x="361" y="-283.8" font-family="Times,serif" font-size="14.00">OUT</text>
<polyline fill="none" stroke="black" points="336,-270.5 386,-270.5 "/>
<text text-anchor="middle" x="361" y="-249.3" font-family="Times,serif" font-size="14.00">aseg</text>
</g>
<!-- segs_to_native_aseginputnode&#45;&gt;segs_to_native_asegfs_datasource -->
<g id="edge4" class="edge">
<title>segs_to_native_aseginputnode:e&#45;&gt;segs_to_native_asegfs_datasource:w</title>
<path fill="none" stroke="black" d="M267,-376C282.56,-376 275.79,-353.1 266,-341 223.41,-288.38 160.59,-357.62 118,-305 111.27,-296.68 105.97,-283.26 108.36,-275.68"/>
<polygon fill="black" stroke="black" points="110.57,-278.42 117,-270 106.72,-272.57 110.57,-278.42"/>
</g>
<!-- segs_to_native_aseginputnode&#45;&gt;segs_to_native_asegfs_datasource -->
<g id="edge5" class="edge">
<title>segs_to_native_aseginputnode:e&#45;&gt;segs_to_native_asegfs_datasource:w</title>
<path fill="none" stroke="black" d="M267,-353C272.35,-353 269.48,-345.07 266,-341 221.99,-289.56 160.29,-357.86 118,-305 104.54,-288.17 94.87,-258.95 107.12,-249.81"/>
<polygon fill="black" stroke="black" points="108.34,-253.1 117,-247 106.42,-246.37 108.34,-253.1"/>
</g>
<!-- segs_to_native_asegresample -->
<g id="node3" class="node">
<title>segs_to_native_asegresample</title>
<polygon fill="none" stroke="black" points="414.5,-106.5 414.5,-198.5 729.5,-198.5 729.5,-106.5 414.5,-106.5"/>
<text text-anchor="middle" x="460.5" y="-183.3" font-family="Times,serif" font-size="14.00">IN</text>
<polyline fill="none" stroke="black" points="414.5,-175.5 506.5,-175.5 "/>
<text text-anchor="middle" x="460.5" y="-160.3" font-family="Times,serif" font-size="14.00">lta_file</text>
<polyline fill="none" stroke="black" points="414.5,-152.5 506.5,-152.5 "/>
<text text-anchor="middle" x="460.5" y="-137.3" font-family="Times,serif" font-size="14.00">source_file</text>
<polyline fill="none" stroke="black" points="414.5,-129.5 506.5,-129.5 "/>
<text text-anchor="middle" x="460.5" y="-114.3" font-family="Times,serif" font-size="14.00">target_file</text>
<polyline fill="none" stroke="black" points="506.5,-106.5 506.5,-198.5 "/>
<text text-anchor="middle" x="551" y="-179.8" font-family="Times,serif" font-size="14.00">resample</text>
<polyline fill="none" stroke="black" points="506.5,-168.5 595.5,-168.5 "/>
<text text-anchor="middle" x="551" y="-149.3" font-family="Times,serif" font-size="14.00">freesurfer</text>
<polyline fill="none" stroke="black" points="506.5,-137.5 595.5,-137.5 "/>
<text text-anchor="middle" x="551" y="-118.3" font-family="Times,serif" font-size="14.00"> </text>
<polyline fill="none" stroke="black" points="595.5,-106.5 595.5,-198.5 "/>
<text text-anchor="middle" x="662.5" y="-171.8" font-family="Times,serif" font-size="14.00">OUT</text>
<polyline fill="none" stroke="black" points="595.5,-152.5 729.5,-152.5 "/>
<text text-anchor="middle" x="662.5" y="-125.8" font-family="Times,serif" font-size="14.00">transformed_file</text>
</g>
<!-- segs_to_native_aseginputnode&#45;&gt;segs_to_native_asegresample -->
<g id="edge2" class="edge">
<title>segs_to_native_aseginputnode:e&#45;&gt;segs_to_native_asegresample:w</title>
<path fill="none" stroke="black" d="M267,-422C344.07,-422 359.49,-373.41 395,-305 422.25,-252.51 358.62,-174.64 403.02,-165.41"/>
<polygon fill="black" stroke="black" points="403.36,-168.89 413,-164.5 402.72,-161.92 403.36,-168.89"/>
</g>
<!-- segs_to_native_aseginputnode&#45;&gt;segs_to_native_asegresample -->
<g id="edge3" class="edge">
<title>segs_to_native_aseginputnode:e&#45;&gt;segs_to_native_asegresample:w</title>
<path fill="none" stroke="black" d="M267,-399C344.17,-399 376.04,-372.75 413,-305 451.11,-235.13 340.41,-127.69 402.99,-118.18"/>
<polygon fill="black" stroke="black" points="403.26,-121.67 413,-117.5 402.79,-114.68 403.26,-121.67"/>
</g>
<!-- segs_to_native_asegfs_datasource&#45;&gt;segs_to_native_asegresample -->
<g id="edge1" class="edge">
<title>segs_to_native_asegfs_datasource:e&#45;&gt;segs_to_native_asegresample:w</title>
<path fill="none" stroke="black" d="M387,-253C409.05,-253 393.45,-169.92 404.92,-146.55"/>
<polygon fill="black" stroke="black" points="407.09,-149.29 413,-140.5 402.9,-143.69 407.09,-149.29"/>
</g>
<!-- segs_to_native_asegoutputnode -->
<g id="node4" class="node">
<title>segs_to_native_asegoutputnode</title>
<polygon fill="none" stroke="black" points="730.5,-0.5 730.5,-69.5 945.5,-69.5 945.5,-0.5 730.5,-0.5"/>
<text text-anchor="middle" x="764.5" y="-48.8" font-family="Times,serif" font-size="14.00">IN</text>
<polyline fill="none" stroke="black" points="730.5,-35.5 798.5,-35.5 "/>
<text text-anchor="middle" x="764.5" y="-14.3" font-family="Times,serif" font-size="14.00">out_file</text>
<polyline fill="none" stroke="black" points="798.5,-0.5 798.5,-69.5 "/>
<text text-anchor="middle" x="847.5" y="-54.3" font-family="Times,serif" font-size="14.00">outputnode</text>
<polyline fill="none" stroke="black" points="798.5,-46.5 896.5,-46.5 "/>
<text text-anchor="middle" x="847.5" y="-31.3" font-family="Times,serif" font-size="14.00">utility</text>
<polyline fill="none" stroke="black" points="798.5,-23.5 896.5,-23.5 "/>
<text text-anchor="middle" x="847.5" y="-8.3" font-family="Times,serif" font-size="14.00"> </text>
<polyline fill="none" stroke="black" points="896.5,-0.5 896.5,-69.5 "/>
<text text-anchor="middle" x="921" y="-31.3" font-family="Times,serif" font-size="14.00">OUT</text>
</g>
<!-- segs_to_native_asegresample&#45;&gt;segs_to_native_asegoutputnode -->
<g id="edge6" class="edge">
<title>segs_to_native_asegresample:e&#45;&gt;segs_to_native_asegoutputnode:w</title>
<path fill="none" stroke="black" d="M731,-129.5C776.11,-129.5 696.39,-37.14 719.07,-20.54"/>
<polygon fill="black" stroke="black" points="720.18,-23.87 729,-18 718.44,-17.09 720.18,-23.87"/>
</g>
</g>
</svg>
