<?xml version="1.0" encoding="UTF-8" standalone="no"?>
<!DOCTYPE svg PUBLIC "-//W3C//DTD SVG 1.1//EN"
 "http://www.w3.org/Graphics/SVG/1.1/DTD/svg11.dtd">
<!-- Generated by graphviz version 2.43.0 (0)
 -->
<!-- Title: structs Pages: 1 -->
<svg width="1089pt" height="700pt"
 viewBox="0.00 0.00 1088.50 700.00" xmlns="http://www.w3.org/2000/svg" xmlns:xlink="http://www.w3.org/1999/xlink">
<g id="graph0" class="graph" transform="scale(1 1) rotate(0) translate(4 696)">
<title>structs</title>
<polygon fill="white" stroke="transparent" points="-4,4 -4,-696 1084.5,-696 1084.5,4 -4,4"/>
<!-- anat_template_wfinputnode -->
<g id="node1" class="node">
<title>anat_template_wfinputnode</title>
<polygon fill="none" stroke="black" points="0,-622.5 0,-691.5 207,-691.5 207,-622.5 0,-622.5"/>
<text text-anchor="middle" x="17" y="-653.3" font-family="Times,serif" font-size="14.00">IN</text>
<polyline fill="none" stroke="black" points="34,-622.5 34,-691.5 "/>
<text text-anchor="middle" x="78.5" y="-676.3" font-family="Times,serif" font-size="14.00">inputnode</text>
<polyline fill="none" stroke="black" points="34,-668.5 123,-668.5 "/>
<text text-anchor="middle" x="78.5" y="-653.3" font-family="Times,serif" font-size="14.00">utility</text>
<polyline fill="none" stroke="black" points="34,-645.5 123,-645.5 "/>
<text text-anchor="middle" x="78.5" y="-630.3" font-family="Times,serif" font-size="14.00"> </text>
<polyline fill="none" stroke="black" points="123,-622.5 123,-691.5 "/>
<text text-anchor="middle" x="165" y="-670.8" font-family="Times,serif" font-size="14.00">OUT</text>
<polyline fill="none" stroke="black" points="123,-657.5 207,-657.5 "/>
<text text-anchor="middle" x="165" y="-636.3" font-family="Times,serif" font-size="14.00">anat_files</text>
</g>
<!-- anat_template_wfanat_ref_dimensions -->
<g id="node2" class="node">
<title>anat_template_wfanat_ref_dimensions</title>
<polygon fill="none" stroke="black" points="207.5,-470.5 207.5,-585.5 557.5,-585.5 557.5,-470.5 207.5,-470.5"/>
<text text-anchor="middle" x="244" y="-553.3" font-family="Times,serif" font-size="14.00">IN</text>
<polyline fill="none" stroke="black" points="207.5,-528.5 280.5,-528.5 "/>
<text text-anchor="middle" x="244" y="-495.8" font-family="Times,serif" font-size="14.00">t1w_list</text>
<polyline fill="none" stroke="black" points="280.5,-470.5 280.5,-585.5 "/>
<text text-anchor="middle" x="362" y="-562.8" font-family="Times,serif" font-size="14.00">anat_ref_dimensions</text>
<polyline fill="none" stroke="black" points="280.5,-547.5 443.5,-547.5 "/>
<text text-anchor="middle" x="362" y="-524.8" font-family="Times,serif" font-size="14.00">images</text>
<polyline fill="none" stroke="black" points="280.5,-509.5 443.5,-509.5 "/>
<text text-anchor="middle" x="362" y="-486.3" font-family="Times,serif" font-size="14.00"> </text>
<polyline fill="none" stroke="black" points="443.5,-470.5 443.5,-585.5 "/>
<text text-anchor="middle" x="500.5" y="-570.3" font-family="Times,serif" font-size="14.00">OUT</text>
<polyline fill="none" stroke="black" points="443.5,-562.5 557.5,-562.5 "/>
<text text-anchor="middle" x="500.5" y="-547.3" font-family="Times,serif" font-size="14.00">out_report</text>
<polyline fill="none" stroke="black" points="443.5,-539.5 557.5,-539.5 "/>
<text text-anchor="middle" x="500.5" y="-524.3" font-family="Times,serif" font-size="14.00">t1w_valid_list</text>
<polyline fill="none" stroke="black" points="443.5,-516.5 557.5,-516.5 "/>
<text text-anchor="middle" x="500.5" y="-501.3" font-family="Times,serif" font-size="14.00">target_shape</text>
<polyline fill="none" stroke="black" points="443.5,-493.5 557.5,-493.5 "/>
<text text-anchor="middle" x="500.5" y="-478.3" font-family="Times,serif" font-size="14.00">target_zooms</text>
</g>
<!-- anat_template_wfinputnode&#45;&gt;anat_template_wfanat_ref_dimensions -->
<g id="edge9" class="edge">
<title>anat_template_wfinputnode:e&#45;&gt;anat_template_wfanat_ref_dimensions:w</title>
<path fill="none" stroke="black" d="M208.5,-640C232.5,-640 207.86,-610 207.5,-586 206.98,-551.56 175.92,-509.46 196.45,-500.66"/>
<polygon fill="black" stroke="black" points="197.2,-504.08 206.5,-499 196.06,-497.18 197.2,-504.08"/>
</g>
<!-- anat_template_wfdenoise -->
<g id="node3" class="node">
<title>anat_template_wfdenoise</title>
<polygon fill="none" stroke="black" points="203,-364.5 203,-433.5 492,-433.5 492,-364.5 203,-364.5"/>
<text text-anchor="middle" x="255" y="-412.8" font-family="Times,serif" font-size="14.00">IN</text>
<polyline fill="none" stroke="black" points="203,-399.5 307,-399.5 "/>
<text text-anchor="middle" x="255" y="-378.3" font-family="Times,serif" font-size="14.00">input_image</text>
<polyline fill="none" stroke="black" points="307,-364.5 307,-433.5 "/>
<text text-anchor="middle" x="342.5" y="-418.3" font-family="Times,serif" font-size="14.00">denoise</text>
<polyline fill="none" stroke="black" points="307,-410.5 378,-410.5 "/>
<text text-anchor="middle" x="342.5" y="-395.3" font-family="Times,serif" font-size="14.00">ants</text>
<polyline fill="none" stroke="black" points="307,-387.5 378,-387.5 "/>
<text text-anchor="middle" x="342.5" y="-372.3" font-family="Times,serif" font-size="14.00"> </text>
<polyline fill="none" stroke="black" points="378,-364.5 378,-433.5 "/>
<text text-anchor="middle" x="435" y="-412.8" font-family="Times,serif" font-size="14.00">OUT</text>
<polyline fill="none" stroke="black" points="378,-399.5 492,-399.5 "/>
<text text-anchor="middle" x="435" y="-378.3" font-family="Times,serif" font-size="14.00">output_image</text>
</g>
<!-- anat_template_wfanat_ref_dimensions&#45;&gt;anat_template_wfdenoise -->
<g id="edge3" class="edge">
<title>anat_template_wfanat_ref_dimensions:e&#45;&gt;anat_template_wfdenoise:w</title>
<path fill="none" stroke="black" d="M558.5,-528C584.28,-528 574.95,-488.98 557.5,-470 503.83,-411.63 256.23,-492.32 202.5,-434 189.65,-420.05 181.66,-394 191.96,-385.08"/>
<polygon fill="black" stroke="black" points="193.06,-388.4 201.5,-382 190.91,-381.74 193.06,-388.4"/>
</g>
<!-- anat_template_wfanat_conform -->
<g id="node4" class="node">
<title>anat_template_wfanat_conform</title>
<polygon fill="none" stroke="black" points="492.5,-235.5 492.5,-327.5 786.5,-327.5 786.5,-235.5 492.5,-235.5"/>
<text text-anchor="middle" x="549" y="-312.3" font-family="Times,serif" font-size="14.00">IN</text>
<polyline fill="none" stroke="black" points="492.5,-304.5 605.5,-304.5 "/>
<text text-anchor="middle" x="549" y="-289.3" font-family="Times,serif" font-size="14.00">in_file</text>
<polyline fill="none" stroke="black" points="492.5,-281.5 605.5,-281.5 "/>
<text text-anchor="middle" x="549" y="-266.3" font-family="Times,serif" font-size="14.00">target_shape</text>
<polyline fill="none" stroke="black" points="492.5,-258.5 605.5,-258.5 "/>
<text text-anchor="middle" x="549" y="-243.3" font-family="Times,serif" font-size="14.00">target_zooms</text>
<polyline fill="none" stroke="black" points="605.5,-235.5 605.5,-327.5 "/>
<text text-anchor="middle" x="662" y="-308.8" font-family="Times,serif" font-size="14.00">anat_conform</text>
<polyline fill="none" stroke="black" points="605.5,-297.5 718.5,-297.5 "/>
<text text-anchor="middle" x="662" y="-278.3" font-family="Times,serif" font-size="14.00">images</text>
<polyline fill="none" stroke="black" points="605.5,-266.5 718.5,-266.5 "/>
<text text-anchor="middle" x="662" y="-247.3" font-family="Times,serif" font-size="14.00"> </text>
<polyline fill="none" stroke="black" points="718.5,-235.5 718.5,-327.5 "/>
<text text-anchor="middle" x="752.5" y="-300.8" font-family="Times,serif" font-size="14.00">OUT</text>
<polyline fill="none" stroke="black" points="718.5,-281.5 786.5,-281.5 "/>
<text text-anchor="middle" x="752.5" y="-254.8" font-family="Times,serif" font-size="14.00">out_file</text>
</g>
<!-- anat_template_wfanat_ref_dimensions&#45;&gt;anat_template_wfanat_conform -->
<g id="edge5" class="edge">
<title>anat_template_wfanat_ref_dimensions:e&#45;&gt;anat_template_wfanat_conform:w</title>
<path fill="none" stroke="black" d="M558.5,-505C574.06,-505 561.03,-485.16 557.5,-470 549.62,-436.2 500.18,-361.84 492.5,-328 487.78,-307.2 472.63,-281.16 481.7,-272.47"/>
<polygon fill="black" stroke="black" points="482.95,-275.75 491.5,-269.5 480.91,-269.05 482.95,-275.75"/>
</g>
<!-- anat_template_wfanat_ref_dimensions&#45;&gt;anat_template_wfanat_conform -->
<g id="edge6" class="edge">
<title>anat_template_wfanat_ref_dimensions:e&#45;&gt;anat_template_wfanat_conform:w</title>
<path fill="none" stroke="black" d="M558.5,-482C564.99,-482 603.04,-469.36 539.5,-364 525.91,-341.47 504.29,-351.52 492.5,-328 478.04,-299.16 459.81,-257.04 481.59,-248.18"/>
<polygon fill="black" stroke="black" points="482.22,-251.62 491.5,-246.5 481.06,-244.72 482.22,-251.62"/>
</g>
<!-- anat_template_wfoutputnode -->
<g id="node6" class="node">
<title>anat_template_wfoutputnode</title>
<polygon fill="none" stroke="black" points="814.5,-0.5 814.5,-92.5 1080.5,-92.5 1080.5,-0.5 814.5,-0.5"/>
<text text-anchor="middle" x="874" y="-77.3" font-family="Times,serif" font-size="14.00">IN</text>
<polyline fill="none" stroke="black" points="814.5,-69.5 933.5,-69.5 "/>
<text text-anchor="middle" x="874" y="-54.3" font-family="Times,serif" font-size="14.00">anat_ref</text>
<polyline fill="none" stroke="black" points="814.5,-46.5 933.5,-46.5 "/>
<text text-anchor="middle" x="874" y="-31.3" font-family="Times,serif" font-size="14.00">anat_valid_list</text>
<polyline fill="none" stroke="black" points="814.5,-23.5 933.5,-23.5 "/>
<text text-anchor="middle" x="874" y="-8.3" font-family="Times,serif" font-size="14.00">out_report</text>
<polyline fill="none" stroke="black" points="933.5,-0.5 933.5,-92.5 "/>
<text text-anchor="middle" x="982.5" y="-73.8" font-family="Times,serif" font-size="14.00">outputnode</text>
<polyline fill="none" stroke="black" points="933.5,-62.5 1031.5,-62.5 "/>
<text text-anchor="middle" x="982.5" y="-43.3" font-family="Times,serif" font-size="14.00">utility</text>
<polyline fill="none" stroke="black" points="933.5,-31.5 1031.5,-31.5 "/>
<text text-anchor="middle" x="982.5" y="-12.3" font-family="Times,serif" font-size="14.00"> </text>
<polyline fill="none" stroke="black" points="1031.5,-0.5 1031.5,-92.5 "/>
<text text-anchor="middle" x="1056" y="-42.8" font-family="Times,serif" font-size="14.00">OUT</text>
</g>
<!-- anat_template_wfanat_ref_dimensions&#45;&gt;anat_template_wfoutputnode -->
<g id="edge2" class="edge">
<title>anat_template_wfanat_ref_dimensions:e&#45;&gt;anat_template_wfoutputnode:w</title>
<path fill="none" stroke="black" d="M558.5,-551C703.13,-551 734.38,-459.08 795.5,-328 809.05,-298.94 783.67,-60.6 805.55,-18"/>
<polygon fill="black" stroke="black" points="807.98,-20.54 813.5,-11.5 803.54,-15.12 807.98,-20.54"/>
</g>
<!-- anat_template_wfanat_ref_dimensions&#45;&gt;anat_template_wfoutputnode -->
<g id="edge4" class="edge">
<title>anat_template_wfanat_ref_dimensions:e&#45;&gt;anat_template_wfoutputnode:w</title>
<path fill="none" stroke="black" d="M558.5,-528C663.2,-528 703.28,-510.74 774.5,-434 808.44,-397.42 802.99,-377.17 811.5,-328 811.81,-326.22 811.54,-95.81 812.91,-44.54"/>
<polygon fill="black" stroke="black" points="816.4,-44.69 813.5,-34.5 809.41,-44.28 816.4,-44.69"/>
</g>
<!-- anat_template_wfdenoise&#45;&gt;anat_template_wfanat_conform -->
<g id="edge7" class="edge">
<title>anat_template_wfdenoise:e&#45;&gt;anat_template_wfanat_conform:w</title>
<path fill="none" stroke="black" d="M493.5,-382C527.93,-382 470.45,-314.24 481.9,-297.3"/>
<polygon fill="black" stroke="black" points="483.49,-300.44 491.5,-293.5 480.91,-293.93 483.49,-300.44"/>
</g>
<!-- anat_template_wfget1st -->
<g id="node5" class="node">
<title>anat_template_wfget1st</title>
<polygon fill="none" stroke="black" points="622.5,-129.5 622.5,-198.5 786.5,-198.5 786.5,-129.5 622.5,-129.5"/>
<text text-anchor="middle" x="649" y="-177.8" font-family="Times,serif" font-size="14.00">IN</text>
<polyline fill="none" stroke="black" points="622.5,-164.5 675.5,-164.5 "/>
<text text-anchor="middle" x="649" y="-143.3" font-family="Times,serif" font-size="14.00">inlist</text>
<polyline fill="none" stroke="black" points="675.5,-129.5 675.5,-198.5 "/>
<text text-anchor="middle" x="706.5" y="-183.3" font-family="Times,serif" font-size="14.00">get1st</text>
<polyline fill="none" stroke="black" points="675.5,-175.5 737.5,-175.5 "/>
<text text-anchor="middle" x="706.5" y="-160.3" font-family="Times,serif" font-size="14.00">utility</text>
<polyline fill="none" stroke="black" points="675.5,-152.5 737.5,-152.5 "/>
<text text-anchor="middle" x="706.5" y="-137.3" font-family="Times,serif" font-size="14.00"> </text>
<polyline fill="none" stroke="black" points="737.5,-129.5 737.5,-198.5 "/>
<text text-anchor="middle" x="762" y="-177.8" font-family="Times,serif" font-size="14.00">OUT</text>
<polyline fill="none" stroke="black" points="737.5,-164.5 786.5,-164.5 "/>
<text text-anchor="middle" x="762" y="-143.3" font-family="Times,serif" font-size="14.00">out</text>
</g>
<!-- anat_template_wfanat_conform&#45;&gt;anat_template_wfget1st -->
<g id="edge1" class="edge">
<title>anat_template_wfanat_conform:e&#45;&gt;anat_template_wfget1st:w</title>
<path fill="none" stroke="black" d="M787.5,-258.5C797.95,-258.5 793.22,-243 786.5,-235 738.5,-177.86 669.83,-256.7 622.5,-199 610.59,-184.48 602.11,-159.23 611.75,-150.27"/>
<polygon fill="black" stroke="black" points="613.13,-153.5 621.5,-147 610.91,-146.86 613.13,-153.5"/>
</g>
<!-- anat_template_wfget1st&#45;&gt;anat_template_wfoutputnode -->
<g id="edge8" class="edge">
<title>anat_template_wfget1st:e&#45;&gt;anat_template_wfoutputnode:w</title>
<path fill="none" stroke="black" d="M787.5,-147C804.55,-147 797.04,-85.73 805.84,-65.15"/>
<polygon fill="black" stroke="black" points="808.24,-67.7 813.5,-58.5 803.65,-62.41 808.24,-67.7"/>
</g>
</g>
</svg>
