<?xml version="1.0" encoding="UTF-8" standalone="no"?>
<!DOCTYPE svg PUBLIC "-//W3C//DTD SVG 1.1//EN"
 "http://www.w3.org/Graphics/SVG/1.1/DTD/svg11.dtd">
<!-- Generated by graphviz version 2.43.0 (0)
 -->
<!-- Title: structs Pages: 1 -->
<svg width="2217pt" height="428pt"
 viewBox="0.00 0.00 2217.30 428.00" xmlns="http://www.w3.org/2000/svg" xmlns:xlink="http://www.w3.org/1999/xlink">
<g id="graph0" class="graph" transform="scale(1 1) rotate(0) translate(4 424)">
<title>structs</title>
<polygon fill="white" stroke="transparent" points="-4,4 -4,-424 2213.3,-424 2213.3,4 -4,4"/>
<!-- surface_derivatives_wfinputnode -->
<g id="node1" class="node">
<title>surface_derivatives_wfinputnode</title>
<polygon fill="none" stroke="black" points="798.19,-304.5 798.19,-419.5 1064.19,-419.5 1064.19,-304.5 798.19,-304.5"/>
<text text-anchor="middle" x="815.19" y="-358.3" font-family="Times,serif" font-size="14.00">IN</text>
<polyline fill="none" stroke="black" points="832.19,-304.5 832.19,-419.5 "/>
<text text-anchor="middle" x="876.69" y="-396.8" font-family="Times,serif" font-size="14.00">inputnode</text>
<polyline fill="none" stroke="black" points="832.19,-381.5 921.19,-381.5 "/>
<text text-anchor="middle" x="876.69" y="-358.8" font-family="Times,serif" font-size="14.00">utility</text>
<polyline fill="none" stroke="black" points="832.19,-343.5 921.19,-343.5 "/>
<text text-anchor="middle" x="876.69" y="-320.3" font-family="Times,serif" font-size="14.00"> </text>
<polyline fill="none" stroke="black" points="921.19,-304.5 921.19,-419.5 "/>
<text text-anchor="middle" x="992.69" y="-404.3" font-family="Times,serif" font-size="14.00">OUT</text>
<polyline fill="none" stroke="black" points="921.19,-396.5 1064.19,-396.5 "/>
<text text-anchor="middle" x="992.69" y="-381.3" font-family="Times,serif" font-size="14.00">fsnative2t1w_xfm</text>
<polyline fill="none" stroke="black" points="921.19,-373.5 1064.19,-373.5 "/>
<text text-anchor="middle" x="992.69" y="-358.3" font-family="Times,serif" font-size="14.00">reference</text>
<polyline fill="none" stroke="black" points="921.19,-350.5 1064.19,-350.5 "/>
<text text-anchor="middle" x="992.69" y="-335.3" font-family="Times,serif" font-size="14.00">subject_id</text>
<polyline fill="none" stroke="black" points="921.19,-327.5 1064.19,-327.5 "/>
<text text-anchor="middle" x="992.69" y="-312.3" font-family="Times,serif" font-size="14.00">subjects_dir</text>
</g>
<!-- surface_derivatives_wfgifti_surface_wf -->
<g id="node2" class="node">
<title>surface_derivatives_wfgifti_surface_wf</title>
<polygon fill="none" stroke="black" points="24.19,-164 24.19,-256 530.19,-256 530.19,-164 24.19,-164"/>
<text text-anchor="middle" x="134.19" y="-240.8" font-family="Times,serif" font-size="14.00">IN</text>
<polyline fill="none" stroke="black" points="24.19,-233 244.19,-233 "/>
<text text-anchor="middle" x="134.19" y="-217.8" font-family="Times,serif" font-size="14.00">inputnode.fsnative2t1w_xfm</text>
<polyline fill="none" stroke="black" points="24.19,-210 244.19,-210 "/>
<text text-anchor="middle" x="134.19" y="-194.8" font-family="Times,serif" font-size="14.00">inputnode.subject_id</text>
<polyline fill="none" stroke="black" points="24.19,-187 244.19,-187 "/>
<text text-anchor="middle" x="134.19" y="-171.8" font-family="Times,serif" font-size="14.00">inputnode.subjects_dir</text>
<polyline fill="none" stroke="black" points="244.19,-164 244.19,-256 "/>
<text text-anchor="middle" x="308.69" y="-237.3" font-family="Times,serif" font-size="14.00">gifti_surface_wf</text>
<polyline fill="none" stroke="black" points="244.19,-226 373.19,-226 "/>
<text text-anchor="middle" x="308.69" y="-206.8" font-family="Times,serif" font-size="14.00"> </text>
<polyline fill="none" stroke="black" points="244.19,-195 373.19,-195 "/>
<text text-anchor="middle" x="308.69" y="-175.8" font-family="Times,serif" font-size="14.00"> </text>
<polyline fill="none" stroke="black" points="373.19,-164 373.19,-256 "/>
<text text-anchor="middle" x="451.69" y="-229.3" font-family="Times,serif" font-size="14.00">OUT</text>
<polyline fill="none" stroke="black" points="373.19,-210 530.19,-210 "/>
<text text-anchor="middle" x="451.69" y="-183.3" font-family="Times,serif" font-size="14.00">outputnode.inflated</text>
</g>
<!-- surface_derivatives_wfinputnode&#45;&gt;surface_derivatives_wfgifti_surface_wf -->
<g id="edge3" class="edge">
<title>surface_derivatives_wfinputnode:e&#45;&gt;surface_derivatives_wfgifti_surface_wf:w</title>
<path fill="none" stroke="black" d="M1065.19,-385C1101.2,-385 1089.22,-329.88 1064.19,-304 983.77,-220.85 105.3,-338.97 24.19,-256.5 16.63,-248.81 11.62,-234.88 14.65,-227.28"/>
<polygon fill="black" stroke="black" points="16.53,-230.24 23.19,-222 12.85,-224.28 16.53,-230.24"/>
</g>
<!-- surface_derivatives_wfinputnode&#45;&gt;surface_derivatives_wfgifti_surface_wf -->
<g id="edge9" class="edge">
<title>surface_derivatives_wfinputnode:e&#45;&gt;surface_derivatives_wfgifti_surface_wf:w</title>
<path fill="none" stroke="black" d="M1065.19,-339C1080.75,-339 1075.1,-315.1 1064.19,-304 983.1,-221.51 104.81,-339.45 24.19,-256.5 8.9,-240.77 0.19,-209.94 13.46,-200.69"/>
<polygon fill="black" stroke="black" points="14.48,-204.03 23.19,-198 12.62,-197.29 14.48,-204.03"/>
</g>
<!-- surface_derivatives_wfinputnode&#45;&gt;surface_derivatives_wfgifti_surface_wf -->
<g id="edge13" class="edge">
<title>surface_derivatives_wfinputnode:e&#45;&gt;surface_derivatives_wfgifti_surface_wf:w</title>
<path fill="none" stroke="black" d="M1065.19,-316C1070.54,-316 1068.05,-307.71 1064.19,-304 980.88,-223.75 104.61,-339.65 24.19,-256.5 1.67,-233.21 -10.35,-186.37 13.3,-176.75"/>
<polygon fill="black" stroke="black" points="13.96,-180.19 23.19,-175 12.74,-173.3 13.96,-180.19"/>
</g>
<!-- surface_derivatives_wfgifti_morphometrics_wf -->
<g id="node3" class="node">
<title>surface_derivatives_wfgifti_morphometrics_wf</title>
<polygon fill="none" stroke="black" points="548.19,-175.5 548.19,-244.5 1046.19,-244.5 1046.19,-175.5 548.19,-175.5"/>
<text text-anchor="middle" x="637.69" y="-229.3" font-family="Times,serif" font-size="14.00">IN</text>
<polyline fill="none" stroke="black" points="548.19,-221.5 727.19,-221.5 "/>
<text text-anchor="middle" x="637.69" y="-206.3" font-family="Times,serif" font-size="14.00">inputnode.subject_id</text>
<polyline fill="none" stroke="black" points="548.19,-198.5 727.19,-198.5 "/>
<text text-anchor="middle" x="637.69" y="-183.3" font-family="Times,serif" font-size="14.00">inputnode.subjects_dir</text>
<polyline fill="none" stroke="black" points="727.19,-175.5 727.19,-244.5 "/>
<text text-anchor="middle" x="819.69" y="-229.3" font-family="Times,serif" font-size="14.00">gifti_morphometrics_wf</text>
<polyline fill="none" stroke="black" points="727.19,-221.5 912.19,-221.5 "/>
<text text-anchor="middle" x="819.69" y="-206.3" font-family="Times,serif" font-size="14.00"> </text>
<polyline fill="none" stroke="black" points="727.19,-198.5 912.19,-198.5 "/>
<text text-anchor="middle" x="819.69" y="-183.3" font-family="Times,serif" font-size="14.00"> </text>
<polyline fill="none" stroke="black" points="912.19,-175.5 912.19,-244.5 "/>
<text text-anchor="middle" x="979.19" y="-223.8" font-family="Times,serif" font-size="14.00">OUT</text>
<polyline fill="none" stroke="black" points="912.19,-210.5 1046.19,-210.5 "/>
<text text-anchor="middle" x="979.19" y="-189.3" font-family="Times,serif" font-size="14.00">outputnode.curv</text>
</g>
<!-- surface_derivatives_wfinputnode&#45;&gt;surface_derivatives_wfgifti_morphometrics_wf -->
<g id="edge8" class="edge">
<title>surface_derivatives_wfinputnode:e&#45;&gt;surface_derivatives_wfgifti_morphometrics_wf:w</title>
<path fill="none" stroke="black" d="M1065.19,-339C1080.75,-339 1074.72,-315.46 1064.19,-304 908.08,-133.97 704.31,-415.03 548.19,-245 544.86,-241.37 542.23,-228.32 542.72,-219.22"/>
<polygon fill="black" stroke="black" points="545.98,-220.52 547.19,-210 539.68,-217.47 545.98,-220.52"/>
</g>
<!-- surface_derivatives_wfinputnode&#45;&gt;surface_derivatives_wfgifti_morphometrics_wf -->
<g id="edge12" class="edge">
<title>surface_derivatives_wfinputnode:e&#45;&gt;surface_derivatives_wfgifti_morphometrics_wf:w</title>
<path fill="none" stroke="black" d="M1065.19,-316C1070.54,-316 1067.92,-307.84 1064.19,-304 903.5,-138.29 703.34,-415.91 548.19,-245 541.69,-237.84 537.13,-208.8 540.69,-194.72"/>
<polygon fill="black" stroke="black" points="543.43,-196.9 547.19,-187 538.07,-192.4 543.43,-196.9"/>
</g>
<!-- surface_derivatives_wfsegs_to_native_aseg -->
<g id="node4" class="node">
<title>surface_derivatives_wfsegs_to_native_aseg</title>
<polygon fill="none" stroke="black" points="1064.19,-152.5 1064.19,-267.5 1600.19,-267.5 1600.19,-152.5 1064.19,-152.5"/>
<text text-anchor="middle" x="1174.19" y="-252.3" font-family="Times,serif" font-size="14.00">IN</text>
<polyline fill="none" stroke="black" points="1064.19,-244.5 1284.19,-244.5 "/>
<text text-anchor="middle" x="1174.19" y="-229.3" font-family="Times,serif" font-size="14.00">inputnode.fsnative2t1w_xfm</text>
<polyline fill="none" stroke="black" points="1064.19,-221.5 1284.19,-221.5 "/>
<text text-anchor="middle" x="1174.19" y="-206.3" font-family="Times,serif" font-size="14.00">inputnode.in_file</text>
<polyline fill="none" stroke="black" points="1064.19,-198.5 1284.19,-198.5 "/>
<text text-anchor="middle" x="1174.19" y="-183.3" font-family="Times,serif" font-size="14.00">inputnode.subject_id</text>
<polyline fill="none" stroke="black" points="1064.19,-175.5 1284.19,-175.5 "/>
<text text-anchor="middle" x="1174.19" y="-160.3" font-family="Times,serif" font-size="14.00">inputnode.subjects_dir</text>
<polyline fill="none" stroke="black" points="1284.19,-152.5 1284.19,-267.5 "/>
<text text-anchor="middle" x="1364.69" y="-244.8" font-family="Times,serif" font-size="14.00">segs_to_native_aseg</text>
<polyline fill="none" stroke="black" points="1284.19,-229.5 1445.19,-229.5 "/>
<text text-anchor="middle" x="1364.69" y="-206.8" font-family="Times,serif" font-size="14.00"> </text>
<polyline fill="none" stroke="black" points="1284.19,-191.5 1445.19,-191.5 "/>
<text text-anchor="middle" x="1364.69" y="-168.3" font-family="Times,serif" font-size="14.00"> </text>
<polyline fill="none" stroke="black" points="1445.19,-152.5 1445.19,-267.5 "/>
<text text-anchor="middle" x="1522.69" y="-235.3" font-family="Times,serif" font-size="14.00">OUT</text>
<polyline fill="none" stroke="black" points="1445.19,-210.5 1600.19,-210.5 "/>
<text text-anchor="middle" x="1522.69" y="-177.8" font-family="Times,serif" font-size="14.00">outputnode.out_file</text>
</g>
<!-- surface_derivatives_wfinputnode&#45;&gt;surface_derivatives_wfsegs_to_native_aseg -->
<g id="edge5" class="edge">
<title>surface_derivatives_wfinputnode:e&#45;&gt;surface_derivatives_wfsegs_to_native_aseg:w</title>
<path fill="none" stroke="black" d="M1065.19,-385C1101.2,-385 1064.67,-340 1064.19,-304 1064.03,-291.92 1054.28,-256.72 1056.8,-240.88"/>
<polygon fill="black" stroke="black" points="1059.61,-242.97 1063.19,-233 1054.18,-238.56 1059.61,-242.97"/>
</g>
<!-- surface_derivatives_wfinputnode&#45;&gt;surface_derivatives_wfsegs_to_native_aseg -->
<g id="edge7" class="edge">
<title>surface_derivatives_wfinputnode:e&#45;&gt;surface_derivatives_wfsegs_to_native_aseg:w</title>
<path fill="none" stroke="black" d="M1065.19,-362C1079.58,-362 1055.76,-251.78 1058.81,-219.05"/>
<polygon fill="black" stroke="black" points="1061.98,-220.53 1063.19,-210 1055.68,-217.47 1061.98,-220.53"/>
</g>
<!-- surface_derivatives_wfinputnode&#45;&gt;surface_derivatives_wfsegs_to_native_aseg -->
<g id="edge11" class="edge">
<title>surface_derivatives_wfinputnode:e&#45;&gt;surface_derivatives_wfsegs_to_native_aseg:w</title>
<path fill="none" stroke="black" d="M1065.19,-339C1096.75,-339 1064.61,-299.56 1064.19,-268 1064.01,-253.8 1052.28,-211.58 1056.19,-194.4"/>
<polygon fill="black" stroke="black" points="1058.86,-196.67 1063.19,-187 1053.78,-191.85 1058.86,-196.67"/>
</g>
<!-- surface_derivatives_wfinputnode&#45;&gt;surface_derivatives_wfsegs_to_native_aseg -->
<g id="edge15" class="edge">
<title>surface_derivatives_wfinputnode:e&#45;&gt;surface_derivatives_wfsegs_to_native_aseg:w</title>
<path fill="none" stroke="black" d="M1065.19,-316C1086.53,-316 1064.52,-289.34 1064.19,-268 1064.05,-258.7 1056.01,-197.03 1058.89,-173.29"/>
<polygon fill="black" stroke="black" points="1062.17,-174.55 1063.19,-164 1055.81,-171.6 1062.17,-174.55"/>
</g>
<!-- surface_derivatives_wfsegs_to_native_aparc_aseg -->
<g id="node5" class="node">
<title>surface_derivatives_wfsegs_to_native_aparc_aseg</title>
<polygon fill="none" stroke="black" points="1618.19,-152.5 1618.19,-267.5 2200.19,-267.5 2200.19,-152.5 1618.19,-152.5"/>
<text text-anchor="middle" x="1728.19" y="-252.3" font-family="Times,serif" font-size="14.00">IN</text>
<polyline fill="none" stroke="black" points="1618.19,-244.5 1838.19,-244.5 "/>
<text text-anchor="middle" x="1728.19" y="-229.3" font-family="Times,serif" font-size="14.00">inputnode.fsnative2t1w_xfm</text>
<polyline fill="none" stroke="black" points="1618.19,-221.5 1838.19,-221.5 "/>
<text text-anchor="middle" x="1728.19" y="-206.3" font-family="Times,serif" font-size="14.00">inputnode.in_file</text>
<polyline fill="none" stroke="black" points="1618.19,-198.5 1838.19,-198.5 "/>
<text text-anchor="middle" x="1728.19" y="-183.3" font-family="Times,serif" font-size="14.00">inputnode.subject_id</text>
<polyline fill="none" stroke="black" points="1618.19,-175.5 1838.19,-175.5 "/>
<text text-anchor="middle" x="1728.19" y="-160.3" font-family="Times,serif" font-size="14.00">inputnode.subjects_dir</text>
<polyline fill="none" stroke="black" points="1838.19,-152.5 1838.19,-267.5 "/>
<text text-anchor="middle" x="1941.69" y="-244.8" font-family="Times,serif" font-size="14.00">segs_to_native_aparc_aseg</text>
<polyline fill="none" stroke="black" points="1838.19,-229.5 2045.19,-229.5 "/>
<text text-anchor="middle" x="1941.69" y="-206.8" font-family="Times,serif" font-size="14.00"> </text>
<polyline fill="none" stroke="black" points="1838.19,-191.5 2045.19,-191.5 "/>
<text text-anchor="middle" x="1941.69" y="-168.3" font-family="Times,serif" font-size="14.00"> </text>
<polyline fill="none" stroke="black" points="2045.19,-152.5 2045.19,-267.5 "/>
<text text-anchor="middle" x="2122.69" y="-235.3" font-family="Times,serif" font-size="14.00">OUT</text>
<polyline fill="none" stroke="black" points="2045.19,-210.5 2200.19,-210.5 "/>
<text text-anchor="middle" x="2122.69" y="-177.8" font-family="Times,serif" font-size="14.00">outputnode.out_file</text>
</g>
<!-- surface_derivatives_wfinputnode&#45;&gt;surface_derivatives_wfsegs_to_native_aparc_aseg -->
<g id="edge4" class="edge">
<title>surface_derivatives_wfinputnode:e&#45;&gt;surface_derivatives_wfsegs_to_native_aparc_aseg:w</title>
<path fill="none" stroke="black" d="M1065.19,-385C1188.85,-385 1521.2,-354.87 1609.19,-268 1616.47,-260.82 1611.16,-248.47 1610.59,-240.53"/>
<polygon fill="black" stroke="black" points="1613.23,-242.83 1617.19,-233 1607.97,-238.21 1613.23,-242.83"/>
</g>
<!-- surface_derivatives_wfinputnode&#45;&gt;surface_derivatives_wfsegs_to_native_aparc_aseg -->
<g id="edge6" class="edge">
<title>surface_derivatives_wfinputnode:e&#45;&gt;surface_derivatives_wfsegs_to_native_aparc_aseg:w</title>
<path fill="none" stroke="black" d="M1065.19,-362C1187.87,-362 1523.93,-356.21 1609.19,-268 1615.83,-261.13 1610.02,-233.07 1611.61,-218.65"/>
<polygon fill="black" stroke="black" points="1614.71,-220.3 1617.19,-210 1608.83,-216.51 1614.71,-220.3"/>
</g>
<!-- surface_derivatives_wfinputnode&#45;&gt;surface_derivatives_wfsegs_to_native_aparc_aseg -->
<g id="edge10" class="edge">
<title>surface_derivatives_wfinputnode:e&#45;&gt;surface_derivatives_wfsegs_to_native_aparc_aseg:w</title>
<path fill="none" stroke="black" d="M1065.19,-339C1126.15,-339 1566.77,-311.77 1609.19,-268 1619.17,-257.7 1606.98,-212.8 1610.53,-194.65"/>
<polygon fill="black" stroke="black" points="1613.26,-196.84 1617.19,-187 1607.99,-192.24 1613.26,-196.84"/>
</g>
<!-- surface_derivatives_wfinputnode&#45;&gt;surface_derivatives_wfsegs_to_native_aparc_aseg -->
<g id="edge14" class="edge">
<title>surface_derivatives_wfinputnode:e&#45;&gt;surface_derivatives_wfsegs_to_native_aparc_aseg:w</title>
<path fill="none" stroke="black" d="M1065.19,-316C1125.87,-316 1566.53,-311.15 1609.19,-268 1615.78,-261.34 1609.37,-197.45 1612.8,-173.24"/>
<polygon fill="black" stroke="black" points="1616.06,-174.53 1617.19,-164 1609.74,-171.53 1616.06,-174.53"/>
</g>
<!-- surface_derivatives_wfoutputnode -->
<g id="node6" class="node">
<title>surface_derivatives_wfoutputnode</title>
<polygon fill="none" stroke="black" points="1323.69,-0.5 1323.69,-115.5 1556.69,-115.5 1556.69,-0.5 1323.69,-0.5"/>
<text text-anchor="middle" x="1366.69" y="-100.3" font-family="Times,serif" font-size="14.00">IN</text>
<polyline fill="none" stroke="black" points="1323.69,-92.5 1409.69,-92.5 "/>
<text text-anchor="middle" x="1366.69" y="-77.3" font-family="Times,serif" font-size="14.00">curv</text>
<polyline fill="none" stroke="black" points="1323.69,-69.5 1409.69,-69.5 "/>
<text text-anchor="middle" x="1366.69" y="-54.3" font-family="Times,serif" font-size="14.00">inflated</text>
<polyline fill="none" stroke="black" points="1323.69,-46.5 1409.69,-46.5 "/>
<text text-anchor="middle" x="1366.69" y="-31.3" font-family="Times,serif" font-size="14.00">out_aparc</text>
<polyline fill="none" stroke="black" points="1323.69,-23.5 1409.69,-23.5 "/>
<text text-anchor="middle" x="1366.69" y="-8.3" font-family="Times,serif" font-size="14.00">out_aseg</text>
<polyline fill="none" stroke="black" points="1409.69,-0.5 1409.69,-115.5 "/>
<text text-anchor="middle" x="1458.69" y="-92.8" font-family="Times,serif" font-size="14.00">outputnode</text>
<polyline fill="none" stroke="black" points="1409.69,-77.5 1507.69,-77.5 "/>
<text text-anchor="middle" x="1458.69" y="-54.8" font-family="Times,serif" font-size="14.00">utility</text>
<polyline fill="none" stroke="black" points="1409.69,-39.5 1507.69,-39.5 "/>
<text text-anchor="middle" x="1458.69" y="-16.3" font-family="Times,serif" font-size="14.00"> </text>
<polyline fill="none" stroke="black" points="1507.69,-0.5 1507.69,-115.5 "/>
<text text-anchor="middle" x="1532.19" y="-54.3" font-family="Times,serif" font-size="14.00">OUT</text>
</g>
<!-- surface_derivatives_wfgifti_surface_wf&#45;&gt;surface_derivatives_wfoutputnode -->
<g id="edge2" class="edge">
<title>surface_derivatives_wfgifti_surface_wf:e&#45;&gt;surface_derivatives_wfoutputnode:w</title>
<path fill="none" stroke="black" d="M531.19,-187C547.15,-187 527.33,-162.67 539.19,-152 602.23,-95.27 1194.53,-60.3 1312.07,-58.11"/>
<polygon fill="black" stroke="black" points="1312.23,-61.61 1322.19,-58 1312.16,-54.61 1312.23,-61.61"/>
</g>
<!-- surface_derivatives_wfgifti_morphometrics_wf&#45;&gt;surface_derivatives_wfoutputnode -->
<g id="edge1" class="edge">
<title>surface_derivatives_wfgifti_morphometrics_wf:e&#45;&gt;surface_derivatives_wfoutputnode:w</title>
<path fill="none" stroke="black" d="M1047.19,-193C1065.76,-193 1042.51,-165.56 1055.19,-152 1094.99,-109.43 1244.49,-83.7 1312.08,-81.2"/>
<polygon fill="black" stroke="black" points="1312.26,-84.7 1322.19,-81 1312.13,-77.7 1312.26,-84.7"/>
</g>
<!-- surface_derivatives_wfsegs_to_native_aseg&#45;&gt;surface_derivatives_wfoutputnode -->
<g id="edge17" class="edge">
<title>surface_derivatives_wfsegs_to_native_aseg:e&#45;&gt;surface_derivatives_wfoutputnode:w</title>
<path fill="none" stroke="black" d="M1601.19,-181C1614.09,-181 1608.87,-161.54 1600.19,-152 1516.66,-60.16 1405.57,-208.88 1323.19,-116 1295.04,-84.26 1278.78,-23.15 1312.06,-13.34"/>
<polygon fill="black" stroke="black" points="1312.74,-16.78 1322.19,-12 1311.82,-9.84 1312.74,-16.78"/>
</g>
<!-- surface_derivatives_wfsegs_to_native_aparc_aseg&#45;&gt;surface_derivatives_wfoutputnode -->
<g id="edge16" class="edge">
<title>surface_derivatives_wfsegs_to_native_aparc_aseg:e&#45;&gt;surface_derivatives_wfoutputnode:w</title>
<path fill="none" stroke="black" d="M2201.19,-181C2214.09,-181 2209.28,-161.15 2200.19,-152 2131.46,-82.81 1391.16,-185.94 1323.19,-116 1300.85,-93 1288.95,-46.72 1312.05,-36.87"/>
<polygon fill="black" stroke="black" points="1312.99,-40.26 1322.19,-35 1311.72,-33.37 1312.99,-40.26"/>
</g>
</g>
</svg>
