<?xml version="1.0" encoding="UTF-8" standalone="no"?>
<!DOCTYPE svg PUBLIC "-//W3C//DTD SVG 1.1//EN"
 "http://www.w3.org/Graphics/SVG/1.1/DTD/svg11.dtd">
<!-- Generated by graphviz version 2.43.0 (0)
 -->
<!-- Title: %3 Pages: 1 -->
<svg width="482pt" height="332pt"
 viewBox="0.00 0.00 482.06 332.00" xmlns="http://www.w3.org/2000/svg" xmlns:xlink="http://www.w3.org/1999/xlink">
<g id="graph0" class="graph" transform="scale(1 1) rotate(0) translate(4 328)">
<title>%3</title>
<polygon fill="white" stroke="transparent" points="-4,4 -4,-328 478.06,-328 478.06,4 -4,4"/>
<!-- poutputnode (utility) -->
<g id="node1" class="node">
<title>poutputnode (utility)</title>
<ellipse fill="none" stroke="black" cx="180.95" cy="-90" rx="107.48" ry="18"/>
<text text-anchor="middle" x="180.95" y="-86.3" font-family="Times,serif" font-size="14.00">poutputnode (utility)</text>
</g>
<!-- outputnode (utility) -->
<g id="node2" class="node">
<title>outputnode (utility)</title>
<ellipse fill="none" stroke="black" cx="180.95" cy="-18" rx="101.28" ry="18"/>
<text text-anchor="middle" x="180.95" y="-14.3" font-family="Times,serif" font-size="14.00">outputnode (utility)</text>
</g>
<!-- poutputnode (utility)&#45;&gt;outputnode (utility) -->
<g id="edge1" class="edge">
<title>poutputnode (utility)&#45;&gt;outputnode (utility)</title>
<path fill="none" stroke="black" d="M180.95,-71.7C180.95,-63.98 180.95,-54.71 180.95,-46.11"/>
<polygon fill="black" stroke="black" points="184.45,-46.1 180.95,-36.1 177.45,-46.1 184.45,-46.1"/>
</g>
<!-- inputnode (utility) -->
<g id="node3" class="node">
<title>inputnode (utility)</title>
<ellipse fill="none" stroke="black" cx="369.95" cy="-306" rx="94.78" ry="18"/>
<text text-anchor="middle" x="369.95" y="-302.3" font-family="Times,serif" font-size="14.00">inputnode (utility)</text>
</g>
<!-- split_desc (templateflow) -->
<g id="node4" class="node">
<title>split_desc (templateflow)</title>
<ellipse fill="none" stroke="black" cx="135.95" cy="-234" rx="126.98" ry="18"/>
<text text-anchor="middle" x="135.95" y="-230.3" font-family="Times,serif" font-size="14.00">split_desc (templateflow)</text>
</g>
<!-- inputnode (utility)&#45;&gt;split_desc (templateflow) -->
<g id="edge2" class="edge">
<title>inputnode (utility)&#45;&gt;split_desc (templateflow)</title>
<path fill="none" stroke="black" d="M321.47,-290.5C285.43,-279.72 236.01,-264.93 197.23,-253.33"/>
<polygon fill="black" stroke="black" points="198.2,-249.97 187.62,-250.46 196.2,-256.68 198.2,-249.97"/>
</g>
<!-- trunc_mov (ants) -->
<g id="node5" class="node">
<title>trunc_mov (ants)</title>
<ellipse fill="none" stroke="black" cx="369.95" cy="-234" rx="89.08" ry="18"/>
<text text-anchor="middle" x="369.95" y="-230.3" font-family="Times,serif" font-size="14.00">trunc_mov (ants)</text>
</g>
<!-- inputnode (utility)&#45;&gt;trunc_mov (ants) -->
<g id="edge3" class="edge">
<title>inputnode (utility)&#45;&gt;trunc_mov (ants)</title>
<path fill="none" stroke="black" d="M369.95,-287.7C369.95,-279.98 369.95,-270.71 369.95,-262.11"/>
<polygon fill="black" stroke="black" points="373.45,-262.1 369.95,-252.1 366.45,-262.1 373.45,-262.1"/>
</g>
<!-- registration (norm) -->
<g id="node6" class="node">
<title>registration (norm)</title>
<ellipse fill="none" stroke="black" cx="373.95" cy="-162" rx="100.18" ry="18"/>
<text text-anchor="middle" x="373.95" y="-158.3" font-family="Times,serif" font-size="14.00">registration (norm)</text>
</g>
<!-- inputnode (utility)&#45;&gt;registration (norm) -->
<g id="edge4" class="edge">
<title>inputnode (utility)&#45;&gt;registration (norm)</title>
<path fill="none" stroke="black" d="M419.1,-290.56C437.79,-282.41 457.16,-270.11 467.95,-252 476.14,-238.26 476.02,-229.82 467.95,-216 459.42,-201.4 445.22,-190.5 430.41,-182.52"/>
<polygon fill="black" stroke="black" points="431.66,-179.23 421.15,-177.92 428.54,-185.5 431.66,-179.23"/>
</g>
<!-- split_desc (templateflow)&#45;&gt;poutputnode (utility) -->
<g id="edge7" class="edge">
<title>split_desc (templateflow)&#45;&gt;poutputnode (utility)</title>
<path fill="none" stroke="black" d="M62.59,-219.27C41.05,-211.46 19.82,-199.21 6.95,-180 -1.96,-166.71 -2.57,-156.86 6.95,-144 23.36,-121.85 48.8,-108.65 75.22,-100.86"/>
<polygon fill="black" stroke="black" points="76.23,-104.21 84.98,-98.23 74.41,-97.45 76.23,-104.21"/>
</g>
<!-- split_desc (templateflow)&#45;&gt;registration (norm) -->
<g id="edge6" class="edge">
<title>split_desc (templateflow)&#45;&gt;registration (norm)</title>
<path fill="none" stroke="black" d="M188.48,-217.55C225.55,-206.65 275.29,-192.02 313.93,-180.65"/>
<polygon fill="black" stroke="black" points="315.4,-183.87 324,-177.69 313.42,-177.15 315.4,-183.87"/>
</g>
<!-- tf_select (templateflow) -->
<g id="node7" class="node">
<title>tf_select (templateflow)</title>
<ellipse fill="none" stroke="black" cx="135.95" cy="-162" rx="120.48" ry="18"/>
<text text-anchor="middle" x="135.95" y="-158.3" font-family="Times,serif" font-size="14.00">tf_select (templateflow)</text>
</g>
<!-- split_desc (templateflow)&#45;&gt;tf_select (templateflow) -->
<g id="edge5" class="edge">
<title>split_desc (templateflow)&#45;&gt;tf_select (templateflow)</title>
<path fill="none" stroke="black" d="M135.95,-215.7C135.95,-207.98 135.95,-198.71 135.95,-190.11"/>
<polygon fill="black" stroke="black" points="139.45,-190.1 135.95,-180.1 132.45,-190.1 139.45,-190.1"/>
</g>
<!-- trunc_mov (ants)&#45;&gt;registration (norm) -->
<g id="edge8" class="edge">
<title>trunc_mov (ants)&#45;&gt;registration (norm)</title>
<path fill="none" stroke="black" d="M370.94,-215.7C371.38,-207.98 371.91,-198.71 372.4,-190.11"/>
<polygon fill="black" stroke="black" points="375.9,-190.29 372.97,-180.1 368.91,-189.89 375.9,-190.29"/>
</g>
<!-- registration (norm)&#45;&gt;poutputnode (utility) -->
<g id="edge9" class="edge">
<title>registration (norm)&#45;&gt;poutputnode (utility)</title>
<path fill="none" stroke="black" d="M331.6,-145.64C302.76,-135.18 264.39,-121.26 233.59,-110.09"/>
<polygon fill="black" stroke="black" points="234.47,-106.69 223.87,-106.57 232.08,-113.27 234.47,-106.69"/>
</g>
</g>
</svg>
