<?xml version="1.0" encoding="UTF-8" standalone="no"?>
<!DOCTYPE svg PUBLIC "-//W3C//DTD SVG 1.1//EN"
 "http://www.w3.org/Graphics/SVG/1.1/DTD/svg11.dtd">
<!-- Generated by graphviz version 2.43.0 (0)
 -->
<!-- Title: structs Pages: 1 -->
<svg width="1156pt" height="1050pt"
 viewBox="0.00 0.00 1156.28 1050.00" xmlns="http://www.w3.org/2000/svg" xmlns:xlink="http://www.w3.org/1999/xlink">
<g id="graph0" class="graph" transform="scale(1 1) rotate(0) translate(4 1046)">
<title>structs</title>
<polygon fill="white" stroke="transparent" points="-4,4 -4,-1046 1152.28,-1046 1152.28,4 -4,4"/>
<!-- gifti_surface_wfinputnode -->
<g id="node1" class="node">
<title>gifti_surface_wfinputnode</title>
<polygon fill="none" stroke="black" points="403.43,-949.5 403.43,-1041.5 669.43,-1041.5 669.43,-949.5 403.43,-949.5"/>
<text text-anchor="middle" x="420.43" y="-991.8" font-family="Times,serif" font-size="14.00">IN</text>
<polyline fill="none" stroke="black" points="437.43,-949.5 437.43,-1041.5 "/>
<text text-anchor="middle" x="481.93" y="-1022.8" font-family="Times,serif" font-size="14.00">inputnode</text>
<polyline fill="none" stroke="black" points="437.43,-1011.5 526.43,-1011.5 "/>
<text text-anchor="middle" x="481.93" y="-992.3" font-family="Times,serif" font-size="14.00">utility</text>
<polyline fill="none" stroke="black" points="437.43,-980.5 526.43,-980.5 "/>
<text text-anchor="middle" x="481.93" y="-961.3" font-family="Times,serif" font-size="14.00"> </text>
<polyline fill="none" stroke="black" points="526.43,-949.5 526.43,-1041.5 "/>
<text text-anchor="middle" x="597.93" y="-1026.3" font-family="Times,serif" font-size="14.00">OUT</text>
<polyline fill="none" stroke="black" points="526.43,-1018.5 669.43,-1018.5 "/>
<text text-anchor="middle" x="597.93" y="-1003.3" font-family="Times,serif" font-size="14.00">fsnative2t1w_xfm</text>
<polyline fill="none" stroke="black" points="526.43,-995.5 669.43,-995.5 "/>
<text text-anchor="middle" x="597.93" y="-980.3" font-family="Times,serif" font-size="14.00">subject_id</text>
<polyline fill="none" stroke="black" points="526.43,-972.5 669.43,-972.5 "/>
<text text-anchor="middle" x="597.93" y="-957.3" font-family="Times,serif" font-size="14.00">subjects_dir</text>
</g>
<!-- gifti_surface_wfget_surfaces -->
<g id="node2" class="node">
<title>gifti_surface_wfget_surfaces</title>
<polygon fill="none" stroke="black" points="44.43,-728.5 44.43,-912.5 338.43,-912.5 338.43,-728.5 44.43,-728.5"/>
<text text-anchor="middle" x="95.93" y="-878.3" font-family="Times,serif" font-size="14.00">IN</text>
<polyline fill="none" stroke="black" points="44.43,-851.5 147.43,-851.5 "/>
<text text-anchor="middle" x="95.93" y="-817.3" font-family="Times,serif" font-size="14.00">subject_id</text>
<polyline fill="none" stroke="black" points="44.43,-790.5 147.43,-790.5 "/>
<text text-anchor="middle" x="95.93" y="-755.8" font-family="Times,serif" font-size="14.00">subjects_dir</text>
<polyline fill="none" stroke="black" points="147.43,-728.5 147.43,-912.5 "/>
<text text-anchor="middle" x="200.93" y="-878.3" font-family="Times,serif" font-size="14.00">get_surfaces</text>
<polyline fill="none" stroke="black" points="147.43,-851.5 254.43,-851.5 "/>
<text text-anchor="middle" x="200.93" y="-817.3" font-family="Times,serif" font-size="14.00">io</text>
<polyline fill="none" stroke="black" points="147.43,-790.5 254.43,-790.5 "/>
<text text-anchor="middle" x="200.93" y="-755.8" font-family="Times,serif" font-size="14.00"> </text>
<polyline fill="none" stroke="black" points="254.43,-728.5 254.43,-912.5 "/>
<text text-anchor="middle" x="296.43" y="-897.3" font-family="Times,serif" font-size="14.00">OUT</text>
<polyline fill="none" stroke="black" points="254.43,-889.5 338.43,-889.5 "/>
<text text-anchor="middle" x="296.43" y="-874.3" font-family="Times,serif" font-size="14.00">curv</text>
<polyline fill="none" stroke="black" points="254.43,-866.5 338.43,-866.5 "/>
<text text-anchor="middle" x="296.43" y="-851.3" font-family="Times,serif" font-size="14.00">graymid</text>
<polyline fill="none" stroke="black" points="254.43,-843.5 338.43,-843.5 "/>
<text text-anchor="middle" x="296.43" y="-828.3" font-family="Times,serif" font-size="14.00">inflated</text>
<polyline fill="none" stroke="black" points="254.43,-820.5 338.43,-820.5 "/>
<text text-anchor="middle" x="296.43" y="-805.3" font-family="Times,serif" font-size="14.00">pial</text>
<polyline fill="none" stroke="black" points="254.43,-797.5 338.43,-797.5 "/>
<text text-anchor="middle" x="296.43" y="-782.3" font-family="Times,serif" font-size="14.00">sulc</text>
<polyline fill="none" stroke="black" points="254.43,-774.5 338.43,-774.5 "/>
<text text-anchor="middle" x="296.43" y="-759.3" font-family="Times,serif" font-size="14.00">thickness</text>
<polyline fill="none" stroke="black" points="254.43,-751.5 338.43,-751.5 "/>
<text text-anchor="middle" x="296.43" y="-736.3" font-family="Times,serif" font-size="14.00">white</text>
</g>
<!-- gifti_surface_wfinputnode&#45;&gt;gifti_surface_wfget_surfaces -->
<g id="edge12" class="edge">
<title>gifti_surface_wfinputnode:e&#45;&gt;gifti_surface_wfget_surfaces:w</title>
<path fill="none" stroke="black" d="M670.43,-983.5C685.77,-983.5 680.12,-960 669.43,-949 572.47,-849.23 140.48,-1013.64 44.43,-913 18.98,-886.34 5.44,-832.85 33.39,-823.06"/>
<polygon fill="black" stroke="black" points="34.08,-826.49 43.43,-821.5 33.01,-819.58 34.08,-826.49"/>
</g>
<!-- gifti_surface_wfinputnode&#45;&gt;gifti_surface_wfget_surfaces -->
<g id="edge14" class="edge">
<title>gifti_surface_wfinputnode:e&#45;&gt;gifti_surface_wfget_surfaces:w</title>
<path fill="none" stroke="black" d="M670.43,-960.5C675.56,-960.5 673.11,-952.57 669.43,-949 569.63,-852.07 140.26,-1013.85 44.43,-913 -0.09,-866.15 -22.38,-770.32 33.38,-760.34"/>
<polygon fill="black" stroke="black" points="33.76,-763.83 43.43,-759.5 33.17,-756.85 33.76,-763.83"/>
</g>
<!-- gifti_surface_wfsave_midthickness -->
<g id="node5" class="node">
<title>gifti_surface_wfsave_midthickness</title>
<polygon fill="none" stroke="black" points="590.43,-470.5 590.43,-562.5 930.43,-562.5 930.43,-470.5 590.43,-470.5"/>
<text text-anchor="middle" x="651.43" y="-547.3" font-family="Times,serif" font-size="14.00">IN</text>
<polyline fill="none" stroke="black" points="590.43,-539.5 712.43,-539.5 "/>
<text text-anchor="middle" x="651.43" y="-524.3" font-family="Times,serif" font-size="14.00">base_directory</text>
<polyline fill="none" stroke="black" points="590.43,-516.5 712.43,-516.5 "/>
<text text-anchor="middle" x="651.43" y="-501.3" font-family="Times,serif" font-size="14.00">container</text>
<polyline fill="none" stroke="black" points="590.43,-493.5 712.43,-493.5 "/>
<text text-anchor="middle" x="651.43" y="-478.3" font-family="Times,serif" font-size="14.00">surf.@graymid</text>
<polyline fill="none" stroke="black" points="712.43,-470.5 712.43,-562.5 "/>
<text text-anchor="middle" x="787.43" y="-543.8" font-family="Times,serif" font-size="14.00">save_midthickness</text>
<polyline fill="none" stroke="black" points="712.43,-532.5 862.43,-532.5 "/>
<text text-anchor="middle" x="787.43" y="-513.3" font-family="Times,serif" font-size="14.00">io</text>
<polyline fill="none" stroke="black" points="712.43,-501.5 862.43,-501.5 "/>
<text text-anchor="middle" x="787.43" y="-482.3" font-family="Times,serif" font-size="14.00"> </text>
<polyline fill="none" stroke="black" points="862.43,-470.5 862.43,-562.5 "/>
<text text-anchor="middle" x="896.43" y="-535.8" font-family="Times,serif" font-size="14.00">OUT</text>
<polyline fill="none" stroke="black" points="862.43,-516.5 930.43,-516.5 "/>
<text text-anchor="middle" x="896.43" y="-489.8" font-family="Times,serif" font-size="14.00">out_file</text>
</g>
<!-- gifti_surface_wfinputnode&#45;&gt;gifti_surface_wfsave_midthickness -->
<g id="edge13" class="edge">
<title>gifti_surface_wfinputnode:e&#45;&gt;gifti_surface_wfsave_midthickness:w</title>
<path fill="none" stroke="black" d="M670.43,-983.5C735.73,-983.5 876.08,-880.16 683.43,-599 658.38,-562.44 615.79,-599.35 590.43,-563 577.99,-545.17 567.48,-516.27 579.55,-507.27"/>
<polygon fill="black" stroke="black" points="580.74,-510.57 589.43,-504.5 578.86,-503.83 580.74,-510.57"/>
</g>
<!-- gifti_surface_wfinputnode&#45;&gt;gifti_surface_wfsave_midthickness -->
<g id="edge15" class="edge">
<title>gifti_surface_wfinputnode:e&#45;&gt;gifti_surface_wfsave_midthickness:w</title>
<path fill="none" stroke="black" d="M670.43,-960.5C710.66,-960.5 670.13,-633.5 649.43,-599 633.62,-572.66 605.85,-589.57 590.43,-563 585.25,-554.09 579.66,-541.58 581.19,-534.33"/>
<polygon fill="black" stroke="black" points="583.29,-537.13 589.43,-528.5 579.24,-531.42 583.29,-537.13"/>
</g>
<!-- gifti_surface_wffix_surfs -->
<g id="node9" class="node">
<title>gifti_surface_wffix_surfs</title>
<polygon fill="none" stroke="black" points="880.93,-106.5 880.93,-175.5 1141.93,-175.5 1141.93,-106.5 880.93,-106.5"/>
<text text-anchor="middle" x="938.93" y="-160.3" font-family="Times,serif" font-size="14.00">IN</text>
<polyline fill="none" stroke="black" points="880.93,-152.5 996.93,-152.5 "/>
<text text-anchor="middle" x="938.93" y="-137.3" font-family="Times,serif" font-size="14.00">in_file</text>
<polyline fill="none" stroke="black" points="880.93,-129.5 996.93,-129.5 "/>
<text text-anchor="middle" x="938.93" y="-114.3" font-family="Times,serif" font-size="14.00">transform_file</text>
<polyline fill="none" stroke="black" points="996.93,-106.5 996.93,-175.5 "/>
<text text-anchor="middle" x="1035.43" y="-160.3" font-family="Times,serif" font-size="14.00">fix_surfs</text>
<polyline fill="none" stroke="black" points="996.93,-152.5 1073.93,-152.5 "/>
<text text-anchor="middle" x="1035.43" y="-137.3" font-family="Times,serif" font-size="14.00">surf</text>
<polyline fill="none" stroke="black" points="996.93,-129.5 1073.93,-129.5 "/>
<text text-anchor="middle" x="1035.43" y="-114.3" font-family="Times,serif" font-size="14.00"> </text>
<polyline fill="none" stroke="black" points="1073.93,-106.5 1073.93,-175.5 "/>
<text text-anchor="middle" x="1107.93" y="-154.8" font-family="Times,serif" font-size="14.00">OUT</text>
<polyline fill="none" stroke="black" points="1073.93,-141.5 1141.93,-141.5 "/>
<text text-anchor="middle" x="1107.93" y="-120.3" font-family="Times,serif" font-size="14.00">out_file</text>
</g>
<!-- gifti_surface_wfinputnode&#45;&gt;gifti_surface_wffix_surfs -->
<g id="edge11" class="edge">
<title>gifti_surface_wfinputnode:e&#45;&gt;gifti_surface_wffix_surfs:w</title>
<path fill="none" stroke="black" d="M670.43,-1007.5C804.1,-1007.5 958.43,-710.92 958.43,-646.5 958.43,-646.5 958.43,-646.5 958.43,-375 958.43,-319.45 838.51,-145.06 869.65,-120.81"/>
<polygon fill="black" stroke="black" points="870.78,-124.13 879.43,-118 868.85,-117.4 870.78,-124.13"/>
</g>
<!-- gifti_surface_wfmidthickness -->
<g id="node3" class="node">
<title>gifti_surface_wfmidthickness</title>
<polygon fill="none" stroke="black" points="385.93,-611 385.93,-680 640.93,-680 640.93,-611 385.93,-611"/>
<text text-anchor="middle" x="423.93" y="-664.8" font-family="Times,serif" font-size="14.00">IN</text>
<polyline fill="none" stroke="black" points="385.93,-657 461.93,-657 "/>
<text text-anchor="middle" x="423.93" y="-641.8" font-family="Times,serif" font-size="14.00">graymid</text>
<polyline fill="none" stroke="black" points="385.93,-634 461.93,-634 "/>
<text text-anchor="middle" x="423.93" y="-618.8" font-family="Times,serif" font-size="14.00">in_file</text>
<polyline fill="none" stroke="black" points="461.93,-611 461.93,-680 "/>
<text text-anchor="middle" x="517.43" y="-664.8" font-family="Times,serif" font-size="14.00">midthickness</text>
<polyline fill="none" stroke="black" points="461.93,-657 572.93,-657 "/>
<text text-anchor="middle" x="517.43" y="-641.8" font-family="Times,serif" font-size="14.00">freesurfer</text>
<polyline fill="none" stroke="black" points="461.93,-634 572.93,-634 "/>
<text text-anchor="middle" x="517.43" y="-618.8" font-family="Times,serif" font-size="14.00"> </text>
<polyline fill="none" stroke="black" points="572.93,-611 572.93,-680 "/>
<text text-anchor="middle" x="606.93" y="-659.3" font-family="Times,serif" font-size="14.00">OUT</text>
<polyline fill="none" stroke="black" points="572.93,-646 640.93,-646 "/>
<text text-anchor="middle" x="606.93" y="-624.8" font-family="Times,serif" font-size="14.00">out_file</text>
</g>
<!-- gifti_surface_wfget_surfaces&#45;&gt;gifti_surface_wfmidthickness -->
<g id="edge4" class="edge">
<title>gifti_surface_wfget_surfaces:e&#45;&gt;gifti_surface_wfmidthickness:w</title>
<path fill="none" stroke="black" d="M339.43,-855.5C349.87,-855.5 367.36,-694.72 379.56,-654.52"/>
<polygon fill="black" stroke="black" points="382.76,-655.96 384.43,-645.5 376.6,-652.64 382.76,-655.96"/>
</g>
<!-- gifti_surface_wfget_surfaces&#45;&gt;gifti_surface_wfmidthickness -->
<g id="edge9" class="edge">
<title>gifti_surface_wfget_surfaces:e&#45;&gt;gifti_surface_wfmidthickness:w</title>
<path fill="none" stroke="black" d="M339.43,-739.5C364.88,-739.5 361.78,-715.55 371.43,-692 376.04,-680.75 371.89,-645.33 377.05,-629.85"/>
<polygon fill="black" stroke="black" points="379.82,-632.04 384.43,-622.5 374.88,-627.08 379.82,-632.04"/>
</g>
<!-- gifti_surface_wfsurfmorph_list -->
<g id="node4" class="node">
<title>gifti_surface_wfsurfmorph_list</title>
<polygon fill="none" stroke="black" points="43.93,-599.5 43.93,-691.5 252.93,-691.5 252.93,-599.5 43.93,-599.5"/>
<text text-anchor="middle" x="63.43" y="-676.3" font-family="Times,serif" font-size="14.00">IN</text>
<polyline fill="none" stroke="black" points="43.93,-668.5 82.93,-668.5 "/>
<text text-anchor="middle" x="63.43" y="-653.3" font-family="Times,serif" font-size="14.00">in1</text>
<polyline fill="none" stroke="black" points="43.93,-645.5 82.93,-645.5 "/>
<text text-anchor="middle" x="63.43" y="-630.3" font-family="Times,serif" font-size="14.00">in2</text>
<polyline fill="none" stroke="black" points="43.93,-622.5 82.93,-622.5 "/>
<text text-anchor="middle" x="63.43" y="-607.3" font-family="Times,serif" font-size="14.00">in3</text>
<polyline fill="none" stroke="black" points="82.93,-599.5 82.93,-691.5 "/>
<text text-anchor="middle" x="143.43" y="-672.8" font-family="Times,serif" font-size="14.00">surfmorph_list</text>
<polyline fill="none" stroke="black" points="82.93,-661.5 203.93,-661.5 "/>
<text text-anchor="middle" x="143.43" y="-642.3" font-family="Times,serif" font-size="14.00">utility</text>
<polyline fill="none" stroke="black" points="82.93,-630.5 203.93,-630.5 "/>
<text text-anchor="middle" x="143.43" y="-611.3" font-family="Times,serif" font-size="14.00"> </text>
<polyline fill="none" stroke="black" points="203.93,-599.5 203.93,-691.5 "/>
<text text-anchor="middle" x="228.43" y="-664.8" font-family="Times,serif" font-size="14.00">OUT</text>
<polyline fill="none" stroke="black" points="203.93,-645.5 252.93,-645.5 "/>
<text text-anchor="middle" x="228.43" y="-618.8" font-family="Times,serif" font-size="14.00">out</text>
</g>
<!-- gifti_surface_wfget_surfaces&#45;&gt;gifti_surface_wfsurfmorph_list -->
<g id="edge3" class="edge">
<title>gifti_surface_wfget_surfaces:e&#45;&gt;gifti_surface_wfsurfmorph_list:w</title>
<path fill="none" stroke="black" d="M339.43,-878.5C406.32,-878.5 382.94,-777.93 338.43,-728 250.54,-629.4 131.59,-790.35 43.43,-692 21.8,-667.87 9.08,-621.7 32.57,-612.22"/>
<polygon fill="black" stroke="black" points="33.18,-615.67 42.43,-610.5 31.98,-608.77 33.18,-615.67"/>
</g>
<!-- gifti_surface_wfget_surfaces&#45;&gt;gifti_surface_wfsurfmorph_list -->
<g id="edge7" class="edge">
<title>gifti_surface_wfget_surfaces:e&#45;&gt;gifti_surface_wfsurfmorph_list:w</title>
<path fill="none" stroke="black" d="M339.43,-785.5C364.99,-785.5 355.54,-746.99 338.43,-728 250.01,-629.87 131.83,-790.14 43.43,-692 28.74,-675.7 19.62,-645.26 32.74,-636.14"/>
<polygon fill="black" stroke="black" points="33.7,-639.51 42.43,-633.5 31.86,-632.76 33.7,-639.51"/>
</g>
<!-- gifti_surface_wfget_surfaces&#45;&gt;gifti_surface_wfsurfmorph_list -->
<g id="edge8" class="edge">
<title>gifti_surface_wfget_surfaces:e&#45;&gt;gifti_surface_wfsurfmorph_list:w</title>
<path fill="none" stroke="black" d="M339.43,-762.5C354.77,-762.5 348.76,-739.34 338.43,-728 249.45,-630.39 132.41,-789.61 43.43,-692 36.32,-684.21 31.27,-670.82 33.78,-663.22"/>
<polygon fill="black" stroke="black" points="36.02,-665.94 42.43,-657.5 32.16,-660.1 36.02,-665.94"/>
</g>
<!-- gifti_surface_wfsurface_list -->
<g id="node7" class="node">
<title>gifti_surface_wfsurface_list</title>
<polygon fill="none" stroke="black" points="458.43,-318.5 458.43,-433.5 644.43,-433.5 644.43,-318.5 458.43,-318.5"/>
<text text-anchor="middle" x="477.93" y="-418.3" font-family="Times,serif" font-size="14.00">IN</text>
<polyline fill="none" stroke="black" points="458.43,-410.5 497.43,-410.5 "/>
<text text-anchor="middle" x="477.93" y="-395.3" font-family="Times,serif" font-size="14.00">in1</text>
<polyline fill="none" stroke="black" points="458.43,-387.5 497.43,-387.5 "/>
<text text-anchor="middle" x="477.93" y="-372.3" font-family="Times,serif" font-size="14.00">in2</text>
<polyline fill="none" stroke="black" points="458.43,-364.5 497.43,-364.5 "/>
<text text-anchor="middle" x="477.93" y="-349.3" font-family="Times,serif" font-size="14.00">in3</text>
<polyline fill="none" stroke="black" points="458.43,-341.5 497.43,-341.5 "/>
<text text-anchor="middle" x="477.93" y="-326.3" font-family="Times,serif" font-size="14.00">in4</text>
<polyline fill="none" stroke="black" points="497.43,-318.5 497.43,-433.5 "/>
<text text-anchor="middle" x="546.43" y="-410.8" font-family="Times,serif" font-size="14.00">surface_list</text>
<polyline fill="none" stroke="black" points="497.43,-395.5 595.43,-395.5 "/>
<text text-anchor="middle" x="546.43" y="-372.8" font-family="Times,serif" font-size="14.00">utility</text>
<polyline fill="none" stroke="black" points="497.43,-357.5 595.43,-357.5 "/>
<text text-anchor="middle" x="546.43" y="-334.3" font-family="Times,serif" font-size="14.00"> </text>
<polyline fill="none" stroke="black" points="595.43,-318.5 595.43,-433.5 "/>
<text text-anchor="middle" x="619.93" y="-401.3" font-family="Times,serif" font-size="14.00">OUT</text>
<polyline fill="none" stroke="black" points="595.43,-376.5 644.43,-376.5 "/>
<text text-anchor="middle" x="619.93" y="-343.8" font-family="Times,serif" font-size="14.00">out</text>
</g>
<!-- gifti_surface_wfget_surfaces&#45;&gt;gifti_surface_wfsurface_list -->
<g id="edge5" class="edge">
<title>gifti_surface_wfget_surfaces:e&#45;&gt;gifti_surface_wfsurface_list:w</title>
<path fill="none" stroke="black" d="M339.43,-832.5C444.5,-832.5 346.96,-699.85 376.43,-599 398.87,-522.2 427.78,-511.3 448.43,-434 450.26,-427.17 449.19,-381.57 452.96,-361.95"/>
<polygon fill="black" stroke="black" points="456.09,-363.51 457.43,-353 449.83,-360.38 456.09,-363.51"/>
</g>
<!-- gifti_surface_wfget_surfaces&#45;&gt;gifti_surface_wfsurface_list -->
<g id="edge6" class="edge">
<title>gifti_surface_wfget_surfaces:e&#45;&gt;gifti_surface_wfsurface_list:w</title>
<path fill="none" stroke="black" d="M339.43,-808.5C362.91,-808.5 364.16,-622.26 367.43,-599 375.49,-541.61 353.92,-517.98 386.43,-470 404.3,-443.62 430.45,-460.31 448.43,-434 453.83,-426.09 449.12,-398.52 451.4,-384.43"/>
<polygon fill="black" stroke="black" points="454.46,-386.17 457.43,-376 448.76,-382.1 454.46,-386.17"/>
</g>
<!-- gifti_surface_wfget_surfaces&#45;&gt;gifti_surface_wfsurface_list -->
<g id="edge10" class="edge">
<title>gifti_surface_wfget_surfaces:e&#45;&gt;gifti_surface_wfsurface_list:w</title>
<path fill="none" stroke="black" d="M339.43,-739.5C369.5,-739.5 346.73,-494.31 364.43,-470 388.33,-437.16 421.99,-464.83 448.43,-434 455.21,-426.09 450.23,-413.72 450.27,-406"/>
<polygon fill="black" stroke="black" points="452.73,-408.49 457.43,-399 447.83,-403.49 452.73,-408.49"/>
</g>
<!-- gifti_surface_wfmidthickness&#45;&gt;gifti_surface_wfsave_midthickness -->
<g id="edge16" class="edge">
<title>gifti_surface_wfmidthickness:e&#45;&gt;gifti_surface_wfsave_midthickness:w</title>
<path fill="none" stroke="black" d="M642.43,-628.5C650.44,-628.5 644.83,-617.76 641.43,-610.5 628.29,-582.45 602.96,-591.33 590.43,-563 577.37,-533.5 558.05,-491.9 579.57,-483.15"/>
<polygon fill="black" stroke="black" points="580.15,-486.6 589.43,-481.5 578.99,-479.7 580.15,-486.6"/>
</g>
<!-- gifti_surface_wfmorphs2gii -->
<g id="node6" class="node">
<title>gifti_surface_wfmorphs2gii</title>
<polygon fill="none" stroke="black" points="134.93,-341.5 134.93,-410.5 439.93,-410.5 439.93,-341.5 134.93,-341.5"/>
<text text-anchor="middle" x="194.43" y="-389.8" font-family="Times,serif" font-size="14.00">IN</text>
<polyline fill="none" stroke="black" points="134.93,-376.5 253.93,-376.5 "/>
<text text-anchor="middle" x="194.43" y="-355.3" font-family="Times,serif" font-size="14.00">scalarcurv_file</text>
<polyline fill="none" stroke="black" points="253.93,-341.5 253.93,-410.5 "/>
<text text-anchor="middle" x="302.93" y="-395.3" font-family="Times,serif" font-size="14.00">morphs2gii</text>
<polyline fill="none" stroke="black" points="253.93,-387.5 351.93,-387.5 "/>
<text text-anchor="middle" x="302.93" y="-372.3" font-family="Times,serif" font-size="14.00">freesurfer</text>
<polyline fill="none" stroke="black" points="253.93,-364.5 351.93,-364.5 "/>
<text text-anchor="middle" x="302.93" y="-349.3" font-family="Times,serif" font-size="14.00"> </text>
<polyline fill="none" stroke="black" points="351.93,-341.5 351.93,-410.5 "/>
<text text-anchor="middle" x="395.93" y="-389.8" font-family="Times,serif" font-size="14.00">OUT</text>
<polyline fill="none" stroke="black" points="351.93,-376.5 439.93,-376.5 "/>
<text text-anchor="middle" x="395.93" y="-355.3" font-family="Times,serif" font-size="14.00">converted</text>
</g>
<!-- gifti_surface_wfsurfmorph_list&#45;&gt;gifti_surface_wfmorphs2gii -->
<g id="edge20" class="edge">
<title>gifti_surface_wfsurfmorph_list:e&#45;&gt;gifti_surface_wfmorphs2gii:w</title>
<path fill="none" stroke="black" d="M254.43,-622.5C264.88,-622.5 256.55,-608.98 253.43,-599 223.88,-504.63 162.87,-505.71 134.43,-411 129.13,-393.36 116.96,-370.81 123.94,-362.38"/>
<polygon fill="black" stroke="black" points="125.18,-365.65 133.43,-359 122.83,-359.06 125.18,-365.65"/>
</g>
<!-- gifti_surface_wfsave_midthickness&#45;&gt;gifti_surface_wfsurface_list -->
<g id="edge18" class="edge">
<title>gifti_surface_wfsave_midthickness:e&#45;&gt;gifti_surface_wfsurface_list:w</title>
<path fill="none" stroke="black" d="M931.43,-493.5C941.88,-493.5 937.7,-477.52 930.43,-470 857.31,-394.38 530.3,-510.82 458.43,-434 452.01,-427.14 447.73,-362.77 452.55,-338.87"/>
<polygon fill="black" stroke="black" points="455.68,-340.45 457.43,-330 449.55,-337.08 455.68,-340.45"/>
</g>
<!-- gifti_surface_wfoutputnode -->
<g id="node10" class="node">
<title>gifti_surface_wfoutputnode</title>
<polygon fill="none" stroke="black" points="835.43,-0.5 835.43,-69.5 1107.43,-69.5 1107.43,-0.5 835.43,-0.5"/>
<text text-anchor="middle" x="897.93" y="-54.3" font-family="Times,serif" font-size="14.00">IN</text>
<polyline fill="none" stroke="black" points="835.43,-46.5 960.43,-46.5 "/>
<text text-anchor="middle" x="897.93" y="-31.3" font-family="Times,serif" font-size="14.00">morphometrics</text>
<polyline fill="none" stroke="black" points="835.43,-23.5 960.43,-23.5 "/>
<text text-anchor="middle" x="897.93" y="-8.3" font-family="Times,serif" font-size="14.00">surfaces</text>
<polyline fill="none" stroke="black" points="960.43,-0.5 960.43,-69.5 "/>
<text text-anchor="middle" x="1009.43" y="-54.3" font-family="Times,serif" font-size="14.00">outputnode</text>
<polyline fill="none" stroke="black" points="960.43,-46.5 1058.43,-46.5 "/>
<text text-anchor="middle" x="1009.43" y="-31.3" font-family="Times,serif" font-size="14.00">utility</text>
<polyline fill="none" stroke="black" points="960.43,-23.5 1058.43,-23.5 "/>
<text text-anchor="middle" x="1009.43" y="-8.3" font-family="Times,serif" font-size="14.00"> </text>
<polyline fill="none" stroke="black" points="1058.43,-0.5 1058.43,-69.5 "/>
<text text-anchor="middle" x="1082.93" y="-31.3" font-family="Times,serif" font-size="14.00">OUT</text>
</g>
<!-- gifti_surface_wfmorphs2gii&#45;&gt;gifti_surface_wfoutputnode -->
<g id="edge17" class="edge">
<title>gifti_surface_wfmorphs2gii:e&#45;&gt;gifti_surface_wfoutputnode:w</title>
<path fill="none" stroke="black" d="M441.43,-359C450.71,-359 444.46,-325.84 449.43,-318 561.27,-141.51 620.15,-38.36 824.28,-35.08"/>
<polygon fill="black" stroke="black" points="824.46,-38.58 834.43,-35 824.4,-31.58 824.46,-38.58"/>
</g>
<!-- gifti_surface_wffs2gii -->
<g id="node8" class="node">
<title>gifti_surface_wffs2gii</title>
<polygon fill="none" stroke="black" points="644.43,-212.5 644.43,-281.5 880.43,-281.5 880.43,-212.5 644.43,-212.5"/>
<text text-anchor="middle" x="673.93" y="-260.8" font-family="Times,serif" font-size="14.00">IN</text>
<polyline fill="none" stroke="black" points="644.43,-247.5 703.43,-247.5 "/>
<text text-anchor="middle" x="673.93" y="-226.3" font-family="Times,serif" font-size="14.00">in_file</text>
<polyline fill="none" stroke="black" points="703.43,-212.5 703.43,-281.5 "/>
<text text-anchor="middle" x="747.93" y="-266.3" font-family="Times,serif" font-size="14.00">fs2gii</text>
<polyline fill="none" stroke="black" points="703.43,-258.5 792.43,-258.5 "/>
<text text-anchor="middle" x="747.93" y="-243.3" font-family="Times,serif" font-size="14.00">freesurfer</text>
<polyline fill="none" stroke="black" points="703.43,-235.5 792.43,-235.5 "/>
<text text-anchor="middle" x="747.93" y="-220.3" font-family="Times,serif" font-size="14.00"> </text>
<polyline fill="none" stroke="black" points="792.43,-212.5 792.43,-281.5 "/>
<text text-anchor="middle" x="836.43" y="-260.8" font-family="Times,serif" font-size="14.00">OUT</text>
<polyline fill="none" stroke="black" points="792.43,-247.5 880.43,-247.5 "/>
<text text-anchor="middle" x="836.43" y="-226.3" font-family="Times,serif" font-size="14.00">converted</text>
</g>
<!-- gifti_surface_wfsurface_list&#45;&gt;gifti_surface_wffs2gii -->
<g id="edge19" class="edge">
<title>gifti_surface_wfsurface_list:e&#45;&gt;gifti_surface_wffs2gii:w</title>
<path fill="none" stroke="black" d="M645.43,-347C693.17,-347 607.75,-248.41 633.65,-232.23"/>
<polygon fill="black" stroke="black" points="634.46,-235.64 643.43,-230 632.9,-228.81 634.46,-235.64"/>
</g>
<!-- gifti_surface_wffs2gii&#45;&gt;gifti_surface_wffix_surfs -->
<g id="edge2" class="edge">
<title>gifti_surface_wffs2gii:e&#45;&gt;gifti_surface_wffix_surfs:w</title>
<path fill="none" stroke="black" d="M881.43,-230C916.05,-230 858.26,-161.86 869.78,-144.82"/>
<polygon fill="black" stroke="black" points="871.42,-147.94 879.43,-141 868.84,-141.43 871.42,-147.94"/>
</g>
<!-- gifti_surface_wffix_surfs&#45;&gt;gifti_surface_wfoutputnode -->
<g id="edge1" class="edge">
<title>gifti_surface_wffix_surfs:e&#45;&gt;gifti_surface_wfoutputnode:w</title>
<path fill="none" stroke="black" d="M1143.43,-124C1151.44,-124 1147.92,-111.84 1142.43,-106 1048.31,-5.93 927.62,-171.85 835.43,-70 820.97,-54.02 811.97,-24.23 824.47,-14.88"/>
<polygon fill="black" stroke="black" points="825.8,-18.14 834.43,-12 823.85,-11.42 825.8,-18.14"/>
</g>
</g>
</svg>
