<?xml version="1.0" encoding="UTF-8" standalone="no"?>
<!DOCTYPE svg PUBLIC "-//W3C//DTD SVG 1.1//EN"
 "http://www.w3.org/Graphics/SVG/1.1/DTD/svg11.dtd">
<!-- Generated by graphviz version 2.43.0 (0)
 -->
<!-- Title: %3 Pages: 1 -->
<svg width="271pt" height="260pt"
 viewBox="0.00 0.00 271.43 260.00" xmlns="http://www.w3.org/2000/svg" xmlns:xlink="http://www.w3.org/1999/xlink">
<g id="graph0" class="graph" transform="scale(1 1) rotate(0) translate(4 256)">
<title>%3</title>
<polygon fill="white" stroke="transparent" points="-4,4 -4,-256 267.43,-256 267.43,4 -4,4"/>
<!-- inputnode (utility) -->
<g id="node1" class="node">
<title>inputnode (utility)</title>
<ellipse fill="none" stroke="black" cx="152.94" cy="-234" rx="94.78" ry="18"/>
<text text-anchor="middle" x="152.94" y="-230.3" font-family="Times,serif" font-size="14.00">inputnode (utility)</text>
</g>
<!-- fs_datasource (io) -->
<g id="node2" class="node">
<title>fs_datasource (io)</title>
<ellipse fill="none" stroke="black" cx="92.94" cy="-162" rx="92.88" ry="18"/>
<text text-anchor="middle" x="92.94" y="-158.3" font-family="Times,serif" font-size="14.00">fs_datasource (io)</text>
</g>
<!-- inputnode (utility)&#45;&gt;fs_datasource (io) -->
<g id="edge1" class="edge">
<title>inputnode (utility)&#45;&gt;fs_datasource (io)</title>
<path fill="none" stroke="black" d="M138.42,-216.05C131.05,-207.46 121.96,-196.86 113.85,-187.4"/>
<polygon fill="black" stroke="black" points="116.5,-185.1 107.33,-179.79 111.18,-189.66 116.5,-185.1"/>
</g>
<!-- resample (freesurfer) -->
<g id="node3" class="node">
<title>resample (freesurfer)</title>
<ellipse fill="none" stroke="black" cx="152.94" cy="-90" rx="110.48" ry="18"/>
<text text-anchor="middle" x="152.94" y="-86.3" font-family="Times,serif" font-size="14.00">resample (freesurfer)</text>
</g>
<!-- inputnode (utility)&#45;&gt;resample (freesurfer) -->
<g id="edge2" class="edge">
<title>inputnode (utility)&#45;&gt;resample (freesurfer)</title>
<path fill="none" stroke="black" d="M171.11,-216.22C180.15,-206.61 190.15,-193.75 194.94,-180 200.2,-164.89 200.2,-159.11 194.94,-144 191.31,-133.58 184.69,-123.67 177.76,-115.3"/>
<polygon fill="black" stroke="black" points="180.35,-112.95 171.11,-107.78 175.11,-117.59 180.35,-112.95"/>
</g>
<!-- fs_datasource (io)&#45;&gt;resample (freesurfer) -->
<g id="edge3" class="edge">
<title>fs_datasource (io)&#45;&gt;resample (freesurfer)</title>
<path fill="none" stroke="black" d="M107.47,-144.05C114.66,-135.67 123.48,-125.38 131.43,-116.1"/>
<polygon fill="black" stroke="black" points="134.28,-118.15 138.13,-108.28 128.97,-113.59 134.28,-118.15"/>
</g>
<!-- outputnode (utility) -->
<g id="node4" class="node">
<title>outputnode (utility)</title>
<ellipse fill="none" stroke="black" cx="152.94" cy="-18" rx="101.28" ry="18"/>
<text text-anchor="middle" x="152.94" y="-14.3" font-family="Times,serif" font-size="14.00">outputnode (utility)</text>
</g>
<!-- resample (freesurfer)&#45;&gt;outputnode (utility) -->
<g id="edge4" class="edge">
<title>resample (freesurfer)&#45;&gt;outputnode (utility)</title>
<path fill="none" stroke="black" d="M152.94,-71.7C152.94,-63.98 152.94,-54.71 152.94,-46.11"/>
<polygon fill="black" stroke="black" points="156.44,-46.1 152.94,-36.1 149.44,-46.1 156.44,-46.1"/>
</g>
</g>
</svg>
