<?xml version="1.0" encoding="UTF-8" standalone="no"?>
<!DOCTYPE svg PUBLIC "-//W3C//DTD SVG 1.1//EN"
 "http://www.w3.org/Graphics/SVG/1.1/DTD/svg11.dtd">
<!-- Generated by graphviz version 2.43.0 (0)
 -->
<!-- Title: morph_grayords_wf Pages: 1 -->
<svg width="392pt" height="499pt"
 viewBox="0.00 0.00 391.73 499.00" xmlns="http://www.w3.org/2000/svg" xmlns:xlink="http://www.w3.org/1999/xlink">
<g id="graph0" class="graph" transform="scale(1 1) rotate(0) translate(4 495)">
<title>morph_grayords_wf</title>
<polygon fill="white" stroke="transparent" points="-4,4 -4,-495 387.73,-495 387.73,4 -4,4"/>
<text text-anchor="middle" x="191.86" y="-7.8" font-family="Times,serif" font-size="14.00">morph_grayords_wf</text>
<!-- morph_grayords_wf_inputnode -->
<g id="node1" class="node">
<title>morph_grayords_wf_inputnode</title>
<ellipse fill="#ffffc8" stroke="black" cx="192.34" cy="-473" rx="94.78" ry="18"/>
<text text-anchor="middle" x="192.34" y="-469.3" font-family="Times,serif" font-size="14.00">inputnode (utility)</text>
</g>
<!-- morph_grayords_wf_get_surfaces -->
<g id="node2" class="node">
<title>morph_grayords_wf_get_surfaces</title>
<ellipse fill="#ffffc8" stroke="black" cx="116.34" cy="-401" rx="87.18" ry="18"/>
<text text-anchor="middle" x="116.34" y="-397.3" font-family="Times,serif" font-size="14.00">get_surfaces (io)</text>
</g>
<!-- morph_grayords_wf_inputnode&#45;&gt;morph_grayords_wf_get_surfaces -->
<g id="edge1" class="edge">
<title>morph_grayords_wf_inputnode&#45;&gt;morph_grayords_wf_get_surfaces</title>
<path fill="none" stroke="black" d="M168.49,-455.41C158.02,-446.65 145.96,-435.73 136.01,-426.06"/>
<polygon fill="black" stroke="black" points="138.43,-423.53 128.87,-418.96 133.49,-428.49 138.43,-423.53"/>
</g>
<!-- morph_grayords_wf_inputnode&#45;&gt;morph_grayords_wf_get_surfaces -->
<g id="edge2" class="edge">
<title>morph_grayords_wf_inputnode&#45;&gt;morph_grayords_wf_get_surfaces</title>
<path fill="none" stroke="black" d="M179.82,-455.05C171,-446.05 159,-434.84 147.76,-425.05"/>
<polygon fill="black" stroke="black" points="150.02,-422.38 140.14,-418.55 145.47,-427.7 150.02,-422.38"/>
</g>
<!-- morph_grayords_wf_surf2surf -->
<g id="node4" class="node">
<title>morph_grayords_wf_surf2surf</title>
<ellipse fill="#ffffc8" stroke="black" cx="269.34" cy="-257" rx="110.48" ry="18"/>
<text text-anchor="middle" x="269.34" y="-253.3" font-family="Times,serif" font-size="14.00">surf2surf (freesurfer)</text>
</g>
<!-- morph_grayords_wf_inputnode&#45;&gt;morph_grayords_wf_surf2surf -->
<g id="edge3" class="edge">
<title>morph_grayords_wf_inputnode&#45;&gt;morph_grayords_wf_surf2surf</title>
<path fill="none" stroke="black" d="M193.51,-454.75C200.44,-430.77 218.61,-385.91 232.34,-347 239.64,-326.31 247.05,-302.61 253.75,-284.87"/>
<polygon fill="black" stroke="black" points="257.16,-285.76 257.6,-275.18 250.65,-283.18 257.16,-285.76"/>
</g>
<!-- morph_grayords_wf_inputnode&#45;&gt;morph_grayords_wf_surf2surf -->
<g id="edge4" class="edge">
<title>morph_grayords_wf_inputnode&#45;&gt;morph_grayords_wf_surf2surf</title>
<path fill="none" stroke="black" d="M205.34,-455.16C218.24,-431.28 236.53,-386.13 250.34,-347 257.57,-326.51 264.91,-303.05 268.97,-285.37"/>
<polygon fill="black" stroke="black" points="272.48,-285.67 271.04,-275.18 265.62,-284.28 272.48,-285.67"/>
</g>
<!-- morph_grayords_wf_surfmorph_list -->
<g id="node3" class="node">
<title>morph_grayords_wf_surfmorph_list</title>
<ellipse fill="#ffffc8" stroke="black" cx="116.34" cy="-329" rx="116.18" ry="18"/>
<text text-anchor="middle" x="116.34" y="-325.3" font-family="Times,serif" font-size="14.00">surfmorph_list (utility)</text>
</g>
<!-- morph_grayords_wf_get_surfaces&#45;&gt;morph_grayords_wf_surfmorph_list -->
<g id="edge5" class="edge">
<title>morph_grayords_wf_get_surfaces&#45;&gt;morph_grayords_wf_surfmorph_list</title>
<path fill="none" stroke="black" d="M104.58,-383.05C102.95,-375.35 102.46,-366.03 103.13,-357.36"/>
<polygon fill="black" stroke="black" points="106.62,-357.66 104.51,-347.28 99.69,-356.71 106.62,-357.66"/>
</g>
<!-- morph_grayords_wf_get_surfaces&#45;&gt;morph_grayords_wf_surfmorph_list -->
<g id="edge6" class="edge">
<title>morph_grayords_wf_get_surfaces&#45;&gt;morph_grayords_wf_surfmorph_list</title>
<path fill="none" stroke="black" d="M116.34,-382.7C116.34,-374.98 116.34,-365.71 116.34,-357.11"/>
<polygon fill="black" stroke="black" points="119.84,-357.1 116.34,-347.1 112.84,-357.1 119.84,-357.1"/>
</g>
<!-- morph_grayords_wf_get_surfaces&#45;&gt;morph_grayords_wf_surfmorph_list -->
<g id="edge7" class="edge">
<title>morph_grayords_wf_get_surfaces&#45;&gt;morph_grayords_wf_surfmorph_list</title>
<path fill="none" stroke="black" d="M128.1,-383.05C129.73,-375.35 130.22,-366.03 129.55,-357.36"/>
<polygon fill="black" stroke="black" points="132.99,-356.71 128.17,-347.28 126.06,-357.66 132.99,-356.71"/>
</g>
<!-- morph_grayords_wf_surfmorph_list&#45;&gt;morph_grayords_wf_surf2surf -->
<g id="edge8" class="edge">
<title>morph_grayords_wf_surfmorph_list&#45;&gt;morph_grayords_wf_surf2surf</title>
<path fill="none" stroke="black" d="M151.83,-311.76C173.55,-301.83 201.54,-289.02 224.75,-278.4"/>
<polygon fill="black" stroke="black" points="226.41,-281.49 234.05,-274.15 223.5,-275.13 226.41,-281.49"/>
</g>
<!-- morph_grayords_wf_resample -->
<g id="node5" class="node">
<title>morph_grayords_wf_resample</title>
<ellipse fill="#ffffc8" stroke="black" cx="269.34" cy="-185" rx="114.28" ry="18"/>
<text text-anchor="middle" x="269.34" y="-181.3" font-family="Times,serif" font-size="14.00">resample (workbench)</text>
</g>
<!-- morph_grayords_wf_surf2surf&#45;&gt;morph_grayords_wf_resample -->
<g id="edge9" class="edge">
<title>morph_grayords_wf_surf2surf&#45;&gt;morph_grayords_wf_resample</title>
<path fill="none" stroke="black" d="M269.34,-238.7C269.34,-230.98 269.34,-221.71 269.34,-213.11"/>
<polygon fill="black" stroke="black" points="272.84,-213.1 269.34,-203.1 265.84,-213.1 272.84,-213.1"/>
</g>
<!-- morph_grayords_wf_gen_cifti -->
<g id="node6" class="node">
<title>morph_grayords_wf_gen_cifti</title>
<ellipse fill="#ffffc8" stroke="black" cx="269.34" cy="-113" rx="77.99" ry="18"/>
<text text-anchor="middle" x="269.34" y="-109.3" font-family="Times,serif" font-size="14.00">gen_cifti (cifti)</text>
</g>
<!-- morph_grayords_wf_resample&#45;&gt;morph_grayords_wf_gen_cifti -->
<g id="edge10" class="edge">
<title>morph_grayords_wf_resample&#45;&gt;morph_grayords_wf_gen_cifti</title>
<path fill="none" stroke="black" d="M269.34,-166.7C269.34,-158.98 269.34,-149.71 269.34,-141.11"/>
<polygon fill="black" stroke="black" points="272.84,-141.1 269.34,-131.1 265.84,-141.1 272.84,-141.1"/>
</g>
<!-- morph_grayords_wf_outputnode -->
<g id="node7" class="node">
<title>morph_grayords_wf_outputnode</title>
<ellipse fill="#ffffc8" stroke="black" cx="269.34" cy="-41" rx="101.28" ry="18"/>
<text text-anchor="middle" x="269.34" y="-37.3" font-family="Times,serif" font-size="14.00">outputnode (utility)</text>
</g>
<!-- morph_grayords_wf_gen_cifti&#45;&gt;morph_grayords_wf_outputnode -->
<g id="edge11" class="edge">
<title>morph_grayords_wf_gen_cifti&#45;&gt;morph_grayords_wf_outputnode</title>
<path fill="none" stroke="black" d="M263.42,-94.7C262.63,-86.98 262.4,-77.71 262.74,-69.11"/>
<polygon fill="black" stroke="black" points="266.24,-69.32 263.44,-59.1 259.26,-68.84 266.24,-69.32"/>
</g>
<!-- morph_grayords_wf_gen_cifti&#45;&gt;morph_grayords_wf_outputnode -->
<g id="edge12" class="edge">
<title>morph_grayords_wf_gen_cifti&#45;&gt;morph_grayords_wf_outputnode</title>
<path fill="none" stroke="black" d="M275.26,-94.7C276.05,-86.98 276.28,-77.71 275.93,-69.11"/>
<polygon fill="black" stroke="black" points="279.42,-68.84 275.23,-59.1 272.44,-69.32 279.42,-68.84"/>
</g>
</g>
</svg>
