<?xml version="1.0" encoding="UTF-8" standalone="no"?>
<!DOCTYPE svg PUBLIC "-//W3C//DTD SVG 1.1//EN"
 "http://www.w3.org/Graphics/SVG/1.1/DTD/svg11.dtd">
<!-- Generated by graphviz version 2.43.0 (0)
 -->
<!-- Title: %3 Pages: 1 -->
<svg width="948pt" height="188pt"
 viewBox="0.00 0.00 948.38 188.00" xmlns="http://www.w3.org/2000/svg" xmlns:xlink="http://www.w3.org/1999/xlink">
<g id="graph0" class="graph" transform="scale(1 1) rotate(0) translate(4 184)">
<title>%3</title>
<polygon fill="white" stroke="transparent" points="-4,4 -4,-184 944.38,-184 944.38,4 -4,4"/>
<!-- inputnode (utility) -->
<g id="node1" class="node">
<title>inputnode (utility)</title>
<ellipse fill="none" stroke="black" cx="426.84" cy="-162" rx="94.78" ry="18"/>
<text text-anchor="middle" x="426.84" y="-158.3" font-family="Times,serif" font-size="14.00">inputnode (utility)</text>
</g>
<!-- gifti_surface_wf -->
<g id="node2" class="node">
<title>gifti_surface_wf</title>
<ellipse fill="none" stroke="black" cx="83.84" cy="-90" rx="83.69" ry="18"/>
<text text-anchor="middle" x="83.84" y="-86.3" font-family="Times,serif" font-size="14.00">gifti_surface_wf</text>
</g>
<!-- inputnode (utility)&#45;&gt;gifti_surface_wf -->
<g id="edge1" class="edge">
<title>inputnode (utility)&#45;&gt;gifti_surface_wf</title>
<path fill="none" stroke="black" d="M364.73,-148.32C304.84,-136.1 214.4,-117.64 152.42,-105"/>
<polygon fill="black" stroke="black" points="152.85,-101.51 142.35,-102.94 151.45,-108.37 152.85,-101.51"/>
</g>
<!-- gifti_morphometrics_wf -->
<g id="node3" class="node">
<title>gifti_morphometrics_wf</title>
<ellipse fill="none" stroke="black" cx="305.84" cy="-90" rx="120.48" ry="18"/>
<text text-anchor="middle" x="305.84" y="-86.3" font-family="Times,serif" font-size="14.00">gifti_morphometrics_wf</text>
</g>
<!-- inputnode (utility)&#45;&gt;gifti_morphometrics_wf -->
<g id="edge2" class="edge">
<title>inputnode (utility)&#45;&gt;gifti_morphometrics_wf</title>
<path fill="none" stroke="black" d="M398.78,-144.76C382.37,-135.27 361.44,-123.17 343.6,-112.84"/>
<polygon fill="black" stroke="black" points="345,-109.61 334.59,-107.63 341.5,-115.67 345,-109.61"/>
</g>
<!-- segs_to_native_aseg -->
<g id="node4" class="node">
<title>segs_to_native_aseg</title>
<ellipse fill="none" stroke="black" cx="548.84" cy="-90" rx="104.78" ry="18"/>
<text text-anchor="middle" x="548.84" y="-86.3" font-family="Times,serif" font-size="14.00">segs_to_native_aseg</text>
</g>
<!-- inputnode (utility)&#45;&gt;segs_to_native_aseg -->
<g id="edge3" class="edge">
<title>inputnode (utility)&#45;&gt;segs_to_native_aseg</title>
<path fill="none" stroke="black" d="M455.14,-144.76C471.8,-135.2 493.09,-122.99 511.16,-112.62"/>
<polygon fill="black" stroke="black" points="513.35,-115.4 520.28,-107.39 509.86,-109.33 513.35,-115.4"/>
</g>
<!-- segs_to_native_aparc_aseg -->
<g id="node5" class="node">
<title>segs_to_native_aparc_aseg</title>
<ellipse fill="none" stroke="black" cx="805.84" cy="-90" rx="134.58" ry="18"/>
<text text-anchor="middle" x="805.84" y="-86.3" font-family="Times,serif" font-size="14.00">segs_to_native_aparc_aseg</text>
</g>
<!-- inputnode (utility)&#45;&gt;segs_to_native_aparc_aseg -->
<g id="edge4" class="edge">
<title>inputnode (utility)&#45;&gt;segs_to_native_aparc_aseg</title>
<path fill="none" stroke="black" d="M492.43,-148.89C555.53,-137.23 651.28,-119.55 720.34,-106.79"/>
<polygon fill="black" stroke="black" points="721.13,-110.21 730.33,-104.95 719.86,-103.32 721.13,-110.21"/>
</g>
<!-- outputnode (utility) -->
<g id="node6" class="node">
<title>outputnode (utility)</title>
<ellipse fill="none" stroke="black" cx="426.84" cy="-18" rx="101.28" ry="18"/>
<text text-anchor="middle" x="426.84" y="-14.3" font-family="Times,serif" font-size="14.00">outputnode (utility)</text>
</g>
<!-- gifti_surface_wf&#45;&gt;outputnode (utility) -->
<g id="edge5" class="edge">
<title>gifti_surface_wf&#45;&gt;outputnode (utility)</title>
<path fill="none" stroke="black" d="M142.42,-77.05C200.63,-65.17 290.08,-46.91 353.1,-34.05"/>
<polygon fill="black" stroke="black" points="353.88,-37.46 362.98,-32.03 352.48,-30.6 353.88,-37.46"/>
</g>
<!-- gifti_morphometrics_wf&#45;&gt;outputnode (utility) -->
<g id="edge6" class="edge">
<title>gifti_morphometrics_wf&#45;&gt;outputnode (utility)</title>
<path fill="none" stroke="black" d="M334.52,-72.41C350.94,-62.91 371.74,-50.88 389.44,-40.64"/>
<polygon fill="black" stroke="black" points="391.47,-43.51 398.37,-35.47 387.96,-37.45 391.47,-43.51"/>
</g>
<!-- segs_to_native_aseg&#45;&gt;outputnode (utility) -->
<g id="edge7" class="edge">
<title>segs_to_native_aseg&#45;&gt;outputnode (utility)</title>
<path fill="none" stroke="black" d="M520.24,-72.59C503.57,-63.02 482.34,-50.85 464.34,-40.52"/>
<polygon fill="black" stroke="black" points="465.68,-37.25 455.27,-35.31 462.2,-43.32 465.68,-37.25"/>
</g>
<!-- segs_to_native_aparc_aseg&#45;&gt;outputnode (utility) -->
<g id="edge8" class="edge">
<title>segs_to_native_aparc_aseg&#45;&gt;outputnode (utility)</title>
<path fill="none" stroke="black" d="M730.06,-75C664.51,-62.9 570.16,-45.47 504.17,-33.28"/>
<polygon fill="black" stroke="black" points="504.71,-29.82 494.24,-31.45 503.44,-36.71 504.71,-29.82"/>
</g>
</g>
</svg>
