<?xml version="1.0" encoding="UTF-8" standalone="no"?>
<!DOCTYPE svg PUBLIC "-//W3C//DTD SVG 1.1//EN"
 "http://www.w3.org/Graphics/SVG/1.1/DTD/svg11.dtd">
<!-- Generated by graphviz version 2.43.0 (0)
 -->
<!-- Title: %3 Pages: 1 -->
<svg width="1044pt" height="260pt"
 viewBox="0.00 0.00 1044.18 260.00" xmlns="http://www.w3.org/2000/svg" xmlns:xlink="http://www.w3.org/1999/xlink">
<g id="graph0" class="graph" transform="scale(1 1) rotate(0) translate(4 256)">
<title>%3</title>
<polygon fill="white" stroke="transparent" points="-4,4 -4,-256 1040.18,-256 1040.18,4 -4,4"/>
<!-- inputnode (utility) -->
<g id="node1" class="node">
<title>inputnode (utility)</title>
<ellipse fill="none" stroke="black" cx="599.39" cy="-234" rx="94.78" ry="18"/>
<text text-anchor="middle" x="599.39" y="-230.3" font-family="Times,serif" font-size="14.00">inputnode (utility)</text>
</g>
<!-- anat_fit_wf -->
<g id="node2" class="node">
<title>anat_fit_wf</title>
<ellipse fill="none" stroke="black" cx="599.39" cy="-162" rx="61.19" ry="18"/>
<text text-anchor="middle" x="599.39" y="-158.3" font-family="Times,serif" font-size="14.00">anat_fit_wf</text>
</g>
<!-- inputnode (utility)&#45;&gt;anat_fit_wf -->
<g id="edge1" class="edge">
<title>inputnode (utility)&#45;&gt;anat_fit_wf</title>
<path fill="none" stroke="black" d="M599.39,-215.7C599.39,-207.98 599.39,-198.71 599.39,-190.11"/>
<polygon fill="black" stroke="black" points="602.89,-190.1 599.39,-180.1 595.89,-190.1 602.89,-190.1"/>
</g>
<!-- outputnode (utility) -->
<g id="node3" class="node">
<title>outputnode (utility)</title>
<ellipse fill="none" stroke="black" cx="101.39" cy="-18" rx="101.28" ry="18"/>
<text text-anchor="middle" x="101.39" y="-14.3" font-family="Times,serif" font-size="14.00">outputnode (utility)</text>
</g>
<!-- anat_fit_wf&#45;&gt;outputnode (utility) -->
<g id="edge2" class="edge">
<title>anat_fit_wf&#45;&gt;outputnode (utility)</title>
<path fill="none" stroke="black" d="M543.41,-154.77C483.77,-147.24 387.03,-132.44 306.39,-108 247.14,-90.04 182.11,-59.89 141.52,-39.73"/>
<polygon fill="black" stroke="black" points="143,-36.56 132.49,-35.21 139.87,-42.81 143,-36.56"/>
</g>
<!-- template_iterator_wf -->
<g id="node4" class="node">
<title>template_iterator_wf</title>
<ellipse fill="none" stroke="black" cx="795.39" cy="-90" rx="107.78" ry="18"/>
<text text-anchor="middle" x="795.39" y="-86.3" font-family="Times,serif" font-size="14.00">template_iterator_wf</text>
</g>
<!-- anat_fit_wf&#45;&gt;template_iterator_wf -->
<g id="edge3" class="edge">
<title>anat_fit_wf&#45;&gt;template_iterator_wf</title>
<path fill="none" stroke="black" d="M636.72,-147.67C666.54,-137.02 708.72,-121.95 742.1,-110.03"/>
<polygon fill="black" stroke="black" points="743.46,-113.26 751.7,-106.6 741.11,-106.67 743.46,-113.26"/>
</g>
<!-- ds_std_volumes_wf -->
<g id="node5" class="node">
<title>ds_std_volumes_wf</title>
<ellipse fill="none" stroke="black" cx="937.39" cy="-18" rx="98.58" ry="18"/>
<text text-anchor="middle" x="937.39" y="-14.3" font-family="Times,serif" font-size="14.00">ds_std_volumes_wf</text>
</g>
<!-- anat_fit_wf&#45;&gt;ds_std_volumes_wf -->
<g id="edge4" class="edge">
<title>anat_fit_wf&#45;&gt;ds_std_volumes_wf</title>
<path fill="none" stroke="black" d="M659.37,-158.33C739.61,-153.54 876.02,-140.7 912.39,-108 929.59,-92.54 935.35,-66.28 937.09,-46.28"/>
<polygon fill="black" stroke="black" points="940.59,-46.4 937.69,-36.21 933.61,-45.98 940.59,-46.4"/>
</g>
<!-- surface_derivatives_wf -->
<g id="node6" class="node">
<title>surface_derivatives_wf</title>
<ellipse fill="none" stroke="black" cx="455.39" cy="-90" rx="116.18" ry="18"/>
<text text-anchor="middle" x="455.39" y="-86.3" font-family="Times,serif" font-size="14.00">surface_derivatives_wf</text>
</g>
<!-- anat_fit_wf&#45;&gt;surface_derivatives_wf -->
<g id="edge5" class="edge">
<title>anat_fit_wf&#45;&gt;surface_derivatives_wf</title>
<path fill="none" stroke="black" d="M569.2,-146.33C548.55,-136.28 520.86,-122.83 497.97,-111.7"/>
<polygon fill="black" stroke="black" points="499.33,-108.47 488.81,-107.24 496.27,-114.76 499.33,-108.47"/>
</g>
<!-- ds_surfaces_wf -->
<g id="node7" class="node">
<title>ds_surfaces_wf</title>
<ellipse fill="none" stroke="black" cx="301.39" cy="-18" rx="80.69" ry="18"/>
<text text-anchor="middle" x="301.39" y="-14.3" font-family="Times,serif" font-size="14.00">ds_surfaces_wf</text>
</g>
<!-- anat_fit_wf&#45;&gt;ds_surfaces_wf -->
<g id="edge6" class="edge">
<title>anat_fit_wf&#45;&gt;ds_surfaces_wf</title>
<path fill="none" stroke="black" d="M541.1,-156.37C471.6,-149.7 360.98,-135.11 330.39,-108 312.87,-92.47 305.88,-66.22 303.12,-46.24"/>
<polygon fill="black" stroke="black" points="306.59,-45.73 302.01,-36.18 299.63,-46.5 306.59,-45.73"/>
</g>
<!-- ds_curv_wf -->
<g id="node8" class="node">
<title>ds_curv_wf</title>
<ellipse fill="none" stroke="black" cx="461.39" cy="-18" rx="61.99" ry="18"/>
<text text-anchor="middle" x="461.39" y="-14.3" font-family="Times,serif" font-size="14.00">ds_curv_wf</text>
</g>
<!-- anat_fit_wf&#45;&gt;ds_curv_wf -->
<g id="edge7" class="edge">
<title>anat_fit_wf&#45;&gt;ds_curv_wf</title>
<path fill="none" stroke="black" d="M600.12,-143.99C600.06,-124.51 597.1,-92.62 580.39,-72 565.01,-53.02 541.42,-40.62 519.29,-32.63"/>
<polygon fill="black" stroke="black" points="520.19,-29.24 509.6,-29.36 517.96,-35.87 520.19,-29.24"/>
</g>
<!-- anat_second_derivatives_wf -->
<g id="node9" class="node">
<title>anat_second_derivatives_wf</title>
<ellipse fill="none" stroke="black" cx="680.39" cy="-18" rx="139.98" ry="18"/>
<text text-anchor="middle" x="680.39" y="-14.3" font-family="Times,serif" font-size="14.00">anat_second_derivatives_wf</text>
</g>
<!-- anat_fit_wf&#45;&gt;anat_second_derivatives_wf -->
<g id="edge8" class="edge">
<title>anat_fit_wf&#45;&gt;anat_second_derivatives_wf</title>
<path fill="none" stroke="black" d="M609,-144.15C622.99,-119.63 649.09,-73.87 665.56,-45"/>
<polygon fill="black" stroke="black" points="668.63,-46.69 670.54,-36.27 662.55,-43.22 668.63,-46.69"/>
</g>
<!-- template_iterator_wf&#45;&gt;ds_std_volumes_wf -->
<g id="edge9" class="edge">
<title>template_iterator_wf&#45;&gt;ds_std_volumes_wf</title>
<path fill="none" stroke="black" d="M828.33,-72.76C848.31,-62.91 874,-50.25 895.43,-39.68"/>
<polygon fill="black" stroke="black" points="897.21,-42.71 904.64,-35.15 894.12,-36.43 897.21,-42.71"/>
</g>
<!-- surface_derivatives_wf&#45;&gt;outputnode (utility) -->
<g id="edge13" class="edge">
<title>surface_derivatives_wf&#45;&gt;outputnode (utility)</title>
<path fill="none" stroke="black" d="M386.72,-75.42C326.34,-63.48 238.64,-46.14 176.43,-33.84"/>
<polygon fill="black" stroke="black" points="176.78,-30.34 166.29,-31.83 175.42,-37.21 176.78,-30.34"/>
</g>
<!-- surface_derivatives_wf&#45;&gt;ds_surfaces_wf -->
<g id="edge10" class="edge">
<title>surface_derivatives_wf&#45;&gt;ds_surfaces_wf</title>
<path fill="none" stroke="black" d="M419.67,-72.76C397.24,-62.57 368.17,-49.35 344.46,-38.58"/>
<polygon fill="black" stroke="black" points="345.88,-35.38 335.33,-34.43 342.99,-41.75 345.88,-35.38"/>
</g>
<!-- surface_derivatives_wf&#45;&gt;ds_curv_wf -->
<g id="edge11" class="edge">
<title>surface_derivatives_wf&#45;&gt;ds_curv_wf</title>
<path fill="none" stroke="black" d="M456.87,-71.7C457.54,-63.98 458.33,-54.71 459.07,-46.11"/>
<polygon fill="black" stroke="black" points="462.56,-46.37 459.92,-36.1 455.58,-45.77 462.56,-46.37"/>
</g>
<!-- surface_derivatives_wf&#45;&gt;anat_second_derivatives_wf -->
<g id="edge12" class="edge">
<title>surface_derivatives_wf&#45;&gt;anat_second_derivatives_wf</title>
<path fill="none" stroke="black" d="M504.77,-73.64C538.59,-63.12 583.65,-49.1 619.67,-37.89"/>
<polygon fill="black" stroke="black" points="621.06,-41.12 629.57,-34.81 618.98,-34.44 621.06,-41.12"/>
</g>
</g>
</svg>
