<?xml version="1.0" encoding="UTF-8" standalone="no"?>
<!DOCTYPE svg PUBLIC "-//W3C//DTD SVG 1.1//EN"
 "http://www.w3.org/Graphics/SVG/1.1/DTD/svg11.dtd">
<!-- Generated by graphviz version 2.43.0 (0)
 -->
<!-- Title: structs Pages: 1 -->
<svg width="1336pt" height="534pt"
 viewBox="0.00 0.00 1335.50 534.00" xmlns="http://www.w3.org/2000/svg" xmlns:xlink="http://www.w3.org/1999/xlink">
<g id="graph0" class="graph" transform="scale(1 1) rotate(0) translate(4 530)">
<title>structs</title>
<polygon fill="white" stroke="transparent" points="-4,4 -4,-530 1331.5,-530 1331.5,4 -4,4"/>
<!-- refinement_wfinputnode -->
<g id="node1" class="node">
<title>refinement_wfinputnode</title>
<polygon fill="none" stroke="black" points="0,-387.5 0,-525.5 266,-525.5 266,-387.5 0,-387.5"/>
<text text-anchor="middle" x="17" y="-452.8" font-family="Times,serif" font-size="14.00">IN</text>
<polyline fill="none" stroke="black" points="34,-387.5 34,-525.5 "/>
<text text-anchor="middle" x="78.5" y="-498.8" font-family="Times,serif" font-size="14.00">inputnode</text>
<polyline fill="none" stroke="black" points="34,-479.5 123,-479.5 "/>
<text text-anchor="middle" x="78.5" y="-452.8" font-family="Times,serif" font-size="14.00">utility</text>
<polyline fill="none" stroke="black" points="34,-433.5 123,-433.5 "/>
<text text-anchor="middle" x="78.5" y="-406.8" font-family="Times,serif" font-size="14.00"> </text>
<polyline fill="none" stroke="black" points="123,-387.5 123,-525.5 "/>
<text text-anchor="middle" x="194.5" y="-510.3" font-family="Times,serif" font-size="14.00">OUT</text>
<polyline fill="none" stroke="black" points="123,-502.5 266,-502.5 "/>
<text text-anchor="middle" x="194.5" y="-487.3" font-family="Times,serif" font-size="14.00">ants_segs</text>
<polyline fill="none" stroke="black" points="123,-479.5 266,-479.5 "/>
<text text-anchor="middle" x="194.5" y="-464.3" font-family="Times,serif" font-size="14.00">fsnative2t1w_xfm</text>
<polyline fill="none" stroke="black" points="123,-456.5 266,-456.5 "/>
<text text-anchor="middle" x="194.5" y="-441.3" font-family="Times,serif" font-size="14.00">reference_image</text>
<polyline fill="none" stroke="black" points="123,-433.5 266,-433.5 "/>
<text text-anchor="middle" x="194.5" y="-418.3" font-family="Times,serif" font-size="14.00">subject_id</text>
<polyline fill="none" stroke="black" points="123,-410.5 266,-410.5 "/>
<text text-anchor="middle" x="194.5" y="-395.3" font-family="Times,serif" font-size="14.00">subjects_dir</text>
</g>
<!-- refinement_wfsegs_to_native_aseg -->
<g id="node2" class="node">
<title>refinement_wfsegs_to_native_aseg</title>
<polygon fill="none" stroke="black" points="266,-235.5 266,-350.5 802,-350.5 802,-235.5 266,-235.5"/>
<text text-anchor="middle" x="376" y="-335.3" font-family="Times,serif" font-size="14.00">IN</text>
<polyline fill="none" stroke="black" points="266,-327.5 486,-327.5 "/>
<text text-anchor="middle" x="376" y="-312.3" font-family="Times,serif" font-size="14.00">inputnode.fsnative2t1w_xfm</text>
<polyline fill="none" stroke="black" points="266,-304.5 486,-304.5 "/>
<text text-anchor="middle" x="376" y="-289.3" font-family="Times,serif" font-size="14.00">inputnode.in_file</text>
<polyline fill="none" stroke="black" points="266,-281.5 486,-281.5 "/>
<text text-anchor="middle" x="376" y="-266.3" font-family="Times,serif" font-size="14.00">inputnode.subject_id</text>
<polyline fill="none" stroke="black" points="266,-258.5 486,-258.5 "/>
<text text-anchor="middle" x="376" y="-243.3" font-family="Times,serif" font-size="14.00">inputnode.subjects_dir</text>
<polyline fill="none" stroke="black" points="486,-235.5 486,-350.5 "/>
<text text-anchor="middle" x="566.5" y="-327.8" font-family="Times,serif" font-size="14.00">segs_to_native_aseg</text>
<polyline fill="none" stroke="black" points="486,-312.5 647,-312.5 "/>
<text text-anchor="middle" x="566.5" y="-289.8" font-family="Times,serif" font-size="14.00"> </text>
<polyline fill="none" stroke="black" points="486,-274.5 647,-274.5 "/>
<text text-anchor="middle" x="566.5" y="-251.3" font-family="Times,serif" font-size="14.00"> </text>
<polyline fill="none" stroke="black" points="647,-235.5 647,-350.5 "/>
<text text-anchor="middle" x="724.5" y="-318.3" font-family="Times,serif" font-size="14.00">OUT</text>
<polyline fill="none" stroke="black" points="647,-293.5 802,-293.5 "/>
<text text-anchor="middle" x="724.5" y="-260.8" font-family="Times,serif" font-size="14.00">outputnode.out_file</text>
</g>
<!-- refinement_wfinputnode&#45;&gt;refinement_wfsegs_to_native_aseg -->
<g id="edge2" class="edge">
<title>refinement_wfinputnode:e&#45;&gt;refinement_wfsegs_to_native_aseg:w</title>
<path fill="none" stroke="black" d="M267,-468.5C303.22,-468.5 266.48,-423.22 266,-387 265.64,-359.88 241.85,-326.94 255.2,-318.21"/>
<polygon fill="black" stroke="black" points="256.01,-321.61 265,-316 254.48,-314.78 256.01,-321.61"/>
</g>
<!-- refinement_wfinputnode&#45;&gt;refinement_wfsegs_to_native_aseg -->
<g id="edge4" class="edge">
<title>refinement_wfinputnode:e&#45;&gt;refinement_wfsegs_to_native_aseg:w</title>
<path fill="none" stroke="black" d="M267,-444.5C330.26,-444.5 213.46,-310.79 254.92,-294.6"/>
<polygon fill="black" stroke="black" points="255.67,-298.02 265,-293 254.58,-291.11 255.67,-298.02"/>
</g>
<!-- refinement_wfinputnode&#45;&gt;refinement_wfsegs_to_native_aseg -->
<g id="edge5" class="edge">
<title>refinement_wfinputnode:e&#45;&gt;refinement_wfsegs_to_native_aseg:w</title>
<path fill="none" stroke="black" d="M267,-421.5C298.34,-421.5 266.42,-382.33 266,-351 265.58,-319.22 237.06,-280.42 255.16,-271.77"/>
<polygon fill="black" stroke="black" points="255.78,-275.21 265,-270 254.54,-268.32 255.78,-275.21"/>
</g>
<!-- refinement_wfinputnode&#45;&gt;refinement_wfsegs_to_native_aseg -->
<g id="edge6" class="edge">
<title>refinement_wfinputnode:e&#45;&gt;refinement_wfsegs_to_native_aseg:w</title>
<path fill="none" stroke="black" d="M267,-398.5C288.12,-398.5 266.32,-372.11 266,-351 265.35,-308.75 226.43,-256.85 255.05,-248.24"/>
<polygon fill="black" stroke="black" points="255.51,-251.71 265,-247 254.64,-244.76 255.51,-251.71"/>
</g>
<!-- refinement_wfrefine -->
<g id="node3" class="node">
<title>refinement_wfrefine</title>
<polygon fill="none" stroke="black" points="830.5,-106.5 830.5,-198.5 1057.5,-198.5 1057.5,-106.5 830.5,-106.5"/>
<text text-anchor="middle" x="865.5" y="-183.3" font-family="Times,serif" font-size="14.00">IN</text>
<polyline fill="none" stroke="black" points="830.5,-175.5 900.5,-175.5 "/>
<text text-anchor="middle" x="865.5" y="-160.3" font-family="Times,serif" font-size="14.00">in_anat</text>
<polyline fill="none" stroke="black" points="830.5,-152.5 900.5,-152.5 "/>
<text text-anchor="middle" x="865.5" y="-137.3" font-family="Times,serif" font-size="14.00">in_ants</text>
<polyline fill="none" stroke="black" points="830.5,-129.5 900.5,-129.5 "/>
<text text-anchor="middle" x="865.5" y="-114.3" font-family="Times,serif" font-size="14.00">in_aseg</text>
<polyline fill="none" stroke="black" points="900.5,-106.5 900.5,-198.5 "/>
<text text-anchor="middle" x="945" y="-179.8" font-family="Times,serif" font-size="14.00">refine</text>
<polyline fill="none" stroke="black" points="900.5,-168.5 989.5,-168.5 "/>
<text text-anchor="middle" x="945" y="-149.3" font-family="Times,serif" font-size="14.00">freesurfer</text>
<polyline fill="none" stroke="black" points="900.5,-137.5 989.5,-137.5 "/>
<text text-anchor="middle" x="945" y="-118.3" font-family="Times,serif" font-size="14.00"> </text>
<polyline fill="none" stroke="black" points="989.5,-106.5 989.5,-198.5 "/>
<text text-anchor="middle" x="1023.5" y="-171.8" font-family="Times,serif" font-size="14.00">OUT</text>
<polyline fill="none" stroke="black" points="989.5,-152.5 1057.5,-152.5 "/>
<text text-anchor="middle" x="1023.5" y="-125.8" font-family="Times,serif" font-size="14.00">out_file</text>
</g>
<!-- refinement_wfinputnode&#45;&gt;refinement_wfrefine -->
<g id="edge1" class="edge">
<title>refinement_wfinputnode:e&#45;&gt;refinement_wfrefine:w</title>
<path fill="none" stroke="black" d="M267,-491.5C391.86,-491.5 730.41,-446.36 811,-351 869.12,-282.23 745.97,-151.77 818.58,-141.19"/>
<polygon fill="black" stroke="black" points="819.25,-144.65 829,-140.5 818.79,-137.66 819.25,-144.65"/>
</g>
<!-- refinement_wfinputnode&#45;&gt;refinement_wfrefine -->
<g id="edge3" class="edge">
<title>refinement_wfinputnode:e&#45;&gt;refinement_wfrefine:w</title>
<path fill="none" stroke="black" d="M267,-444.5C330.85,-444.5 792.69,-399.68 834,-351 877.73,-299.47 834.71,-266.41 830,-199 829.36,-189.79 823.57,-179.18 822.41,-172.18"/>
<polygon fill="black" stroke="black" points="825.14,-174.37 829,-164.5 819.83,-169.81 825.14,-174.37"/>
</g>
<!-- refinement_wfsegs_to_native_aseg&#45;&gt;refinement_wfrefine -->
<g id="edge8" class="edge">
<title>refinement_wfsegs_to_native_aseg:e&#45;&gt;refinement_wfrefine:w</title>
<path fill="none" stroke="black" d="M803,-264C817.14,-264 814.02,-156.79 823.17,-125.8"/>
<polygon fill="black" stroke="black" points="826.11,-127.69 829,-117.5 820.39,-123.67 826.11,-127.69"/>
</g>
<!-- refinement_wfoutputnode -->
<g id="node4" class="node">
<title>refinement_wfoutputnode</title>
<polygon fill="none" stroke="black" points="1058.5,-0.5 1058.5,-69.5 1327.5,-69.5 1327.5,-0.5 1058.5,-0.5"/>
<text text-anchor="middle" x="1119.5" y="-48.8" font-family="Times,serif" font-size="14.00">IN</text>
<polyline fill="none" stroke="black" points="1058.5,-35.5 1180.5,-35.5 "/>
<text text-anchor="middle" x="1119.5" y="-14.3" font-family="Times,serif" font-size="14.00">out_brainmask</text>
<polyline fill="none" stroke="black" points="1180.5,-0.5 1180.5,-69.5 "/>
<text text-anchor="middle" x="1229.5" y="-54.3" font-family="Times,serif" font-size="14.00">outputnode</text>
<polyline fill="none" stroke="black" points="1180.5,-46.5 1278.5,-46.5 "/>
<text text-anchor="middle" x="1229.5" y="-31.3" font-family="Times,serif" font-size="14.00">utility</text>
<polyline fill="none" stroke="black" points="1180.5,-23.5 1278.5,-23.5 "/>
<text text-anchor="middle" x="1229.5" y="-8.3" font-family="Times,serif" font-size="14.00"> </text>
<polyline fill="none" stroke="black" points="1278.5,-0.5 1278.5,-69.5 "/>
<text text-anchor="middle" x="1303" y="-31.3" font-family="Times,serif" font-size="14.00">OUT</text>
</g>
<!-- refinement_wfrefine&#45;&gt;refinement_wfoutputnode -->
<g id="edge7" class="edge">
<title>refinement_wfrefine:e&#45;&gt;refinement_wfoutputnode:w</title>
<path fill="none" stroke="black" d="M1059,-129.5C1104.11,-129.5 1024.39,-37.14 1047.07,-20.54"/>
<polygon fill="black" stroke="black" points="1048.18,-23.87 1057,-18 1046.44,-17.09 1048.18,-23.87"/>
</g>
</g>
</svg>
