<?xml version="1.0" encoding="UTF-8" standalone="no"?>
<!DOCTYPE svg PUBLIC "-//W3C//DTD SVG 1.1//EN"
 "http://www.w3.org/Graphics/SVG/1.1/DTD/svg11.dtd">
<!-- Generated by graphviz version 2.43.0 (0)
 -->
<!-- Title: structs Pages: 1 -->
<svg width="1074pt" height="594pt"
 viewBox="0.00 0.00 1073.50 594.00" xmlns="http://www.w3.org/2000/svg" xmlns:xlink="http://www.w3.org/1999/xlink">
<g id="graph0" class="graph" transform="scale(1 1) rotate(0) translate(4 590)">
<title>structs</title>
<polygon fill="white" stroke="transparent" points="-4,4 -4,-590 1069.5,-590 1069.5,4 -4,4"/>
<!-- segs_to_native_aseginputnode -->
<g id="node1" class="node">
<title>segs_to_native_aseginputnode</title>
<polygon fill="none" stroke="black" points="0,-470.5 0,-585.5 266,-585.5 266,-470.5 0,-470.5"/>
<text text-anchor="middle" x="17" y="-524.3" font-family="Times,serif" font-size="14.00">IN</text>
<polyline fill="none" stroke="black" points="34,-470.5 34,-585.5 "/>
<text text-anchor="middle" x="78.5" y="-562.8" font-family="Times,serif" font-size="14.00">inputnode</text>
<polyline fill="none" stroke="black" points="34,-547.5 123,-547.5 "/>
<text text-anchor="middle" x="78.5" y="-524.8" font-family="Times,serif" font-size="14.00">utility</text>
<polyline fill="none" stroke="black" points="34,-509.5 123,-509.5 "/>
<text text-anchor="middle" x="78.5" y="-486.3" font-family="Times,serif" font-size="14.00"> </text>
<polyline fill="none" stroke="black" points="123,-470.5 123,-585.5 "/>
<text text-anchor="middle" x="194.5" y="-570.3" font-family="Times,serif" font-size="14.00">OUT</text>
<polyline fill="none" stroke="black" points="123,-562.5 266,-562.5 "/>
<text text-anchor="middle" x="194.5" y="-547.3" font-family="Times,serif" font-size="14.00">fsnative2t1w_xfm</text>
<polyline fill="none" stroke="black" points="123,-539.5 266,-539.5 "/>
<text text-anchor="middle" x="194.5" y="-524.3" font-family="Times,serif" font-size="14.00">in_file</text>
<polyline fill="none" stroke="black" points="123,-516.5 266,-516.5 "/>
<text text-anchor="middle" x="194.5" y="-501.3" font-family="Times,serif" font-size="14.00">subject_id</text>
<polyline fill="none" stroke="black" points="123,-493.5 266,-493.5 "/>
<text text-anchor="middle" x="194.5" y="-478.3" font-family="Times,serif" font-size="14.00">subjects_dir</text>
</g>
<!-- segs_to_native_asegfs_datasource -->
<g id="node2" class="node">
<title>segs_to_native_asegfs_datasource</title>
<polygon fill="none" stroke="black" points="266,-364.5 266,-433.5 534,-433.5 534,-364.5 266,-364.5"/>
<text text-anchor="middle" x="317.5" y="-418.3" font-family="Times,serif" font-size="14.00">IN</text>
<polyline fill="none" stroke="black" points="266,-410.5 369,-410.5 "/>
<text text-anchor="middle" x="317.5" y="-395.3" font-family="Times,serif" font-size="14.00">subject_id</text>
<polyline fill="none" stroke="black" points="266,-387.5 369,-387.5 "/>
<text text-anchor="middle" x="317.5" y="-372.3" font-family="Times,serif" font-size="14.00">subjects_dir</text>
<polyline fill="none" stroke="black" points="369,-364.5 369,-433.5 "/>
<text text-anchor="middle" x="426.5" y="-418.3" font-family="Times,serif" font-size="14.00">fs_datasource</text>
<polyline fill="none" stroke="black" points="369,-410.5 484,-410.5 "/>
<text text-anchor="middle" x="426.5" y="-395.3" font-family="Times,serif" font-size="14.00">io</text>
<polyline fill="none" stroke="black" points="369,-387.5 484,-387.5 "/>
<text text-anchor="middle" x="426.5" y="-372.3" font-family="Times,serif" font-size="14.00"> </text>
<polyline fill="none" stroke="black" points="484,-364.5 484,-433.5 "/>
<text text-anchor="middle" x="509" y="-418.3" font-family="Times,serif" font-size="14.00">OUT</text>
<polyline fill="none" stroke="black" points="484,-410.5 534,-410.5 "/>
<text text-anchor="middle" x="509" y="-395.3" font-family="Times,serif" font-size="14.00">T1</text>
<polyline fill="none" stroke="black" points="484,-387.5 534,-387.5 "/>
<text text-anchor="middle" x="509" y="-372.3" font-family="Times,serif" font-size="14.00">aseg</text>
</g>
<!-- segs_to_native_aseginputnode&#45;&gt;segs_to_native_asegfs_datasource -->
<g id="edge6" class="edge">
<title>segs_to_native_aseginputnode:e&#45;&gt;segs_to_native_asegfs_datasource:w</title>
<path fill="none" stroke="black" d="M267,-505C286.6,-505 255.89,-431.62 258.59,-406.97"/>
<polygon fill="black" stroke="black" points="261.46,-408.99 265,-399 256,-404.6 261.46,-408.99"/>
</g>
<!-- segs_to_native_aseginputnode&#45;&gt;segs_to_native_asegfs_datasource -->
<g id="edge7" class="edge">
<title>segs_to_native_aseginputnode:e&#45;&gt;segs_to_native_asegfs_datasource:w</title>
<path fill="none" stroke="black" d="M267,-482C288.34,-482 266.41,-455.33 266,-434 265.6,-413.06 248.17,-387.86 255.48,-379.14"/>
<polygon fill="black" stroke="black" points="256.6,-382.46 265,-376 254.41,-375.81 256.6,-382.46"/>
</g>
<!-- segs_to_native_aseglta -->
<g id="node3" class="node">
<title>segs_to_native_aseglta</title>
<polygon fill="none" stroke="black" points="238,-235.5 238,-327.5 506,-327.5 506,-235.5 238,-235.5"/>
<text text-anchor="middle" x="280.5" y="-312.3" font-family="Times,serif" font-size="14.00">IN</text>
<polyline fill="none" stroke="black" points="238,-304.5 323,-304.5 "/>
<text text-anchor="middle" x="280.5" y="-289.3" font-family="Times,serif" font-size="14.00">in_xfms</text>
<polyline fill="none" stroke="black" points="238,-281.5 323,-281.5 "/>
<text text-anchor="middle" x="280.5" y="-266.3" font-family="Times,serif" font-size="14.00">moving</text>
<polyline fill="none" stroke="black" points="238,-258.5 323,-258.5 "/>
<text text-anchor="middle" x="280.5" y="-243.3" font-family="Times,serif" font-size="14.00">reference</text>
<polyline fill="none" stroke="black" points="323,-235.5 323,-327.5 "/>
<text text-anchor="middle" x="377.5" y="-308.8" font-family="Times,serif" font-size="14.00">lta</text>
<polyline fill="none" stroke="black" points="323,-297.5 432,-297.5 "/>
<text text-anchor="middle" x="377.5" y="-278.3" font-family="Times,serif" font-size="14.00">nitransforms</text>
<polyline fill="none" stroke="black" points="323,-266.5 432,-266.5 "/>
<text text-anchor="middle" x="377.5" y="-247.3" font-family="Times,serif" font-size="14.00"> </text>
<polyline fill="none" stroke="black" points="432,-235.5 432,-327.5 "/>
<text text-anchor="middle" x="469" y="-300.8" font-family="Times,serif" font-size="14.00">OUT</text>
<polyline fill="none" stroke="black" points="432,-281.5 506,-281.5 "/>
<text text-anchor="middle" x="469" y="-254.8" font-family="Times,serif" font-size="14.00">out_xfm</text>
</g>
<!-- segs_to_native_aseginputnode&#45;&gt;segs_to_native_aseglta -->
<g id="edge3" class="edge">
<title>segs_to_native_aseginputnode:e&#45;&gt;segs_to_native_aseglta:w</title>
<path fill="none" stroke="black" d="M267,-551C303,-551 281.25,-502.62 266,-470 255.59,-447.73 234.27,-456.34 224,-434 199.33,-380.36 177.05,-303.2 226.85,-294.34"/>
<polygon fill="black" stroke="black" points="227.32,-297.81 237,-293.5 226.75,-290.83 227.32,-297.81"/>
</g>
<!-- segs_to_native_aseginputnode&#45;&gt;segs_to_native_aseglta -->
<g id="edge4" class="edge">
<title>segs_to_native_aseginputnode:e&#45;&gt;segs_to_native_aseglta:w</title>
<path fill="none" stroke="black" d="M267,-528C292.78,-528 269.37,-495.56 266,-470 263.84,-453.65 260.46,-450.13 257,-434 246.97,-387.2 242.53,-375.65 238,-328 234.97,-296.16 208.28,-257.02 226.99,-248.28"/>
<polygon fill="black" stroke="black" points="227.77,-251.7 237,-246.5 226.54,-244.81 227.77,-251.7"/>
</g>
<!-- segs_to_native_asegresample -->
<g id="node4" class="node">
<title>segs_to_native_asegresample</title>
<polygon fill="none" stroke="black" points="534.5,-106.5 534.5,-198.5 849.5,-198.5 849.5,-106.5 534.5,-106.5"/>
<text text-anchor="middle" x="580.5" y="-183.3" font-family="Times,serif" font-size="14.00">IN</text>
<polyline fill="none" stroke="black" points="534.5,-175.5 626.5,-175.5 "/>
<text text-anchor="middle" x="580.5" y="-160.3" font-family="Times,serif" font-size="14.00">lta_file</text>
<polyline fill="none" stroke="black" points="534.5,-152.5 626.5,-152.5 "/>
<text text-anchor="middle" x="580.5" y="-137.3" font-family="Times,serif" font-size="14.00">source_file</text>
<polyline fill="none" stroke="black" points="534.5,-129.5 626.5,-129.5 "/>
<text text-anchor="middle" x="580.5" y="-114.3" font-family="Times,serif" font-size="14.00">target_file</text>
<polyline fill="none" stroke="black" points="626.5,-106.5 626.5,-198.5 "/>
<text text-anchor="middle" x="671" y="-179.8" font-family="Times,serif" font-size="14.00">resample</text>
<polyline fill="none" stroke="black" points="626.5,-168.5 715.5,-168.5 "/>
<text text-anchor="middle" x="671" y="-149.3" font-family="Times,serif" font-size="14.00">freesurfer</text>
<polyline fill="none" stroke="black" points="626.5,-137.5 715.5,-137.5 "/>
<text text-anchor="middle" x="671" y="-118.3" font-family="Times,serif" font-size="14.00"> </text>
<polyline fill="none" stroke="black" points="715.5,-106.5 715.5,-198.5 "/>
<text text-anchor="middle" x="782.5" y="-171.8" font-family="Times,serif" font-size="14.00">OUT</text>
<polyline fill="none" stroke="black" points="715.5,-152.5 849.5,-152.5 "/>
<text text-anchor="middle" x="782.5" y="-125.8" font-family="Times,serif" font-size="14.00">transformed_file</text>
</g>
<!-- segs_to_native_aseginputnode&#45;&gt;segs_to_native_asegresample -->
<g id="edge5" class="edge">
<title>segs_to_native_aseginputnode:e&#45;&gt;segs_to_native_asegresample:w</title>
<path fill="none" stroke="black" d="M267,-528C331.79,-528 502.85,-484.85 543,-434 597.87,-364.49 574.29,-320.96 553,-235 548.65,-217.44 538.46,-216.53 534,-199 526.09,-167.87 502.94,-127.87 523.05,-119.2"/>
<polygon fill="black" stroke="black" points="523.73,-122.64 533,-117.5 522.55,-115.74 523.73,-122.64"/>
</g>
<!-- segs_to_native_asegfs_datasource&#45;&gt;segs_to_native_aseglta -->
<g id="edge1" class="edge">
<title>segs_to_native_asegfs_datasource:e&#45;&gt;segs_to_native_aseglta:w</title>
<path fill="none" stroke="black" d="M535,-399C550.56,-399 544.48,-375.5 534,-364 444.72,-266.06 326.72,-426.45 238,-328 223.31,-311.7 214.19,-281.26 227.31,-272.14"/>
<polygon fill="black" stroke="black" points="228.27,-275.51 237,-269.5 226.43,-268.76 228.27,-275.51"/>
</g>
<!-- segs_to_native_asegfs_datasource&#45;&gt;segs_to_native_asegresample -->
<g id="edge2" class="edge">
<title>segs_to_native_asegfs_datasource:e&#45;&gt;segs_to_native_asegresample:w</title>
<path fill="none" stroke="black" d="M535,-376C583.25,-376 496.36,-175.86 523.49,-144.59"/>
<polygon fill="black" stroke="black" points="525.2,-147.67 533,-140.5 522.43,-141.23 525.2,-147.67"/>
</g>
<!-- segs_to_native_aseglta&#45;&gt;segs_to_native_asegresample -->
<g id="edge8" class="edge">
<title>segs_to_native_aseglta:e&#45;&gt;segs_to_native_asegresample:w</title>
<path fill="none" stroke="black" d="M507,-258.5C525.2,-258.5 515.88,-192.2 525.27,-170.96"/>
<polygon fill="black" stroke="black" points="527.57,-173.6 533,-164.5 523.08,-168.23 527.57,-173.6"/>
</g>
<!-- segs_to_native_asegoutputnode -->
<g id="node5" class="node">
<title>segs_to_native_asegoutputnode</title>
<polygon fill="none" stroke="black" points="850.5,-0.5 850.5,-69.5 1065.5,-69.5 1065.5,-0.5 850.5,-0.5"/>
<text text-anchor="middle" x="884.5" y="-48.8" font-family="Times,serif" font-size="14.00">IN</text>
<polyline fill="none" stroke="black" points="850.5,-35.5 918.5,-35.5 "/>
<text text-anchor="middle" x="884.5" y="-14.3" font-family="Times,serif" font-size="14.00">out_file</text>
<polyline fill="none" stroke="black" points="918.5,-0.5 918.5,-69.5 "/>
<text text-anchor="middle" x="967.5" y="-54.3" font-family="Times,serif" font-size="14.00">outputnode</text>
<polyline fill="none" stroke="black" points="918.5,-46.5 1016.5,-46.5 "/>
<text text-anchor="middle" x="967.5" y="-31.3" font-family="Times,serif" font-size="14.00">utility</text>
<polyline fill="none" stroke="black" points="918.5,-23.5 1016.5,-23.5 "/>
<text text-anchor="middle" x="967.5" y="-8.3" font-family="Times,serif" font-size="14.00"> </text>
<polyline fill="none" stroke="black" points="1016.5,-0.5 1016.5,-69.5 "/>
<text text-anchor="middle" x="1041" y="-31.3" font-family="Times,serif" font-size="14.00">OUT</text>
</g>
<!-- segs_to_native_asegresample&#45;&gt;segs_to_native_asegoutputnode -->
<g id="edge9" class="edge">
<title>segs_to_native_asegresample:e&#45;&gt;segs_to_native_asegoutputnode:w</title>
<path fill="none" stroke="black" d="M851,-129.5C896.11,-129.5 816.39,-37.14 839.07,-20.54"/>
<polygon fill="black" stroke="black" points="840.18,-23.87 849,-18 838.44,-17.09 840.18,-23.87"/>
</g>
</g>
</svg>
